<!-- Generator: Adobe Illustrator 14.0.0, SVG Export Plug-In . SVG Version: 6.00 Build 43363)  -->
<!DOCTYPE svg PUBLIC "-//W3C//DTD SVG 1.1//EN" "http://www.w3.org/Graphics/SVG/1.1/DTD/svg11.dtd">
<svg version="1.1" id="Layer_1" xmlns="http://www.w3.org/2000/svg" xmlns:xlink="http://www.w3.org/1999/xlink" x="0px" y="0px"
	  viewBox="0 0 1024 768" enable-background="new 0 0 1024 768" xml:space="preserve">
<g>
	<path fill-rule="evenodd" clip-rule="evenodd" d="M542.628,349.143c7.109,0,12.873,5.762,12.873,12.873v94.031
		c0,7.109-5.764,12.873-12.873,12.873h-56.58c-7.109,0-12.873-5.764-12.873-12.873v-94.031c0-7.111,5.764-12.873,12.873-12.873
		H542.628z"/>
	<path fill-rule="evenodd" clip-rule="evenodd" fill="#FFFFFF" d="M535.815,359.303c5.398,0,9.773,4.375,9.773,9.773v71.388
		c0,5.398-4.375,9.773-9.773,9.773H492.86c-5.398,0-9.773-4.375-9.773-9.773v-71.388c0-5.398,4.375-9.773,9.773-9.773H535.815z"/>
	<path fill-rule="evenodd" clip-rule="evenodd" fill="#FFFFFF" d="M533.376,459.242c0,2.264-1.393,4.1-3.109,4.1h-31.328
		c-1.717,0-3.109-1.836-3.109-4.1l0,0c0-2.264,1.393-4.1,3.109-4.1h31.328C531.983,455.143,533.376,456.979,533.376,459.242
		L533.376,459.242z"/>
	<path fill-rule="evenodd" clip-rule="evenodd" fill="#FFFFFF" d="M529.626,353.983c0,0.646-0.523,1.17-1.172,1.17H500.22
		c-0.646,0-1.17-0.523-1.17-1.17l0,0c0-0.648,0.523-1.172,1.17-1.172h28.234C529.103,352.811,529.626,353.334,529.626,353.983
		L529.626,353.983z"/>
</g>
<g>
	<path fill-rule="evenodd" clip-rule="evenodd" d="M525.312,412.717c0,1.865-1.512,3.377-3.377,3.377h-15.193
		c-1.865,0-3.377-1.512-3.377-3.377v-16.908c0-1.865,1.512-3.377,3.377-3.377h15.193c1.865,0,3.377,1.512,3.377,3.377V412.717z"/>
	<circle fill-rule="evenodd" clip-rule="evenodd" cx="514.338" cy="383.758" r="7.766"/>
</g>
<path fill-rule="evenodd" clip-rule="evenodd" d="M533.11,431.254c0-1.643-1.33-2.973-2.971-2.973h-31.604
	c-1.641,0-2.971,1.33-2.971,2.973l0,0c0,1.641,1.33,2.971,2.971,2.971h31.604C531.78,434.225,533.11,432.895,533.11,431.254
	L533.11,431.254z"/>
<g>
	<path fill-rule="evenodd" clip-rule="evenodd" d="M365.155,649.012c0,8.997-7.293,16.291-16.291,16.291H242.673
		c-8.998,0-16.291-7.294-16.291-16.291V500.874c0-8.998,7.293-16.291,16.291-16.291h106.191c8.998,0,16.291,7.293,16.291,16.291
		V649.012z"/>
	<path fill-rule="evenodd" clip-rule="evenodd" fill="#FFFFFF" d="M355.788,632.883c0,7.281-6.31,13.184-14.092,13.184h-91.855
		c-7.781,0-14.092-5.902-14.092-13.184V513.002c0-7.281,6.311-13.184,14.092-13.184h91.855c7.782,0,14.092,5.902,14.092,13.184
		V632.883z"/>
	<circle fill-rule="evenodd" clip-rule="evenodd" fill="#FFFFFF" cx="295.769" cy="655.683" r="5.5"/>
</g>
<path fill-rule="evenodd" clip-rule="evenodd" stroke="#FFFFFF" stroke-width="4" d="M353.462,583.397
	c-0.09-0.068-0.186-0.127-0.277-0.192c-1.541-1.392-3.039-1.886-4.525-1.823c-2.214-0.324-4.547,0.05-6.639,1.245
	c-1.641,0.936-2.92,2.259-3.807,3.783c-0.109,0.055-0.22,0.102-0.33,0.153c-3.236-3.111-8.242-3.873-12.33-1.541
	c-2.104,1.202-3.619,3.033-4.46,5.12c-0.334,0.097-0.696,0.188-1.112,0.263c-3.146-4.373-6.834-12.046-9.406-15.791
	c-2.981-5.224-9.622-7.045-14.832-4.071c-5.212,2.977-7.02,9.621-4.037,14.845c6.057,11.02,22.649,31.654,26.359,41.366
	c-8.828-5.527-25.945,1.633-21.058,12.643c3.272,7.375,9.836,6.625,15.767,8.543c14.482,4.681,38.508,18.157,48.547,28.516
	c14.037-8.426,31.695-19.459,45.734-27.887c-8.642-17.11-11.477-22.933-20.993-42.173
	C377.948,589.99,366.716,567.997,353.462,583.397z"/>
<path fill-rule="evenodd" clip-rule="evenodd" d="M335.027,530.463c0-1.642-2.763-2.972-6.171-2.972h-65.629
	c-3.408,0-6.17,1.33-6.17,2.972l0,0c0,1.641,2.762,2.971,6.17,2.971h65.629C332.265,533.434,335.027,532.104,335.027,530.463
	L335.027,530.463z"/>
<path fill-rule="evenodd" clip-rule="evenodd" d="M335.027,546.929c0-1.641-2.763-2.971-6.171-2.971h-65.629
	c-3.408,0-6.17,1.33-6.17,2.971l0,0c0,1.641,2.762,2.971,6.17,2.971h65.629C332.265,549.899,335.027,548.569,335.027,546.929
	L335.027,546.929z"/>
<path fill-rule="evenodd" clip-rule="evenodd" d="M335.027,563.396c0-1.642-2.763-2.972-6.171-2.972h-65.629
	c-3.408,0-6.17,1.33-6.17,2.972l0,0c0,1.641,2.762,2.971,6.17,2.971h65.629C332.265,566.366,335.027,565.036,335.027,563.396
	L335.027,563.396z"/>
<g>
	<path fill-rule="evenodd" clip-rule="evenodd" d="M774.939,700.293c1.145-19.254-19.924-34.809-23.98-57.965
		c-0.959-5.482-0.744-21.393-0.744-24.191v-87.301c0-10.969-8.895-19.863-19.865-19.863H585.266
		c-10.971,0-19.865,8.895-19.865,19.863v87.301c0,2.805,0.447,20.883-0.744,26.895c-5.746,28.99-26.746,37.219-25.404,55.232
		c-0.041,0.684-0.066,1.377-0.066,2.078c0,11.693,5.998,21.172,13.395,21.172h22.998h168.389h17.645
		c7.396,0,13.395-9.479,13.395-21.172C775.006,701.65,774.98,700.967,774.939,700.293z"/>
	<path fill-rule="evenodd" clip-rule="evenodd" fill="#FFFFFF" d="M727.301,613.885c0,8.285-6.715,15-15,15H602.738
		c-8.283,0-15-6.715-15-15v-65.926c0-8.283,6.717-15,15-15h109.563c8.285,0,15,6.717,15,15V613.885z"/>
	<polygon fill-rule="evenodd" clip-rule="evenodd" fill="#FFFFFF" points="687.92,678.684 657.922,678.684 627.922,678.684 
		618.078,694.625 657.922,694.625 697.764,694.625 	"/>
	<circle fill-rule="evenodd" clip-rule="evenodd" fill="#FFFFFF" cx="657.917" cy="522.354" r="6.481"/>
	<g>
		<rect x="583.006" y="661.57" fill-rule="evenodd" clip-rule="evenodd" fill="#FFFFFF" width="14.84" height="9.268"/>
		<rect x="605.508" y="661.57" fill-rule="evenodd" clip-rule="evenodd" fill="#FFFFFF" width="14.84" height="9.268"/>
		<rect x="628.008" y="661.57" fill-rule="evenodd" clip-rule="evenodd" fill="#FFFFFF" width="14.84" height="9.268"/>
		<rect x="650.508" y="661.57" fill-rule="evenodd" clip-rule="evenodd" fill="#FFFFFF" width="14.838" height="9.268"/>
		<rect x="673.008" y="661.57" fill-rule="evenodd" clip-rule="evenodd" fill="#FFFFFF" width="14.84" height="9.268"/>
		<rect x="695.508" y="661.57" fill-rule="evenodd" clip-rule="evenodd" fill="#FFFFFF" width="14.84" height="9.268"/>
		<rect x="718.008" y="661.57" fill-rule="evenodd" clip-rule="evenodd" fill="#FFFFFF" width="14.84" height="9.268"/>
	</g>
	<g>
		<rect x="583.006" y="644.682" fill-rule="evenodd" clip-rule="evenodd" fill="#FFFFFF" width="14.84" height="9.27"/>
		<rect x="605.508" y="644.682" fill-rule="evenodd" clip-rule="evenodd" fill="#FFFFFF" width="14.84" height="9.27"/>
		<rect x="628.008" y="644.682" fill-rule="evenodd" clip-rule="evenodd" fill="#FFFFFF" width="14.84" height="9.27"/>
		<rect x="650.508" y="644.682" fill-rule="evenodd" clip-rule="evenodd" fill="#FFFFFF" width="14.838" height="9.27"/>
		<rect x="673.008" y="644.682" fill-rule="evenodd" clip-rule="evenodd" fill="#FFFFFF" width="14.84" height="9.27"/>
		<rect x="695.508" y="644.682" fill-rule="evenodd" clip-rule="evenodd" fill="#FFFFFF" width="14.84" height="9.27"/>
		<rect x="718.008" y="644.682" fill-rule="evenodd" clip-rule="evenodd" fill="#FFFFFF" width="14.84" height="9.27"/>
	</g>
</g>
<g>
	<path fill="#7BC043" d="M791.976,515.918c-1.112-1.111-1.8-2.648-1.8-4.346c0-9.659-3.773-18.752-10.625-25.604
		c-6.853-6.854-15.944-10.626-25.604-10.626c-3.395,0-6.146-2.753-6.146-6.146c0-3.395,2.751-6.146,6.146-6.146
		c12.941-0.001,25.122,5.052,34.296,14.226s14.225,21.354,14.225,34.297c0,3.396-2.751,6.146-6.146,6.146
		C794.625,517.719,793.088,517.03,791.976,515.918L791.976,515.918z"/>
	<path fill="#7BC043" d="M773.193,517.59c-1.112-1.112-1.8-2.647-1.801-4.347c0-10.54-8.576-19.116-19.117-19.117
		c-3.395,0-6.147-2.753-6.146-6.146c0-3.395,2.752-6.146,6.146-6.146c17.319,0,31.41,14.092,31.41,31.41
		c0.001,3.395-2.751,6.147-6.146,6.147C775.842,519.391,774.306,518.702,773.193,517.59L773.193,517.59z"/>
	<circle fill-rule="evenodd" clip-rule="evenodd" fill="#7BC043" cx="755.512" cy="509.967" r="7.371"/>
</g>
<polygon fill-rule="evenodd" clip-rule="evenodd" points="677.819,596.277 670.578,585.252 675.825,581.805 654.841,567.824 
	659.339,592.635 664.585,589.189 671.827,600.215 "/>
<text transform="matrix(1 0.0016 -0.0016 1 512 61.3159)" text-anchor="middle" ><tspan id="title" fill="#231F20" font-family="'ArialRoundedMTBold'" font-size="70">Como interagir com este ecrã? </tspan></text>
<text id="subtitle" transform="matrix(1 0.0016 -0.0016 1 512 230.0405)" text-anchor="middle" fill="#7BC043" font-family="'ArialRoundedMTBold'" font-size="95">http://ecra.pt/artes</text>
<g>
	<path fill="#7BC043" d="M596.684,348.42c-1.112-1.111-1.8-2.648-1.8-4.346c0-9.659-3.773-18.752-10.625-25.604
		c-6.853-6.854-15.944-10.626-25.604-10.626c-3.395,0-6.146-2.753-6.146-6.146c0-3.395,2.751-6.146,6.146-6.146
		c12.941-0.001,25.122,5.052,34.296,14.226s14.225,21.354,14.225,34.297c0,3.396-2.751,6.146-6.146,6.146
		C599.333,350.221,597.796,349.533,596.684,348.42L596.684,348.42z"/>
	<path fill="#7BC043" d="M577.901,350.092c-1.112-1.112-1.8-2.647-1.801-4.347c0-10.54-8.576-19.116-19.117-19.117
		c-3.395,0-6.147-2.753-6.146-6.146c0-3.395,2.752-6.146,6.146-6.146c17.319,0,31.41,14.092,31.41,31.41
		c0.001,3.395-2.751,6.147-6.146,6.147C580.55,351.893,579.014,351.205,577.901,350.092L577.901,350.092z"/>
	<circle fill-rule="evenodd" clip-rule="evenodd" fill="#7BC043" cx="560.22" cy="342.469" r="7.371"/>
</g>
<g>
	<path fill="#7BC043" d="M405.92,487.041c-1.112-1.111-1.8-2.648-1.8-4.346c0-9.66-3.773-18.752-10.625-25.604
		c-6.853-6.854-15.944-10.627-25.604-10.627c-3.395,0-6.146-2.752-6.146-6.146s2.751-6.146,6.146-6.146
		c12.941,0,25.122,5.053,34.296,14.227s14.225,21.354,14.225,34.297c0,3.395-2.751,6.146-6.146,6.146
		C408.569,488.842,407.032,488.152,405.92,487.041L405.92,487.041z"/>
	<path fill="#7BC043" d="M387.138,488.713c-1.112-1.113-1.8-2.648-1.801-4.348c0-10.539-8.576-19.115-19.117-19.117
		c-3.395,0-6.147-2.752-6.146-6.146c0-3.395,2.752-6.146,6.146-6.146c17.319,0,31.41,14.092,31.41,31.41
		c0.001,3.395-2.751,6.148-6.146,6.148C389.786,490.514,388.25,489.824,387.138,488.713L387.138,488.713z"/>
	<circle fill-rule="evenodd" clip-rule="evenodd" fill="#7BC043" cx="369.456" cy="481.09" r="7.371"/>
</g>

</svg>
