<?xml version="1.0" encoding="utf-8"?>
<!-- Generator: Adobe Illustrator 14.0.0, SVG Export Plug-In . SVG Version: 6.00 Build 43363)  -->
<!DOCTYPE svg PUBLIC "-//W3C//DTD SVG 1.1//EN" "http://www.w3.org/Graphics/SVG/1.1/DTD/svg11.dtd">
<svg version="1.1" id="Layer_1" xmlns="http://www.w3.org/2000/svg" xmlns:xlink="http://www.w3.org/1999/xlink" x="0px" y="0px"
	 width="114.141px" height="117.659px" viewBox="255.372 374.856 114.141 117.659"
	 enable-background="new 255.372 374.856 114.141 117.659" xml:space="preserve">
<g>
	<path fill="#00A651" d="M278.066,397.038c-0.926,0-1.699-0.129-2.316-0.388c-0.252-0.115-0.463-0.145-0.631-0.086
		c-0.084,0.028-0.197,0.258-0.337,0.688c-0.702,2.756-1.797,5.284-3.285,7.581c-1.91,2.929-3.889,4.394-5.938,4.394
		c-1.573,0-2.752-0.66-3.538-1.98c-0.589-1.063-0.884-2.455-0.884-4.178c0-3.532,1.137-8.012,3.411-13.438
		c2.105-4.968,4.913-8.857,8.423-11.673c3.144-2.584,6.233-3.833,9.265-3.747c2.499,0.058,4.38,0.947,5.643,2.67
		c1.039,1.407,1.558,3.288,1.558,5.644c0,2.584-0.688,5.227-2.063,7.925c-1.488,2.929-3.271,4.839-5.348,5.729
		C280.733,396.751,279.414,397.038,278.066,397.038z M284.236,384.03c0.042-0.488,0.063-0.977,0.063-1.464
		c0-3.245-1.039-4.896-3.116-4.954c-2.583-0.028-5.503,2.097-8.76,6.375c-2.695,3.59-4.521,6.978-5.475,10.165
		c-1.292,4.394-1.937,7.251-1.937,8.571c0,1.178,0.364,1.767,1.095,1.767c1.375,0,2.906-3.059,4.59-9.174
		c0.449-1.751,0.912-4.681,1.39-8.787c0.056-0.488,0.288-0.862,0.695-1.12c0.407-0.258,0.807-0.518,1.2-0.775
		c0.533-0.431,1.038-0.646,1.516-0.646c0.533,0,0.828,0.331,0.884,0.991c0.056,0.774,0.049,1.802-0.021,3.079
		c-0.07,1.278-0.218,2.821-0.442,4.631c-0.084,0.574,0.07,0.891,0.463,0.947c1.909,0.145,3.607-0.747,5.096-2.671
		c1.291-1.579,2.133-3.401,2.527-5.47C284.116,385.006,284.193,384.519,284.236,384.03z"/>
	<path fill="#00A651" d="M309.313,401c-1.178,1.206-2.555,1.938-4.127,2.197c-0.365,0.057-0.724,0.107-1.074,0.15
		c-0.35,0.043-0.723,0.064-1.115,0.064c-1.854,0-3.215-0.301-4.085-0.904c-0.562-0.401-0.842-1.048-0.842-1.938
		c0-0.459,0.083-1.12,0.253-1.981c0.027-0.114,0.041-0.229,0.041-0.345c0-0.086-0.027-0.101-0.084-0.043
		c-0.027,0.029-0.07,0.072-0.125,0.129c-0.057,0.058-0.113,0.144-0.168,0.258c-2.19,3.216-4.408,4.824-6.654,4.824
		c-0.562,0-1.109-0.086-1.642-0.258c-1.264-0.459-1.895-1.464-1.895-3.016c0-0.144,0.007-0.308,0.021-0.496
		c0.014-0.186,0.035-0.394,0.063-0.625c0.112-1.349,1.319-5.584,3.622-12.707c0.196-0.631,0.646-0.946,1.348-0.946
		c0.477,0,1.025,0.101,1.643,0.301c1.123,0.345,1.685,0.804,1.685,1.378c0,0.172-0.07,0.431-0.21,0.775
		c-0.168,0.401-0.4,0.99-0.695,1.766s-0.667,1.766-1.116,2.972c-1.067,2.815-1.657,4.553-1.769,5.212
		c-0.057,0.346-0.105,0.641-0.147,0.884s-0.063,0.438-0.063,0.581c0,0.632,0.379,0.947,1.137,0.947c0.421,0,1.011-0.388,1.769-1.163
		c0.898-0.918,2.049-2.985,3.453-6.201c0.532-1.234,0.969-2.306,1.306-3.209c0.338-0.905,0.604-1.673,0.801-2.306
		c0.309-1.12,1.178-1.606,2.61-1.464c1.319,0.145,1.979,0.474,1.979,0.991c0,0.288-0.1,0.618-0.295,0.991
		c-0.197,0.374-0.744,1.953-1.644,4.737c-0.955,2.872-1.502,4.624-1.642,5.255c-0.254,1.265-0.211,2.068,0.125,2.412
		c0.533,0.546,1.502,0.818,2.906,0.818c0.533,0,1.221-0.258,2.063-0.775c0.478-0.287,0.911-0.596,1.306-0.926
		c0.393-0.33,0.729-0.696,1.01-1.099c0.142-0.172,0.254-0.129,0.338,0.129c0.195,0.489,0.267,1.049,0.211,1.68
		C309.552,400.542,309.454,400.857,309.313,401z"/>
	<path fill="#00A651" d="M319.168,400.871c-1.713,1.695-3.594,2.542-5.644,2.542c-0.504,0-0.982-0.043-1.432-0.129
		c-2.189-0.373-3.285-1.966-3.285-4.781c0-1.953,0.912-6.03,2.737-12.233c1.375-4.479,2.485-7.494,3.327-9.045
		c1.123-2.066,2.428-2.985,3.917-2.756c1.123,0.172,1.685,0.962,1.685,2.369c0,0.775-0.141,1.593-0.42,2.455
		c-0.563,1.809-1.545,3.661-2.949,5.556c-0.336,0.489-0.744,1.265-1.221,2.326c-0.141,0.374-0.344,0.984-0.611,1.831
		c-0.267,0.847-0.582,1.959-0.947,3.338c-0.814,3.073-1.235,5.185-1.264,6.332c-0.027,1.148,0.449,1.724,1.433,1.724
		c0.448,0,0.827-0.144,1.137-0.432c2.302-1.895,3.595-4.437,3.875-7.624c0.028-0.172-0.126-0.351-0.463-0.538
		c-0.337-0.187-0.674-0.365-1.011-0.539c-0.702-0.459-1.053-1.147-1.053-2.066c0-0.747,0.246-1.421,0.736-2.024
		c0.491-0.603,1.088-0.905,1.79-0.905c0.449,0,0.884,0.13,1.306,0.389c1.517,0.86,2.274,2.326,2.274,4.394
		c0,1.493-0.394,3.302-1.179,5.427C321.315,398.144,320.403,399.608,319.168,400.871z"/>
	<path fill="#00A651" d="M336.938,401c-1.178,1.206-2.555,1.938-4.127,2.197c-0.897,0.172-1.74,0.258-2.526,0.258
		c-1.263,0-2.316-0.201-3.158-0.604c-1.124-0.631-1.685-1.708-1.685-3.229c0-0.2,0.006-0.431,0.021-0.689
		c0.015-0.258,0.036-0.56,0.063-0.904c0.225-2.297,0.981-5.771,2.273-10.424c1.038-3.731,2.008-6.763,2.906-9.088
		c0.954-2.584,2.302-3.805,4.043-3.66c0.59,0.058,1.074,0.338,1.453,0.84c0.379,0.503,0.568,1.142,0.568,1.917
		c0,0.488-0.084,1.006-0.254,1.551c-0.588,1.781-1.558,3.59-2.904,5.427c-0.17,0.23-0.465,0.833-0.885,1.81
		c-1.572,4.823-2.668,8.657-3.285,11.5c-0.196,0.804-0.295,1.363-0.295,1.68c0,0.374,0.099,0.661,0.295,0.86
		c0.393,0.403,1.348,0.604,2.863,0.604c0.532,0,1.223-0.258,2.063-0.775c0.478-0.287,0.911-0.596,1.305-0.926
		s0.729-0.696,1.013-1.099c0.14-0.172,0.252-0.129,0.336,0.129c0.196,0.489,0.268,1.049,0.211,1.68
		C337.179,400.542,337.08,400.857,336.938,401z"/>
	<path fill="#00A651" d="M348.437,401c-1.179,1.206-2.556,1.938-4.127,2.197c-0.336,0.057-0.681,0.1-1.031,0.129
		c-0.352,0.028-0.723,0.043-1.115,0.043c-1.798,0-3.047-0.244-3.749-0.732c-0.421-0.314-0.758-0.609-1.011-0.883
		c-0.252-0.271-0.457-0.56-0.61-0.861s-0.253-0.639-0.295-1.012s-0.063-0.817-0.063-1.335c0.029-0.314,0.162-0.969,0.4-1.96
		s0.596-2.304,1.074-3.94c0.279-0.92,0.554-1.838,0.82-2.758c0.268-0.918,0.541-1.837,0.822-2.756
		c0.168-0.718,0.489-1.147,0.969-1.292c1.065-0.314,2.063-0.345,2.99-0.086c0.252,0.059,0.454,0.244,0.608,0.561
		c0.153,0.315,0.204,0.646,0.147,0.99c-0.533,1.609-1.082,3.289-1.643,5.04c-0.563,1.752-1.166,3.59-1.811,5.515
		c-0.227,0.774-0.338,1.32-0.338,1.637c0,0.374,0.099,0.646,0.295,0.818c0.562,0.487,1.572,0.731,3.031,0.731
		c0.533,0,1.223-0.258,2.063-0.774c0.478-0.287,0.911-0.597,1.306-0.927s0.729-0.695,1.012-1.099
		c0.141-0.172,0.252-0.129,0.336,0.129c0.196,0.489,0.268,1.049,0.211,1.68C348.675,400.542,348.576,400.857,348.437,401z
		 M344.813,379.938c-0.336,0-0.631-0.058-0.885-0.173c-0.898-0.401-1.348-1.048-1.348-1.938c0-0.604,0.197-1.277,0.59-2.024
		c0.365-0.774,1.109-1.163,2.232-1.163c0.279,0,0.547,0.043,0.801,0.13c0.896,0.402,1.348,1.092,1.348,2.067
		c0,0.545-0.113,1.021-0.338,1.421C346.541,379.378,345.741,379.938,344.813,379.938z"/>
	<path fill="#00A651" d="M363.092,401c-1.18,1.206-2.555,1.938-4.127,2.197c-0.338,0.057-0.694,0.1-1.073,0.129
		c-0.379,0.028-0.779,0.043-1.201,0.043c-2.387,0-4.437-0.459-6.148-1.378c-2.162-1.264-3.242-3.146-3.242-5.644
		c0-0.487,0.042-0.976,0.127-1.464c0.477-3.015,1.697-5.354,3.663-7.021c1.741-1.437,3.522-2.11,5.349-2.024
		c2.724,0.145,4.142,1.021,4.254,2.627c0.111,1.265-0.268,2.125-1.137,2.584c-0.226,0.145-0.479,0.172-0.759,0.086
		c-0.253,0-0.415-0.086-0.483-0.258c-0.07-0.172-0.135-0.366-0.189-0.582c-0.057-0.215-0.146-0.423-0.273-0.625
		c-0.125-0.201-0.371-0.33-0.736-0.388c-0.871-0.114-1.756,0.129-2.653,0.731c-1.235,0.919-2.021,2.412-2.358,4.479
		c-0.111,0.575-0.168,1.148-0.168,1.723c0,1.351,0.49,2.484,1.475,3.403c1.095,1.063,2.779,1.521,5.054,1.378
		c0.59-0.057,1.276-0.315,2.063-0.775c0.478-0.286,0.912-0.588,1.306-0.903c0.394-0.316,0.729-0.674,1.011-1.077
		c0.141-0.172,0.253-0.129,0.338,0.129c0.195,0.489,0.266,1.049,0.211,1.68C363.33,400.542,363.231,400.857,363.092,401z"/>
</g>
<g>
	<path fill="#ED1C24" d="M324.062,414.387c2.523,0,5.049,0,7.571,0c1.31,0.053,2.753,0.143,3.966,0.146
		c2.619,0.003,5.346,0.2,7.746,0.36c1.266,0.086,2.211,0.55,2.938,1.195c0.721,0.639,1.331,1.461,1.591,2.533
		c0.277,1.132,0.32,2.375,0.461,3.726c0.523,5.115,0.383,10.9-0.389,15.561c-0.37,2.229-1.928,3.75-4.176,4.125
		c-1.213,0.203-2.531,0.178-3.822,0.254c-3.93,0.236-8.021,0.252-11.994,0.252c-2.805,0-5.457,0.049-8.03-0.072
		c-2.634-0.123-5.144-0.113-7.606-0.396c-2.262-0.262-3.881-1.842-4.281-3.98c-0.848-4.539-0.926-10.637-0.46-15.705
		c0.118-1.292,0.245-2.607,0.495-3.69c0.478-2.081,2.201-3.606,4.422-3.836c1.16-0.121,2.471-0.133,3.855-0.183
		C318.866,414.586,321.562,414.461,324.062,414.387z M310.972,419.019c0,0.82,0,1.641,0,2.461c0.885,0.084,1.922,0.012,2.866,0.035
		c0.022,5.248-0.048,10.59,0.035,15.779c0.804,0.061,1.849,0.061,2.653,0c0.105-5.176-0.037-10.604,0.07-15.779
		c0.944-0.023,1.98,0.049,2.866-0.035c-0.024-0.845,0.048-1.786-0.036-2.571c-2.795,0-5.589,0-8.384,0
		C310.998,418.925,310.97,418.957,310.972,419.019z M328.873,419.019c0,6.092,0,12.182,0,18.274c0.724,0.061,1.687,0.061,2.405,0
		c0.082-0.34,0.017-0.832,0.035-1.23c0.729,0.703,1.389,1.506,2.619,1.447c2.375-0.111,2.055-3.189,2.055-6.006
		c0-2.037,0.084-3.961-0.036-5.43c-0.134-1.596-0.812-2.813-2.405-2.643c-1.052,0.115-1.618,0.873-2.23,1.375
		c0-1.951,0-3.906,0-5.86c-0.73-0.084-1.615-0.015-2.405-0.037C328.871,418.915,328.872,418.967,328.873,419.019z M344.619,425.169
		c-0.586-1.098-1.755-1.895-3.505-1.738c-1.272,0.117-2.241,0.846-2.723,1.738c-0.69,1.283-0.533,3.324-0.533,5.283
		c0,0.998-0.057,2.021,0,2.932c0.146,2.203,1.117,3.803,3.009,4.088c0.635,0.096,1.157,0.092,1.771-0.07
		c1.807-0.48,2.737-2.178,2.512-4.814c-0.756-0.082-1.662-0.01-2.476-0.035c0.134,1.479-0.169,3.205-1.628,2.605
		c-1.113-0.455-0.665-2.73-0.707-4.232c1.594-0.023,3.275,0.047,4.811-0.037C345.09,428.726,345.377,426.591,344.619,425.169z
		 M319.78,423.685c0,1.777,0,3.82,0,5.936c0,2.068-0.104,4.111,0.037,5.896c0.054,0.684,0.271,1.375,0.636,1.664
		c0.979,0.785,2.431,0.021,3.044-0.506c0.324-0.277,0.585-0.602,0.85-0.758c0,0.457,0,0.916,0,1.375
		c0.721,0.059,1.684,0.063,2.406,0c0.057-4.477,0.057-9.205,0-13.682c-0.723-0.061-1.686-0.059-2.406,0c0,3.486,0,6.975,0,10.459
		c-0.334,0.363-0.877,1.402-1.734,1.158c-0.582-0.168-0.391-1.734-0.391-2.605c0-3.033,0-6.264,0-9.012
		c-0.721-0.08-1.589-0.014-2.371-0.033C319.804,423.587,319.813,423.658,319.78,423.685z"/>
	<path d="M279.234,418.909c0.92,0,1.84,0,2.76,0c0.648,2.341,1.279,4.7,1.876,7.092c0.288-0.539,0.339-1.18,0.493-1.771
		c0.453-1.729,0.932-3.563,1.38-5.321c0.908,0,1.816,0,2.726,0c-0.879,3.127-1.89,6.364-2.829,9.553
		c-0.137,0.459-0.336,0.957-0.391,1.375c-0.157,1.191,0,2.516,0,3.762s0.029,2.486-0.037,3.73c-0.883,0-1.769,0-2.652,0
		c-0.225-2.516,0.175-5.074-0.035-7.49c-0.083-0.934-0.439-1.938-0.707-2.857c-0.785-2.688-1.793-5.381-2.62-7.962
		C279.196,418.967,279.194,418.915,279.234,418.909z"/>
	<path d="M291.583,423.47c1.581-0.182,2.937,0.498,3.574,1.736c0.617,1.201,0.529,3.412,0.529,5.281c0,1.932,0.115,4.014-0.529,5.25
		c-0.417,0.795-1.167,1.424-2.018,1.664c-0.748,0.209-1.928,0.154-2.687-0.221c-0.637-0.311-1.235-0.951-1.521-1.59
		c-0.484-1.072-0.461-2.939-0.461-4.668c0-2.256-0.156-4.223,0.425-5.537C289.324,424.414,290.312,423.615,291.583,423.47z
		 M290.946,427.558c0,1.162,0,3.131,0,4.271c0,1.383-0.198,3.244,0.956,3.4c1.802,0.248,1.309-3.061,1.309-4.775
		c0-1.797,0.477-5.035-1.309-4.742C291.126,425.839,290.946,426.58,290.946,427.558z"/>
	<path d="M297.739,423.58c0.767,0,1.532,0,2.302,0c0.063,2.922,0.033,5.957,0.033,9.082c0,0.752-0.171,2.416,0.426,2.568
		c0.649,0.168,1.595-0.758,1.696-1.193c0.084-0.352,0-0.904,0-1.34c0-2.928-0.026-6.271,0.037-9.117
		c0.791,0.02,1.674-0.049,2.406,0.033c0,4.561,0,9.121,0,13.682c-0.732,0.061-1.709,0.063-2.441,0c0-0.459,0-0.918,0-1.375
		c-0.338,0.213-0.641,0.654-1.063,0.977c-0.82,0.627-2.65,0.996-3.218-0.219c-0.156-0.328-0.22-0.799-0.247-1.193
		c-0.131-1.762,0-3.84,0-5.898c0-2.074,0-4.145,0-5.898C297.668,423.625,297.694,423.591,297.739,423.58z"/>
	<path fill="#ED1C24" d="M332.801,435.23c-0.754,0.059-1.163-0.232-1.485-0.617c0-1.93,0-4.137,0-6.225c0-0.65-0.142-1.547,0-2.061
		c0.127-0.457,1.127-0.855,1.664-0.543c0.906,0.52,0.566,3.012,0.566,4.668c0,1.234,0.09,2.512,0,3.473
		C333.487,434.537,333.229,435.056,332.801,435.23z"/>
	<path fill="#ED1C24" d="M342.709,428.861c-0.801,0-1.604,0-2.405,0c0.041-0.896-0.117-2.045,0.248-2.68
		c0.235-0.41,0.86-0.688,1.448-0.434C342.862,426.125,342.69,427.554,342.709,428.861z"/>
</g>
<g>
	<path fill="#00A651" d="M272.301,476.794c-0.926,0-1.699-0.131-2.316-0.389c-0.252-0.113-0.463-0.145-0.631-0.086
		c-0.084,0.027-0.197,0.258-0.337,0.688c-0.702,2.758-1.797,5.285-3.285,7.582c-1.91,2.928-3.889,4.395-5.938,4.395
		c-1.573,0-2.752-0.662-3.538-1.982c-0.589-1.063-0.884-2.455-0.884-4.178c0-3.531,1.137-8.012,3.411-13.439
		c2.105-4.967,4.913-8.855,8.423-11.672c3.144-2.584,6.233-3.834,9.265-3.748c2.499,0.061,4.38,0.949,5.643,2.672
		c1.039,1.406,1.558,3.287,1.558,5.643c0,2.584-0.688,5.227-2.063,7.926c-1.488,2.93-3.271,4.84-5.348,5.729
		C274.968,476.507,273.649,476.794,272.301,476.794z M278.471,463.787c0.042-0.488,0.063-0.979,0.063-1.465
		c0-3.246-1.039-4.896-3.116-4.953c-2.583-0.029-5.503,2.096-8.76,6.373c-2.695,3.59-4.521,6.979-5.475,10.166
		c-1.292,4.393-1.937,7.252-1.937,8.572c0,1.176,0.364,1.766,1.095,1.766c1.375,0,2.906-3.059,4.59-9.176
		c0.449-1.75,0.912-4.68,1.39-8.785c0.056-0.488,0.288-0.861,0.695-1.121c0.407-0.258,0.807-0.516,1.2-0.775
		c0.533-0.43,1.038-0.645,1.516-0.645c0.533,0,0.828,0.33,0.884,0.99c0.056,0.775,0.049,1.803-0.021,3.08
		c-0.07,1.277-0.218,2.82-0.442,4.631c-0.084,0.574,0.07,0.891,0.463,0.945c1.909,0.146,3.607-0.744,5.096-2.67
		c1.291-1.578,2.133-3.402,2.527-5.471C278.351,464.763,278.429,464.275,278.471,463.787z"/>
	<path fill="#00A651" d="M293.737,480.757c-1.179,1.205-2.555,1.938-4.127,2.195c-0.898,0.172-1.741,0.26-2.527,0.26
		c-1.263,0-2.316-0.201-3.158-0.604c-1.124-0.633-1.685-1.709-1.685-3.23c0-0.201,0.007-0.432,0.021-0.689
		c0.015-0.258,0.036-0.561,0.063-0.904c0.225-2.297,0.982-5.771,2.274-10.424c1.038-3.732,2.007-6.762,2.906-9.088
		c0.954-2.584,2.302-3.805,4.043-3.66c0.589,0.057,1.074,0.338,1.453,0.84s0.569,1.141,0.569,1.916c0,0.488-0.084,1.006-0.253,1.551
		c-0.589,1.781-1.558,3.59-2.906,5.428c-0.168,0.23-0.463,0.832-0.884,1.809c-1.573,4.824-2.667,8.658-3.285,11.502
		c-0.196,0.803-0.294,1.363-0.294,1.68c0,0.373,0.098,0.66,0.294,0.861c0.393,0.4,1.348,0.604,2.864,0.604
		c0.533,0,1.222-0.26,2.064-0.775c0.477-0.287,0.912-0.596,1.305-0.928c0.393-0.328,0.73-0.693,1.011-1.098
		c0.14-0.172,0.253-0.129,0.337,0.129c0.196,0.488,0.267,1.049,0.211,1.68C293.975,480.298,293.877,480.613,293.737,480.757z"/>
	<path fill="#00A651" d="M315.088,480.757c-1.179,1.205-2.555,1.938-4.127,2.195c-0.337,0.059-0.688,0.102-1.053,0.129
		c-0.365,0.029-0.745,0.043-1.138,0.043c-1.965,0-3.306-0.264-4.021-0.797c-0.716-0.529-1.074-1.229-1.074-2.088
		c0-0.402,0.112-1.033,0.338-1.896c0.026-0.113,0.026-0.201,0-0.258c-0.058-0.029-0.135,0-0.232,0.086
		c-0.1,0.086-0.176,0.188-0.231,0.301c-0.421,0.861-1.179,1.795-2.274,2.801c-1.571,1.438-3.073,2.152-4.505,2.152
		c-1.376,0-2.443-0.473-3.201-1.42c-0.786-0.891-1.179-2.053-1.179-3.49c0-1.865,0.562-3.891,1.685-6.072
		c1.123-2.211,2.695-3.891,4.717-5.039c1.517-0.861,3.046-1.307,4.59-1.336c1.151-0.027,2.204,0.217,3.159,0.732
		c0.449,0.258,0.758,0.23,0.926-0.086c0.196-0.314,0.365-0.545,0.506-0.689c0.225-0.229,0.448-0.389,0.674-0.475
		c0.279-0.086,0.813-0.043,1.601,0.129c0.786,0.146,1.276,0.303,1.474,0.475c0.28,0.316,0.323,0.748,0.127,1.293
		c-0.395,0.861-1.18,2.643-2.358,5.342c-0.449,1.063-0.821,2.002-1.116,2.82c-0.294,0.818-0.541,1.529-0.736,2.133
		c-0.197,0.604-0.296,1.104-0.296,1.508c0,0.373,0.099,0.66,0.296,0.861c0.448,0.459,1.389,0.688,2.821,0.688
		c0.533,0,1.222-0.258,2.063-0.773c0.477-0.287,0.912-0.598,1.306-0.928s0.729-0.695,1.011-1.098
		c0.141-0.174,0.252-0.131,0.337,0.129c0.196,0.488,0.267,1.049,0.21,1.68C315.326,480.298,315.228,480.613,315.088,480.757z
		 M305.991,470.031c0-0.488-0.479-0.746-1.432-0.775c-0.843-0.057-1.869,0.303-3.074,1.078c-1.152,0.775-2.078,1.709-2.78,2.799
		c-1.263,2.039-1.895,3.762-1.895,5.168c0,1.352,0.505,2.025,1.516,2.025c0.532,0,1.165-0.373,1.896-1.119
		c0.139-0.145,0.357-0.396,0.652-0.754c0.295-0.359,0.682-0.826,1.158-1.4c1.291-1.607,2.597-3.861,3.916-6.762
		C305.978,470.232,305.991,470.146,305.991,470.031z"/>
	<path fill="#00A651" d="M335.513,480.757c-1.179,1.205-2.556,1.938-4.127,2.195c-0.59,0.145-1.474,0.229-2.652,0.26
		c-0.787,0.057-1.307,0.172-1.56,0.344c-0.196,0.174-0.562,0.561-1.095,1.162c-0.057,0.088-0.534,1.049-1.432,2.889
		c-0.871,1.723-1.615,2.855-2.232,3.4c-1.15,1.006-2.12,1.508-2.906,1.508c-1.208,0-1.811-0.574-1.811-1.723
		c0-0.604,0.21-1.336,0.632-2.197c0.394-0.773,1.065-1.623,2.021-2.541c0.814-0.746,1.459-1.264,1.938-1.551
		c0.111-0.057,0.225-0.229,0.337-0.516c0.618-1.752,1.291-3.605,2.021-5.559c0.141-0.229,0.099-0.344-0.125-0.344
		c-0.142,0-0.269,0.1-0.379,0.301c-0.506,0.861-1.334,1.795-2.484,2.801c-1.573,1.32-3.006,1.908-4.297,1.766
		c-0.28,0-0.575-0.086-0.883-0.258c-0.31-0.172-0.598-0.389-0.863-0.646c-0.268-0.26-0.5-0.561-0.695-0.904
		c-0.195-0.346-0.322-0.703-0.379-1.076c-0.027-0.201-0.049-0.416-0.063-0.646c-0.015-0.229-0.021-0.459-0.021-0.688
		c0-2.068,0.52-4.639,1.559-7.711c0.393-1.178,0.778-2.189,1.157-3.037s0.724-1.543,1.032-2.088c0.253-0.432,0.66-0.689,1.221-0.775
		c0.141-0.029,0.274-0.051,0.4-0.064s0.244-0.021,0.357-0.021c0.646,0,1.291,0.244,1.938,0.73c0.365,0.289,0.393,0.678,0.084,1.164
		c-0.253,0.402-0.928,2.039-2.021,4.91c-1.15,3.072-1.74,4.854-1.769,5.342c-0.056,1.178,0.196,1.865,0.758,2.066
		c0.729,0.23,1.488,0.043,2.274-0.561c0.955-0.746,2.203-2.697,3.748-5.857c0.478-1.09,0.955-2.189,1.433-3.295
		s0.97-2.232,1.474-3.381c0.112-0.258,0.407-0.475,0.885-0.646c0.14-0.059,0.463-0.059,0.969,0c0.477,0.027,0.842,0.102,1.095,0.215
		c0.478,0.23,0.716,0.574,0.716,1.033c0,0.201-1.502,4.781-4.506,13.74c-0.027,0.201-0.07,0.346-0.126,0.432
		c0,0.059,0.028,0.115,0.084,0.172c0.027,0,0.112-0.014,0.253-0.043c0.139-0.027,0.59-0.086,1.348-0.172
		c0.111-0.027,0.336-0.043,0.674-0.043c0.365,0,0.828-0.016,1.39-0.043c0.675-0.059,1.474-0.389,2.401-0.992
		c0.813-0.572,1.473-1.176,1.979-1.809c0.141-0.172,0.254-0.129,0.338,0.129c0.195,0.488,0.267,1.049,0.209,1.68
		C335.751,480.298,335.651,480.613,335.513,480.757z"/>
	<path fill="#00A651" d="M351.769,480.757c-1.18,1.205-2.556,1.953-4.127,2.238c-1.236,0.26-2.625,0.389-4.17,0.389
		c-3.229,0-5.502-0.545-6.822-1.637c-1.517-1.293-2.273-3.072-2.273-5.342c0-1.98,0.563-4.105,1.686-6.375
		c0.813-1.637,1.951-2.855,3.41-3.66c1.207-0.689,2.457-1.035,3.748-1.035c0.73,0,1.307,0.104,1.727,0.303
		c1.63,0.719,2.443,2.109,2.443,4.178c0,0.461-0.043,0.947-0.127,1.465c-0.225,1.379-1.236,3.059-3.031,5.041
		c-0.563,0.631-1.117,1.199-1.664,1.701s-1.088,0.953-1.621,1.355c-0.141,0.145-0.211,0.23-0.211,0.258
		c0,0.115,0.168,0.258,0.506,0.432c1.234,0.719,3.187,0.947,5.855,0.689c1.739-0.174,3.215-1.092,4.422-2.758
		c0.141-0.172,0.252-0.129,0.336,0.129c0.196,0.488,0.268,1.049,0.211,1.68C352.006,480.298,351.908,480.613,351.769,480.757z
		 M341.64,469.494c-0.688,0.531-1.229,1.227-1.621,2.088c-0.898,1.924-1.349,3.533-1.349,4.824c0,0.92,0.281,1.178,0.843,0.775
		c1.881-1.207,3.313-2.672,4.297-4.395c0.616-1.063,0.926-1.938,0.926-2.627c0-0.977-0.406-1.465-1.221-1.465
		C342.951,468.697,342.327,468.962,341.64,469.494z"/>
	<path fill="#00A651" d="M369.203,480.757c-1.236,1.264-2.611,1.996-4.127,2.195c-2.556,0.432-4.443,0.357-5.665-0.215
		c-1.223-0.574-1.832-1.438-1.832-2.584c0-0.287,0.042-0.631,0.126-1.033c0.142-0.662,0.315-1.352,0.526-2.068
		s0.47-1.492,0.779-2.326c0.448-1.293,0.785-2.125,1.01-2.498c0.196-0.344,0.196-0.73,0-1.162c-0.195-0.402-0.758-0.861-1.684-1.379
		c-0.227-0.145-0.408-0.014-0.549,0.389c-0.701,1.781-1.234,3.123-1.6,4.025c-0.367,0.904-0.563,1.387-0.59,1.443
		c-1.181,2.385-2.652,4.322-4.423,5.814c-1.095,0.861-2.26,1.395-3.495,1.594c-0.168,0.059-0.295-0.027-0.38-0.258
		c-0.194-0.432-0.294-0.904-0.294-1.422c0-0.26,0.057-0.402,0.169-0.432c1.011-0.229,1.824-0.574,2.441-1.033
		c0.448-0.346,1.082-0.99,1.896-1.938c0.563-0.717,1.264-1.953,2.106-3.705c0.926-1.922,1.642-3.818,2.146-5.686
		c0.028-0.113,0.049-0.193,0.064-0.236c0.014-0.043,0.021-0.078,0.021-0.107c-0.029-0.172-0.127-0.432-0.295-0.775
		c-0.17-0.344-0.254-0.703-0.254-1.076c0-0.113,0.008-0.244,0.021-0.387c0.014-0.145,0.035-0.287,0.063-0.432
		c0.309-1.637,1.109-2.439,2.4-2.412c1.096,0.027,1.699,0.732,1.813,2.109c0.027,0.26-0.043,0.633-0.211,1.121
		c-0.057,0.172-0.057,0.301,0,0.387c0.055,0.086,0.182,0.18,0.379,0.279c0.195,0.102,0.463,0.23,0.801,0.389
		c0.336,0.158,0.758,0.381,1.263,0.668c1.012,0.574,1.687,1.006,2.021,1.291c0.563,0.49,0.787,1.107,0.674,1.854
		c-0.084,0.461-0.574,1.809-1.473,4.049c-0.449,1.092-0.795,1.975-1.033,2.648c-0.238,0.676-0.386,1.143-0.44,1.4
		c-0.168,0.832,0.153,1.334,0.969,1.508c0.337,0.086,1.011,0.102,2.021,0.043c0.533-0.027,1.222-0.287,2.063-0.775
		c1.011-0.574,1.782-1.248,2.315-2.023c0.141-0.174,0.254-0.131,0.338,0.129c0.195,0.488,0.266,1.049,0.211,1.68
		C369.44,480.298,369.343,480.613,369.203,480.757z"/>
</g>
</svg>
