<?xml version="1.0" encoding="UTF-8" standalone="no"?>
<!-- Generator: Adobe Illustrator 14.0.0, SVG Export Plug-In . SVG Version: 6.00 Build 43363)  -->

<svg
   xmlns:dc="http://purl.org/dc/elements/1.1/"
   xmlns:cc="http://creativecommons.org/ns#"
   xmlns:rdf="http://www.w3.org/1999/02/22-rdf-syntax-ns#"
   xmlns:svg="http://www.w3.org/2000/svg"
   xmlns="http://www.w3.org/2000/svg"
   xmlns:sodipodi="http://sodipodi.sourceforge.net/DTD/sodipodi-0.dtd"
   xmlns:inkscape="http://www.inkscape.org/namespaces/inkscape"
   version="1.1"
   id="Layer_1"
   x="0px"
   y="0px"
   width="128.172px"
   height="112.197px"
   viewBox="0 0 128.172 112.197"
   enable-background="new 0 0 128.172 112.197"
   xml:space="preserve"
   inkscape:version="0.48.2 r9819"
   sodipodi:docname="icon.svg"><metadata
   id="metadata19305"><rdf:RDF><cc:Work
       rdf:about=""><dc:format>image/svg+xml</dc:format><dc:type
         rdf:resource="http://purl.org/dc/dcmitype/StillImage" /></cc:Work></rdf:RDF></metadata><defs
   id="defs19303" /><sodipodi:namedview
   pagecolor="#ffffff"
   bordercolor="#666666"
   borderopacity="1"
   objecttolerance="10"
   gridtolerance="10"
   guidetolerance="10"
   inkscape:pageopacity="0"
   inkscape:pageshadow="2"
   inkscape:window-width="1142"
   inkscape:window-height="766"
   id="namedview19301"
   showgrid="false"
   inkscape:zoom="4.2068862"
   inkscape:cx="63.957047"
   inkscape:cy="50.26126"
   inkscape:window-x="0"
   inkscape:window-y="0"
   inkscape:window-maximized="0"
   inkscape:current-layer="g18991" />

<g
   id="g18991">
	<path
   style="fill:#2b3990"
   d="M 3.799,2.759 C 4.6083737,4.2467743 6.6146015,4.3164999 8.1058671,4.2299389 9.9732052,3.8638219 11.867649,3.838917 13.761,3.9413757 c 0.383064,0.014635 -0.679079,-0.541774 0.501228,-0.3954022 1.045235,0.018646 2.966338,-0.472102 1.848323,0.4939846 1.93332,-0.035564 1.580989,3.1180887 -0.08958,3.3672699 C 13.491674,7.4418437 10.831639,6.9159856 8.383,7.856 7.2406728,9.1494352 5.4625011,11.417841 5.5487562,12.766985 c 0.4416782,-0.741067 1.2620478,-0.873468 1.0650265,0.193541 0.8363202,1.719548 3.1682548,0.392403 4.6588593,1.254368 1.169274,0.521395 3.454654,-0.755778 3.298772,0.792351 1.518612,-1.206603 1.855971,2.17574 0.650057,2.564099 -1.268279,-0.202681 -2.609189,-0.04317 -3.914455,-0.184739 -1.5838033,-0.09036 -3.5678027,0.17698 -4.2320675,1.863686 -0.095805,0.68788 -1.8190592,2.513145 -0.5086033,1.458209 1.4098638,0.379725 -1.5361943,2.464246 -0.016126,3.419851 0.2168912,1.540402 2.0733824,1.513993 3.2469164,1.306944 1.6833347,-0.210664 3.3853357,0.07045 5.0463167,-0.331948 0.932949,-0.218813 2.052277,0.43538 0.538856,0.765922 -0.45264,0.283283 1.503517,0.610487 1.262308,1.582346 0.281358,2.180532 -2.834009,1.513304 -4.199515,1.685639 -2.349772,-0.02591 -4.76002,-0.610309 -7.0747428,-0.11323 C 3.8528184,29.906503 2.4896872,28.440546 2.6945922,26.899008 2.4986451,21.55612 2.2014564,16.150654 3.149271,10.854765 3.2891445,8.1506382 3.5366372,5.4535374 3.799,2.759 z M 3.55,9.337 C 3.1122417,13.783552 2.3038066,18.270111 2.934,22.74 3.1612687,19.720394 2.7111568,16.636046 3.4786391,13.669174 3.3446047,12.222088 3.9711813,10.76784 3.55,9.337 z m -0.689,13.49 c -0.5693416,0.609973 0.7388307,0.446395 0,0 z m 0,3.795 c -0.4296774,0.776083 0.8519019,1.585467 0.1337576,0.276668 L 2.861,26.622 l 0,0 z M 3.726,7.433 C 3.1927627,8.2574835 3.9925805,9.6372942 3.8225924,7.9686556 L 3.7763552,7.7003431 3.726,7.433 z m 0,-0.44 0,0.1634206 0,-0.1634206 z M 4.15,4.136 C 3.6424602,4.8878333 3.9927483,6.8591625 4.1651083,5.0461544 4.1739927,4.7426652 4.1585969,4.4392846 4.15,4.136 z M 4.063,6.655 3.8901817,6.8762598 4.063,6.655 z m -0.264,0.69 c 0.4357888,0.1897671 -0.043395,-0.5129129 0,0 z M 3.975,3.712 c -0.4911849,0.6612866 0.6950339,0.1177141 0,0 z m 0.688,21.957 c -0.73412,0.610727 -0.2426166,1.48016 0,0 z M 4.502,24.116 c -0.6441118,0.433715 0.6522165,0.246574 0,0 z m 0.337,4.235 c -1.4968492,1.334147 1.1910906,-0.06181 0,0 z m 0,-3.633 c -0.096249,0.237722 -0.072649,0.179432 0,0 z M 4.663,19.62 c 0.4071427,0.329126 -0.00118,-0.494333 0,0 z m 0.088,-4.234 c -0.3369358,0.715407 0.7577798,0.33053 0,0 z m 0.176,9.859 c -1.0618655,0.907381 0.8423489,0.09292 0,0 z m -0.088,-10.211 0,0.163421 0,-0.163421 z m 0.351,0 L 4.9884648,15.302713 5.19,15.034 z M 5.103,4.927 c -0.4200916,0.4417102 0.287261,0.4647404 0,0 z M 5.015,17.378 c -0.2158357,0.4145 0.320018,0.154682 0,0 z m 0.175,0.601 c -0.7072667,0.342403 0.510862,0.399223 0,0 z m 0,8.643 c 0.2501532,-0.398365 -0.4971412,0.09773 0,0 z M 5.103,14.786 5.3360523,14.891933 5.103,14.786 z m 0,1.289 c -0.2238988,0.446867 0.4719283,-0.118463 0,0 z m 0.424,7.705 c -0.1013782,0.205859 -0.1212744,0.24626 0,0 z M 5.19,17.114 c 0.4468675,0.223897 -0.1184652,-0.471929 0,0 z m 1.289,0.352 C 4.9856904,17.269091 5.2387425,20.453111 6.4138918,18.762462 6.5569578,18.345146 6.5094049,17.896711 6.479,17.466 z m -1.201,7.779 c 0.2389269,-0.269915 -0.3644763,-0.08874 0,0 z m 0.249,0.6 c -0.9479893,0.325551 0.5923428,0.594086 0,0 z M 5.454,7.696 c -0.6944944,0.5662561 0.6164659,0.6790681 0,0 z m 0,6.651 c -0.6483205,0.352822 0.4399019,0.491858 0,0 z m -0.176,3.281 0,0.163421 0,-0.163421 z M 5.615,13.569 5.5179746,13.734995 5.615,13.569 z m -0.088,3.034 c -0.6359101,0.289342 0.3327996,0.345568 0,0 z m 0,-8.995 c 0.2383729,-0.2455719 -0.3425458,-0.082237 0,0 z m -0.073,2.93 c 0.3482122,0.168739 -0.1093967,-0.359099 0,0 z m 0,6.928 c -0.223569,0.396302 0.2901588,0.03653 0,0 z m 1.025,9.068 c -1.3257561,0.340396 0.09256,1.508136 0.097131,0.154119 L 6.479,26.534 l 0,0 z M 5.879,9.937 5.7715071,10.115747 5.879,9.937 z m 0,15.484 L 5.7766898,25.585316 5.879,25.421 z M 5.791,9.337 c 0.2389268,-0.2699149 -0.3644764,-0.088735 0,0 z m -0.088,4.658 c 0.4257735,0.496414 -0.010918,-0.501959 0,0 z m 0,0.176 c -0.1761722,0.302613 0.2740316,0.07678 0,0 z m 0.689,0.775 c -0.6585871,0.550639 -0.1775316,1.750577 0.00275,0.320789 L 6.392,14.946 l 0,0 z M 6.055,5.353 C 5.294146,6.0046218 6.3598917,7.9386476 6.5194737,6.2620798 6.4983142,5.9133136 6.3352506,5.5680993 6.055,5.353 z m 0,8.128 c -0.6236467,0.280673 0.2795773,0.497545 0,0 z m 0,-3.544 c 0.2389268,-0.2699149 -0.3644764,-0.088735 0,0 z M 6.318,8.384 c -0.1072117,0.2449969 -0.069177,0.1580808 0,0 z M 6.23,16.938 c -0.6158795,0.253989 0.3061174,0.387857 0,0 z M 6.143,22.3 c 0.2389269,-0.269915 -0.3644763,-0.08874 0,0 z m 0,-9.506 0.128981,0.193471 L 6.143,12.794 z M 6.23,12.618 6.270235,12.66198 6.23,12.618 z M 6.318,9.337 c 0.3925099,0.1264202 -0.067595,-0.414251 0,0 z M 6.392,8.12 c 0.1900782,0.1900781 0.2328049,0.2328047 0,0 z m 0,4.322 c -0.2238988,0.446867 0.4719283,-0.118463 0,0 z m 0.087,3.985 c -0.6122964,0.463271 0.5263739,0.120936 0,0 z m 0,-8.731 L 6.6178035,8.0303903 6.479,7.696 z M 6.743,14.522 6.6419324,14.68432 6.743,14.522 z m 0,1.377 c -0.8639017,0.562248 0.6644376,0.652241 0,0 z M 6.831,8.634 6.696233,8.9027683 6.831,8.634 z m 0,1.215 c 0.4468675,-0.2238986 -0.1184649,0.471929 0,0 z m 0.088,4.673 c 0.2389269,-0.269915 -0.3644763,-0.08874 0,0 z m 0,-8.394 c -0.2265395,0.4275982 0.326546,0.1725239 0,0 z M 7.095,5.704 c 0.2389268,-0.2699149 -0.3644764,-0.088735 0,0 z M 7.256,17.378 7.1324568,17.637365 7.256,17.378 z m 0.351,-1.641 c -0.9200292,0.59277 0.4782675,1.643317 0,0 z M 7.344,3.976 7.5469819,4.16668 7.344,3.976 z m 0.263,1.552 c -0.5906637,0.8992157 0.5416304,0.9387619 0.012968,0.028652 L 7.607,5.528 z M 7.52,26.974 c -0.6320511,0.477186 0.6909706,0.177005 0,0 z M 7.607,5.177 7.8085354,5.445714 7.607,5.177 z m 0.689,9.945 C 7.680946,15.863007 8.6787554,17.401966 8.7240351,15.734053 8.7556226,15.469829 8.6082032,15.11985 8.296,15.122 z m 0,-2.152 c 1.4881996,0.319161 5.196672,0.307812 5.448811,0.376605 C 11.959584,13.92653 10.02599,13.564794 8.296,12.97 z M 8.823,6.216 c 0.4468675,0.2238986 -0.1184649,-0.4719283 0,0 z M 8.999,5.265 c -0.6508071,0.3428703 0.3084095,0.3159974 0,0 z m 0.249,9.857 c -0.2238988,0.446867 0.4719283,-0.118463 0,0 z m 0.088,0.527 c 0.2389269,-0.269915 -0.3644763,-0.08874 0,0 z M 9.688,5.528 c -0.6219761,0.4829995 0.417449,0.3852897 0,0 z m 0,-0.263 c -0.2216002,0.4458387 0.471472,-0.12104 0,0 z m 0.175,10.384 c -0.3801791,0.405338 0.246823,0.491379 0,0 z m 0,0.866 c 0.238927,-0.269915 -0.3644762,-0.08874 0,0 z m 0,-1.393 c 0.1019938,0.278108 0.204328,0.557141 0,0 z m 0.249,12.027 c -0.7518298,0.283169 0.544075,0.268407 0,0 z M 10.64,26.71 c -0.137801,0.171859 -0.192797,0.240447 0,0 z m 0,-11.5 c -0.7927852,0.50599 0.798837,0.642576 0,0 z m 0.161,1.129 c -0.452847,0.505226 0.614443,0.09977 0,0 z M 10.977,5.001 c -0.55249,0.5047054 0.515567,1.1437149 0,0 z m -0.176,11.25 c 0.435789,0.189767 -0.0434,-0.512912 0,0 z m 4.336,8.041 c 1.583333,0.570154 -0.930149,0.519527 -1.520001,0.478996 -0.700657,0.04753 -2.908445,0.110172 -1.125322,-0.138044 0.882925,-0.07634 1.824541,0.0748 2.645323,-0.340952 z M 11.841,4.927 c -0.820659,1.022859 0.779511,1.1179597 0,0 z m -0.176,11.676 c 0.242608,-0.259033 -0.348438,-0.0985 0,0 z m 0,11.498 c -0.575949,0.476133 0.525912,0.10597 0,0 z m 0,0.601 c -0.223898,0.446868 0.471928,-0.118463 0,0 z m 0.176,-0.176 c -0.223898,0.446868 0.471928,-0.118463 0,0 z m 0.351,-12.789 c 0.238927,-0.269915 -0.364477,-0.08874 0,0 z M 12.617,5.44 c 0.238373,-0.2455714 -0.342546,-0.082238 0,0 z m 0.352,10.297 c -0.718027,0.499314 0.354108,1.057123 0,0 z m -0.088,-0.351 c 0.11,0.146665 0.09451,0.126019 0,0 z m 0.176,-0.528 c -0.836927,0.811186 0.804916,-0.01321 0,0 z m 1.215,11.426 c -1.02333,0.05945 -0.86398,1.347728 -0.01764,0.34403 L 14.310752,26.461814 14.272,26.284 l 0,0 z M 13.232,16.075 13.360981,16.268471 13.232,16.075 z m 0.088,0.528 c 0.238927,-0.269915 -0.364477,-0.08874 0,0 z M 13.569,5.001 c 0.190077,0.1900773 0.232805,0.2328054 0,0 z m 0,0.264 c 0.110713,0.2761536 0.227735,0.5680424 0,0 z m 0.352,21.019 c 0.821301,0.169159 -0.24795,-0.443974 0,0 z M 14.434,15.562 14.565045,15.748143 14.434,15.562 z m 0.175,9.332 0.193471,0.128981 L 14.609,24.894 z M 14.873,4.663 c 0.238927,-0.269915 -0.364477,-0.088734 0,0 z m 0.088,24.127 c 0.236518,-0.421073 -0.499737,0.100153 0,0 z m 0.088,-2.256 c -0.69583,0.215968 0.315913,0.327586 0,0 z m 0.161,-1.728 c 0.446868,-0.223898 -0.118463,0.471928 0,0 z m 0.176,2.08 c -0.872135,0.54524 0.816595,0.11344 0,0 z"
   id="path18993"
   inkscape:connector-curvature="0" />
	<path
   style="fill:#2b3990"
   d="m 18.887,14.552 c 2.989322,0.300359 0.474673,1.924799 2.244671,1.659001 -0.403561,1.607901 1.039548,1.314607 0.495329,3.745999 -1.704541,2.918331 1.089663,-1.340067 1.041,1.187 0.02517,2.610324 -1.465008,3.252761 0.365,2.666 0.132526,0.714377 -0.910641,3.524751 0.514,0.586 2.349095,-1.476343 1.930963,-5.632486 2.959,-7.986 2.532543,-1.231159 0.306305,-0.368169 1.826942,-1.26327 3.981976,-0.646881 -1.120538,2.347512 -1.153942,2.96327 -1.464129,2.401495 3.307784,-3.58226 2.799,-0.821 -1.791778,1.585717 0.04828,1.286683 -2.725,3.339 -4.047137,3.486545 4.372087,-3.117189 0.145,0.806 -2.853772,2.449933 -2.273103,2.209079 -0.03526,0.194608 3.360732,-1.705589 -2.19439,1.914671 -1.647532,2.200134 4.208238,-2.743926 0.130829,0.237105 -1.05521,1.896258 2.178084,-1.573498 2.777507,-2.422311 1.026,0.308 1.816372,-1.986869 -0.08661,1.73741 -0.586,2.724 0.008,1.261149 -3.044032,1.017937 -3.321627,-0.683971 C 20.514134,26.68679 21.257506,23.744716 19.854,23.058 c -0.105432,-2.823094 -1.672411,-5.283369 -2.373,-8.07 0.422923,-0.475898 1.261916,0.403492 1.406,-0.436 z m 0.293,1.185 -0.14595,0.292901 -5e-5,9.9e-5 0.146,-0.293 0,0 z m -0.147,1.481 c -0.192217,0.336428 0.429817,-0.01471 0,0 z m 0.44,-1.934 c -1.088094,0.784212 0.700286,0.160313 0,0 z m 0.439,1.348 c -1.520816,1.789238 0.410655,0.946472 0,0 z m -0.439,-0.455 c -0.515898,0.585255 0.574745,0.135905 0,0 z m 0.088,2.154 0.132,0.146 -0.132,-0.146 z m 0.073,-2.301 c -0.196082,0.322888 0.439742,0.01577 0,0 z m 0.659,1.041 c -1.2082,1.859029 0.09382,1.206216 0,0 z m 0.293,0.658 c -1.687712,2.024987 0.198343,1.21481 0,0 l 0,0 z m -0.22,-2.738 -0.454,0.893 0.454,-0.893 z m -0.22,4.584 c -0.503073,0.797632 0.422477,0.07641 0,0 z m 0.074,2.813 c -0.616594,0.592162 0.559801,0.327723 0,0 z m 0,-2.139 0.22,0.146 -0.22,-0.146 z m 0.293,-1.406 c -0.638373,0.739038 0.417932,0.457199 0,0 z m 0.073,0.894 c -0.797912,0.621055 0.501812,0.519106 0,0 z m -0.073,3.617 0.146,0.162 -0.146,-0.162 z m 0.293,-7.015 c -0.0857,0.199451 -0.500965,1.165882 0,0 z m 0,3.984 -0.22,0.746 0.22,-0.746 z m 0,-1.933 c -0.746419,0.846429 0.609693,0.05416 0,0 z m 0.161,0.834 c -0.0044,0.0081 -0.424887,0.773242 0,0 z m -0.088,-1.055 0.161,0.162 -0.161,-0.162 z m 0.161,1.787 c -0.684651,0.640085 0.514985,0.03531 0,0 z m 0.806,0.807 c -0.906804,1.603025 -0.53329,2.304025 0,0 z m -0.513,4.218 c -0.742697,1.155573 0.635998,1.54163 0,0 z m -0.146,-5.244 c -0.192217,0.336428 0.429817,-0.01471 0,0 z m 0.146,-0.381 0.146,0.16 -0.146,-0.16 z m 0,3.559 0.22,0.309 -0.22,-0.309 z m 0.059,-3.779 0.234,0.146 -0.234,-0.146 z m 0.161,3.486 c -0.682005,0.470593 0.760425,0.494473 0,0 z m 0.146,3.707 -0.14595,0.292901 -5e-5,9.9e-5 0.146,-0.293 z m 0.073,-0.455 c -0.03217,0.08394 -0.357167,0.932058 0,0 z m -0.073,-3.398 0.146,0.146 -0.146,-0.146 z m 0.22,-0.747 c -0.346544,0.847939 0.534005,0.232638 0,0 z m 0.073,5.04 c -0.492955,0.934101 0.501754,0.511644 0,0 z m 0.293,0.892 c -0.64843,0.888851 0.371681,1.499075 0,0 z m -0.132,-6.299 c -0.03681,0.605804 0.221821,-0.07947 0,0 z m 0.425,3.18 c -0.05982,0.103598 -0.526846,0.912402 0,0 z m 0.22,-0.293 c 0.198072,-0.212809 -0.293677,-0.186752 0,0 z m 0.893,0.82 c -1.55259,2.21897 0.147001,2.043271 0,0 z m -0.732,2.153 c 0.380346,0.04053 -0.07712,-0.394104 0,0 z m 0.513,0 c -0.65023,0.715167 0.07892,0.731512 0,0 z m 0.219,-0.541 c -0.007,0.01474 -0.382323,0.803926 0,0 z m 0.235,0.673 c -1.163431,1.64375 0.947299,0.727841 0,0 z m -0.235,1.04 c -0.382307,0.443363 0.322494,0.151995 0,0 z m 0,-1.846 c 0.376359,0.209989 -0.02835,-0.467544 0,0 z m 0.235,-0.16 c 0.181513,-0.20493 -0.306685,-0.164267 0,0 z m 0.366,0 c -0.481586,0.502342 0.504692,0.04723 0,0 z m 0.747,-2.213 c -0.745618,0.652432 -0.676301,1.343022 0,0 z m -0.601,2.08 c -0.178313,0.30451 0.430571,-0.0043 0,0 z m 0.147,0.426 c -0.678579,0.565245 0.571666,0.19931 0,0 z m 0.22,0 c 0.181513,-0.20493 -0.306685,-0.164267 0,0 z m 1.772,-7.018 -0.293,0.367 0.293,-0.367 z m -0.073,0.807 c -0.206584,0.369893 0.430287,-0.0202 0,0 z m 0.146,-1.627 c -0.280261,0.539353 0.629599,-0.08961 0,0 z m 0.088,1.553 c 0.571823,0.08763 -0.08464,-0.369551 0,0 z m 1.245,-1.26 c -0.581574,0.3601 -1.294476,1.538206 -0.292,0.527 l 0.292,-0.527 z m 0.235,-0.805 c -0.746542,0.508303 -1.404309,1.969608 0,0 z m 0.146,0.44 c -0.672402,0.55449 0.526802,0.185195 0,0 z m 0.132,-0.733 c -0.623266,0.657888 0.542792,0.01243 0,0 z m 0.308,-2.812 -0.22,0.219 0.22,-0.219 z m 0.219,2.138 c -1.096012,1.30105 0.664976,0.291001 0,0 z m 0.601,-1.699 c 0.348182,0.111571 0.05175,-0.414744 0,0 z"
   id="path18995"
   inkscape:connector-curvature="0" />
	<path
   style="fill:#2b3990"
   d="m 37.622,14.405 c 1.532754,2.392046 0.9844,-0.27642 2.681,0.365 0.719259,1.16154 1.236391,0.446486 1.816,1.305 0.961938,-0.510898 0.35236,1.57157 0.948471,1.165361 1.634262,0.550203 1.298474,4.386832 0.441529,4.999639 -1.289315,-1.187392 -1.549451,1.875242 -1.956178,-0.984108 -0.991645,1.520088 -1.539328,0.03177 -3.638822,1.351108 -1.567108,-0.370536 -3.081053,0.426898 -2.436322,1.610239 -0.05831,1.267318 2.457099,2.64082 3.006322,2.533761 0.880197,-0.941801 0.813737,0.334059 1.611,-0.659 0.809076,0.526629 2.165449,-1.126568 2.814,0.499 1.593525,2.078252 -1.726443,2.116671 -2.911316,2.607789 C 38.085425,30.358752 37.029284,28.898188 36.392,28.933 34.943138,27.564692 33.462891,27.378745 33.008518,24.975081 32.532625,22.238303 31.709869,19.269674 33.258,16.512 c 1.981508,-1.150317 3.755966,-2.064108 3.851,-1.085 1.023566,-0.0936 -0.351699,-1.126949 0.513,-1.022 z m -5.083,6.166 c 0.334983,0.121541 0.06607,-0.410884 0,0 z m 0.147,0.221 -0.146,-0.146 0.146,0.146 z m -0.147,3.266 0.22,0.221 -0.22,-0.221 z m 0.22,-4.717 c 0.198901,-0.220665 -0.321828,-0.182678 0,0 z m 0.058,-0.879 c -0.353477,0.465311 0.483435,0.123657 0,0 z m 0,-0.352 c 0.335529,0.192497 -0.0127,-0.430436 0,0 z m 0.074,0.075 c -0.429945,0.309887 0.429945,0.309887 0,0 z m 0.073,-0.368 0.146,0.146 -0.146,-0.146 z m 0.073,-0.423 c -0.0055,1.004125 0.517989,-0.289499 0,0 z m 0.147,-0.235 0.146,0.234 -0.146,-0.234 z m 0.454,3.119 c -0.352632,1.232509 0.316048,1.690367 0,0 z m 0.205,-1.009 c -0.545959,0.143377 0.187105,0.753177 0,0 z m 0.146,2.402 c -0.192217,0.336428 0.429817,-0.01471 0,0 z m 0.074,0.424 c 0.178834,-0.202524 -0.304382,-0.161419 0,0 z m 0,0.367 c 0.198901,-0.220665 -0.321828,-0.182678 0,0 z m 0.073,4.73 c -0.192774,0.334629 0.431062,-0.01069 0,0 z m 0.146,0.28 c 0.335529,-0.192497 -0.0127,0.430436 0,0 z m 1.304,-12.129 c -1.635548,0.637205 -1.150456,1.585031 0,0 z m -1.084,7.484 c 0.198901,-0.220665 -0.321828,-0.182678 0,0 z m 0,0.074 c -0.282503,0.817883 0.228796,0.924499 0,0 z m 0.278,1.596 c -1.010737,1.322009 0.729789,1.806145 0,0 z m -0.073,-5.228 -0.205,0.365 0.205,-0.365 z m -0.132,1.888 c -0.263132,0.680441 0.38147,1.093114 0,0 z m 0,-3.763 0.132,0.146 -0.132,-0.146 z m 0,0.863 0.132,0.146 -0.132,-0.146 z m 0,2.314 c -0.03682,0.605804 0.221821,-0.07947 0,0 z m 0,0.293 c -0.03682,0.605804 0.221821,-0.07947 0,0 z m 0,1.158 c 0.270569,0.3248 0.141774,-0.486553 0,0 z m 0.205,2.182 c -0.01208,0.613286 0.238566,-0.09867 0,0 z M 35,17.892 34.854,18.111 35.146901,17.96505 35.147,17.965 35,17.892 z m 0.073,0.644 c -0.05526,0.09168 -0.531405,0.881649 0,0 z m 0,0.879 c -0.529653,0.680522 0.622479,0.593846 0,0 z m 0.293,6.826 c -0.648078,0.615757 0.550211,0.01895 0,0 z m 2.622,-8.642 c -1.98499,-0.271852 -3.493722,2.613656 -0.953,2.255 1.353146,-0.338967 0.387628,3.305555 1.025,0.292 0.18762,-1.253662 2.057967,0.713557 2.827,-0.294 1.525135,-1.914921 -1.920039,-1.996257 -2.899,-2.253 z m -1.963,4.072 c 0.198901,-0.220665 -0.321828,-0.182678 0,0 z m 0,-0.66 0.146,0.221 -0.146,-0.221 z m 0.074,5.084 c -0.392395,0.447549 0.50075,0.148946 0,0 z m 0.073,-5.377 c -0.432304,0.31248 0.432304,0.31248 0,0 z m 0,-5.375 c -0.02033,0.646956 0.247493,-0.09857 0,0 z m 0,0.306 c -0.15439,0.62364 0.547095,0.402982 0,0 z m 0,11.69 c 0.335529,0.192497 -0.0127,-0.430436 0,0 z m 0.073,-7.061 0.146,0.221 -0.146,-0.221 z m 0.073,6.475 0.146,0.146 -0.146,-0.146 z m 0.074,0.439 c 0.198901,-0.220665 -0.321828,-0.182678 0,0 z m 0.073,-5.668 c -0.32162,0.731723 0.447624,0.199245 0,0 z m 0.278,-0.732 c -0.700377,1.12222 0.556783,0.838846 0,0 z M 36.67,15.929 c -0.392395,0.447549 0.50075,0.148946 0,0 z m 0,11.41 0.146,0.279 -0.146,-0.279 0,0 z m 0,0.279 c -0.126051,0.736108 0.383201,0.107765 0,0 z m 0.073,-0.426 0.146,0.146 -0.146,-0.146 z m 0.147,-6.4 c 0.198901,-0.220665 -0.321828,-0.182678 0,0 z m 0,5.668 c -0.342789,0.533154 0.533589,-0.0413 0,0 z m 0,0.293 c -0.485938,0.652102 0.487876,0.05767 0,0 z m 0.146,-6.4 c 0.181513,-0.20493 -0.306685,-0.164267 0,0 z m 0.147,1.025 c -0.01082,0.608114 0.237191,-0.09868 0,0 z m 0.146,5.814 c -0.489451,0.680546 0.502952,0.145066 0,0 z m 0,0.573 c 0.198901,-0.220665 -0.321828,-0.182678 0,0 z m 0,-0.866 0.146,0.146 -0.146,-0.146 z m 0.147,-11.25 0.22,0.133 -0.22,-0.133 z m 0.073,-1.097 c -0.01082,0.608114 0.237191,-0.09868 0,0 z m 0.073,0.717 c -0.493209,0.420388 0.716003,0.773258 0,0 z m 0,1.246 c 0.198901,-0.220665 -0.321828,-0.182678 0,0 z m 0,5.302 0.146,0.205 -0.146,-0.205 z m 0.073,0.424 c 0.198901,-0.220665 -0.321828,-0.182678 0,0 z m 0.22,5.817 c -0.01082,0.608114 0.237191,-0.09868 0,0 z m 0.22,-11.69 c 0.334983,0.121541 0.06607,-0.410884 0,0 z m 0.278,4.203 c -0.428634,0.99834 0.518115,0.586379 0,0 z m -0.132,0.733 0.132,0.146 -0.132,-0.146 z m 0,0.22 c -0.08409,0.611437 0.350537,-0.176355 0,0 z m 0.132,5.948 c 0.181513,-0.20493 -0.306685,-0.164267 0,0 z M 38.56,14.624 c 0.922882,0.277296 -0.611457,0.392323 0,0 z m 0.146,1.451 -0.22,0.219 0.22,-0.219 z m 0,11.69 0.22,0.219 -0.22,-0.219 z m 0.073,-0.573 c 0.05509,0.675975 0.471148,-0.297496 0,0 z m 0,0.352 0.146,0.146 -0.146,-0.146 z m 0,0.514 c -0.192217,0.336428 0.429817,-0.01471 0,0 z m 0.074,-1.159 0.146,0.221 -0.146,-0.221 z m 0.439,-11.777 c -0.508402,0.269953 0.481286,0.711668 0,0 z m -0.146,0.602 c 0.334983,0.121541 0.06607,-0.410884 0,0 z m 0.073,-0.953 0.22,0.279 -0.22,-0.279 z m 0.219,12.349 c 0.198901,-0.220665 -0.321828,-0.182678 0,0 z m -0.073,0.072 c -0.01208,0.613286 0.238566,-0.09867 0,0 z m 0.147,-7.119 c -0.379353,0.422573 0.486632,0.139845 0,0 z m -0.074,0.28 c -0.01082,0.608114 0.237191,-0.09868 0,0 z m 0,0.293 c -0.01082,0.608114 0.237191,-0.09868 0,0 z m 0.513,-0.221 c 0.198901,-0.220665 -0.321828,-0.182678 0,0 z m 0.205,0.732 0.146,0.146 -0.146,-0.146 z m 0.073,5.742 c 0.198901,-0.220665 -0.321828,-0.182678 0,0 z m 0.367,-11.25 c -0.337731,0.667419 0.547147,0.210431 0,0 z m -0.074,10.739 c -0.1204,1.440506 0.504904,0.01036 0,0 z m 0.147,0.732 c -0.06003,0.619774 0.369916,-0.19599 0,0 z m 0,0.293 0.146,0.131 -0.146,-0.131 z m 0.732,-7.998 c -0.06003,0.619774 0.369916,-0.19599 0,0 z m 0.074,7.25 0.146,0.234 -0.146,-0.234 z m 0.293,-10.443 c -0.07025,0.135394 -0.516415,0.995272 0,0 z m 0.219,0 c 0.277636,-0.148829 -0.521272,-0.238972 0,0 z m 0.059,10.443 c -0.02033,0.646956 0.247493,-0.09857 0,0 z m 0.366,-0.57 c -0.01082,0.608114 0.237191,-0.09868 0,0 z m 0.498,-5.596 c 0.198072,-0.212809 -0.293677,-0.186752 0,0 z m -0.058,0.072 c -0.03681,0.605804 0.221821,-0.07947 0,0 z m 0,0.293 c -0.03681,0.605804 0.221821,-0.07947 0,0 z m 0.058,0.514 c 0.198072,-0.212809 -0.293677,-0.186752 0,0 z m -0.058,0.072 c -0.194401,0.541996 0.334541,-0.0056 0,0 z m 0.205,-3.851 0.308,0.293 -0.308,-0.293 z m 0.234,0.511 c -0.319874,0.837568 0.58828,0.201067 0,0 z m 0.073,1.159 c -0.01082,0.608114 0.237191,-0.09868 0,0 z m 0,0.365 c -0.02324,0.711837 0.239704,0.260995 0,0 z m 0.293,1.89 c 0.198901,-0.220665 -0.321828,-0.182678 0,0 z m 0.073,-1.816 c 0.198901,-0.220665 -0.321828,-0.182678 0,0 z"
   id="path18997"
   inkscape:connector-curvature="0" />
	<path
   style="fill:#2b3990"
   d="m 46.514,14.903 c 0.648189,0.700579 5.093552,-0.232005 6.431,0.277 -0.37254,2.749507 -0.5368,2.418429 -2.410181,2.889051 -1.615525,-0.812542 -1.911622,0.602387 -2.054556,3.566155 -0.08985,2.616 0.174537,5.204291 -0.150263,7.741794 -1.857622,0.738977 0.29799,-2.143487 -1.597,0.146 1.297337,-2.678088 1.289778,-2.619049 -0.352,-0.087 -1.182824,-1.234495 -0.854772,-3.770793 -0.959199,-5.763523 0.258682,-2.556942 0.104708,-5.220411 0.682199,-7.510477 -0.794422,0.377021 0.503325,-1.057626 0.41,-1.259 z m -0.059,13.491 c -0.390588,0.356478 0.303418,0.175628 0,0 z m 0.278,-12.582 c -0.02043,0.02573 -0.566233,0.712939 0,0 z m 0,10.765 c -0.632669,0.685066 0.391266,0.454039 0,0 z m 0,-8.451 -0.146,-0.146 0.146,0.146 z m 0.074,0.352 c -0.02409,0.05809 -0.36524,0.880578 0,0 z m -0.074,4.951 c 0.181513,-0.20493 -0.306685,-0.164267 0,0 z m 0,-3.838 0.132,0.205 -0.132,-0.205 z m 0.205,0 -0.132,-0.146 0.132,0.146 z m -0.131,3.135 c -0.332622,0.712311 0.56152,-0.07867 0,0 z m 1.186,1.273 c -2.400312,3.01439 0.166616,1.530498 0,0 z m -0.923,2.857 c -0.412702,0.35375 -0.11635,1.06411 0,0 z m 0.63,-6.65 c -1.173031,1.307324 -0.677347,1.812301 0,0 z m -0.835,1.332 0.205,0.221 -0.205,-0.221 z m 0.835,1.481 c -1.285091,1.802465 -0.529159,2.099716 0,0 z m -0.762,0.058 c -0.48675,1.184066 0.60619,-0.0477 0,0 z m 0.132,3.09 c -0.707246,0.585312 0.597594,0.402432 0,0 z m -0.073,-0.922 c 0.180765,-0.196715 -0.277942,-0.168678 0,0 z m 0.776,-6.637 c -1.709186,2.49202 0.07967,1.414253 0,0 z m -0.205,3.077 c -0.828123,1.076944 -0.07879,1.910945 0,0 l 0,0 z m -0.498,3.15 c -0.417808,0.300171 0.446006,0.288617 0,0 z m 0.279,-7.34 c -1.242912,1.803626 0.70023,-0.01708 0,0 z m 0,0.983 c -1.137189,1.280132 1.210462,0.259439 0,0 z m -0.279,8.304 c 0.316871,0.194575 0.02417,-0.401053 0,0 z m 1.26,-11.455 c -2.803794,0.377328 0.494172,1.656504 0,0 z m -1.172,9.375 c -0.173054,0.312013 0.385029,-0.0259 0,0 z m 0.059,-3.223 c 0.303099,0.176938 -0.0059,-0.429884 0,0 z m 0.205,-0.423 c -0.175562,0.301689 0.4292,-0.0074 0,0 z m 0.073,6.224 c 0.198901,-0.220665 -0.321828,-0.182678 0,0 z m 0.147,-1.39 -0.146,0.277 0.146,-0.277 z m 0.19,-8.262 c -1.300699,1.737603 0.763971,0.102533 0,0 z m -0.132,3.984 0.22,0.146 -0.22,-0.146 0,0 z m 0.22,-1.816 c -0.02409,0.05809 -0.36524,0.880578 0,0 z m 0.132,6.152 c -0.726429,0.883648 0.867701,1.012733 0,0 z m -0.059,-3.502 c -0.447542,0.347631 0.562843,0.297279 0,0 z m 0,-1.259 c 0.267187,0.332772 0.146503,-0.48958 0,0 z m 0.059,-0.336 0.132,0.131 -0.132,-0.131 z m 0.073,6.357 c -0.367196,0.780485 0.386971,0.280254 0,0 z m 0,-1.539 c -0.03681,0.605804 0.221821,-0.07947 0,0 z m 0.059,1.26 c -0.01778,0.591935 0.353535,-0.199386 0,0 z M 48.887,17.7 c -0.56495,0.911624 -0.13905,0.224376 0,0 z m 0,-0.277 c -0.783869,0.76792 1.110773,-0.161868 0,0 z m 0,-2.096 c -0.298669,1.085039 4.699962,0.09918 1.055,0.06 -0.351667,-0.02 -0.703333,-0.04 -1.055,-0.06 z m 1.274,2.578 0.132,0.146 -0.132,-0.146 z m 0.41,-0.482 c -1.212405,1.165861 1.165742,-0.307633 0,0 z"
   id="path18999"
   inkscape:connector-curvature="0" />
	<path
   style="fill:#2b3990"
   d="m 57.207,15.519 c 2.497728,0.584034 0.525361,3.505272 1.04,5.097 0.463471,2.378786 -1.476345,6.834781 2.738,6.211 2.443117,0.808478 4.617018,-5.383139 2.357,-1.334 -1.635713,1.924538 0.06764,-1.870604 -0.65056,-2.244469 0.598956,-1.118618 -0.03913,-1.800989 1.571275,-4.027331 1.231236,-3.287172 -0.903249,2.077112 -1.754715,2.1558 1.28289,-1.202904 -1.352571,-5.910336 1.506855,-5.373172 3.202964,-1.089429 0.771469,3.321321 1.629145,4.887172 -0.158871,4.169789 0.344671,8.568982 -1.322522,12.514212 -1.689974,2.204934 -4.863792,2.970393 -7.467478,2.339788 -2.602411,-1.922279 -0.210486,-5.500805 2.577,-3.207 1.552257,0.792577 3.784272,-2.0931 4.123215,-2.959374 C 60.976223,32.615964 64.11475,28.096324 60.412,29.961 57.019972,30.282394 53.918726,27.382949 55.33,24.162 55.195562,22.931359 55.282292,21.26474 55.242,19.576 55.952565,18.258061 54.314302,15.748332 56.340548,15.678385 56.629366,15.625257 56.918183,15.572128 57.207,15.519 z m -1.831,6.767 c -0.192217,0.336428 0.429817,-0.01471 0,0 z m 0.571,2.943 c -1.29132,2.622484 0.639046,0.288711 0,0 z m -0.205,1.803 c 0.198901,-0.220665 -0.321828,-0.182678 0,0 z m 0,-0.279 c 0.331337,0.36759 0.0026,-0.481611 0,0 z m 0.147,-3.076 c -0.1947,0.317245 0.403638,0.02362 0,0 z m 0,2.799 0.132,0.205 -0.132,-0.205 z m 0.761,6.064 -0.63,0.762 0.63,-0.762 z m -0.556,-7.529 0.205,0.219 -0.205,-0.219 z m 0.205,-0.074 c -0.192774,0.334629 0.431062,-0.01069 0,0 z m 0.264,8.277 c -0.758949,0.775495 0.440138,0.615642 0,0 z m 0.087,-6.182 c -0.438103,0.404279 0.474542,0.203214 0,0 z m 0,-7.457 0.132,0.191 -0.132,-0.191 0,0 z m 0.059,-0.146 0.22,0.146 -0.22,-0.146 z m 0.22,12.759 c -0.05124,0.08198 -0.535432,0.856691 0,0 z m -0.22,0.893 0.146,0.133 -0.146,-0.133 z m 1.333,-15.615 c -1.717833,2.024253 -0.671366,2.279638 0,0 l 0,0 z m -1.113,0.41 -0.146,-0.131 0.146,0.131 z m -0.147,3.853 c -0.175562,0.301689 0.4292,-0.0074 0,0 z m 0.073,-4.058 c 0.296639,0.17581 0.0033,-0.391097 0,0 z m 0,15.279 0.132,0.131 -0.132,-0.131 z m 0.074,-12.203 0.132,0.146 -0.132,-0.146 z m 0.278,-3.691 c -0.823601,1.143966 0.615269,-0.01178 0,0 z m -0.22,5.097 0.146,0.205 -0.146,-0.205 z m 0.367,10.504 c -0.11319,0.09061 -0.86281,0.69072 0,0 z m -0.147,1.26 c -0.05526,0.09168 -0.531405,0.881649 0,0 z M 57.061,20.616 c -0.172384,0.312846 0.421432,-0.03472 0,0 z m 0.761,0.629 c -1.761227,1.485029 -0.09256,1.001926 0,0 z m -0.615,1.744 -0.146,0.264 0.146,-0.264 z m 0,-3.281 c -0.383031,0.370647 0.284622,0.156429 0,0 z m 0.205,5.229 c -0.09745,0.149329 -0.643884,0.986671 0,0 z M 57.207,20.47 c -0.192217,0.336428 0.429817,-0.01471 0,0 z m 0.147,-0.983 c -0.1947,0.317245 0.403638,0.02362 0,0 z m 0.058,0.983 c 0.180765,-0.196715 -0.277942,-0.168678 0,0 z m 0.278,5.58 -0.337,0.557 0.337,-0.557 z m 0.132,0.556 c -1.337249,0.6002 0.156839,0.535358 0,0 z M 57.559,16.558 c -0.662379,0.522261 0.526618,0.186057 0,0 z m 0,15.894 c -0.60124,0.4634 0.644702,0.0887 0,0 z m 0,-12.965 c 0.178834,-0.202524 -0.304382,-0.161419 0,0 z m 0,4.821 c 0.198901,-0.220665 -0.321828,-0.182678 0,0 z m 0.058,0.629 c 0.1781,-0.194252 -0.275542,-0.165886 0,0 z m 0.425,2.167 -0.425,0.689 0.425,-0.689 z M 57.764,16.558 c 0.178879,-0.203143 -0.306491,-0.16107 0,0 z m 0,7.339 c 0.01072,0.411706 0.170286,-0.08004 0,0 z m 0.278,-2.037 c -0.05586,0.09318 -0.530812,0.885491 0,0 z m 0,11.221 c -0.05123,0.08198 -0.535432,0.856691 0,0 z m 0.205,-0.205 c -0.412718,0.446483 0.449603,0.02949 0,0 z m 0.073,-5.287 c -0.190314,0.331292 0.393255,-0.0055 0,0 z m 0.132,-0.133 c -0.173054,0.312013 0.385029,-0.0259 0,0 z m 0.352,5.494 -0.264,0.352 0.264,-0.352 z m 0.205,-5.435 -0.264,0.572 0.264,-0.572 z m 0,0.703 c 0.316871,0.194575 0.02417,-0.401053 0,0 z m 0.366,-0.336 0.146,0.131 -0.146,-0.131 z m 0.264,-0.147 -0.117,0.205 0.117,-0.205 z m 0.073,-0.761 c 0.348978,0.188017 -0.04273,-0.421839 0,0 z m 0.146,1.113 0.132,0.131 -0.132,-0.131 z m 0,4.512 0.132,0.205 -0.132,-0.205 z m 0.762,0.205 c -1.030399,1.15094 -0.813144,2.750539 0,0 z m -0.483,-5.01 c -0.681021,0.561525 0.569098,0.1746 0,0 z m -0.147,6.064 0.205,0.205 -0.205,-0.205 0,0 z m 0.63,-6.474 -0.205,0.41 0.205,-0.41 z m 0.073,6.4 c -0.574883,0.574708 0.323081,0.864607 0,0 z m 0.425,0.133 0.205,0.219 -0.205,-0.219 z m 0.117,-0.967 c 0.197031,-0.205495 -0.265163,-0.190238 0,0 z m 0.088,0 c -0.439919,0.797139 0.597957,0.260948 0,0 z m 0,-0.293 c -0.1947,0.317245 0.403638,0.02362 0,0 z m 2.783,-2.842 c -3.330179,2.91145 -1.386264,2.473917 0,0 z m -0.336,1.948 c -3.075425,2.281037 -0.446554,1.348942 0,0 z m -1.055,-4.659 c -0.503674,0.630008 0.723262,-0.09122 0,0 z m 0.073,4.879 c -0.770482,0.897215 0.672701,0.05728 0,0 z m 0.205,-4.879 -0.146,-0.131 0.146,0.131 z m 0.073,-9.359 c 0.181513,-0.20493 -0.306685,-0.164267 0,0 z m -0.073,5.654 c -0.06003,0.619774 0.369916,-0.19599 0,0 z m 0,4.19 0.205,0.146 -0.205,-0.146 z m 0.073,-0.762 c -0.002,0.571972 0.227548,-0.0988 0,0 z m 0.484,4.512 -0.483,0.645 0.483,-0.645 z M 63.14,17.056 c 0.307884,0.104712 0.0544,-0.370066 0,0 z m 0.205,5.728 c -0.625687,0.630621 0.513711,0.155711 0,0 z m 0.058,3.487 c -0.03943,0.06463 -0.507237,0.831373 0,0 z m 1.333,-4.893 c -2.558251,3.657593 -0.970149,3.135812 0,0 z m -1.245,0.131 c -0.644804,0.783798 0.41656,0.478477 0,0 z m 0.967,4.394 c -1.826571,1.538075 -0.92535,2.32645 0,0 z m -1.055,-8.437 0.146,0.146 -0.146,-0.146 z m 0.088,0.41 c 0.179397,-0.212111 -0.336627,-0.155823 0,0 z m 0.205,4.146 c -0.691244,1.053344 0.596449,0.26565 0,0 z m -0.146,-4.703 0.146,0.146 -0.146,-0.146 z m 0,3.985 0.146,0.146 -0.146,-0.146 z m 0.146,4.468 c -0.579579,0.509429 0.645531,0.429131 0,0 z m 0.132,-8.994 c -0.06391,0.132174 -0.482762,0.998492 0,0 z m -0.058,4.174 c -0.728892,0.631074 0.516718,0.201379 0,0 z m 0.205,10.035 -0.278,0.352 0.278,-0.352 z m 0.893,-11.002 c -1.624947,2.34317 -0.728215,2.697489 0,0 z m -1.04,-1.947 c 0.342137,0.193924 -0.02308,-0.472026 0,0 z m 0.366,7.045 c -0.841661,0.98313 0.15016,0.799064 0,0 z m -0.293,4.043 0.146,0.146 -0.146,-0.146 0,0 z m 0.205,-11.807 c -0.569689,0.698801 0.470723,0.08589 0,0 z m -0.058,0.557 c 0.178834,-0.202524 -0.304382,-0.161419 0,0 z m 0.264,1.963 c -0.752567,1.77784 0.230023,0.511769 0,0 z m 0,8.863 c -0.570555,0.401844 0.105721,0.910911 0,0 z m -0.206,-1.598 0.205,0.146 -0.205,-0.146 z m 0.425,-10.751 c -0.157664,0.397669 -0.730383,1.842212 0,0 z m 0,8.32 c -0.933332,0.887691 0.67917,0.419958 0,0 z m -0.278,1.23 c 0.343884,0.185515 -0.03151,-0.382566 0,0 z m 0.278,-6.474 c -0.601877,0.614824 0.492565,0.19348 0,0 z m -0.073,6.226 0.146,0.248 -0.146,-0.248 z m 0.146,-0.162 c 7.18e-4,0.452786 0.181365,-0.07988 0,0 z m 0.132,-0.82 c 0.217582,-0.237783 -0.33843,-0.202334 0,0 z m 0,2.506 c 0.198901,-0.220665 -0.321828,-0.182678 0,0 z m 0.074,-5.934 0.205,0.205 -0.205,-0.205 z m 0,1.744 c 0.07267,0.635102 0.431621,-0.279992 0,0 z m 0.058,-0.293 0.146,0.219 -0.146,-0.219 z m 0.425,-6.474 c -0.256765,1.274979 0.283857,0.177679 0,0 z"
   id="path19001"
   inkscape:connector-curvature="0" />
	<path
   style="fill:#2b3990"
   d="m 69.585,2.657 c 4.208464,-0.9328768 0.0097,3.0066673 0.929837,2.6979586 C 71.634538,3.4387495 74.143089,1.9248313 72.018574,4.1007894 71.553265,4.9146257 75.687119,1.2318524 73.966,4.079 74.857609,3.5807296 76.341145,2.4773222 74.758,4.446 77.570753,1.7209718 75.153065,5.4590622 77.907701,2.8646496 76.001886,4.9988938 80.368788,2.182965 77.615,4.256 77.763692,4.3549083 81.561048,2.443719 78.501364,4.474854 79.25498,4.1945652 82.145145,3.2876171 79.211,4.973 81.607168,3.836799 80.529807,4.7077622 82.242,4.445 80.568796,5.5710521 83.533874,4.5888688 81.89,5.778 83.976451,4.6603964 79.996213,7.6391104 83.459103,6.3502715 82.915934,7.5080075 84.006224,7.0977565 81.978,8.636 83.440565,7.7421439 85.70204,8.546741 83.062709,9.5628673 80.916078,11.141106 86.508827,7.939364 83.486,10.142 c -2.694166,1.429915 -1.627891,1.297473 0.599866,0.02268 -0.08925,0.118336 -4.575611,3.38396 -2.020866,1.939319 3.611479,-2.4081914 2.298616,-0.07651 -0.439,1.423 -1.479276,2.106907 1.559958,-1.01602 2.607701,-1.04135 -0.509902,0.587905 -3.883389,2.858119 -1.009701,1.48135 -0.259598,0.348887 -2.84846,3.006666 -0.351,2.328 -0.742971,1.317928 0.243043,0.542987 1.07,1.861 0.899068,1.403395 0.192956,2.981366 -0.159272,4.226198 -0.733169,1.690219 2.840765,-2.581795 0.687272,1.486802 -0.711281,2.107401 -2.527449,3.595516 -2.755,3.295 -1.19319,1.25895 -4.451824,1.820233 -4.714622,1.269517 -3.123451,3.250145 1.215987,-2.978136 -1.074459,-0.818041 -1.439702,2.284774 -1.292496,0.807219 -2.62162,0.308874 -0.815313,0.851095 -1.448937,0.420615 -2.021299,0.30765 -1.944061,-0.307265 -3.267497,1.906597 -2.944,-1.348 0.495313,-1.135073 -0.380748,-2.311739 -0.0878,-4.536814 0.868707,-1.625955 0.342902,-3.245363 0.269207,-4.768854 0.216605,-0.664694 0.08468,-2.694533 -0.03699,-4.468949 -0.02662,-2.574425 -0.6959,-5.0645162 -0.08094,-7.6444526 C 68.6709,4.3396189 67.96543,3.1193013 69.585,2.657 z m -1.069,4.365 c -0.391797,1.7576527 -0.0023,4.483209 0.278,1.333 -0.387216,-0.4013447 0.347846,-1.1190907 -0.278,-1.333 z m 0.19,-0.894 c -0.694886,1.1651388 0.658158,0.8924379 0,0 z m 0.088,7.223 c 0.23977,-0.266007 -0.387957,-0.220215 0,0 z m 0,0.351 c 0.23977,-0.266007 -0.387957,-0.220215 0,0 z m 0.088,-9.17 c 0.23977,-0.266007 -0.387957,-0.2202149 0,0 z m 0.439,16.742 -0.264,0.719 0.264,-0.719 z m -0.263,1.612 0.176,0.176 -0.176,-0.176 z M 69.497,8.091 c 0.23977,-0.266007 -0.387957,-0.2202149 0,0 z m 1.524,-4.994 c -1.546114,2.1288995 -1.44302,2.498306 0.204847,0.254066 L 71.284,3.287 l -0.263,-0.19 0,0 z m -1.436,22.631 c 0.23977,-0.266007 -0.387957,-0.220215 0,0 z m 7.676,-8.555 c -2.399885,0.231452 -5.032443,-0.05609 -6.153,2.945 -3.096536,4.397685 2.664022,-3.340559 0.424001,0.731522 -1.802011,2.321135 -1.462671,2.861228 0.350857,0.384981 2.447107,-1.391025 -1.677973,2.536126 -2.11019,3.746223 1.27807,-0.447008 3.89073,-3.957793 1.506121,-0.386625 -2.899016,4.238466 0.309527,0.07015 1.358517,-0.439262 -1.150929,2.386219 -2.386614,3.164335 0.521694,1.132161 0.946934,0.699381 0.16703,1.083868 2.401,-0.087 -2.39912,2.681114 3.479542,-0.805859 2.138,0.526 -2.622224,2.189709 1.726,0.107619 2.613141,-1.210111 -1.408724,1.146036 1.487998,-4.68938 0.582131,-5.202078 C 80.33748,19.343225 79.272345,17.134337 77.261,17.173 z m -6.153,-6.68 c -2.040728,2.571931 -0.712085,2.708614 0,0 z m -1.333,5.084 0.176,0.176 -0.176,-0.176 z m 0,8.012 0.176,0.191 -0.176,-0.191 z m 0.44,-20.303 -0.352,0.791 0.352,-0.791 0,0 z m 2.402,3.649 c -1.35384,1.526575 -0.244889,2.0455632 -0.527,2.578 3.748246,-3.9223807 -4.375936,6.943183 -0.907375,2.8955 3.746593,-3.6072704 -4.039715,6.190119 0.279375,1.2055 2.365872,-3.019938 -0.01308,1.273736 -1.122588,2.4288 -0.740823,1.258568 2.245824,-2.469862 2.909588,-2.3418 -0.821534,1.953507 3.124706,-2.02886 0.352,1.701 1.323398,-0.939142 3.085283,-2.177953 2.99525,-1.461375 2.269053,-1.253624 -2.576004,3.274217 1.198875,0.219125 2.737195,-1.430596 0.437677,0.842753 0.536875,1.24225 1.706632,-1.22388 3.002069,-3.414409 1.948,-2.945 C 77.866165,14.495971 84.325095,7.5130261 78.985757,7.6148193 77.151272,7.2334599 73.725585,7.2580401 72.881409,7.0945574 73.171712,6.9664499 72.755164,6.9782815 72.617,6.935 z m -2.578,8.642 c 0.385892,-0.163613 -0.640602,-0.300989 0,0 z m 0,8.012 c 0.385892,-0.163613 -0.640602,-0.300989 0,0 z m 0.088,-9.799 c -0.05778,0.148711 -0.411556,1.059289 0,0 z m 4.453,2.856 c -1.933352,-0.107469 -3.095627,1.465463 -3.926,2.666 -1.262211,3.041892 1.753541,-2.994985 3.636243,-2.173184 0.553229,0.01 0.515992,-0.05532 0.289757,-0.492816 z m -4.453,4.101 c 0.385892,-0.163613 -0.640602,-0.300989 0,0 z m 0.894,-3.471 c -1.061037,1.353026 -0.897152,1.873019 0,0 l 0,0 z m -0.542,1.508 -0.352,0.631 0.352,-0.631 z m 0.087,-1.963 -0.352,0.807 0.352,-0.807 z m -0.263,10.342 c 0.23977,-0.266007 -0.387957,-0.220215 0,0 z M 70.479,3.286 70.303,3.097 70.479,3.286 z m -0.088,7.031 c 0.404473,0.232051 -0.01531,-0.5188822 0,0 z m 0.175,17.741 c 0.259788,-0.284338 -0.405729,-0.241284 0,0 z M 70.654,7.11 70.844,7.286 70.654,7.11 z m 0.279,9.184 c -0.100149,0.158149 -0.641184,1.012517 0,0 z m 0.439,-11.41 c -1.691831,1.5427858 0.690529,1.1961048 0,0 z m -0.439,4.629 c -0.94282,1.350963 0.612229,0.1990055 0,0 z m 0,8.642 c 0.404473,0.232051 -0.01531,-0.518882 0,0 z m 0.351,-9.258 c -0.682657,0.6097979 0.591996,0.2196963 0,0 z m 0.176,7.924 c -0.141388,0.18276 -0.797279,1.030574 0,0 z m -0.352,0.983 0.176,0.176 -0.176,-0.176 z m 0.176,-7.487 0.176,0.176 -0.176,-0.176 z m 0,7.311 c -0.232051,0.404473 0.518882,-0.01531 0,0 z M 71.548,8.81 c 0.23977,-0.266007 -0.387957,-0.2202149 0,0 z m 0,1.068 c -0.55653,0.801174 0.819886,0.142093 0,0 z m 0.088,5.523 c -0.954727,1.335055 0.649329,0.162543 0,0 z m 0.088,11.938 c -0.0934,0.155312 -0.6106,1.015355 0,0 z m 0,-20.58 0.19,0.176 -0.19,-0.176 z m 0.366,8.012 c -0.670051,0.627522 0.577607,0.224863 0,0 z m 0.351,-9.799 c -1.054034,1.3249363 0.821322,-0.00816 0,0 z m 0,10.517 c -0.546213,0.658756 0.603208,0.17239 0,0 z m 0.455,-0.455 c -0.103281,0.169039 -0.638053,1.044295 0,0 z M 74.58,6.128 C 70.746291,6.3544713 75.575515,7.1542578 76.002,6.495 75.550442,6.2889374 75.061868,6.2245998 74.58,6.128 z M 73.159,4.077 72.983,4.532 73.159,4.077 z m 0.44,1.611 c -1.39863,0.8786259 0.982493,0.4088727 0,0 z M 73.335,3.726 c -0.575558,0.7118229 0.811094,0.087279 0,0 z m 0.176,-0.264 0.264,0.176 -0.264,-0.176 0,0 z m 0.176,24.316 c 0.23977,-0.266007 -0.387957,-0.220215 0,0 z m 0.542,-1.332 c -0.0718,0.09573 -0.632199,0.842932 0,0 z m -0.176,2.051 c 0.23977,-0.266007 -0.387957,-0.220215 0,0 z m 0,-0.439 0.176,0.176 -0.176,-0.176 z m 0.439,-0.543 c -0.49216,0.474977 0.40416,0.203859 0,0 z m 0.264,-0.893 0.176,0.176 -0.176,-0.176 z m 0.893,0.088 c -0.09616,0.164999 -0.607842,1.043001 0,0 z m 0.264,-10.416 c -0.152991,0.229052 -0.785675,1.176281 0,0 z M 75.649,5.864 c -0.232051,0.4044731 0.518882,-0.015311 0,0 z m 0.352,-0.088 c 0.238435,-0.2647908 -0.386782,-0.2188046 0,0 z m 0.278,20.319 -0.366,0.527 0.366,-0.527 z m 0,-10.166 c -2.04008,0.903729 1.458293,0.0165 0,0 z m 0.088,-12.467 0,0.176 0,-0.176 z m 0.352,0.703 c -0.07617,0.1058853 -0.627832,0.8727813 0,0 z m 0.263,12.129 c 0.257121,-0.281885 -0.403344,-0.238484 0,0 z m 0,-10.971 0.19,0.189 -0.19,-0.189 z m 0.279,0 c 0.732688,0.1405473 0.08194,-0.4575344 0,0 z m 0.088,22.735 c 0.259788,-0.284338 -0.405729,-0.241284 0,0 z m 0.893,-11.852 c -1.856125,1.150034 0.515525,1.066633 0,0 z M 77.524,6.216 77.7,6.04 77.524,6.216 z m 0,8.818 c -0.252122,0.4264 0.528925,0.0077 0,0 z M 77.7,14.858 c -0.232051,0.404473 0.518882,-0.01531 0,0 z m 0.176,-9.535 c 0.23977,-0.266007 -0.387957,-0.2202149 0,0 z m 0,0.19 c 0.04166,0.507842 0.224831,-0.1198852 0,0 z m 0.542,-0.278 c -0.08288,0.1091127 -0.658455,0.8668873 0,0 z m 0.176,0.278 c -0.03822,0.03808 -0.665775,0.6632535 0,0 z m 0.176,-0.19 c 0.03375,0.5407476 0.233943,-0.1197179 0,0 z m 0.439,21.475 c -0.141028,0.181494 -0.797638,1.026506 0,0 z m 0.19,-9.977 c -0.105206,0.07589 -0.870794,0.628113 0,0 z m -0.087,9.801 c -0.232051,0.404473 0.518882,-0.01531 0,0 z M 79.399,5.147 c 0.404473,0.2320512 -0.01531,-0.5188822 0,0 z m 0.616,0.893 c -1.371118,0.6513341 0.904401,0.4261227 0,0 z m -0.264,20.406 c 0.23977,-0.266007 -0.387957,-0.220215 0,0 z m 0.176,-11.133 c 0.04166,0.507842 0.224831,-0.119885 0,0 z m 0.176,-8.554 c -0.232051,0.4044731 0.518882,-0.015311 0,0 z M 80.469,5.06 c 0.23977,-0.266007 -0.387957,-0.2202149 0,0 z m 0.263,11.586 -0.352,0.439 0.352,-0.439 z m 0.44,0.351 -0.352,0.367 0.352,-0.367 z M 80.908,7.11 c 0.09574,0.071801 0.842932,0.6321988 0,0 z m 0.176,15.411 c -0.05778,0.148711 -0.411556,1.059289 0,0 z m -0.176,1.347 c 0.502422,0.462822 0.259788,-0.659915 0,0 z m 0.176,-2.857 c 0.23977,-0.266007 -0.387957,-0.220215 0,0 z m 0.366,2.945 -0.366,0.439 0.366,-0.439 z M 81.26,11.3 81.45,11.476 81.26,11.3 z m 0.19,5.346 c -0.795595,0.770829 1.077469,-0.06229 0,0 z M 81.26,26.71 c 0.430799,0.151402 0.09037,-0.502813 0,0 z m 0.088,-1.963 c 0.059,0.551623 0.251189,-0.140552 0,0 z m 0.278,-8.994 c -0.741947,0.479094 0.663746,0.219644 0,0 z m 1.069,7.133 c -1.670706,0.334049 -0.725296,2.188308 0,0 z m -0.893,-0.717 c -0.0718,0.09574 -0.632199,0.842932 0,0 z M 81.626,6.847 81.802,7.111 81.626,6.847 z m 0.352,-0.176 c -0.837742,0.8117207 0.839242,-0.065368 0,0 z m -0.176,5.873 c 0.675277,0.108742 -0.07941,-0.445643 0,0 z m 0.615,8.73 c -1.776693,1.159979 1.217323,0.141895 0,0 z m -0.176,-11.22 -0.352,0.439 0.352,-0.439 z m 1.157,8.642 c -2.325814,1.587274 -1.015912,1.951495 0,0 z m -0.981,-0.088 -0.439,0.615 0.439,-0.615 z m 0.63,5.524 c -1.450901,1.919569 -0.978609,1.771684 0,0 z M 82.329,7.462 c -0.535039,0.6110618 0.630517,0.024522 0,0 z m -0.088,14.971 c -0.232051,0.404473 0.518882,-0.01531 0,0 z m 0.176,-10.782 0.19,0.176 -0.19,-0.176 z m 0.19,6.153 c 0.392635,-0.172441 -0.678974,-0.295193 0,0 z m 0.528,0.263 c -0.942694,0.582654 -0.300954,0.881282 0,0 z m 0.351,2.592 c -2.167686,0.870124 1.02016,0.493354 0,0 z m -0.175,1.158 -0.352,0.527 0.352,-0.527 z m 0.087,-12.92 c 0.238435,-0.2647908 -0.386782,-0.2188046 0,0 z m 0.279,10.782 -0.366,0.615 0.366,-0.615 z m 0.791,-10.957 0.19,0.176 -0.19,-0.176 z"
   id="path19003"
   inkscape:connector-curvature="0" />
	<path
   style="fill:#2b3990"
   d="m 91.909,15.255 c 2.263409,-0.114535 4.950476,0.67291 5.483473,3.263077 1.455911,2.880863 0.614015,6.045462 -0.459473,8.879923 -1.11042,1.81955 -3.395877,1.974658 -5.265011,2.16734 -2.608656,0.06137 -4.046253,-2.012905 -5.018989,-4.17234 -0.814272,-2.788285 -0.368908,-5.983761 0.938,-8.542 1.096663,-1.353792 2.84582,-1.051258 4.322,-1.596 z m -4.526,8.392 0.117,0.133 -0.117,-0.133 z m 1.201,-1.273 c -2.869987,0.972129 1.253731,0.07547 0,0 z m 0.322,0.541 c -3.060147,0.902421 -0.694992,1.004265 0,0 z m 0,0.543 c -3.782629,2.098563 -0.996709,0.831305 0,0 z M 88.057,22.11 c -1.649601,0.661402 1.445478,-0.180015 0,0 z m -0.205,-1.861 c -0.101822,0.760822 2.255701,-3.68e-4 0,0 z m 0.732,1.406 -0.806,0.205 0.806,-0.205 z m -0.337,2.725 c -2.115222,1.040254 1.171195,0.09792 0,0 z m -0.264,0.748 c -0.65841,0.580077 0.845682,0.03383 0,0 z m 0.264,0.527 -0.19,0.205 0.19,-0.205 z m 0.454,0.264 c -1.448677,0.645786 1.002167,0.351053 0,0 z m -0.381,-6.197 0.205,0.133 -0.205,-0.133 z m 0.205,5.201 c -0.595225,0.433835 0.455258,0.05324 0,0 z m -0.073,1.127 0.132,0.146 -0.132,-0.146 z m 0.41,-6.914 c -1.218126,0.396548 0.822071,0.430453 0,0 z m -0.219,5.113 c -0.530187,0.441618 0.519291,0.03843 0,0 z m 0.058,1.348 c 0.199403,-0.214054 -0.294897,-0.188137 0,0 z m 0.762,0.511 c -1.595137,1.146802 0.514499,0.713128 0,0 z m -0.601,-4.453 c -0.158081,0.254862 0.355465,0.02154 0,0 z m 3.662,-3.998 c -2.023898,0.643488 -2.698404,-0.04589 -3.276473,1.928708 -0.217464,1.604401 0.315455,2.332829 0.200269,4.494828 0.159918,1.533854 1.859864,2.904009 3.494188,2.571737 1.607139,0.495082 1.715539,-2.708324 2.178016,-3.193273 -1.333703,-1.117908 1.851401,-3.573749 -1.009,-2.667 1.834839,-1.318962 -1.102302,-2.422502 -1.587,-3.135 l 0,0 z m -3.281,7.998 -0.19,0.395 0.19,-0.395 z m 0.747,0.996 c -1.514931,0.478476 -0.681668,1.338832 0,0 z m -0.6,-8.115 c -0.149549,0.282773 0.336281,-0.04122 0,0 z m 0.937,8.262 c -1.065251,0.75682 -0.557612,1.239211 0,0 z m -0.264,-0.879 c -0.172789,0.289848 0.354038,0.01016 0,0 z m 0.455,0.674 c -0.409577,0.462389 0.445847,4.17e-4 0,0 z m -0.074,0.863 c -0.17458,0.317477 0.421555,-0.0356 0,0 z m 1.407,-0.394 c -0.761106,1.156763 0.316859,0.729371 0,0 z m 0.395,0.585 0.205,0.131 -0.205,-0.131 z m 0.132,-0.337 c -0.51067,0.704888 0.664805,0.07459 0,0 z m 0.674,0.087 -0.205,0.25 0.205,-0.25 z m 0,-0.146 c 0.160039,-0.185801 -0.288489,-0.141341 0,0 z m 1.538,-9.535 c -3.239901,1.459916 1.666067,0.377498 0,0 z m -0.147,0.996 c 0.445704,0.561182 0.140962,0.177484 0,0 z m 1.538,1.01 c -2.235166,0.77547 -1.311933,1.392107 0,0 z m -1.538,6.738 0.146,0.133 -0.146,-0.133 z m 0.074,-2.006 0.146,0.131 -0.146,-0.131 z m 0.864,-6.402 c -1.52638,1.021054 0.850567,0.509023 0,0 z m -0.337,1.67 c 0.647412,-0.0021 -0.371987,-0.319462 0,0 z m 0.205,-0.805 c -0.833247,1.166168 1.25281,-0.09452 0,0 z m 0.059,5.742 c 0.632887,0.112839 0.02118,-0.3545 0,0 z m 0.483,-4.41 c -0.06541,0.03979 -0.833256,0.506877 0,0 z m 0.264,1.803 c -1.949559,0.198864 1.691703,0.56704 0,0 z m -0.601,1.859 c 0.1176,0.788407 1.46735,0.202903 0,0 z m 0.117,-0.599 c 0.06541,0.03979 0.833256,0.506877 0,0 z m 0.074,-4.454 0.146,0.189 -0.146,-0.189 z m 0,3.852 c 1.245554,1.019319 1.018596,-0.03071 0,0 z m 0.41,-1.654 -0.264,0.205 0.264,-0.205 z m -0.074,5.404 c 0.178834,-0.202524 -0.304382,-0.161419 0,0 z m 0,-3.061 0.205,0.336 -0.205,-0.336 z m 0,3.575 c 0.285445,0.113686 0.07673,-0.336028 0,0 z m 0.132,-6.52 c -0.177257,0.298484 0.394381,0.0042 0,0 z m 0,5.742 0.22,0.264 -0.22,-0.264 z m 0.22,0.059 c 0.199591,-0.229876 -0.353344,-0.177528 0,0 z m 0.117,-5.127 c -0.347933,0.429903 0.453234,0.06039 0,0 z m 0.059,4.322 0.205,0.205 -0.205,-0.205 0,0 z m 0,0.322 c -0.102099,0.363688 0.290003,-0.0142 0,0 z m 0.205,0.424 c 0.198072,-0.212809 -0.293677,-0.186752 0,0 z m 0.132,-1.478 0.205,0.131 -0.205,-0.131 0,0 z m 0.205,-0.397 c -0.05894,0.732671 0.623587,-0.234973 0,0 z"
   id="path19005"
   inkscape:connector-curvature="0" />
	<path
   d="M112.051,6.479c0.205,0.166,0.386,0.371,0.542,0.615c0.029,0.166,0.107,0.299,0.234,0.396   c-0.098,0.205-0.176,0.434-0.234,0.688l0.088,0.396l-0.322-0.234l-0.146,1.244l0.146,0.455l-0.146,0.16   c0.068,0.166,0.166,0.322,0.293,0.469c-0.078,0.254-0.2,0.514-0.366,0.777l-0.176,0.541l0.176,0.074l-0.176,0.395v0.146h0.088   l0.234,0.309l-0.234-0.074l-0.088,0.162h0.088l-0.161,0.615c0,0.313,0.054,0.625,0.161,0.938l-0.161,0.615   c0.068,0.01,0.122,0.059,0.161,0.146l-0.161,0.703l0.161,0.072l-0.088,0.162v0.146l0.249,0.16c-0.107,0.068-0.19,0.172-0.249,0.309   c0.088,0.225,0.146,0.459,0.176,0.703l-0.176,0.541c0.186-0.127,0.342-0.307,0.469-0.541c0.049-0.098,0.132-0.176,0.249-0.234   c0.078,0.107,0.127,0.234,0.146,0.381l-0.542,1.699l-0.234,1.625l-0.161,0.631l0.161,1.244l-0.088,0.762l-0.146,0.543   c-0.146,0.137-0.278,0.293-0.396,0.469l-0.22,0.469l0.308,0.16l-0.234,0.381c0.117,0.078,0.249,0.133,0.396,0.162l0.293-0.309   l0.088,0.309l-0.088,0.072l-0.293,0.615l0.146,0.396l0.073,0.688l-0.542,0.938c-0.078,0.146-0.205,0.279-0.381,0.396   c-0.156,0.127-0.366,0.225-0.63,0.293l-0.293-0.293l-0.542,0.072l-0.542,0.221l-0.322,0.395l0.161-0.322l-0.396-0.293l-2.476,0.543   l-0.469-0.162l-0.146,0.162l-2.871-0.543l-0.688-0.469c-0.166-0.176-0.322-0.381-0.469-0.615l-0.322-0.775   c-0.146-0.186-0.303-0.396-0.469-0.631l-0.615-2.475l-0.073-0.85l0.146-1.393l-0.073-0.16l0.161-0.543l-0.161-0.16l0.161-0.381   v-0.162l0.234-1.23l0.308-0.629l0.234-0.689c0.049-0.186,0.122-0.342,0.22-0.469l0.791-1.23l0.542-0.541l0.469-0.631l0.688-0.381   c0.146,0.049,0.225,0.146,0.234,0.293l0.073,0.25l0.234-0.25l0.396-0.219l1.23-0.146l0.396-0.396l0.234,0.221   c-0.107,0.225-0.239,0.463-0.396,0.717c-0.146,0.127-0.225,0.309-0.234,0.543c-0.127,0.02-0.229,0.092-0.308,0.219   c-0.107,0.107-0.161,0.24-0.161,0.396l0.938-1.084l0.308-0.469l0.396-0.234l0.146,0.16l-0.688,1.012l0.22-0.088l0.864-0.85   l0.308-0.469c0.137,0.02,0.264,0.068,0.381,0.146l-0.469,0.629l-0.308,0.309l-0.615,0.863l0.234-0.088l0.615-0.541l-0.146,0.469   l-0.396,0.307l0.308,0.146l0.161-0.293l0.688-0.938c0.039-0.186,0.117-0.365,0.234-0.541c0.156-0.127,0.342-0.26,0.557-0.396   l0.22-0.688c0.02-0.146,0.073-0.279,0.161-0.396c-0.02-0.176-0.098-0.332-0.234-0.469l0.146-0.922   c0.098-0.234,0.151-0.494,0.161-0.777l-0.161-0.307l0.161-0.074c-0.156-0.146-0.283-0.326-0.381-0.541l0.381-0.703l0.088-0.309   l-0.161-0.072l0.234-0.543l-0.396-0.072c0.029-0.205,0.107-0.416,0.234-0.631l0.308-0.381l-0.073-0.248l-0.234,0.248l-0.234-0.16   l0.161-0.381l1.318-0.322l0.146,0.322l0.249,0.072l0.146-0.234l0.146,0.162L112.051,6.479z M100.273,22.3l-0.073,1.158   c0.029,0.293,0.127,0.6,0.293,0.922l-0.073-1.084C100.41,22.993,100.361,22.661,100.273,22.3z M100.581,24.849h0.161l-0.073-0.16   L100.581,24.849z M100.815,24.849l-0.073,0.469l0.073,0.381l-0.073,0.074l0.146,0.629l0.469,0.146   c0.068,0.098,0.142,0.152,0.22,0.162l-0.146-0.234l-0.396-1.084C101.006,25.196,100.933,25.015,100.815,24.849z M101.035,25.317   c-0.059-0.01-0.107-0.063-0.146-0.16L101.035,25.317z M101.123,20.206l-0.088,0.293l0.249-0.221L101.123,20.206z M102.046,17.95   c-0.068,0.146-0.166,0.273-0.293,0.381l-0.396,0.629l0.073,0.162l-0.308,0.615c0.029,0.127,0.107,0.199,0.234,0.219l0.85-1.846   C102.197,18.052,102.144,17.999,102.046,17.95z M101.753,18.022v-0.146h-0.088L101.753,18.022z M101.665,27.632l0.469,0.791   l0.454,0.293l-0.22-0.762L101.665,27.632z M101.826,23.765v-0.16h-0.073L101.826,23.765z M101.826,24.073v-0.146h-0.073   L101.826,24.073z M101.826,25.011c0.01,0.059,0.059,0.107,0.146,0.146C101.953,25.089,101.904,25.04,101.826,25.011z    M101.973,22.989l-0.073,0.307l0.146-0.072v-0.234H101.973z M101.973,25.464l0.073,0.234v-0.234H101.973z M102.368,18.96   c-0.117,0.156-0.195,0.338-0.234,0.543C102.271,19.347,102.349,19.165,102.368,18.96z M102.295,22.212v0.162l0.146-0.074   L102.295,22.212z M102.441,22.374c-0.088,0.166-0.137,0.346-0.146,0.541L102.441,22.374z M102.588,16.017l-0.146,0.307l0.308-0.146   C102.739,16.118,102.686,16.065,102.588,16.017z M108.799,16.397c-0.195,0.146-0.376,0.326-0.542,0.541l-0.85-0.219l-0.703-0.088   c-0.215,0.088-0.474,0.166-0.776,0.234l-1.011,0.234l-0.85,0.615c-0.127,0.361-0.308,0.746-0.542,1.156l-0.308,0.865l-0.469,2.637   l0.161,0.146l-0.073,0.234l0.073,0.629l-0.073,0.146v0.146h0.073l-0.073,0.088c0.02,0.322,0.068,0.66,0.146,1.012l0.234,0.996   c0.127,0.322,0.205,0.609,0.234,0.863l0.469,0.234l0.22-0.16l0.703,0.381l0.85,0.16l1.084-0.234l1.318,0.074v-0.074   c0.195-0.166,0.376-0.371,0.542-0.615l0.073-0.395l-0.146-0.074v-0.16l0.234-0.615l-0.088-1.012l0.161-0.615l-0.161-0.615   c0.117-0.273,0.2-0.586,0.249-0.938l-0.249-0.307l0.161-0.777l0.381-1.01l0.249-1.084l-0.088-0.689l0.088-0.234   c0.029-0.166,0.103-0.346,0.22-0.541l-0.469-0.162l0.161-0.234l-0.308,0.074l-0.396,0.16   C108.75,16.948,108.779,16.69,108.799,16.397z M102.983,26.636c-0.02-0.068-0.068-0.121-0.146-0.16   C102.856,26.524,102.905,26.577,102.983,26.636z M103.218,27.325c0.166,0.195,0.371,0.322,0.615,0.381L103.218,27.325z    M103.291,19.81c0.068,0.02,0.122,0.068,0.161,0.146L103.291,19.81z M103.76,16.792v0.146l0.161-0.072L103.76,16.792z    M104.141,15.548l-0.146,0.234l0.146,0.072l0.322-0.146L104.141,15.548z M104.609,27.882l-0.234,0.219l0.308,0.396l0.161-0.469   L104.609,27.882z M104.609,15.548c-0.02-0.059-0.068-0.113-0.146-0.162C104.482,15.435,104.531,15.489,104.609,15.548z    M104.917,16.251v0.146l0.161-0.074L104.917,16.251z M106.162,16.017l-0.234,0.381C106.064,16.31,106.143,16.183,106.162,16.017z    M105.928,27.485c0.049,0.078,0.127,0.127,0.234,0.146L105.928,27.485z M105.928,28.101c0.02,0.215,0.098,0.396,0.234,0.543   C106.162,28.438,106.084,28.257,105.928,28.101z M106.235,27.56h0.161v-0.146h-0.073L106.235,27.56z M106.323,15.854v0.162   l0.146-0.088L106.323,15.854z M106.47,15.708v0.146l0.161-0.072L106.47,15.708z M106.777,27.325l-0.308,0.16l0.161,0.074   l0.308-0.074C106.929,27.437,106.875,27.384,106.777,27.325z M106.865,16.323c0.01,0.068,0.059,0.117,0.146,0.146   C107.002,16.421,106.953,16.372,106.865,16.323z M107.788,16.397l0.073-0.074l-0.234-0.072   C107.666,16.3,107.72,16.349,107.788,16.397z M108.872,14.917c-0.215,0.215-0.42,0.479-0.615,0.791l-0.396,0.381   c0.01,0.059,0.063,0.113,0.161,0.162l0.85-0.865l0.308-0.381L108.872,14.917z M109.18,15.548l-0.22,0.307   C109.077,15.776,109.15,15.675,109.18,15.548z M109.341,25.86c-0.137,0.254-0.239,0.537-0.308,0.85   C109.18,26.456,109.282,26.173,109.341,25.86z M109.575,20.353l-0.322,0.541l-0.146,0.543c0.195-0.117,0.376-0.273,0.542-0.469   l0.073-0.469C109.712,20.45,109.663,20.401,109.575,20.353z M109.575,22.989l-0.322,0.615l-0.146,0.541l0.234-0.146l0.308-0.469   l0.073-0.469L109.575,22.989z M109.502,13.38l-0.249,0.541l0.249,0.088l0.146-0.176L109.502,13.38z M109.414,22.212l-0.161,0.309   l0.322-0.146C109.556,22.306,109.502,22.251,109.414,22.212z M109.502,24.468c-0.117,0.273-0.2,0.582-0.249,0.924l0.469-0.777   L109.502,24.468z M109.883,9.263c-0.166,0.195-0.322,0.43-0.469,0.703l0.308,0.074C109.829,9.796,109.883,9.536,109.883,9.263z    M109.414,10.04v0.16l0.161-0.072L109.414,10.04z M109.414,16.47v0.162l0.161-0.074L109.414,16.47z M109.648,22.124   c-0.01-0.059-0.059-0.107-0.146-0.146C109.521,22.026,109.57,22.075,109.648,22.124z M110.19,10.815   c-0.156,0.244-0.288,0.504-0.396,0.777c-0.137,0.215-0.21,0.449-0.22,0.703l0.469-0.703l0.381-0.381   C110.386,11.065,110.308,10.933,110.19,10.815z M109.795,12.749l-0.146,0.322l0.308-0.234L109.795,12.749z M109.722,20.353v-0.146   h-0.073L109.722,20.353z M110.044,14.155c-0.117,0.088-0.225,0.221-0.322,0.396C109.858,14.454,109.966,14.321,110.044,14.155z    M109.956,26.548l-0.161,0.322l0.322-0.16C110.098,26.642,110.044,26.587,109.956,26.548z M110.117,10.04l-0.234,0.395   C109.99,10.327,110.068,10.196,110.117,10.04z M110.044,12.677c-0.02-0.059-0.073-0.107-0.161-0.146   C109.912,12.579,109.966,12.628,110.044,12.677z M109.883,28.247c0.01,0.117,0.063,0.201,0.161,0.25L109.883,28.247z    M109.956,8.429c0.01,0.059,0.063,0.107,0.161,0.146C110.098,8.507,110.044,8.458,109.956,8.429z M109.956,14.009h0.161   l-0.073-0.176L109.956,14.009z M110.337,14.698l-0.381,0.469C110.132,15.05,110.259,14.894,110.337,14.698z M110.044,11.212h0.146   l-0.073,0.146L110.044,11.212z M110.044,27.485v0.146C110.093,27.583,110.093,27.534,110.044,27.485z M110.337,11.665   c-0.02,0.166-0.093,0.322-0.22,0.469c0.02,0.215,0.093,0.42,0.22,0.615l0.161-0.996L110.337,11.665z M110.264,13.54l-0.146,0.293   l0.308-0.146C110.415,13.618,110.361,13.569,110.264,13.54z M110.659,21.216l-0.469,0.836l-0.073,0.629l0.308-0.307   c0.039-0.244,0.117-0.508,0.234-0.791l-0.161,0.322c0.186-0.098,0.342-0.23,0.469-0.396   C110.889,21.392,110.786,21.294,110.659,21.216z M110.264,24.542l-0.146,1.01l0.073-0.234l0.234-0.307l0.073-0.396L110.264,24.542z    M110.19,26.548v-0.146h-0.073L110.19,26.548z M110.117,27.325v0.16l0.146-0.072L110.117,27.325z M110.425,7.257l-0.234,0.307   C110.327,7.485,110.405,7.384,110.425,7.257z M110.19,8.253l0.234-0.074l-0.161-0.072L110.19,8.253z M110.498,15.386l-0.308,0.396   l0.308,0.234v-0.162h-0.073l0.308-0.146C110.703,15.571,110.625,15.464,110.498,15.386z M110.337,20.675l-0.146,0.453l0.308-0.307   C110.488,20.753,110.435,20.704,110.337,20.675z M110.337,27.017l-0.146,0.234l0.234,0.162c0.107-0.049,0.186-0.127,0.234-0.234   C110.581,27.091,110.474,27.036,110.337,27.017z M110.337,27.706l-0.146,0.248C110.288,27.905,110.337,27.823,110.337,27.706z    M110.732,18.653l-0.146,0.762c-0.127,0.049-0.234,0.131-0.322,0.248c0.039,0.098,0.117,0.172,0.234,0.221   c0.029-0.088,0.083-0.162,0.161-0.221l0.22-0.791L110.732,18.653z M110.337,8.722c0.02,0.068,0.073,0.121,0.161,0.16   C110.479,8.833,110.425,8.78,110.337,8.722z M110.337,18.022v0.162l0.161-0.074L110.337,18.022z M110.337,24.38   c0.02,0.068,0.073,0.123,0.161,0.162C110.488,24.474,110.435,24.419,110.337,24.38z M110.498,16.938l-0.073,0.234l0.234-0.16   L110.498,16.938z M110.586,12.911c0.01,0.059,0.059,0.111,0.146,0.16C110.723,13.003,110.674,12.95,110.586,12.911z M110.806,8.956   l-0.146,0.395C110.757,9.243,110.806,9.112,110.806,8.956z M110.659,14.083v0.219h0.073l0.073-0.219H110.659z M110.732,11.124   c0.039,0.098,0.117,0.15,0.234,0.16L110.732,11.124z M110.806,14.845l-0.073,0.541l0.234-0.146L110.806,14.845z M110.806,16.323   v-0.146h-0.073L110.806,16.323z M110.879,17.261l-0.146,0.543l0.322-0.322L110.879,17.261z M110.879,26.241l-0.146,0.307   l0.322-0.072C111.035,26.378,110.977,26.3,110.879,26.241z M110.806,8.253h0.161l-0.088-0.146L110.806,8.253z M111.055,11.05   c-0.127,0.273-0.21,0.563-0.249,0.865C110.942,11.651,111.025,11.362,111.055,11.05z M110.879,18.653v-0.162h-0.073L110.879,18.653   z M111.201,27.794l-0.396,0.775l0.615-0.469L111.201,27.794z M111.201,10.509c-0.127,0.156-0.234,0.336-0.322,0.541   C111.025,10.903,111.133,10.724,111.201,10.509z M110.967,20.747l-0.088,0.221h0.176v-0.221H110.967z M110.967,21.29v-0.162h-0.088   L110.967,21.29z M111.055,10.2v-0.16h-0.088L111.055,10.2z M111.201,9.351c-0.078,0.166-0.127,0.371-0.146,0.615l0.366-0.541   L111.201,9.351z M111.348,11.519c-0.146,0.283-0.244,0.596-0.293,0.938C111.221,12.163,111.318,11.851,111.348,11.519z    M111.128,13.146c0.01,0.088,0.059,0.166,0.146,0.234L111.128,13.146z M111.274,21.759l-0.146,0.453l0.22-0.088l0.073-0.293   L111.274,21.759z M111.201,12.911c0.02,0.059,0.068,0.111,0.146,0.16C111.338,13.003,111.289,12.95,111.201,12.911z    M111.274,14.302v-0.146h-0.073L111.274,14.302z M111.348,20.425l-0.073,0.615l0.146-0.453v-0.162H111.348z M111.421,8.179   l-0.073,0.25l0.161-0.088V8.179H111.421z M111.348,12.749c0.02,0.068,0.073,0.123,0.161,0.162   C111.499,12.853,111.445,12.798,111.348,12.749z M111.509,8.722c-0.059,0.186-0.088,0.395-0.088,0.629l0.322-0.395   C111.694,8.868,111.616,8.79,111.509,8.722z M111.743,16.017l-0.322,0.453C111.597,16.353,111.704,16.202,111.743,16.017z    M111.743,7.563l-0.146,0.234h0.22L111.743,7.563z M111.743,8.501l-0.146,0.221h0.22V8.501H111.743z M111.67,15.239l-0.073,0.221   l0.146-0.074L111.67,15.239z M111.67,14.917c0,0.127,0.049,0.234,0.146,0.322L111.67,14.917z M111.743,16.938v0.162l0.146-0.088   L111.743,16.938z M111.963,18.491l-0.073,0.703l-0.146,0.074l0.073,0.307c0.117-0.186,0.225-0.42,0.322-0.703   C112.139,18.745,112.08,18.618,111.963,18.491z M111.89,19.575l-0.146,0.543c0.02,0.059,0.068,0.111,0.146,0.16l0.073-0.541v-0.162   H111.89z M111.89,22.521l0.073,0.234l0.088-0.234H111.89z M112.139,18.185l-0.176,0.234h0.249v-0.234H112.139z"
   id="path19007"
   fill="#2B3990" />
	<path
   style="fill:#2b3990"
   d="m 117.705,15.519 c 2.49773,0.584034 0.52536,3.505272 1.04,5.097 0.46347,2.378786 -1.47635,6.834781 2.738,6.211 2.44312,0.808478 4.61702,-5.383139 2.357,-1.334 -1.63571,1.924538 0.0676,-1.870604 -0.65056,-2.244469 0.59896,-1.118618 -0.0391,-1.800989 1.57127,-4.027331 1.23124,-3.287172 -0.90324,2.077112 -1.75471,2.1558 1.28289,-1.202904 -1.35257,-5.910336 1.50686,-5.373172 3.20296,-1.089429 0.77146,3.321321 1.62914,4.887172 -0.15887,4.169789 0.34467,8.568982 -1.32252,12.514212 -1.68998,2.204934 -4.86379,2.970393 -7.46748,2.339788 -2.60241,-1.922279 -0.21049,-5.500805 2.577,-3.207 1.55226,0.792577 3.78427,-2.0931 4.12322,-2.959374 -2.578,3.037338 0.56053,-1.482302 -3.14222,0.382374 -3.39203,0.321394 -6.49327,-2.578051 -5.082,-5.799 -0.13444,-1.230641 -0.0477,-2.89726 -0.088,-4.586 0.71056,-1.317939 -0.9277,-3.827668 1.09855,-3.897615 0.28882,-0.05313 0.57763,-0.106257 0.86645,-0.159385 z m -1.831,6.767 c -0.19222,0.336428 0.42982,-0.01471 0,0 z m 0.571,2.943 c -1.29132,2.622484 0.63905,0.288711 0,0 z m -0.205,1.803 c 0.1989,-0.220665 -0.32183,-0.182678 0,0 z m 0,-0.279 c 0.33134,0.36759 0.003,-0.481611 0,0 z m 0.147,-3.076 c -0.1947,0.317245 0.40364,0.02362 0,0 z m 0,2.799 0.132,0.205 -0.132,-0.205 z m 0.761,6.064 -0.63,0.762 0.63,-0.762 z m -0.556,-7.529 0.205,0.219 -0.205,-0.219 z m 0.205,-0.074 c -0.19277,0.334629 0.43106,-0.01069 0,0 z m 0.264,8.277 c -0.75895,0.775495 0.44014,0.615642 0,0 z m 0.087,-6.182 c -0.4381,0.404279 0.47454,0.203214 0,0 z m 0,-7.457 0.132,0.191 -0.132,-0.191 z m 0.059,-0.146 0.22,0.146 -0.22,-0.146 z m 0.22,12.759 c -0.0512,0.08198 -0.53543,0.856691 0,0 z m -0.22,0.893 0.146,0.133 -0.146,-0.133 z m 1.333,-15.615 c -1.71783,2.024253 -0.67137,2.279638 0,0 l 0,0 z m -1.113,0.41 -0.146,-0.131 0.146,0.131 z m -0.147,3.853 c -0.17556,0.301689 0.4292,-0.0074 0,0 z m 0.074,-4.058 c 0.29664,0.17581 0.003,-0.391097 0,0 z m 0,15.279 0.132,0.131 -0.132,-0.131 z m 0.073,-12.203 0.132,0.146 -0.132,-0.146 z m 0.278,-3.691 c -0.8236,1.143966 0.61527,-0.01178 0,0 z m -0.22,5.097 0.146,0.205 -0.146,-0.205 z m 0.367,10.504 c -0.11319,0.09061 -0.86281,0.69072 0,0 z m -0.147,1.26 c -0.0553,0.09168 -0.5314,0.881649 0,0 z m -0.146,-13.301 c -0.17238,0.312846 0.42143,-0.03472 0,0 z m 0.761,0.629 c -1.76123,1.485029 -0.0926,1.001926 0,0 z m -0.615,1.744 -0.146,0.264 0.146,-0.264 z m 0,-3.281 c -0.38303,0.370647 0.28462,0.156429 0,0 z m 0.205,5.229 c -0.0974,0.149329 -0.64388,0.986671 0,0 z m -0.205,-4.467 c -0.19222,0.336428 0.42982,-0.01471 0,0 z m 0.147,-0.983 c -0.1947,0.317245 0.40364,0.02362 0,0 z m 0.058,0.983 c 0.18076,-0.196715 -0.27794,-0.168678 0,0 z m 0.278,5.58 -0.337,0.557 0.337,-0.557 z m 0.132,0.556 c -1.33725,0.6002 0.15684,0.535358 0,0 z m -0.263,-10.048 c -0.66238,0.522261 0.52662,0.186057 0,0 z m 0,15.894 c -0.60124,0.4634 0.6447,0.0887 0,0 z m 0,-12.965 c 0.17883,-0.202524 -0.30438,-0.161419 0,0 z m 0,4.821 c 0.1989,-0.220665 -0.32183,-0.182678 0,0 z m 0.058,0.629 c 0.1781,-0.194252 -0.27554,-0.165886 0,0 z m 0.425,2.167 -0.425,0.689 0.425,-0.689 z m -0.278,-10.546 c 0.17883,-0.202524 -0.30438,-0.161419 0,0 z m 0,7.339 c 0.0107,0.411706 0.17029,-0.08004 0,0 z m 0.278,-2.037 c -0.0559,0.09318 -0.53081,0.885491 0,0 z m 0,11.221 c -0.0512,0.08198 -0.53543,0.856691 0,0 z m 0.205,-0.205 c -0.41272,0.446483 0.4496,0.02949 0,0 z m 0.073,-5.287 c -0.19031,0.331292 0.39326,-0.0055 0,0 z m 0.132,-0.133 c -0.17305,0.312013 0.38503,-0.0259 0,0 z m 0.352,5.494 -0.264,0.352 0.264,-0.352 z m 0.205,-5.435 -0.264,0.572 0.264,-0.572 z m 0,0.703 c 0.31687,0.194575 0.0242,-0.401053 0,0 z m 0.366,-0.336 0.146,0.131 -0.146,-0.131 z m 0.264,-0.147 -0.117,0.205 0.117,-0.205 z m 0.073,-0.761 c 0.34898,0.188017 -0.0427,-0.421839 0,0 z m 0.146,1.113 0.132,0.131 -0.132,-0.131 z m 0,4.512 0.132,0.205 -0.132,-0.205 z m 0.762,0.205 c -1.0304,1.15094 -0.81314,2.750539 0,0 z m -0.483,-5.01 c -0.68102,0.561525 0.5691,0.1746 0,0 z m -0.147,6.064 0.205,0.205 -0.205,-0.205 z m 0.63,-6.474 -0.205,0.41 0.205,-0.41 z m 0.073,6.4 c -0.57488,0.574708 0.32308,0.864607 0,0 z m 0.425,0.133 0.205,0.219 -0.205,-0.219 z m 0.117,-0.967 c 0.19703,-0.205495 -0.26516,-0.190238 0,0 z m 0.088,0 c -0.43992,0.797139 0.59796,0.260948 0,0 z m 0,-0.293 c -0.1947,0.317245 0.40364,0.02362 0,0 z m 2.783,-2.842 c -3.33018,2.91145 -1.38626,2.473917 0,0 z m -0.336,1.948 c -3.07542,2.281037 -0.44655,1.348942 0,0 z m -1.055,-4.659 c -0.50367,0.630008 0.72326,-0.09122 0,0 z m 0.073,4.879 c -0.77048,0.897215 0.6727,0.05728 0,0 z m 0.205,-4.879 -0.146,-0.131 0.146,0.131 z m 0.073,-9.359 c 0.18151,-0.20493 -0.30668,-0.164267 0,0 z m -0.073,5.654 c -0.06,0.619774 0.36992,-0.19599 0,0 z m 0,4.19 0.205,0.146 -0.205,-0.146 z m 0.073,-0.762 c -0.002,0.571972 0.22755,-0.0988 0,0 z m 0.484,4.512 -0.483,0.645 0.483,-0.645 z m -0.41,-14.283 c 0.30788,0.104712 0.0544,-0.370066 0,0 z m 0.205,5.728 c -0.62569,0.630621 0.51371,0.155711 0,0 z m 0.058,3.487 c -0.0394,0.06463 -0.50724,0.831373 0,0 z m 1.333,-4.893 c -2.55825,3.657593 -0.97015,3.135812 0,0 z m -1.245,0.131 c -0.6448,0.783798 0.41656,0.478477 0,0 z m 0.967,4.394 c -1.82657,1.538075 -0.92535,2.32645 0,0 z m -1.055,-8.437 0.146,0.146 -0.146,-0.146 z m 0.088,0.41 c 0.1794,-0.212111 -0.33663,-0.155823 0,0 z m 0.205,4.146 c -0.69124,1.053344 0.59645,0.26565 0,0 z m -0.146,-4.703 0.146,0.146 -0.146,-0.146 z m 0,3.985 0.146,0.146 -0.146,-0.146 z m 0.146,4.468 c -0.57991,0.50852 0.64673,0.427524 0,0 z m 0.132,-8.994 c -0.0639,0.132174 -0.48276,0.998492 0,0 z m -0.058,4.174 c -0.72889,0.631074 0.51672,0.201379 0,0 z m 0.205,10.035 -0.278,0.352 0.278,-0.352 z m 0.893,-11.002 c -1.62509,2.343696 -0.72798,2.696622 0,0 z m -1.04,-1.947 c 0.34214,0.193924 -0.0231,-0.472026 0,0 z m 0.366,7.045 c -0.84166,0.98313 0.15016,0.799064 0,0 z m -0.293,4.043 0.146,0.146 -0.146,-0.146 z m 0.205,-11.807 c -0.56969,0.698801 0.47072,0.08589 0,0 z m -0.058,0.557 c 0.17883,-0.202524 -0.30438,-0.161419 0,0 z m 0.264,1.963 c -0.75257,1.77784 0.23002,0.511769 0,0 z m 0,8.863 c -0.57056,0.401844 0.10572,0.910911 0,0 z m -0.206,-1.598 0.205,0.146 -0.205,-0.146 z m 0.425,-10.751 c -0.15766,0.397669 -0.73038,1.842212 0,0 z m 0,8.32 c -0.93333,0.887691 0.67917,0.419958 0,0 z m -0.278,1.23 c 0.34388,0.185515 -0.0315,-0.382566 0,0 z m 0.278,-6.474 c -0.60188,0.614824 0.49257,0.19348 0,0 z m -0.073,6.226 0.146,0.248 -0.146,-0.248 z m 0.147,-0.162 c 7.2e-4,0.452786 0.18136,-0.07988 0,0 z m 0.131,-0.82 c 0.21758,-0.237783 -0.33843,-0.202334 0,0 z m 0,2.506 c 0.1989,-0.220665 -0.32183,-0.182678 0,0 z m 0.074,-5.934 0.205,0.205 -0.205,-0.205 z m 0,1.744 c 0.0727,0.635102 0.43162,-0.279992 0,0 z m 0.058,-0.293 0.146,0.219 -0.146,-0.219 z m 0.425,-6.474 c -0.25676,1.274979 0.28386,0.177679 0,0 z"
   id="path19009"
   inkscape:connector-curvature="0" />
	<path
   style="fill:#2b3990"
   d="m 47.034,86.614 c 2.316596,0.237343 4.968844,-0.05578 6.781769,1.831397 1.945721,2.401573 3.19249,5.633794 3.295089,8.733114 -0.544586,1.962814 -0.153401,3.731439 -0.932836,5.640889 -0.502194,3.02659 -2.731962,6.23394 -6.049022,6.0846 -2.468341,1.27173 -5.016712,0.17849 -7.546,-0.211 -2.417457,-2.84324 -4.711564,-6.01819 -4.675036,-9.94859 0.526055,-3.458964 0.227369,-7.691955 2.965036,-10.30341 1.836093,-1.459069 4.075775,-0.983003 6.161,-1.827 z m -7.242,13.43 0.188,0.211 -0.188,-0.211 z m 1.922,-2.039 c -4.646019,1.498385 1.941446,0.195153 0,0 z m 0.515,0.867 c -3.235845,0.745525 -2.434171,2.32258 0,0 z m 0,0.867 c -3.238398,1.57949 -1.877094,1.45644 0.445,0.211 L 42.378306,99.809795 42.229,99.739 l 0,0 z M 40.87,97.583 c -2.462125,1.014617 2.084783,-0.258507 0,0 z m -0.328,-2.977 c -0.06528,1.20462 3.33819,0.0075 0,0 z m 1.172,2.25 c -1.776551,0.304225 -1.637543,0.565664 0,0 z m -0.539,4.36 c -2.860767,1.48545 1.632993,0.23261 0,0 z m -0.422,1.195 c -0.991601,0.98564 1.337326,0.0206 0,0 z m 0.422,0.844 c -0.08629,0.0928 -0.727038,0.78186 0,0 z m 0.726,0.422 c -2.285666,1.05867 1.448817,0.53409 0,0 z m -0.609,-9.914 0.328,0.211 -0.328,-0.211 z m 0.328,8.32 c -0.744961,0.68379 0.582597,0.0465 0,0 z m -0.117,1.805 0.211,0.234 -0.211,-0.234 z m 0.656,-11.063 c -1.924751,0.693251 1.261443,0.59012 0,0 z m -0.351,8.18 c -1.177247,0.71091 0.943355,0.0269 0,0 z m 0.093,2.156 c 0.317422,-0.34078 -0.469587,-0.29946 0,0 z m 1.219,0.82 c -3.143607,2.35841 1.238182,0.87239 0,0 z m -0.961,-7.125 c -0.253819,0.410347 0.570516,0.03272 0,0 z m 5.86,-6.398 c -1.564343,1.280886 -4.785479,-0.244308 -4.288,1.594 -1.210294,1.735633 -1.597512,4.029938 -0.563266,4.760919 -0.596305,1.795567 0.128159,3.506441 0.235266,5.271081 0.723925,1.37837 3.239507,3.43883 5.22302,2.78854 1.19184,0.65782 3.087707,-1.58622 2.618854,-3.09172 1.556852,-1.38158 0.03276,-3.122713 0.859905,-4.468867 C 52.049,95.11082 53.63893,94.865398 50.55,95.473 c 3.704748,-1.97395 -1.893167,-2.201017 -0.422,-4.055 -0.746692,-1.070404 -1.589341,-0.176308 -2.109,-0.96 z m -5.25,12.797 -0.305,0.633 0.305,-0.633 z m 1.195,1.594 c -2.336365,0.73639 -1.063426,2.13214 0,0 z M 43.003,91.864 c -0.240922,0.452666 0.541299,-0.06241 0,0 z m 1.5,13.219 c -1.495585,0.99541 -0.940516,1.93281 0,0 z m -0.422,-1.406 c -0.278547,0.46573 0.569799,0.0186 0,0 z m 0.727,1.078 c -0.631891,0.72488 0.669842,-0.0146 0,0 z m -0.118,1.383 c -0.277283,0.5043 0.675196,-0.0573 0,0 z m 2.25,-0.633 c -1.258509,2.03198 0.434116,1.66062 0,0 z m 0.633,0.937 c 0.675132,0.43431 0.199534,0.12836 0,0 z m 0.211,-0.539 c -0.568648,0.90745 0.855836,0.22775 0,0 l 0,0 z m 1.078,0.141 c -0.117054,0.14204 -0.757612,0.9193 0,0 z m 0,-0.234 c 0.257146,-0.29836 -0.46291,-0.22723 0,0 z m 2.461,-15.258 c -2.713952,2.047085 0.836858,1.426682 0,0 z m -0.234,1.594 c 0.766989,0.969631 0.171678,0.217035 0,0 z m 2.461,1.617 c -2.906106,0.953385 -1.988525,2.049577 0,0 l 0,0 z m -2.461,10.781 0.234,0.211 -0.234,-0.211 z m 0.117,-3.211 0.234,0.211 -0.234,-0.211 z m 1.383,-10.242 c -2.31855,1.400128 1.16272,1.025015 0,0 z m -0.539,2.672 c 0.983379,-0.032 -0.54898,-0.451817 0,0 z m 0.328,-1.289 c -1.403517,1.850201 2.215482,-0.144755 0,0 z m 0.094,9.187 c 0.673584,0.0435 0.289176,-0.49121 0,0 z m 0.773,-7.055 c -0.233521,0.142106 -1.203812,0.732561 0,0 z m 0.422,2.883 c -3.077939,0.404604 2.679207,0.797594 0,0 z m -0.961,2.977 c 0.384132,1.28625 2.07555,0.29636 0,0 z m 0.188,-0.961 c 0.233521,0.142106 1.203812,0.73256 0,0 z m 0.117,-7.125 c 0.480533,0.626335 0.143467,0.186998 0,0 z m 0,6.164 c 0.762809,0.892522 3.218128,0.557717 0,0 z m 0.656,-2.648 -0.422,0.328 0.422,-0.328 z m -0.117,8.648 c 0.288019,-0.32584 -0.489042,-0.2602 0,0 z m 0,-4.898 0.328,0.539 -0.328,-0.539 z m 0,5.718 c 0.456803,0.1822 0.12217,-0.53962 0,0 z m 0.211,-10.429 c -0.281259,0.474545 0.629511,0.0049 0,0 z m 0,9.187 0.352,0.422 -0.352,-0.422 z m 0.351,0.094 c 0.31989,-0.3684 -0.56623,-0.28455 0,0 z M 54.3,96.013 c -0.556727,0.687484 0.725108,0.09495 0,0 z m 0.094,6.914 c 0.69376,0.69376 0.180906,0.18091 0,0 z m 0,0.515 c -0.163637,0.5829 0.464799,-0.0227 0,0 z m 0.328,0.68 c 0.317422,-0.34078 -0.469587,-0.29946 0,0 z m 0.211,-2.367 c 0.06062,0.039 0.814049,0.52367 0,0 z m 0.328,-0.633 c 0.113322,0.92678 0.86186,-0.17515 0,0 z"
   id="path19011"
   inkscape:connector-curvature="0" />
	<path
   style="fill:#2b3990"
   d="m 61.753,77.169 c 2.259892,-0.150534 3.689662,0.103365 2.742,2.601 0.363414,1.288448 -1.116886,6.477512 1.56018,4.329688 2.749435,0.567589 7.712906,0.548532 4.92982,4.108312 -1.123166,1.304162 -3.064122,-0.06333 -4.891295,0.49625 -2.282432,-1.081103 -2.338462,2.324573 -1.659787,3.243395 0.749341,0.705856 -2.303385,3.897407 -1.528033,4.185819 3.826652,-2.581939 -3.088778,4.761296 1.188115,0.793536 0.258338,1.910382 -0.857976,3.72683 -1.9726,4.8326 2.293351,-2.91179 2.200466,-0.28013 0.0276,1.2614 3.370828,-2.75452 1.362972,2.95075 1.603676,3.82774 2.235101,2.21763 -3.392204,3.27888 -4.721676,2.54626 -0.455062,-2.18622 0.06998,-4.39187 -0.03779,-6.1947 0.231209,-2.06065 0.54885,-3.833157 0.481462,-5.868208 C 59.086616,95.692846 58.563621,93.806168 59.548,92.379 58.867905,90.685544 59.923067,88.957327 59.237684,87.042537 59.192342,84.67025 58.495764,82.122339 59.644097,79.841419 59.027198,77.924789 60.358983,77.857135 61.753,77.169 z m -1.43,6.492 c 0.08141,0.125593 0.606586,0.935741 0,0 z m 0.399,21.305 c 0.524557,-0.22111 -0.937489,-0.4244 0,0 z m 0,-17.531 c -0.343382,0.58211 0.768358,0.0018 0,0 z m 0,17.015 c 0.109697,0.0755 0.890303,0.61253 0,0 z m 0.117,-15.07 c -0.343382,0.58211 0.768358,0.0018 0,0 z m 0.14,-2.203 0.258,0.258 -0.258,-0.258 z m 0.516,16.898 c -1.171895,0.33008 0.07567,0.6905 0,0 z m -0.398,-21.703 0.258,0.258 -0.258,-0.258 z m 0.398,14.414 c -1.19182,1.225583 0.886225,0.321214 0,0 z m -0.398,5.719 c 0.582259,0.22567 0.126458,-0.72836 0,0 z m 0.257,-15.727 c -0.607706,0.788139 0.79984,0.04051 0,0 l 0,0 z m 0.657,11.578 c -1.174576,1.342039 -0.861796,1.77363 0,0 z m -0.117,4.665 -0.656,1.055 0.656,-1.055 z m -0.54,-24.165 c 0.866233,0.866233 0.195101,0.195101 0,0 z m 0.399,0.141 c 0.946125,-0.139291 -1.004073,-0.482203 0,0 z m -0.258,16.102 c -0.343382,0.58211 0.768358,0.0018 0,0 z m 0.258,-8.696 0.258,0.258 -0.258,-0.258 z m 0.258,9.727 c -1.188269,1.128621 1.391055,0.64812 0,0 z m 0,-17.93 c -0.462743,0.810433 0.59729,0.159911 0,0 z m 0.258,1.055 c -0.668652,0.7765 -0.239667,0.886569 0,0 z m -0.118,13.758 c -1.387233,1.699551 0.932874,0.228312 0,0 z m 1.172,5.601 c -2.33318,1.80278 -0.121126,1.5265 0,0 l 0,0 z M 62.808,85.349 c -1.476904,2.213987 0.04755,0.590888 0,0 z m -0.539,4.945 c 0.58211,0.343382 0.0018,-0.768358 0,0 z m 0.14,4.289 c 0.35208,-0.397159 -0.593644,-0.318862 0,0 z M 63.44,78.341 c -1.450536,0.236567 1.316655,2.790687 0,0 z m -0.773,18.961 c -0.170848,0.656007 0.536129,-0.03499 0,0 z m 0.258,-3.633 c 0.58211,0.343382 0.0018,-0.768358 0,0 z m 0.14,-4.406 0.258,0.258 -0.258,-0.258 z m 0.118,-4.172 c -0.343382,0.58211 0.768358,0.0018 0,0 z m 0.257,5.203 c -1.499945,1.89531 1.312191,-0.253341 0,0 z m 0.141,-10.125 c -0.07547,0.109697 -0.612529,0.890303 0,0 z m 0.117,8.555 c -0.167283,0.240441 -0.832186,1.196128 0,0 z M 63.44,84.833 c -0.343382,0.58211 0.768358,0.0018 0,0 z m 0,8.32 c 0.58211,0.343382 0.0018,-0.768358 0,0 z m 0.258,-8.578 c -0.343382,0.58211 0.768358,0.0018 0,0 z m 0.258,5.719 c 0.604432,-0.24546 -0.945401,-0.410385 0,0 z m 0.281,-5.063 c -0.890136,0.683734 0.801877,0.09006 0,0 z m 1.805,0.633 c -0.367354,0.637677 0.768112,-0.01048 0,0 z m 0.516,-0.515 c -1.182754,1.120158 0.891262,0.05351 0,0 z m 0,22.218 c 0.08141,0.12559 0.606586,0.93574 0,0 z m 0.257,-22.476 c -0.345188,0.591919 0.827883,-0.01232 0,0 z m 0.282,-0.258 c -0.343382,0.58211 0.768358,0.0018 0,0 z m 1.547,0.914 c 0.58211,0.343382 0.0018,-0.768358 0,0 z m 0.257,-0.516 0.258,0.258 -0.258,-0.258 z M 69.3,84.974 c 0.04075,0.736005 0.315733,-0.159088 0,0 z"
   id="path19013"
   inkscape:connector-curvature="0" />
	<path
   style="fill:#2b3990"
   d="m 84.253,85.255 c 1.171883,1.985548 2.431353,2.505666 2.438,0.118 1.241872,1.26983 3.409861,0.626414 2.856188,1.748402 1.705933,-0.208643 1.208519,0.793542 2.721812,0.242598 -0.431419,1.690702 -0.307484,1.331472 0.751527,1.878068 -2.448823,1.057683 2.848922,0.08621 1.455073,3.323332 0.788818,2.234513 0.137013,4.611219 -1.112111,5.328866 -1.372676,-2.039698 -1.81906,1.388258 -2.431273,0.04846 0.01079,-3.959179 -1.674289,2.052538 -2.389216,-1.25022 -0.39067,1.007782 -3.498531,1.858846 -5.424687,1.595698 -1.364865,-0.245897 -3.321945,0.958605 -2.147063,2.058801 -0.267689,1.93408 0.785008,2.62101 2.601183,3.93056 1.709242,0.98869 2.483977,1.52719 2.884567,-0.32156 1.319614,2.03317 0.501088,-0.002 2.439,-0.469 -0.227733,1.98221 1.1715,-1.4339 1.758,1.266 0.951811,-3.06502 2.42232,-0.30934 2.908,2.343 -1.052402,0.0559 -3.707021,1.91576 -5.001221,1.59954 -1.601923,0.97483 -5.545802,1.41646 -5.319218,-0.22127 -1.332891,0.76862 -3.425441,-2.60233 -4.415886,-2.60207 -1.471588,-0.98285 -1.909405,-3.3474 -2.20148,-5.10252 C 76.492472,99.20989 75.779701,97.567474 76.002,95.942 75.565224,93.476453 75.977826,90.444421 77.553048,88.471039 79.461586,86.781195 82.368672,86.140943 82.962,86.638 c -0.259057,-2.273526 1.102175,1.957652 1.137597,-1.344894 L 84.253,85.255 l 0,0 z m -8.133,9.867 c 0.53689,0.194799 0.1059,-0.65854 0,0 z m 0.234,0.352 -0.234,-0.234 0.234,0.234 0,0 z M 76.12,100.7 c 0.119766,0.11977 0.818901,0.8189 0,0 z m 0.352,-7.547 c 0.318786,-0.353668 -0.515806,-0.292786 0,0 z m 0.093,-1.406 c -0.454373,0.750024 0.661944,0.145758 0,0 z m 0,-0.562 c 0.539223,0.30987 -0.01879,-0.690534 0,0 z m 0.118,0.117 c -0.549911,0.451287 0.568513,0.55068 0,0 z M 76.8,90.716 77.034,90.95 76.8,90.716 z m 0.117,-0.68 c -0.01596,1.607648 0.788765,-0.469911 0,0 z m 0.234,-0.375 c 0.06431,0.103064 0.559688,0.896936 0,0 z m 0.727,4.992 c -0.595832,1.950706 0.538894,3.049675 0,0 z m 0.328,-1.617 c -0.674595,0.343291 0.05932,1.10336 0,0 z m 0.234,3.844 c -0.308523,0.537765 0.689877,-0.02036 0,0 z m 0.118,0.68 c 0.288064,-0.326462 -0.491148,-0.25985 0,0 z m 0,0.586 c 0.318838,-0.354259 -0.517865,-0.292467 0,0 z m 0.117,7.57 c -0.308523,0.53777 0.689877,-0.0204 0,0 z m 0.234,0.445 c 0.537765,-0.30852 -0.02036,0.68988 0,0 z m 2.086,-19.406 c -2.879728,1.35406 -1.698524,2.38371 0,0 z m -1.734,11.976 c 0.318786,-0.353668 -0.515806,-0.292786 0,0 z m 0,0.118 c -0.561534,1.96733 0.547061,0.961669 0,0 z m 0.445,2.554 c -1.640246,2.01591 1.171223,2.86122 0,0 z m -0.117,-8.367 -0.328,0.586 0.328,-0.586 z m -0.211,3.024 c -0.382426,1.190878 0.55481,1.368663 0,0 z m 0,-6.024 0.211,0.234 -0.211,-0.234 z m 0,1.383 0.211,0.234 -0.211,-0.234 z m 0,3.703 c -0.02512,0.850664 0.318864,-0.07627 0,0 z m 0,0.469 c -0.02512,0.850664 0.318864,-0.07627 0,0 z m 0,1.851 c 0.468092,0.513889 0.150066,-0.752847 0,0 z m 0.328,3.493 c 0.0087,0.85424 0.351764,-0.10736 0,0 z m 0.352,-10.102 c -0.77904,0.693508 0.721297,0.06663 0,0 z m 0.117,1.031 c -0.718477,0.779084 -0.164288,0.829189 0,0 z m 0,1.407 c -0.819158,1.396422 0.914373,0.675711 0,0 z m 0.469,10.921 c -0.778618,0.80593 0.786902,0.0558 0,0 z m 4.195,-13.828 c -1.533458,0.668343 -4.438355,0.546909 -3.637253,2.946729 0.688929,1.12476 3.514041,0.57549 3.286253,1.459271 -0.202485,3.02938 0.275618,1.385314 0.49735,-0.853701 1.121445,-0.599905 1.063662,1.217389 2.40965,-0.294299 1.960088,3.422486 4.097561,-2.041481 1.03,-2.672 -1.288527,0.162283 -2.46173,-0.463124 -3.586,-0.586 z m -3.141,6.516 c 0.318786,-0.353668 -0.515806,-0.292786 0,0 z m 0,-1.055 0.234,0.352 -0.234,-0.352 z m 0.117,8.133 c -0.505662,0.75149 0.688159,0.17064 0,0 z m 0.118,-8.602 c -0.540237,0.450999 0.554117,0.553839 0,0 z m 0,-8.601 c 0.01429,0.849466 0.343348,-0.07031 0,0 z m 0,0.492 c -0.104008,0.956608 0.73048,0.678421 0,0 z m 0,18.703 c 0.537765,0.30852 -0.02036,-0.68988 0,0 z m 0.117,-11.297 0.234,0.352 -0.234,-0.352 z m 0.117,10.36 0.234,0.234 -0.234,-0.234 z m 0.117,0.703 c 0.318786,-0.35367 -0.515806,-0.29279 0,0 z m 0.117,-9.07 c -0.436771,1.081428 0.652361,0.634001 0,0 z m 0.446,-1.172 c -1.133184,1.704391 0.910363,1.284022 0,0 z m -0.118,-7.782 c -0.505662,0.751487 0.688159,0.170641 0,0 z m 0,18.258 c 0.08074,0.15354 0.543263,1.03313 0,0 z m 0,0.446 c -0.06037,1.55655 0.504059,0.0644 0,0 z m 0.118,-0.68 0.234,0.234 -0.234,-0.234 z m 0.234,-10.242 c 0.318786,-0.353668 -0.515806,-0.292786 0,0 z m 0,9.07 c -0.514839,0.82457 0.789793,-0.0864 0,0 z m 0,0.469 c -0.447015,0.89568 0.49245,0.17453 0,0 z m 0.234,-10.242 c 0.288019,-0.325844 -0.489042,-0.260196 0,0 z m 0.235,1.64 c 0.0087,0.854243 0.351764,-0.10736 0,0 z m 0.234,9.305 c -0.521958,0.85459 0.601166,0.35066 0,0 z m 0,0.914 c 0.318786,-0.35367 -0.515806,-0.29279 0,0 z m 0,-1.383 0.234,0.234 -0.234,-0.234 z m 0.235,-18 c 0.730451,0.437856 0.208215,0.124811 0,0 z m 0.117,-1.758 c 0.0087,0.854243 0.351764,-0.10736 0,0 z m 0.117,1.149 c -0.532157,0.785689 0.866262,1.140981 0,0 z m 0,1.992 c 0.318786,-0.353668 -0.515806,-0.292786 0,0 z m 0,8.484 0.234,0.328 -0.234,-0.328 z m 0.117,0.68 c 0.318786,-0.353668 -0.515806,-0.292786 0,0 z m 0.352,9.305 c 0.0087,0.85424 0.351764,-0.10736 0,0 z m 0.351,-18.703 c 0.53689,0.194799 0.1059,-0.65854 0,0 z m 0.446,6.726 c -0.684,1.597024 0.849971,0.948038 0,0 z m -0.211,1.172 0.211,0.234 -0.211,-0.234 z m 0,0.352 c -0.09851,0.896726 0.52022,-0.24138 0,0 z m 0.211,9.515 c 0.288019,-0.32584 -0.489042,-0.2602 0,0 z m 0.234,-20.555 c 1.489611,0.531917 -0.993361,0.577129 0,0 z m 0.234,2.321 c -0.119766,0.119766 -0.818901,0.818901 0,0 z m 0,18.703 0.352,0.352 -0.352,-0.352 z m 0.117,-0.914 c 0.105345,1.06926 0.727072,-0.46763 0,0 z m 0,0.562 0.234,0.234 -0.234,-0.234 z m 0,0.821 c -0.308523,0.53777 0.689877,-0.0204 0,0 z m 0.118,-1.852 c 0.487852,0.73386 0.136148,0.2048 0,0 z m 0.703,-18.844 c -0.587884,0.513317 0.539716,0.876993 0,0 z m -0.235,0.961 c 0.53689,0.194799 0.1059,-0.65854 0,0 z m 0.118,-1.523 0.352,0.445 -0.352,-0.445 z m 0.351,19.758 c 0.318786,-0.35367 -0.515806,-0.29279 0,0 z m -0.117,0.117 c 0.0087,0.85424 0.351764,-0.10736 0,0 z m 0.234,-11.391 c -0.559102,0.698773 0.728201,0.136232 0,0 z m -0.117,0.446 c 0.0087,0.854243 0.351764,-0.10736 0,0 z m 0,0.468 c 0.0087,0.854243 0.351764,-0.10736 0,0 z m 0.82,-0.351 c 0.318786,-0.353668 -0.515806,-0.292786 0,0 z m 0.329,1.172 0.234,0.234 -0.234,-0.234 0,0 z m 0.117,9.187 c 0.318786,-0.35367 -0.515806,-0.29279 0,0 z m 0.586,-18 c -0.477604,1.0564 0.74128,0.329857 0,0 z m -0.117,17.18 c -0.19249,1.52286 0.826391,0.66545 0,0 z m 0.234,1.172 c -0.106934,0.93825 0.571442,-0.28697 0,0 z m 0,0.468 0.234,0.211 -0.234,-0.211 z M 90.3,93.271 c -0.106934,0.93825 0.571442,-0.286972 0,0 z m 0.117,11.601 c 0.06431,0.10306 0.559688,0.89694 0,0 z m 0.469,-16.711 c -0.166477,0.321602 -0.759761,1.467721 0,0 z m 0.351,0 c 0.443158,-0.236165 -0.835455,-0.374442 0,0 z m 0.094,16.711 c 0.01429,0.84947 0.343348,-0.0703 0,0 z m 0.586,-0.914 c 0.0087,0.85424 0.351764,-0.10736 0,0 z m 0.797,-8.953 c 0.317422,-0.340781 -0.469587,-0.299463 0,0 z m -0.094,0.117 c -0.07945,0.959798 0.330354,-0.101327 0,0 z m 0,0.469 c -0.07945,0.959798 0.330354,-0.101327 0,0 z m 0.094,0.82 c 0.317422,-0.340781 -0.469587,-0.299463 0,0 z m -0.094,0.117 c -0.225964,0.804633 0.409469,0.0211 0,0 z m 0.328,-6.164 0.492,0.469 -0.492,-0.469 z m 0.375,0.821 c -0.442912,1.23877 0.870398,0.426295 0,0 z m 0.117,1.851 c -0.06847,1.006746 0.369583,-0.142881 0,0 z m 0,0.586 c 0.01246,0.97873 0.328809,0.758927 0,0 z m 0.469,3.024 c 0.318786,-0.353668 -0.515806,-0.292786 0,0 z m 0.117,-2.907 c 0.318786,-0.353668 -0.515806,-0.292786 0,0 z"
   id="path19015"
   inkscape:connector-curvature="0" />
	<path
   style="fill:#2b3990"
   d="m 107.386,86.403 c 0.85247,1.379231 2.7876,0.366934 3.2815,1.556041 3.08696,-1.190346 -0.18616,6.365416 -2.3205,2.803959 -2.3593,0.689046 -3.63482,-1.137787 -4.899,0.117 0.40848,-0.22083 -2.48957,2.363169 0.001,2.602 -1.17834,2.448481 0.46529,1.021264 1.078,2.085 2.51156,-1.387761 2.67315,1.716749 4.76545,0.882106 0.69859,-0.175378 1.9662,1.119716 1.87814,2.074738 2.31801,-1.265882 -1.36953,2.342276 1.20941,0.559156 -1.50573,2.22811 1.8059,1.52139 -0.90105,3.70858 2.53675,-1.91114 0.21945,0.33377 1.15368,0.68592 -0.38926,1.4183 -2.40776,4.12328 -3.82837,3.92617 -1.65397,1.92724 -4.62921,3.09695 -6.81025,1.28382 -2.31261,-0.59376 -3.067862,-2.07006 -3.920183,-3.23087 1.132081,-3.0604 3.920173,-2.76819 5.760993,-1.41764 1.226,0.76955 -1.35481,3.32953 1.04618,0.71502 0.83994,0.43946 0.82889,-0.53569 2.507,-1.007 -1.30143,2.69182 1.60082,-0.23584 1.195,-1.944 -0.0853,-1.50262 -0.5653,-2.241581 -3.10803,-2.433293 -3.24451,-0.512905 -7.200411,-2.455458 -6.933795,-6.299843 -0.498709,-1.71875 0.152393,-3.179578 1.497285,-4.627831 1.57655,-2.086632 3.01784,-1.457817 3.97554,-1.052033 1.48161,-2.254379 1.86327,1.456663 2.78776,-0.445137 0.19474,-0.180621 0.38949,-0.361242 0.58424,-0.541863 z m -8.532,4.899 -0.211,-0.188 0.211,0.188 z m 0.211,-0.867 c -0.604155,0.755063 -0.189228,0.713036 0,0 z m 0.68,-0.961 -0.445,0.867 0.445,-0.867 z m 0.094,3.257 c -0.308523,0.537765 0.68988,-0.02036 0,0 z m 0.234,-3.82 0.188,0.234 -0.188,-0.234 z m 0,3.633 c -0.240922,0.452666 0.5413,-0.06241 0,0 z m 0.422,13.523 c 0.31879,-0.35367 -0.515806,-0.29279 0,0 z m 0.117,-17.461 c 0.31879,-0.353668 -0.51581,-0.292786 0,0 z m 0.188,17.11 c 0.2868,-0.3123 -0.44174,-0.26749 0,0 z m 0.562,-10.36 c 0.48451,0.282937 -0.009,-0.688965 0,0 z m 0.328,-3.937 c -0.65122,0.508815 0.85266,0.449652 0,0 z m 0,4.828 c 0.48451,0.282937 -0.009,-0.688965 0,0 z m 0.211,-1.336 c 0.31742,-0.340781 -0.46959,-0.299463 0,0 z m 0.118,8.977 c -0.71992,0.69004 0.6215,0.25441 0,0 z m 0.117,-12.914 c -0.73649,0.756987 0.64498,0.149667 0,0 z m -0.235,5.039 c 0.78335,0.09808 -0.0568,-0.520043 0,0 z m 0.328,-2.203 c -0.79449,1.213711 0.5195,0.439005 0,0 z m 0.118,1.992 c 0.31879,-0.353668 -0.51581,-0.292786 0,0 z m 0.234,-6.774 c -0.65955,0.637724 0.62502,0.07459 0,0 z m 0,9.282 0.188,0.211 -0.188,-0.211 z m 0.094,6.211 c -0.57996,0.71166 0.67107,0.0237 0,0 z m 0.539,-16.149 c -0.20773,0.251615 -0.96903,1.17373 0,0 z m -0.445,4.031 0.234,0.211 -0.234,-0.211 z m 0.234,3.071 c -0.59451,0.895644 0.83586,0.258332 0,0 l 0,0 z m 0.117,9.609 0.188,0.211 -0.188,-0.211 z m 0.094,-9.727 c 0.0606,0.03899 0.81405,0.523671 0,0 z m 0.094,10.805 c -0.55004,0.90983 0.74921,0.26863 0.0528,0.034 l -0.0528,-0.034 z m 0.328,-1.758 c -0.60742,0.74974 0.72623,0.005 0,0 z m 0.14,-8.156 c -0.69271,0.689819 0.75019,-0.0323 0,0 z m 0,-8.648 c 0.55145,0.29755 -0.0512,-0.615906 0,0 z m 0,2.507 c 0.0493,0.06914 0.57467,0.805523 0,0 z m 0.235,-3.585 0.188,0.211 -0.188,-0.211 z m 0.187,9.492 c 0.28802,-0.325844 -0.48904,-0.260196 0,0 z m 0.235,-9.492 0.211,0.211 -0.211,-0.211 z m 0.961,10.242 c -0.73352,0.718019 0.68003,0.279212 0,0 z m -0.094,9.726 c 0.0746,1.00014 0.69707,-0.4443 0,0 z m 0.539,-10.242 c -0.91049,1.14697 0.80969,0.209261 0,0 z m 0.445,9.047 -0.445,0.984 0.445,-0.984 z m -0.211,-9.281 c 0.0786,0.875144 0.65528,-0.355043 0,0 z m 0.516,9.07 0.234,0.211 -0.234,-0.211 z m 0.117,-0.445 0,0.211 0,-0.211 z m 0.445,-17.25 c -1.57106,2.243828 1.26001,-0.424998 0,0 z m 0.563,19.336 -0.234,-0.234 0.234,0.234 z m 0,-1.782 c -1.02827,0.78974 0.74916,0.0698 0,0 z m 0,-17.039 0.188,0.258 -0.188,-0.258 z m 0.187,9.539 c -0.67241,0.801133 0.67306,0.03297 0,0 z m 0,8.508 c -0.6907,0.64922 0.78149,0.43742 0,0 z m 0.235,-10.148 c 0.6379,0.637899 0.17543,0.175434 0,0 z m 0,1.406 c -0.29755,0.551451 0.61591,-0.05122 0,0 z m 0,8.742 c 0.78253,0.12504 -0.11008,-0.58656 0,0 z m 0.304,-8.742 -0.188,-0.234 0.188,0.234 z m 0.774,-9.727 c 0.52929,0.305433 -0.005,-0.629838 0,0 z m 0.445,14.625 c -0.69933,0.72882 0.59647,0.31373 0,0 z m 0.211,-4.804 c -0.12674,0.171942 -0.74793,1.014724 0,0 z m -0.211,8.32 c 0.0692,0.61735 0.28273,-0.15971 0,0 z m 0.211,-1.101 c -0.56023,0.56244 0.51895,0.27165 0,0 z m 1.406,-3.938 c -1.07621,0.89134 -2.06522,3.08446 0,0 z m -1.195,2.625 c 0.49984,0.30855 0.0515,-0.58624 0,0 z m 0.563,-0.633 c -0.12674,0.17194 -0.74793,1.01472 0,0 z m -0.329,1.5 c -0.30543,0.52929 0.62984,-0.005 0,0 z m 0.094,-5.226 0.234,0.234 -0.234,-0.234 z m 0.352,4.804 c -0.71537,0.74348 0.54527,0.11081 0,0 z m 0.422,-14.32 c -0.57383,0.295713 -0.45533,1.441541 0,0 z m -0.094,12.773 -0.234,0.469 0.234,-0.469 z m -0.141,1.336 c -0.2703,0.52498 0.66286,-0.10731 0,0 z m 0.469,-0.234 c 0.62216,0.0395 -0.10084,-0.44046 0,0 z"
   id="path19017"
   inkscape:connector-curvature="0" />
</g>

<path
   fill-rule="evenodd"
   clip-rule="evenodd"
   fill="#00A14B"
   stroke="#00A651"
   d="M30.801,106.833  c-2.559,2.398-5.021,2.828-8.199,0.975c-0.9-2.873-0.959-15.525-13.639-30.109c-0.934-1.074,3.186-4.57,8.125-7.521  c0,0,4.352,0.146,10.098,20.219c2.084-7.525,25.061-41.271,40.1-49.678c0,0,1.879-0.348,0,2.26  C67.286,42.978,37.969,76.126,30.801,106.833z"
   id="path19021" />























































































</svg>