<?xml version="1.0" encoding="UTF-8" standalone="no"?>
<!-- Generator: Adobe Illustrator 14.0.0, SVG Export Plug-In . SVG Version: 6.00 Build 43363)  -->

<svg
   xmlns:dc="http://purl.org/dc/elements/1.1/"
   xmlns:cc="http://creativecommons.org/ns#"
   xmlns:rdf="http://www.w3.org/1999/02/22-rdf-syntax-ns#"
   xmlns:svg="http://www.w3.org/2000/svg"
   xmlns="http://www.w3.org/2000/svg"
   xmlns:sodipodi="http://sodipodi.sourceforge.net/DTD/sodipodi-0.dtd"
   xmlns:inkscape="http://www.inkscape.org/namespaces/inkscape"
   version="1.1"
   id="Layer_1"
   x="0px"
   y="0px"
   width="251.072px"
   height="74.242px"
   viewBox="0 0 251.072 74.242"
   enable-background="new 0 0 251.072 74.242"
   xml:space="preserve"
   inkscape:version="0.48.2 r9819"
   sodipodi:docname="logo-horizontal.svg"><metadata
   id="metadata15360"><rdf:RDF><cc:Work
       rdf:about=""><dc:format>image/svg+xml</dc:format><dc:type
         rdf:resource="http://purl.org/dc/dcmitype/StillImage" /><dc:title /></cc:Work></rdf:RDF></metadata><defs
   id="defs15358" /><sodipodi:namedview
   pagecolor="#ffffff"
   bordercolor="#666666"
   borderopacity="1"
   objecttolerance="10"
   gridtolerance="10"
   guidetolerance="10"
   inkscape:pageopacity="0"
   inkscape:pageshadow="2"
   inkscape:window-width="1248"
   inkscape:window-height="789"
   id="namedview15356"
   showgrid="false"
   inkscape:zoom="3.9654216"
   inkscape:cx="130.10396"
   inkscape:cy="26.827712"
   inkscape:window-x="0"
   inkscape:window-y="0"
   inkscape:window-maximized="0"
   inkscape:current-layer="g15326" />










































































































































































































































































































































































































































<g
   id="g15326">
	<path
   style="fill:#2b3990"
   d="m 4.122,36.035 c 0.9364482,1.717462 3.3953681,1.739991 5.36,1.215 2.241909,-0.09754 6.756409,0.01791 4.248,-0.264 5.447105,-0.152888 1.251795,-0.967413 3.971,2.168 -1.467707,3.158312 -5.31059,0.474207 -8.379,1.729 -1.5276018,-0.01091 -5.0301619,7.429889 -3.2051114,4.847368 1.1532844,-0.195109 1.0659505,2.300036 4.7574224,1.516966 0.116497,0.86484 6.52013,-0.372635 3.194689,0.975666 2.312731,-2.056249 2.683561,2.998013 1.309203,2.487839 -1.06847,0.0972 -4.51428,-0.261387 -6.673651,0.253087 C 7.0407096,52.658788 6.0645618,54.542865 7.243,54.286 6.6771329,56.604488 5.6275414,56.481455 7.6181339,58.540496 10.17544,58.920292 12.406382,58.580108 14.934,58.432 18.46135,58.320501 14.245228,59.352859 17.020655,60.742713 17.473451,63.171135 14.59103,62.151459 11.651,62.33 9.1340625,61.590884 5.6058617,62.729123 4.1882108,62.357955 2.5672159,62.310407 2.8899312,57.268142 2.9027027,54.648593 2.4629333,48.380375 3.8825218,42.266405 4.122,36.035 z M 3.873,42.612 C 3.4435748,47.063765 2.6217396,51.651633 3.257,56.016 3.2098245,51.617875 3.6722325,47.20282 4.122,42.775 l -0.249,-0.163 0,0 z M 3.184,56.104 c -0.3695369,0.713189 0.5729666,0.403468 0,0 z m 0,3.793 c -0.1852905,1.586089 0.9549114,1.959132 0,0 z M 4.048,40.708 c -0.5349728,1.85321 0.4743096,2.707887 0,0 z m 0,-0.439 0,0.176 0,-0.176 z m 0.425,-2.857 c -0.758138,2.254873 0.027956,3.434977 0,0 z m -0.088,2.52 -0.264,0.337 0.264,-0.337 z M 4.122,40.62 c 0.4046313,0.145702 0.078818,-0.495296 0,0 z m 0.175,-3.633 c -0.471048,1.046672 0.7829095,-0.131675 0,0 z M 4.986,58.945 4.561,59.897 4.986,58.945 z M 4.825,57.393 c -0.5292001,0.496555 0.5969515,0.179767 0,0 z m 0.337,4.233 c -1.510404,1.806293 1.1563071,-0.370472 0,0 z m 0,-3.633 -0.249,0.615 0.249,-0.615 z M 4.986,52.896 c 0.3726634,0.391364 0.1643802,-0.600666 0,0 z m 0.088,-4.234 c -0.2224919,0.877995 0.6119939,0.207186 0,0 z m 0.176,9.859 c -0.8770009,0.988706 0.8612981,-0.05302 0,0 z m -0.088,-10.21 0,0.176 0,-0.176 z m 0.351,0 -0.263,0.351 0.263,-0.351 z M 5.425,38.203 c -0.5193179,1.18648 0.3919446,0.04451 0,0 z M 5.337,50.654 c -0.00357,0.694339 0.2755984,-0.119085 0,0 z m 0.176,0.601 c -0.8194891,0.674761 0.6821883,0.209665 0,0 z m 0,8.642 c 0.3851314,-0.167254 -0.6310081,-0.266123 0,0 z M 5.425,48.062 5.777,48.223 5.425,48.062 z m 0,1.289 c -0.2320512,0.404473 0.5188822,-0.01531 0,0 z m 0.425,7.705 c -0.1832426,0.372521 -0.9500907,1.931479 0,0 z M 5.513,50.391 c 0.4044731,0.232051 -0.015311,-0.518882 0,0 z m 1.289,0.351 c -2.9371762,1.813897 0.3229772,3.453712 0,0 z m -1.201,7.779 c 0.2397705,-0.266007 -0.3879568,-0.220215 0,0 z m 0.249,0.6 c -1.184647,0.85791 0.9572671,0.419377 0,0 z M 5.777,40.972 c -0.8766867,0.859049 0.7166402,0.426166 0,0 z m 0,6.65 c -0.8674258,0.878307 0.6395002,0.214496 0,0 z m -0.176,3.281 0,0.176 0,-0.176 z M 5.938,46.846 5.689,47.271 5.938,46.846 z M 5.85,49.878 c -0.7579391,0.759243 0.6481214,0.01362 0,0 z m 0,-8.994 c 0.2388928,-0.257538 -0.3577131,-0.224625 0,0 z m -0.073,2.929 c 0.3767342,0.210114 -0.029041,-0.470156 0,0 z m 0,6.929 c 0.025411,0.459282 0.1970138,-0.09926 0,0 z m 1.025,9.068 c -2.4094905,1.646254 0.9394058,0.873236 0,0 z m -0.6,-16.597 c -0.00645,0.01073 -0.6975498,1.159941 0,0 z m 0,15.483 -0.264,0.425 0.264,-0.425 z M 6.114,42.612 c 0.2397705,-0.266007 -0.3879568,-0.220215 0,0 z m -0.088,4.659 c 0.3753227,0.437649 0.05194,-0.542641 0,0 z m 0,0.175 c 0.041663,0.507842 0.2248314,-0.119885 0,0 z m 0.688,0.777 c -1.3734673,2.98791 0.2415836,1.071494 0,0 z M 6.377,38.628 c -0.905674,3.585992 1.4355226,1.477869 0,0 z m 0,8.13 c -0.8104082,0.771784 0.6606448,0.05247 0,0 z m 0,-3.545 c 0.2397171,-0.265419 -0.385902,-0.220531 0,0 z M 6.641,41.66 6.377,42.261 6.641,41.66 z m -0.088,8.555 c -0.8032542,0.764558 0.6193275,0.06974 0,0 z m -0.088,5.361 c 0.2397705,-0.266007 -0.3879568,-0.220215 0,0 z m 0,-9.507 0.176,0.264 -0.176,-0.264 z m 0.088,-0.175 0.161,0.176 -0.161,-0.176 0,0 z m 0.088,-3.282 c 0.3887187,0.128798 0.053322,-0.488586 0,0 z M 6.714,41.396 6.89,41.572 6.714,41.396 z m 0,4.322 c -0.2320512,0.404473 0.5188822,-0.01531 0,0 z m 0.088,3.984 c -0.5047494,0.55124 0.5874885,0.01793 0,0 z m 0,-8.73 0.176,0.425 -0.176,-0.425 0,0 z m 0.264,6.826 -0.264,0.425 0.264,-0.425 z m 0,1.377 c -0.7005676,0.775478 0.6118796,0.383898 0,0 z m 0.088,-7.266 -0.176,0.352 0.176,-0.352 z m 0,1.216 c 0.4044731,-0.232051 -0.015311,0.518882 0,0 z m 0.088,4.673 c 0.2397705,-0.266007 -0.3879568,-0.220215 0,0 z m 0,-8.394 c -0.013039,0.733069 0.285929,-0.118961 0,0 z m 0.175,-0.425 c 0.2397171,-0.265419 -0.385902,-0.220531 0,0 z m 0.162,11.675 -0.161,0.337 0.161,-0.337 z m 0.351,-1.64 c -0.9085519,1.029703 0.2703833,1.973389 0,0 z M 7.667,37.251 7.93,37.5 7.667,37.251 z m 0.263,1.553 c -0.5420217,1.425635 0.5889237,0.827108 0,0 z M 7.842,60.249 c -0.5341936,0.503571 0.6365242,0.172422 0,0 z M 7.93,38.452 8.194,38.804 7.93,38.452 z m 0.689,9.946 c -0.7496477,2.61711 1.1718773,0.533238 0,0 z m 0,-2.153 c 3.466775,0.271167 8.170107,0.54271 2.075506,0.545755 C 9.8681257,47.033269 9.5351257,45.914819 8.619,46.245 z m 0.527,-6.753 c 0.4044731,0.232051 -0.015311,-0.518882 0,0 z M 9.322,38.54 c -0.4884629,0.589043 0.4455837,0.04363 0,0 z m 0.249,9.858 c -0.2320512,0.404473 0.518882,-0.01531 0,0 z m 0.088,0.528 c 0.2397705,-0.266007 -0.3879568,-0.220215 0,0 z M 10.01,38.804 c -0.5840086,0.784646 0.584767,0.06727 0,0 z m 0,-0.264 c -0.2320512,0.404473 0.518882,-0.01531 0,0 z m 0.176,10.386 c -0.4910073,1.170072 0.341569,0.07931 0,0 z m 0,0.864 c 0.23977,-0.266007 -0.3879568,-0.220215 0,0 z m 0,-1.392 0.161,0.439 -0.161,-0.439 z m 0.249,12.027 c -0.7505613,0.471933 0.683254,0.235862 0,0 z m 0.527,-0.44 c -0.04522,0.05639 -0.893451,1.114275 0,0 z m 0,-11.499 c -0.794362,0.379231 0.734333,0.765608 0,0 z m 0.162,1.128 c -0.507151,0.429184 0.708807,0.341198 0,0 z m 0.175,-11.338 c -0.584977,1.139739 0.481024,1.42541 0,0 z m -0.175,11.25 c 0.403815,0.146516 0.07965,-0.495312 0,0 z m 4.335,8.042 c 4.679647,0.670358 -7.6178112,0.612102 -1.656,0.352 l 0.352,-0.088 1.304,-0.264 0,0 z M 12.164,38.203 c -0.803008,1.776872 0.773791,0.796316 0,0 z m -0.176,11.675 c 0.238893,-0.257538 -0.357713,-0.224625 0,0 z m 0,11.499 c -0.467905,0.556047 0.577,0.0089 0,0 z m 0,0.601 c -0.232051,0.404473 0.518882,-0.01531 0,0 z m 0.176,-0.176 c -0.232051,0.404473 0.518882,-0.01531 0,0 z m 0.351,-12.788 c 0.23977,-0.266007 -0.387957,-0.220215 0,0 z M 12.94,38.716 c 0.238893,-0.257538 -0.357713,-0.224625 0,0 z m 0.352,10.298 c -0.747311,0.873617 0.427335,0.856767 0,0 z m -0.088,-0.352 0.264,0.352 -0.264,-0.352 z m 0.175,-0.527 c -0.619676,0.833596 0.834753,-0.08229 0,0 z m 1.216,11.426 c -3.207082,1.47183 0.943727,0.753102 0,0 z m -1.04,-10.21 0.176,0.264 -0.176,-0.264 z m 0.088,0.527 c 0.23977,-0.266007 -0.387957,-0.220215 0,0 z m 0.249,-11.602 0.176,0.176 -0.176,-0.176 0,0 z m 0,0.264 0.176,0.439 -0.176,-0.439 z m 0.352,21.021 c 0.826198,0.01673 -0.466925,-0.431825 0,0 z m 0.512,-10.723 0.176,0.249 -0.176,-0.249 z m 0.176,9.331 0.264,0.176 -0.264,-0.176 z m 0.264,-20.23 c 0.23977,-0.266007 -0.387957,-0.220215 0,0 z m 0.088,24.126 c 0.385892,-0.163613 -0.640602,-0.300989 0,0 z m 0.088,-2.255 c -0.738651,0.5521 0.605385,0.07945 0,0 z m 0.161,-1.729 c 0.404473,-0.232051 -0.01531,0.518882 0,0 z m 0.175,2.08 c -0.738598,0.610069 0.843057,0.100935 0,0 z"
   id="path15328"
   inkscape:connector-curvature="0" />
	<path
   style="fill:#2b3990"
   d="m 19.209,47.827 c 2.290634,1.511013 2.026682,0.844933 2.243919,3.372583 1.629556,0.377508 -1.021482,4.729607 0.790081,2.706417 2.07022,-0.126962 -1.207761,4.937633 1.112,3.179 -1.588669,4.132278 2.061537,-0.257454 2.391932,-2.967074 -0.804803,-2.634482 3.531802,-6.209025 1.902068,-5.105926 4.744935,-2.254795 0.660881,1.746374 -0.485151,2.748784 0.480003,-0.334992 5.114093,-3.555643 1.890151,0.211216 1.253098,-0.356362 -5.434498,5.593501 -0.587,1.478 1.374839,0.0067 -5.995598,5.724548 -0.483483,1.193458 2.426431,-0.663696 -5.736974,4.553299 0.262483,1.253542 -4.121666,3.25259 -1.820882,1.970811 -1.369031,1.974309 C 26.273713,58.807104 26.907157,59.420361 25.494,62.253 23.970944,64.133606 20.705242,61.188536 21.289,58.035 19.821498,56.376317 20.006265,53.936233 18.931668,51.442311 18.53335,49.661066 16.586216,48.017575 19.209,47.827 z m 0.293,1.187 -0.146,0.293 0.146,-0.293 z m -0.146,1.479 c -0.192497,0.335529 0.430436,-0.0127 0,0 z m 0.439,-1.933 c -0.718962,0.772397 0.607431,0.166219 0,0 z m 0.44,1.347 c -1.398743,1.726995 0.27192,1.065488 0,0 z m -0.44,-0.454 c -0.515625,0.586182 0.574027,0.134385 0,0 z m 0.088,2.153 0.132,0.146 -0.132,-0.146 z m 0.074,-2.299 c -0.196082,0.322888 0.439742,0.01577 0,0 z m 0.659,1.04 c -1.433926,2.249118 0.323785,0.914925 0,0 z m 0.293,0.659 c -1.977748,2.750998 0.264262,1.037209 0,0 z m -0.22,-2.739 -0.454,0.894 0.454,-0.894 z m -0.22,4.585 c -0.73726,0.839084 0.568548,0.0736 0,0 z m 0.073,2.812 c -0.761604,0.694749 0.626443,0.28065 0,0 z m 0,-2.139 0.22,0.146 -0.22,-0.146 z m 0.293,-1.406 c -0.840521,0.816338 0.626205,0.440754 0,0 z m 0.074,0.894 c -0.974028,0.630996 0.72428,0.653757 0,0 z m -0.074,3.618 0.146,0.161 -0.146,-0.161 z m 0.293,-7.017 c -0.02652,0.06184 -0.560147,1.306162 0,0 z m 0,3.985 -0.22,0.747 0.22,-0.747 z m 0,-1.934 c -0.746419,0.846429 0.609693,0.05416 0,0 z M 21.29,52.5 21.129,52.793 21.29,52.5 z m -0.088,-1.055 0.161,0.161 -0.161,-0.161 z m 0.161,1.787 c -0.712947,0.638447 0.560413,0.04978 0,0 z m 0.805,0.806 c -0.948079,1.629521 -0.777593,2.791855 0,0 z m -0.512,4.219 c -0.826656,1.481443 0.740775,1.249236 0,0 z m -0.147,-5.244 c -0.192497,0.335529 0.430436,-0.0127 0,0 z m 0.147,-0.381 0.146,0.161 -0.146,-0.161 z m 0,3.559 0.22,0.308 -0.22,-0.308 z m 0.058,-3.779 0.234,0.146 -0.234,-0.146 0,0 z m 0.161,3.486 c -0.645302,0.561313 0.721185,0.409178 0,0 z m 0.147,3.706 -0.146,0.293 0.146,-0.293 z m 0.073,-0.454 -0.146,0.381 0.146,-0.381 z m -0.073,-3.398 0.146,0.146 -0.146,-0.146 z m 0.22,-0.747 c -0.38216,0.79051 0.586759,0.296592 0,0 z m 0.073,5.039 c -0.564363,0.993932 0.628673,0.471326 0,0 z m 0.293,0.894 c -0.63161,0.733139 0.386562,1.744893 0,0 z m -0.132,-6.299 c -0.03617,0.603195 0.22114,-0.07948 0,0 z m 0.425,3.178 -0.22,0.381 0.22,-0.381 z m 0.22,-0.293 c 0.198072,-0.212809 -0.293677,-0.186752 0,0 z m 0.893,0.821 c -1.481949,2.107305 -0.100063,2.429468 0,0 z m -0.732,2.153 c 0.380021,0.04104 -0.07747,-0.396972 0,0 z m 0.512,0 c -0.732176,0.873332 0.151483,0.872344 0,0 z m 0.22,-0.542 -0.146,0.308 0.146,-0.308 z m 0.235,0.674 c -1.169709,1.56766 0.926356,0.739379 0,0 z m -0.235,1.04 c -0.382307,0.443363 0.322494,0.151995 0,0 z m 0,-1.846 c 0.376734,0.210114 -0.02904,-0.470156 0,0 z m 0.235,-0.161 c 0.180174,-0.203726 -0.305532,-0.162844 0,0 z m 0.366,0 c -0.481586,0.502342 0.504692,0.04723 0,0 z m 0.747,-2.212 c -1.020699,0.970625 -0.45736,1.081351 0,0 z m -0.601,2.08 c -0.176938,0.303099 0.429884,-0.0059 0,0 z m 0.147,0.425 c -0.694428,0.583085 0.577388,0.194887 0,0 z m 0.219,0 c 0.180174,-0.203726 -0.305532,-0.162844 0,0 z M 26.9,52.939 26.607,53.305 26.9,52.939 z m -0.073,0.806 c -0.207896,0.371392 0.430904,-0.01863 0,0 z m 0.146,-1.626 c -0.278926,0.537845 0.629041,-0.09132 0,0 z m 0.088,1.553 c 0.572501,0.08521 -0.08496,-0.368612 0,0 z m 1.245,-1.26 c -1.195264,0.839631 -1.009913,1.713594 0,0 z m 0.235,-0.806 c -0.99898,0.803339 -1.150313,1.67591 0,0 z m 0.146,0.44 c -0.67254,0.554632 0.526845,0.185151 0,0 z m 0.132,-0.733 c -0.643012,0.653783 0.579996,0.02 0,0 z m 0.307,-2.812 -0.22,0.22 0.22,-0.22 z m 0.22,2.139 c -0.890063,1.147572 0.639752,0.251891 0,0 z m 0.601,-1.7 c 0.348182,0.111571 0.05175,-0.414744 0,0 z"
   id="path15330"
   inkscape:connector-curvature="0" />
	<path
   style="fill:#2b3990"
   d="m 37.945,47.681 c 1.271885,2.44759 1.947309,-0.941676 3.413,0.937 0.831348,0.15294 1.286574,0.828321 2.021,1.245 -1.177642,0.924896 2.051417,1.245525 1.098,3.911 -0.08284,1.826151 -2.581594,2.768088 -2.607,0.732 -1.050432,1.236963 -1.968745,0.599929 -4.439,1.377 -2.535372,-0.510959 -1.743111,2.488333 -0.791,3.046 2.056094,2.006289 2.636715,0.313746 3.412,0.937 0.865347,-1.140897 1.686852,-0.156515 3.121,-0.717 1.619037,2.835468 -1.378103,2.769073 -3.265,3.486 -2.67928,0.703901 -3.334211,-0.723666 -4.95,-2.022 -2.249023,-0.904639 -1.546002,-4.125782 -2.315,-6.033 -0.361319,-2.617277 0.931122,-6.314491 3.998,-6.182 0.61584,-0.126441 0.551574,0.18777 1.304,-0.717 z m -5.083,6.167 c 0.334983,0.121541 0.06607,-0.410884 0,0 z m 0.146,0.219 -0.146,-0.146 0.146,0.146 z m -0.146,3.267 0.22,0.22 -0.22,-0.22 z m 0.22,-4.717 c 0.198901,-0.220665 -0.321828,-0.182678 0,0 z m 0.058,-0.879 c -0.352431,0.463494 0.482373,0.123047 0,0 z m 0,-0.351 c 0.335529,0.192497 -0.0127,-0.430436 0,0 z m 0.073,0.073 c -0.431124,0.311184 0.431124,0.311184 0,0 z m 0.074,-0.366 0.146,0.146 -0.146,-0.146 z m 0.073,-0.425 c -0.02058,1.009581 0.543089,-0.298553 0,0 z m 0.146,-0.234 0.146,0.234 -0.146,-0.234 z m 0.454,3.12 c -0.380539,1.399423 0.341006,1.809038 0,0 z m 0.206,-1.011 c -0.612225,0.05885 0.285353,0.827686 0,0 z m 0.146,2.402 c -0.192497,0.335529 0.430436,-0.0127 0,0 z m 0.073,0.425 c 0.180174,-0.203726 -0.305532,-0.162844 0,0 z m 0,0.366 c 0.198901,-0.220665 -0.321828,-0.182678 0,0 z m 0.073,4.732 c -0.192497,0.335529 0.430436,-0.0127 0,0 z m 0.147,0.278 c 0.335529,-0.192497 -0.0127,0.430436 0,0 z m 1.304,-12.129 c -0.442616,-0.326456 -3.150245,3.246482 0,0 z m -1.084,7.486 c 0.198901,-0.220665 -0.321828,-0.182678 0,0 z m 0,0.073 c -0.407152,1.106469 0.399327,0.572666 0,0 z m 0.278,1.596 c -1.010737,1.322009 0.729789,1.806145 0,0 z M 35.03,52.544 34.825,52.91 35.03,52.544 z m -0.132,1.89 c -0.361828,0.734812 0.528038,1.013656 0,0 z m 0,-3.765 0.132,0.146 -0.132,-0.146 z m 0,0.864 0.132,0.146 -0.132,-0.146 z m 0,2.315 c -0.03617,0.603195 0.22114,-0.07948 0,0 z m 0,0.293 c -0.03617,0.603195 0.22114,-0.07948 0,0 z m 0,1.157 c 0.269455,0.32872 0.143575,-0.489064 0,0 z m 0.205,2.182 c -0.01145,0.6107 0.237879,-0.09868 0,0 z m 0.22,-6.313 c -0.618896,0.466079 0.54001,0.05544 0,0 z m 0.073,0.645 -0.22,0.366 0.22,-0.366 z m 0,0.878 c -0.6784,0.955946 0.877343,0.424902 0,0 z m 0.293,6.827 c -0.668428,0.613477 0.589241,0.0279 0,0 z m 2.622,-8.643 c -3.359505,0.264914 -2.191636,2.829018 -0.221,2.621 -0.09807,2.81531 0.09038,-1.684235 1.597,-0.367 3.067663,1.513862 1.479697,-3.039898 -1.376,-2.254 l 0,0 z m -1.963,4.072 c 0.198901,-0.220665 -0.321828,-0.182678 0,0 z m 0,-0.659 0.146,0.22 -0.146,-0.22 z m 0.073,5.083 c -0.393364,0.449328 0.501788,0.14961 0,0 z m 0.074,-5.376 c -0.431124,0.311184 0.431124,0.311184 0,0 z m 0,-5.376 c -0.02033,0.646956 0.247493,-0.09857 0,0 z m 0,0.308 c -0.153784,0.622666 0.5468,0.401338 0,0 z m 0,11.689 c 0.335529,0.192497 -0.0127,-0.430436 0,0 z m 0.073,-7.06 0.146,0.22 -0.146,-0.22 z m 0.073,6.474 0.146,0.146 -0.146,-0.146 z m 0.073,0.44 c 0.198901,-0.220665 -0.321828,-0.182678 0,0 z M 36.788,54.8 c -0.352384,0.688636 0.49784,0.26987 0,0 z m 0.278,-0.733 c -0.744997,1.014012 0.575644,0.703778 0,0 z m -0.073,-4.863 c -0.393364,0.449328 0.501788,0.14961 0,0 z m 0,11.411 0.146,0.278 -0.146,-0.278 z m 0,0.279 c -0.157364,0.868905 0.397801,0.04756 0,0 z m 0.073,-0.425 0.146,0.146 -0.146,-0.146 z m 0.146,-6.402 c 0.198901,-0.220665 -0.321828,-0.182678 0,0 z m 0,5.669 c -0.342789,0.533154 0.533589,-0.0413 0,0 z m 0,0.293 c -0.48554,0.653095 0.486189,0.05621 0,0 z m 0.147,-6.401 c 0.180174,-0.203726 -0.305532,-0.162844 0,0 z m 0.146,1.025 c -0.01145,0.6107 0.237879,-0.09868 0,0 z m 0.147,5.816 c -0.541821,0.740105 0.524371,0.120706 0,0 z m 0,0.571 c 0.198901,-0.220665 -0.321828,-0.182678 0,0 z m 0,-0.864 0.146,0.146 -0.146,-0.146 z m 0.146,-11.25 0.22,0.132 -0.22,-0.132 z m 0.074,-1.099 c -0.01145,0.6107 0.237879,-0.09868 0,0 z m 0.073,0.718 c -0.618269,0.45497 0.828966,0.739515 0,0 z m 0,1.245 c 0.198901,-0.220665 -0.321828,-0.182678 0,0 z m 0,5.303 0.146,0.205 -0.146,-0.205 z m 0.073,0.425 c 0.198901,-0.220665 -0.321828,-0.182678 0,0 z m 0.22,5.815 c -0.01145,0.6107 0.237879,-0.09868 0,0 z m 0.22,-11.689 c 0.334983,0.121541 0.06607,-0.410884 0,0 z m 0.278,4.204 c -0.48706,0.971424 0.566544,0.479672 0,0 z m -0.132,0.732 0.132,0.146 -0.132,-0.146 z m 0,0.22 c -0.08475,0.614042 0.351076,-0.176368 0,0 z m 0.132,5.947 c 0.180174,-0.203726 -0.305532,-0.162844 0,0 z M 38.882,47.9 c 1.014007,0.268171 -0.67997,0.43578 0,0 z m 0.147,1.451 -0.22,0.22 0.22,-0.22 z m 0,11.689 0.22,0.22 -0.22,-0.22 z m 0.073,-0.571 c 0.05561,0.673436 0.470684,-0.297444 0,0 z m 0,0.351 0.146,0.146 -0.146,-0.146 z m 0,0.513 c -0.192497,0.335529 0.430436,-0.0127 0,0 z m 0.073,-1.157 0.146,0.22 -0.146,-0.22 z m 0.44,-11.778 c -0.567715,0.202613 0.585109,0.752044 0,0 z m -0.147,0.601 c 0.334983,0.121541 0.06607,-0.410884 0,0 z m 0.074,-0.952 0.22,0.278 -0.22,-0.278 z m 0.219,12.349 c 0.198901,-0.220665 -0.321828,-0.182678 0,0 z m -0.073,0.073 c -0.01145,0.6107 0.237879,-0.09868 0,0 z m 0.146,-7.119 c -0.379353,0.422573 0.486632,0.139845 0,0 z m -0.073,0.278 c -0.01145,0.6107 0.237879,-0.09868 0,0 z m 0,0.293 c -0.01145,0.6107 0.237879,-0.09868 0,0 z m 0.513,-0.22 c 0.198901,-0.220665 -0.321828,-0.182678 0,0 z m 0.205,0.733 0.146,0.146 -0.146,-0.146 z m 0.073,5.742 c 0.198901,-0.220665 -0.321828,-0.182678 0,0 z m 0.366,-11.25 c -0.336478,0.671386 0.547961,0.207237 0,0 z m -0.073,10.737 c -0.287698,1.19779 0.63655,0.102383 0,0 z m 0.147,0.733 c -0.06068,0.622367 0.370447,-0.196004 0,0 z m 0,0.292 0.146,0.132 -0.146,-0.132 z m 0.732,-7.998 c -0.06068,0.622367 0.370447,-0.196004 0,0 z m 0.073,7.251 0.146,0.234 -0.146,-0.234 0,0 z m 0.293,-10.444 -0.22,0.425 0.22,-0.425 z m 0.22,0 c 0.277278,-0.147167 -0.521393,-0.240027 0,0 z m 0.059,10.444 c -0.02033,0.646956 0.247493,-0.09857 0,0 z m 0.366,-0.571 c -0.01145,0.6107 0.237879,-0.09868 0,0 z m 0.498,-5.596 c 0.198072,-0.212809 -0.293677,-0.186752 0,0 z m -0.059,0.074 c -0.03617,0.603195 0.22114,-0.07948 0,0 z m 0,0.293 c -0.03617,0.603195 0.22114,-0.07948 0,0 z m 0.059,0.512 c 0.198072,-0.212809 -0.293677,-0.186752 0,0 z m -0.059,0.074 c -0.193418,0.539399 0.333635,-0.0056 0,0 z m 0.205,-3.853 0.308,0.293 -0.308,-0.293 z m 0.235,0.513 c -0.505652,1.160471 0.689569,0.02502 0,0 z m 0.073,1.157 c -0.01145,0.6107 0.237879,-0.09868 0,0 z m 0,0.366 c -0.07954,1.002586 0.283973,0.146226 0,0 z m 0.293,1.89 c 0.198901,-0.220665 -0.321828,-0.182678 0,0 z m 0.073,-1.817 c 0.198901,-0.220665 -0.321828,-0.182678 0,0 z"
   id="path15332"
   inkscape:connector-curvature="0" />
	<path
   style="fill:#2b3990"
   d="m 46.836,48.179 c 0.534935,1.070045 7.22913,-1.142609 6.211,1.407 0.805303,1.8065 -3.35221,2.351818 -3.003,1.247 -2.179345,1.519947 -0.779061,5.180321 -1.271917,7.706495 0.631486,2.784917 -0.888928,5.38264 -0.999502,3.385967 -1.310711,1.492992 1.690462,-3.671077 -1.069581,0.786538 -1.686837,-2.316264 -0.680049,-6.668198 -0.761,-9.713 0.424719,-2.169951 -0.123405,-3.197412 0.894,-4.82 z M 46.778,61.67 c -0.390588,0.356478 0.303418,0.175628 0,0 z m 0.278,-12.583 -0.22,0.278 0.22,-0.278 z m 0,10.767 c -0.829591,0.770894 0.579062,0.433915 0,0 z m 0,-8.453 -0.146,-0.146 0.146,0.146 z m 0.073,0.352 -0.146,0.352 0.146,-0.352 z m -0.073,4.951 c 0.180174,-0.203726 -0.305532,-0.162844 0,0 z m 0,-3.838 0.132,0.205 -0.132,-0.205 z m 0.205,0 -0.132,-0.146 0.132,0.146 z m -0.132,3.135 c -0.332998,0.711337 0.561698,-0.07686 0,0 z m 1.187,1.274 c -2.6236,3.495681 -0.04658,1.841033 0,0 z m -0.923,2.857 c -0.77703,0.33741 0.277682,1.08535 0,0 z m 0.63,-6.651 c -1.231526,1.288576 -0.788014,2.075386 0,0 z m -0.835,1.333 0.205,0.22 -0.205,-0.22 z m 0.835,1.48 c -0.941437,1.243736 -0.852642,2.506584 0,0 z m -0.762,0.059 c -0.674797,1.199737 0.742559,-0.08227 0,0 z m 0.132,3.09 c -1.036526,1.183879 0.860074,-0.0991 0,0 z M 47.32,58.521 c 0.179432,-0.195483 -0.276741,-0.167282 0,0 z m 0.776,-6.636 c -1.922653,3.136985 -0.09904,1.64498 0,0 z m -0.205,3.076 c -0.425163,0.303645 -0.489787,2.887629 0,0 z m -0.498,3.149 c -0.417808,0.300171 0.446006,0.288617 0,0 z m 0.278,-7.339 c -1.242353,1.834848 0.713842,-0.0291 0,0 z m 0,0.982 c -0.98801,1.045866 0.881675,0.34083 0,0 z m -0.278,8.306 c 0.317245,0.1947 0.02362,-0.403638 0,0 z m 1.26,-11.455 c -2.912247,0.3459 0.664776,1.548262 0,0 z m -1.172,9.375 c -0.172014,0.309638 0.38498,-0.02551 0,0 z m 0.059,-3.223 c 0.303099,0.176938 -0.0059,-0.429884 0,0 z m 0.205,-0.425 c -0.176938,0.303099 0.429884,-0.0059 0,0 z m 0.073,6.226 c 0.200236,-0.221882 -0.323004,-0.184088 0,0 z m 0.146,-1.392 -0.146,0.278 0.146,-0.278 z m 0.191,-8.262 c -1.232611,1.707755 0.729791,0.149071 0,0 z m -0.132,3.985 0.22,0.146 -0.22,-0.146 z m 0.22,-1.817 -0.146,0.352 0.146,-0.352 z m 0.132,6.153 c -0.816971,1.292948 0.984348,0.857217 0,0 z m -0.059,-3.501 c -0.446399,0.3464 0.561826,0.295906 0,0 z m 0,-1.26 c 0.269455,0.32872 0.143575,-0.489064 0,0 z m 0.059,-0.337 0.132,0.132 -0.132,-0.132 z m 0.073,6.357 -0.07291,0.497389 C 48.344458,61.18679 48.836391,60.419564 48.448,60.483 z m 0,-1.538 c -0.03617,0.603195 0.22114,-0.07948 0,0 z m 0.058,1.26 c -0.01778,0.591935 0.353535,-0.199386 0,0 z m 0.703,-9.228 -0.264,0.425 0.264,-0.425 z m 0,-0.279 c -0.812111,0.756252 1.157581,-0.15129 0,0 z m 0,-2.094 c 0.855022,1.225448 4.351464,-0.161016 0,0 l 0,0 z m 1.275,2.578 0.132,0.146 -0.132,-0.146 z m 0.41,-0.484 c -1.196541,1.180826 1.19069,-0.281399 0,0 z"
   id="path15334"
   inkscape:connector-curvature="0" />
	<path
   style="fill:#2b3990"
   d="m 57.53,48.794 c 2.326975,1.81112 0.741234,6.130611 0.888693,8.933068 -0.520336,3.242466 5.626184,3.327093 6.008307,-0.07107 1.022241,-0.981002 -3.497125,4.407455 -0.835,-0.074 -1.294319,-0.843781 -0.28565,-2.524317 1.129,-5.288 0.922185,-2.783006 -2.767003,5.464587 -1.62002,0.65909 -1.915479,-2.73092 2.343426,-5.981618 2.86602,-2.47809 -0.391195,5.446046 0.828219,11.220185 -1.434321,16.340436 -1.955582,2.568066 -8.149865,4.07244 -8.688679,-0.328436 2.426184,-2.826849 6.060587,1.365495 7.858662,-3.150205 0.298119,-0.787667 -1.728376,1.78214 -1.031687,-0.44412 C 59.091529,64.284009 53.853925,61.521461 55.653,57.437 55.518936,55.721498 55.527662,53.155682 55.728355,50.873497 55.150056,49.24651 56.025083,48.879976 57.53,48.794 z m -1.831,6.768 c -0.192497,0.335529 0.430436,-0.0127 0,0 z m 0.571,2.944 c -0.852461,1.506505 0.44318,0.834804 0,0 z m -0.205,1.802 c 0.198901,-0.220665 -0.321828,-0.182678 0,0 z m 0,-0.279 c 0.331613,0.364943 0.0019,-0.480888 0,0 z m 0.146,-3.076 c -0.19603,0.318696 0.404369,0.02508 0,0 z m 0,2.798 0.132,0.205 -0.132,-0.205 z m 0.762,6.064 -0.63,0.762 0.63,-0.762 z m -0.556,-7.529 0.205,0.22 -0.205,-0.22 z m 0.205,-0.073 c -0.192497,0.335529 0.430436,-0.0127 0,0 z m 0.263,8.276 c -0.921477,0.957787 0.677177,0.544358 0,0 z m 0.088,-6.181 c -0.439133,0.405949 0.475696,0.204073 0,0 z m 0,-7.456 0.132,0.19 -0.132,-0.19 z m 0.059,-0.147 0.22,0.146 -0.22,-0.146 z m 0.219,12.759 -0.22,0.352 0.22,-0.352 z m -0.219,0.893 0.146,0.132 -0.146,-0.132 z m 1.333,-15.615 c -1.741497,2.07022 -0.890538,2.654478 0,0 z m -1.114,0.41 -0.146,-0.132 0.146,0.132 z m -0.146,3.853 c -0.176938,0.303099 0.429884,-0.0059 0,0 z m 0.073,-4.058 c 0.297047,0.175904 0.0027,-0.393687 0,0 z m 0,15.279 0.132,0.132 -0.132,-0.132 z m 0.073,-12.203 0.132,0.146 -0.132,-0.146 z m 0.279,-3.691 c -0.973282,1.087785 0.766918,-0.0029 0,0 z m -0.22,5.098 0.146,0.205 -0.146,-0.205 0,0 z m 0.366,10.503 -0.366,0.293 0.366,-0.293 z m -0.146,1.259 -0.22,0.366 0.22,-0.366 z m -0.147,-13.3 c -0.173485,0.315158 0.421494,-0.03516 0,0 z m 0.762,0.629 c -1.019951,0.626398 -0.933307,1.832383 0,0 z m -0.615,1.744 -0.146,0.264 0.146,-0.264 z m 0,-3.282 c -0.383528,0.369758 0.2858,0.157602 0,0 z m 0.205,5.23 c -0.0037,0.0057 -0.737617,1.127652 0,0 z M 57.53,53.745 c -0.192497,0.335529 0.430436,-0.0127 0,0 z m 0.146,-0.981 c -0.1947,0.317245 0.403638,0.02362 0,0 z m 0.059,0.981 c 0.179432,-0.195483 -0.276741,-0.167282 0,0 z m 0.278,5.581 -0.337,0.557 0.337,-0.557 z m 0.132,0.557 c -1.335894,0.598751 0.155008,0.534135 0,0 z M 57.881,49.834 c -0.661651,0.519891 0.526643,0.18625 0,0 z m 0,15.894 c -0.60124,0.4634 0.644702,0.0887 0,0 z m 0,-12.964 c 0.180174,-0.203726 -0.305532,-0.162844 0,0 z m 0,4.819 c 0.198901,-0.220665 -0.321828,-0.182678 0,0 z m 0.059,0.63 c 0.179432,-0.195483 -0.276741,-0.167282 0,0 z m 0.425,2.168 -0.425,0.688 0.425,-0.688 z M 58.086,49.834 c 0.180174,-0.203726 -0.305532,-0.162844 0,0 z m 0,7.339 c 0.01072,0.411706 0.170286,-0.08004 0,0 z m 0.279,-2.036 -0.22,0.366 0.22,-0.366 z m 0,11.22 -0.22,0.352 0.22,-0.352 z m 0.205,-0.205 c -0.412517,0.447516 0.449302,0.02761 0,0 z m 0.073,-5.288 c -0.190626,0.330364 0.393893,-0.0036 0,0 z m 0.132,-0.132 c -0.172014,0.309638 0.38498,-0.02551 0,0 z m 0.351,5.494 -0.264,0.352 0.264,-0.352 z m 0.206,-5.435 -0.264,0.571 0.264,-0.571 z m 0,0.703 c 0.317245,0.1947 0.02362,-0.403638 0,0 z m 0.366,-0.337 0.146,0.132 -0.146,-0.132 z m 0.263,-0.146 -0.117,0.205 0.117,-0.205 z m 0.074,-0.762 c 0.348978,0.188017 -0.04273,-0.421839 0,0 z m 0.146,1.113 0.132,0.132 -0.132,-0.132 z m 0,4.512 0.132,0.205 -0.132,-0.205 z m 0.762,0.205 c -1.033645,1.18339 -1.033451,3.084104 0,0 z m -0.484,-5.01 c -0.681219,0.561634 0.569238,0.174603 0,0 z m -0.146,6.065 0.205,0.205 -0.205,-0.205 z m 0.63,-6.475 -0.205,0.41 0.205,-0.41 z m 0.073,6.402 c -0.758605,0.625488 0.506097,0.738017 0,0 z m 0.425,0.131 0.205,0.22 -0.205,-0.22 z m 0.117,-0.966 c 0.197031,-0.205495 -0.265163,-0.190238 0,0 z m 0.088,0 c -0.49083,0.890553 0.691805,0.254534 0,0 z m 0,-0.293 c -0.1947,0.317245 0.403638,0.02362 0,0 z m 2.783,-2.842 c -3.578179,3.049281 -1.188458,2.351462 0,0 z m -0.337,1.948 c -3.189025,2.418502 -0.626785,1.457246 0,0 z m -1.054,-4.658 c -0.504067,0.629193 0.72322,-0.09184 0,0 z m 0.073,4.878 c -0.797074,0.885081 0.736992,0.08582 0,0 z m 0.205,-4.878 -0.146,-0.132 0.146,0.132 z m 0.073,-9.36 c 0.180174,-0.203726 -0.305532,-0.162844 0,0 z m -0.073,5.654 c -0.06068,0.622367 0.370447,-0.196004 0,0 z m 0,4.189 0.205,0.146 -0.205,-0.146 z m 0.073,-0.761 c -0.002,0.571972 0.227548,-0.0988 0,0 z m 0.484,4.511 -0.483,0.645 0.483,-0.645 z M 63.462,50.332 c 0.308743,0.10474 0.05356,-0.372375 0,0 z m 0.205,5.728 c -0.710688,0.681752 0.564188,0.146862 0,0 z m 0.059,3.486 -0.205,0.337 0.205,-0.337 z m 1.333,-4.893 c -2.76318,4.033031 -0.703913,2.618718 0,0 z m -1.245,0.132 c -0.791251,0.944246 0.647913,0.387202 0,0 z m 0.967,4.395 c -1.847929,1.481355 -0.819481,2.243701 0,0 z m -1.055,-8.438 0.146,0.146 -0.146,-0.146 z m 0.088,0.41 c 0.180746,-0.213288 -0.337727,-0.157279 0,0 z m 0.205,4.146 c -0.899248,0.879498 0.840842,0.406158 0,0 z m -0.146,-4.702 0.146,0.146 -0.146,-0.146 z m 0,3.984 0.146,0.146 -0.146,-0.146 z m 0.146,4.468 c -0.5805,0.509587 0.64633,0.426404 0,0 z m 0.132,-8.994 -0.205,0.425 0.205,-0.425 z m -0.059,4.175 c -0.71119,0.696784 0.526354,0.181292 0,0 z m 0.205,10.034 -0.278,0.352 0.278,-0.352 z m 0.894,-11.001 c -1.522986,1.998694 -1.017541,3.248596 0,0 z m -1.04,-1.949 c 0.341705,0.193851 -0.02243,-0.46943 0,0 z m 0.366,7.046 c -1.137044,0.858847 0.460409,0.641866 0,0 z m -0.293,4.043 0.146,0.146 -0.146,-0.146 z m 0.205,-11.806 c -0.680553,0.772776 0.550791,0.0664 0,0 z m -0.058,0.556 c 0.180174,-0.203726 -0.305532,-0.162844 0,0 z m 0.263,1.963 c -1.189092,2.680907 0.491973,0.05991 0,0 z m 0,8.863 c -0.918469,0.218606 0.523572,1.016063 0,0 z m -0.205,-1.597 0.205,0.146 -0.205,-0.146 z m 0.425,-10.752 c -0.139495,0.351841 -0.759172,1.914826 0,0 z m 0,8.32 c -0.909293,0.534713 0.628624,0.64759 0,0 z m -0.278,1.231 c 0.344204,0.18571 -0.03227,-0.385189 0,0 z m 0.278,-6.475 c -0.666851,0.667419 0.51835,0.171865 0,0 z m -0.073,6.226 0.146,0.249 -0.146,-0.249 z m 0.146,-0.161 c 0.0013,0.450212 0.180674,-0.07989 0,0 z m 0.132,-0.821 c 0.218915,-0.239012 -0.339626,-0.203733 0,0 z m 0,2.505 c 0.198901,-0.220665 -0.321828,-0.182678 0,0 z m 0.073,-5.933 0.205,0.205 -0.205,-0.205 0,0 z m 0,1.744 c 0.07267,0.635102 0.431621,-0.279992 0,0 z m 0.059,-0.293 0.146,0.22 -0.146,-0.22 z m 0.425,-6.475 c -0.318055,1.002275 0.376156,0.170338 0,0 z"
   id="path15336"
   inkscape:connector-curvature="0" />
	<path
   style="fill:#2b3990"
   d="m 69.908,35.933 c 4.970657,-1.31152 -1.731319,5.410415 1.876,1.51 3.140519,-3.247521 -1.25866,2.040324 2.313,-0.982 0.929932,0.805037 1.391441,0.390248 1.613,0.629 0.725938,0.257176 2.792192,-1.448621 1.876,0.177 2.589294,-1.252093 -1.269905,1.256475 2.666,-0.439 -3.513875,2.075084 2.795996,-0.727492 -0.35,1.246 2.707982,-1.369637 1.231037,0.629839 3.031,-0.088 -0.777728,1.41198 -0.119694,0.667822 -0.454,1.787 3.388637,-0.633233 -0.48198,1.912606 0.579804,1.944228 4.38456,-1.432276 -2.534995,3.13732 0.966562,1.032265 2.366004,-0.680689 -5.302199,3.664773 -0.240085,0.942365 C 85.032699,43.264976 78.709697,47.513864 84,44.663 c 3.528601,-1.997152 -5.494627,4.771116 -1.358111,2.229768 4.66309,-3.11002 -2.510581,2.085428 0.905111,0.351232 -1.834679,1.55472 -1.311504,2.579508 -0.087,3.12 -0.266014,-0.0777 2.238356,2.501953 1.008099,4.191848 C 82.781494,57.757572 87.392072,53.176971 84.09,58.391 82.483924,61.268113 82.206463,59.819602 79.813,61.775 77.90115,61.05521 74.736296,63.950162 77.050462,60.829843 75.754899,60.290509 75.38833,63.704144 73.57,61.42 c -0.343379,0.09024 -1.495436,0.3635 -3.333817,0.24724 -2.619859,1.796005 -0.701397,-2.613419 -1.661183,-3.430944 -0.104394,-2.720837 0.967646,-5.2338 0.176,-7.686296 0.605455,-0.747302 -0.173532,-4.378969 0,-6.504 -0.29511,-2.556949 -0.870699,-6.363935 1.157,-8.113 l 0,0 z m -1.07,4.365 c -0.68617,4.019053 0.720829,2.529941 0,0 l 0,0 z m 0.191,-0.894 c -0.673784,1.332033 0.72113,0.794496 0,0 z m 0.088,7.222 c 0.23977,-0.266007 -0.387957,-0.220215 0,0 z m 0,0.352 c 0.23977,-0.266007 -0.387957,-0.220215 0,0 z m 0.088,-9.17 c 0.23977,-0.266007 -0.387957,-0.220215 0,0 z m 0.439,16.743 -0.264,0.718 0.264,-0.718 z m -0.264,1.611 0.176,0.176 -0.176,-0.176 z m 0.44,-14.795 c 0.23977,-0.266007 -0.387957,-0.220215 0,0 z m 1.523,-4.995 c -2.82585,3.512177 -0.610162,2.001938 0,0 z m -1.435,22.632 c 0.23977,-0.266007 -0.387957,-0.220215 0,0 z m 7.675,-8.555 c -3.163052,-0.311252 -6.280812,1.395993 -7.135,4.819 4.299022,-6.447372 -0.575782,2.042512 0.591608,0.598706 5.248172,-5.543311 -2.932555,4.314551 0.208323,1.633363 4.159423,-4.862031 -4.39206,6.974177 0.988069,0.432931 2.091996,-1.45357 -3.276483,4.406517 1.421,0.806 0.217034,0.90052 2.657295,-0.645716 2.049,0.806 3.993631,-2.415237 0.477034,1.791812 2.313,-0.176 3.918355,-0.780025 1.813649,-2.835328 3.471,-6.957 -0.591033,0.811364 -1.840563,-2.154639 -3.907,-1.963 z M 71.431,43.77 c -2.285754,2.812887 -0.568613,2.52382 0,0 z m -1.333,5.083 0.176,0.176 -0.176,-0.176 z m 0,8.012 0.176,0.19 -0.176,-0.19 z m 0.44,-20.302 -0.352,0.791 0.352,-0.791 z m 2.402,3.647 c -2.653317,4.127078 2.559227,-0.07669 -1.157,4.454 -3.757069,4.922988 3.639883,-3.045716 -0.801491,2.724043 -1.778722,2.456029 4.80492,-5.212812 0.40798,0.872512 -2.655524,3.914755 1.417852,-1.695793 2.357511,-1.107555 -1.135767,1.345464 3.13879,-1.820112 0.176,1.525 3.287235,-2.653132 3.616072,-1.568474 3.121,-0.366 3.748774,-3.104178 1.932989,-0.01 1.698,0.19 4.620948,-3.923 -0.478105,-0.946489 2.403,-4.364 1.253604,-4.204746 -5.432895,-3.723166 -8.205,-3.575 l 0.366,-0.264 -0.366,-0.089 0,0 z m -2.578,8.643 c 0.385892,-0.163613 -0.640602,-0.300989 0,0 z m 0,8.012 c 0.385892,-0.163613 -0.640602,-0.300989 0,0 z m 0.088,-9.8 -0.176,0.454 0.176,-0.454 z m 4.453,2.857 C 72.728669,49.195019 69.68317,54.212918 71.046377,53.193856 71.566678,51.150984 74.385204,50.783721 74.903,49.922 z m -4.453,4.101 c 0.385892,-0.163613 -0.640602,-0.300989 0,0 z m 0.893,-3.471 c -1.124736,1.400984 -0.881495,1.880298 0,0 z m -0.542,1.509 -0.352,0.63 0.352,-0.63 z m 0.088,-1.963 -0.352,0.806 0.352,-0.806 z m -0.264,10.341 c 0.23977,-0.266007 -0.387957,-0.220215 0,0 z m 0.176,-23.876 -0.176,-0.19 0.176,0.19 z m -0.088,7.031 c 0.404473,0.232051 -0.01531,-0.518882 0,0 z m 0.176,17.739 c 0.258455,-0.283111 -0.404536,-0.239884 0,0 z m 0.088,-20.947 0.19,0.176 -0.19,-0.176 z m 0.278,9.184 c -0.01169,0.01845 -0.729647,1.152213 0,0 z m 0.44,-11.411 c -1.835195,1.754878 0.884422,0.963967 0,0 z m -0.44,4.629 c -0.944472,1.339752 0.647313,0.235766 0,0 z m 0,8.643 c 0.404473,0.232051 -0.01531,-0.518882 0,0 z m 0.352,-9.258 c -0.819489,0.674761 0.682188,0.209665 0,0 z m 0.176,7.925 c -0.05212,0.06723 -0.886544,1.143441 0,0 z m -0.352,0.981 0.176,0.176 -0.176,-0.176 z m 0.176,-7.485 0.176,0.176 -0.176,-0.176 z m 0,7.309 c -0.232051,0.404473 0.518882,-0.01531 0,0 z m 0.264,-8.818 c 0.23977,-0.266007 -0.387957,-0.220215 0,0 z m 0,1.069 c -0.721284,0.962838 0.909113,0.05456 0,0 z m 0.087,5.523 c -0.94927,1.324585 0.679053,0.196148 0,0 z m 0.088,11.938 c -0.0065,0.01073 -0.69755,1.159941 0,0 z m 0,-20.581 0.19,0.176 -0.19,-0.176 z m 0.367,8.013 c -0.829791,0.708026 0.68215,0.207328 0,0 z m 0.351,-9.8 c -0.957448,1.147646 0.91874,0.07831 0,0 z m 0,10.518 c -0.606211,0.714621 0.630426,0.147047 0,0 z m 0.454,-0.454 c -0.01955,0.03193 -0.721779,1.178732 0,0 z m 1.685,-8.907 c -5.03037,0.322419 3.994235,1.102636 0.401742,0.079 L 74.903,39.404 l 0,0 z m -1.421,-2.05 -0.176,0.454 0.176,-0.454 z m 0.439,1.611 c -1.409559,0.605118 1.036383,0.61632 0,0 z m -0.263,-1.963 c -0.641689,0.748122 0.869188,0.08618 0,0 z m 0.175,-0.264 0.264,0.176 -0.264,-0.176 z m 0.176,24.317 c 0.23977,-0.266007 -0.387957,-0.220215 0,0 z m 0.542,-1.333 -0.264,0.352 0.264,-0.352 z m -0.176,2.05 c 0.23977,-0.266007 -0.387957,-0.220215 0,0 z m 0,-0.439 0.176,0.176 -0.176,-0.176 z m 0.44,-0.542 c -0.49216,0.474977 0.40416,0.203859 0,0 z m 0.264,-0.894 0.176,0.176 -0.176,-0.176 z m 0.893,0.088 c -0.01444,0.02484 -0.689555,1.185826 0,0 z M 76.236,49.57 c -0.08042,0.120397 -0.85825,1.284936 0,0 z M 75.972,39.141 c -0.232051,0.404473 0.518882,-0.01531 0,0 z m 0.352,-0.088 c 0.23977,-0.266007 -0.387957,-0.220215 0,0 z m 0.278,20.317 -0.366,0.527 0.366,-0.527 z m 0,-10.166 c -0.868177,0.751247 0.92397,0.14166 0,0 z m 0.088,-12.466 0,0.176 0,-0.176 z m 0.352,0.703 -0.264,0.366 0.264,-0.366 z m 0.263,12.129 c 0.258455,-0.283111 -0.404536,-0.239884 0,0 z m 0,-10.971 0.19,0.19 -0.19,-0.19 z m 0.278,0 c 0.841224,0.170454 0.02363,-0.473602 0,0 z m 0.088,22.734 c 0.258455,-0.283111 -0.404536,-0.239884 0,0 z m 0.894,-11.851 c -1.779801,0.927061 0.517336,1.259275 0,0 z m -0.718,-9.99 0.176,-0.176 -0.176,0.176 z m 0,8.819 c -0.250793,0.424933 0.528242,0.0062 0,0 z m 0.176,-0.176 c -0.232051,0.404473 0.518882,-0.01531 0,0 z m 0.176,-9.536 c 0.23977,-0.266007 -0.387957,-0.220215 0,0 z m 0,0.19 c 0.04166,0.507842 0.224831,-0.119885 0,0 z m 0.542,-0.278 -0.278,0.366 0.278,-0.366 z m 0.176,0.278 -0.264,0.264 0.264,-0.264 z m 0.175,-0.19 c 0.03314,0.543285 0.234643,-0.119705 0,0 z m 0.44,21.474 c -0.05212,0.06723 -0.886544,1.143441 0,0 z m 0.19,-9.975 -0.366,0.264 0.366,-0.264 z m -0.088,9.799 c -0.232051,0.404473 0.518882,-0.01531 0,0 z m 0.088,-21.474 c 0.404473,0.232051 -0.01531,-0.518882 0,0 z m 0.615,0.893 c -1.406602,0.456369 1.018109,0.551881 0,0 z m -0.263,20.406 c 0.23977,-0.266007 -0.387957,-0.220215 0,0 z M 80.25,48.589 c 0.04166,0.507842 0.224831,-0.119885 0,0 z m 0.175,-8.555 c -0.232051,0.404473 0.518882,-0.01531 0,0 z m 0.367,-1.699 c 0.23977,-0.266007 -0.387957,-0.220215 0,0 z m 0.263,11.587 -0.352,0.439 0.352,-0.439 z m 0.44,0.351 -0.352,0.366 0.352,-0.366 z m -0.264,-9.887 0.352,0.264 -0.352,-0.264 z m 0.176,15.41 -0.176,0.454 0.176,-0.454 z m -0.176,1.348 c 0.501678,0.462392 0.260405,-0.657281 0,0 z m 0.176,-2.857 c 0.23977,-0.266007 -0.387957,-0.220215 0,0 z m 0.366,2.944 -0.366,0.439 0.366,-0.439 z m -0.19,-12.656 0.19,0.176 -0.19,-0.176 z m 0.19,5.347 c -0.907745,0.842672 1.147435,-0.100116 0,0 z m -0.19,10.063 c 0.429971,0.151332 0.09115,-0.500465 0,0 z m 0.087,-1.963 c 0.0584,0.554132 0.251894,-0.140538 0,0 z m 0.279,-8.994 c -0.750561,0.471933 0.683254,0.235862 0,0 z m 1.069,7.134 c -1.193073,-0.130057 -1.076763,2.614971 0,0 z m -0.893,-0.718 -0.264,0.352 0.264,-0.352 z m -0.176,-15.322 0.176,0.264 -0.176,-0.264 z M 82.3,39.946 c -0.838234,0.809867 0.886794,-0.0359 0,0 z m -0.175,5.874 c 0.675277,0.108742 -0.07941,-0.445643 0,0 z m 0.615,8.731 c -2.220943,1.396009 1.395849,-0.01427 0,0 z M 82.564,43.33 82.212,43.769 82.564,43.33 z m 1.157,8.643 c -2.949841,1.991089 -0.299603,1.65621 0,0 z M 82.74,51.885 82.301,52.5 82.74,51.885 z m 0.63,5.522 c -1.451154,1.921061 -0.977976,1.772694 0,0 z m -0.718,-16.67 c -0.536923,0.6122 0.6325,0.02668 0,0 z m -0.088,14.971 c -0.232051,0.404473 0.518882,-0.01531 0,0 z m 0.176,-10.781 0.19,0.176 -0.19,-0.176 z m 0.19,6.152 c 0.392635,-0.172441 -0.678974,-0.295193 0,0 z m 0.528,0.264 c -0.881828,0.541226 -0.191245,0.764157 0,0 z m 0.351,2.593 c -1.589193,0.947503 0.606585,0.496238 0,0 z m -0.176,1.157 -0.352,0.527 0.352,-0.527 z m 0.088,-12.92 c 0.23977,-0.266007 -0.387957,-0.220215 0,0 z M 84,52.954 83.634,53.569 84,52.954 z m 0.791,-10.957 0.19,0.176 -0.19,-0.176 z"
   id="path15338"
   inkscape:connector-curvature="0" />
	<path
   style="fill:#2b3990"
   d="m 92.232,48.53 c 3.094553,-0.447101 5.635609,1.774026 6.079,4.863 0.362844,3.152903 0.07399,8.005448 -3.618,9.067 -2.612635,0.815171 -6.132618,0.355011 -7.047,-2.665 -1.806066,-2.965988 -1.338193,-7.419087 0.733,-10.123 1.128525,-0.922692 2.571863,-0.597373 3.853,-1.142 z m -4.526,8.394 0.117,0.132 -0.117,-0.132 z m 1.201,-1.275 c -2.870615,0.971877 1.25372,0.08032 0,0 z m 0.322,0.542 c -0.527678,-0.474718 -3.172732,2.478431 0,0 z m 0,0.542 c -2.620656,1.143728 -0.215716,0.783715 0,0 z m -0.85,-1.347 c -1.661036,0.67564 1.461421,-0.206142 0,0 z m -0.205,-1.861 c -0.281458,0.756721 2.457613,0.135103 0,0 z m 0.733,1.407 -0.806,0.205 0.806,-0.205 z m -0.337,2.724 c -1.696981,0.960502 1.004411,0.144602 0,0 z m -0.264,0.747 c -0.663127,0.575127 0.875578,0.06222 0,0 z m 0.264,0.528 -0.19,0.205 0.19,-0.205 z m 0.454,0.263 c -1.432394,0.652427 1.018626,0.36802 0,0 z m -0.381,-6.196 0.205,0.132 -0.205,-0.132 z m 0.205,5.2 c -0.595225,0.433835 0.455258,0.05324 0,0 z m -0.073,1.128 0.132,0.146 -0.132,-0.146 z m 0.41,-6.914 c -1.226717,0.413146 0.833356,0.405011 0,0 z m -0.22,5.112 c -0.53032,0.440545 0.519542,0.04051 0,0 z m 0.059,1.348 c 0.198072,-0.212809 -0.293677,-0.186752 0,0 z m 0.762,0.513 c -2.209965,1.798848 1.094149,0.24829 0,0 z m -0.601,-4.453 c -0.157868,0.255772 0.354739,0.01945 0,0 z m 3.662,-3.999 c -2.377171,0.157703 -3.505046,0.835665 -3.134,3.062 0.05462,0.976488 -0.564977,4.65646 1.629715,5.465517 1.840002,1.501592 3.551801,0.145354 3.777285,-1.654517 -0.279807,-1.086143 1.379453,-4.390234 -0.422,-3.737 1.411761,-0.866777 -1.131284,-2.570844 -1.851,-3.136 z m -3.281,7.998 -0.19,0.396 0.19,-0.396 z m 0.747,0.996 c -1.223775,0.228536 -0.725255,1.375459 0,0 z m -0.601,-8.115 c -0.149875,0.281879 0.336779,-0.03921 0,0 z m 0.938,8.261 c -1.045691,0.663113 -0.626853,1.391082 0,0 z m -0.264,-0.879 c -0.174108,0.291322 0.354731,0.01164 0,0 z m 0.454,0.674 c -0.409577,0.462389 0.445847,4.17e-4 0,0 z m -0.073,0.864 c -0.173485,0.315158 0.421494,-0.03516 0,0 z m 1.406,-0.395 c -0.818538,1.485964 0.316082,0.767565 0,0 z m 0.396,0.586 0.205,0.132 -0.205,-0.132 z m 0.132,-0.337 c -0.533807,0.727681 0.674802,0.06415 0,0 z m 0.674,0.088 -0.205,0.249 0.205,-0.249 z m 0,-0.147 c 0.160039,-0.185801 -0.288489,-0.141341 0,0 z m 1.538,-9.536 c -1.690617,1.215676 0.970837,0.542531 0,0 z m -0.147,0.996 0.22,0.278 -0.22,-0.278 z m 1.538,1.011 c -2.629513,0.936012 -0.923328,1.250716 0,0 z m -1.538,6.738 0.146,0.132 -0.146,-0.132 z m 0.073,-2.007 0.146,0.132 -0.146,-0.132 z m 0.865,-6.401 c -1.376049,0.874046 0.6792,0.658617 0,0 z m -0.337,1.67 c 0.647729,-0.0037 -0.372799,-0.320909 0,0 z m 0.205,-0.806 c -1.00662,1.142144 1.477781,-0.107627 0,0 z m 0.058,5.743 c 0.632076,0.114047 0.02243,-0.352702 0,0 z m 0.484,-4.41 -0.337,0.205 0.337,-0.205 z m 0.263,1.802 c -2.071841,0.13224 1.92908,0.618243 0,0 z m -0.6,1.861 c 0.168754,0.982864 1.415188,-0.03363 0,0 z m 0.117,-0.601 0.337,0.205 -0.337,-0.205 0,0 z m 0.073,-4.453 0.146,0.19 -0.146,-0.19 z m 0,3.852 c 0.985636,0.810354 0.858541,-0.0998 0,0 z m 0.41,-1.655 -0.264,0.205 0.264,-0.205 z m -0.073,5.405 c 0.180174,-0.203726 -0.305532,-0.162844 0,0 z m 0,-3.061 0.205,0.337 -0.205,-0.337 z m 0,3.574 c 0.285445,0.113686 0.07673,-0.336028 0,0 z m 0.132,-6.519 c -0.175904,0.297047 0.393687,0.0027 0,0 z m 0,5.743 0.22,0.264 -0.22,-0.264 z m 0.22,0.058 c 0.199591,-0.229876 -0.353344,-0.177528 0,0 z m 0.117,-5.127 c -0.347096,0.428925 0.453286,0.05837 0,0 z m 0.059,4.322 0.205,0.205 -0.205,-0.205 z m 0,0.322 c -0.102099,0.363688 0.290003,-0.0142 0,0 z m 0.205,0.425 c 0.198072,-0.212809 -0.293677,-0.186752 0,0 z m 0.131,-1.48 0.205,0.132 -0.205,-0.132 z m 0.206,-0.395 c -0.05894,0.732671 0.623587,-0.234973 0,0 z"
   id="path15340"
   inkscape:connector-curvature="0" />
	<path
   d="M112.374,39.756c0.205,0.166,0.386,0.371,0.542,0.615c0.029,0.166,0.107,0.298,0.234,0.396   c-0.098,0.205-0.176,0.435-0.234,0.688l0.088,0.396l-0.322-0.234l-0.146,1.245l0.146,0.454l-0.146,0.161   c0.068,0.166,0.166,0.322,0.293,0.469c-0.078,0.254-0.2,0.513-0.366,0.776l-0.176,0.542l0.176,0.073l-0.176,0.396v0.146h0.088   l0.234,0.308l-0.234-0.073l-0.088,0.161h0.088l-0.161,0.615c0,0.313,0.054,0.625,0.161,0.938l-0.161,0.615   c0.068,0.01,0.122,0.059,0.161,0.146l-0.161,0.703l0.161,0.073l-0.088,0.161v0.146l0.249,0.161   c-0.107,0.068-0.19,0.171-0.249,0.308c0.088,0.225,0.146,0.459,0.176,0.703l-0.176,0.542c0.186-0.127,0.342-0.308,0.469-0.542   c0.049-0.098,0.132-0.176,0.249-0.234c0.078,0.107,0.127,0.234,0.146,0.381l-0.542,1.699l-0.234,1.626l-0.161,0.63l0.161,1.245   l-0.088,0.762l-0.146,0.542c-0.146,0.137-0.278,0.293-0.396,0.469l-0.22,0.469l0.308,0.161l-0.234,0.381   c0.117,0.078,0.249,0.132,0.396,0.161l0.293-0.308l0.088,0.308l-0.088,0.073l-0.293,0.615l0.146,0.396l0.073,0.688l-0.542,0.938   c-0.078,0.146-0.205,0.278-0.381,0.396c-0.156,0.127-0.366,0.225-0.63,0.293l-0.293-0.293l-0.542,0.073l-0.542,0.22l-0.322,0.396   l0.161-0.322l-0.396-0.293l-2.476,0.542l-0.469-0.161l-0.146,0.161l-2.871-0.542l-0.688-0.469   c-0.166-0.176-0.322-0.381-0.469-0.615l-0.322-0.776c-0.146-0.186-0.303-0.396-0.469-0.63l-0.615-2.476l-0.073-0.85l0.146-1.392   l-0.073-0.161l0.161-0.542l-0.161-0.161l0.161-0.381v-0.161l0.234-1.23l0.308-0.63l0.234-0.688c0.049-0.186,0.122-0.342,0.22-0.469   l0.791-1.23l0.542-0.542l0.469-0.63l0.688-0.381c0.146,0.049,0.225,0.146,0.234,0.293l0.073,0.249l0.234-0.249l0.396-0.22   l1.23-0.146l0.396-0.396l0.234,0.22c-0.107,0.225-0.239,0.464-0.396,0.718c-0.146,0.127-0.225,0.308-0.234,0.542   c-0.127,0.02-0.229,0.093-0.308,0.22c-0.107,0.107-0.161,0.239-0.161,0.396l0.938-1.084l0.308-0.469l0.396-0.234l0.146,0.161   l-0.688,1.011l0.22-0.088l0.864-0.85l0.308-0.469c0.137,0.02,0.264,0.068,0.381,0.146l-0.469,0.63l-0.308,0.308l-0.615,0.864   l0.234-0.088l0.615-0.542l-0.146,0.469l-0.396,0.308l0.308,0.146l0.161-0.293l0.688-0.938c0.039-0.186,0.117-0.366,0.234-0.542   c0.156-0.127,0.342-0.259,0.557-0.396l0.22-0.688c0.02-0.146,0.073-0.278,0.161-0.396c-0.02-0.176-0.098-0.332-0.234-0.469   l0.146-0.923c0.098-0.234,0.151-0.493,0.161-0.776l-0.161-0.308l0.161-0.073c-0.156-0.146-0.283-0.327-0.381-0.542l0.381-0.703   l0.088-0.308l-0.161-0.073l0.234-0.542l-0.396-0.073c0.029-0.205,0.107-0.415,0.234-0.63l0.308-0.381l-0.073-0.249l-0.234,0.249   l-0.234-0.161l0.161-0.381l1.318-0.322l0.146,0.322l0.249,0.073l0.146-0.234l0.146,0.161L112.374,39.756z M100.596,55.576   l-0.073,1.157c0.029,0.293,0.127,0.601,0.293,0.923l-0.073-1.084C100.733,56.27,100.684,55.938,100.596,55.576z M100.904,58.125   h0.161l-0.073-0.161L100.904,58.125z M101.138,58.125l-0.073,0.469l0.073,0.381l-0.073,0.073l0.146,0.63l0.469,0.146   c0.068,0.098,0.142,0.151,0.22,0.161l-0.146-0.234l-0.396-1.084C101.329,58.472,101.255,58.291,101.138,58.125z M101.358,58.594   c-0.059-0.01-0.107-0.063-0.146-0.161L101.358,58.594z M101.446,53.481l-0.088,0.293l0.249-0.22L101.446,53.481z M102.369,51.226   c-0.068,0.146-0.166,0.273-0.293,0.381l-0.396,0.63l0.073,0.161l-0.308,0.615c0.029,0.127,0.107,0.2,0.234,0.22l0.85-1.846   C102.52,51.328,102.466,51.274,102.369,51.226z M102.076,51.299v-0.146h-0.088L102.076,51.299z M101.988,60.908l0.469,0.791   l0.454,0.293l-0.22-0.762L101.988,60.908z M102.149,57.041V56.88h-0.073L102.149,57.041z M102.149,57.349v-0.146h-0.073   L102.149,57.349z M102.149,58.286c0.01,0.059,0.059,0.107,0.146,0.146C102.276,58.364,102.227,58.315,102.149,58.286z    M102.295,56.265l-0.073,0.308l0.146-0.073v-0.234H102.295z M102.295,58.74l0.073,0.234V58.74H102.295z M102.691,52.236   c-0.117,0.156-0.195,0.337-0.234,0.542C102.593,52.622,102.671,52.441,102.691,52.236z M102.618,55.488v0.161l0.146-0.073   L102.618,55.488z M102.764,55.649c-0.088,0.166-0.137,0.347-0.146,0.542L102.764,55.649z M102.911,49.292l-0.146,0.308l0.308-0.146   C103.062,49.395,103.008,49.341,102.911,49.292z M109.122,49.673c-0.195,0.146-0.376,0.327-0.542,0.542l-0.85-0.22l-0.703-0.088   c-0.215,0.088-0.474,0.166-0.776,0.234l-1.011,0.234l-0.85,0.615c-0.127,0.361-0.308,0.747-0.542,1.157l-0.308,0.864l-0.469,2.637   l0.161,0.146l-0.073,0.234l0.073,0.63l-0.073,0.146v0.146h0.073l-0.073,0.088c0.02,0.322,0.068,0.659,0.146,1.011l0.234,0.996   c0.127,0.322,0.205,0.61,0.234,0.864l0.469,0.234l0.22-0.161l0.703,0.381l0.85,0.161l1.084-0.234l1.318,0.073v-0.073   c0.195-0.166,0.376-0.371,0.542-0.615l0.073-0.396l-0.146-0.073v-0.161l0.234-0.615l-0.088-1.011l0.161-0.615l-0.161-0.615   c0.117-0.273,0.2-0.586,0.249-0.938l-0.249-0.308l0.161-0.776l0.381-1.011l0.249-1.084l-0.088-0.688l0.088-0.234   c0.029-0.166,0.103-0.347,0.22-0.542l-0.469-0.161l0.161-0.234l-0.308,0.073l-0.396,0.161   C109.073,50.225,109.102,49.966,109.122,49.673z M103.306,59.912c-0.02-0.068-0.068-0.122-0.146-0.161   C103.179,59.8,103.228,59.854,103.306,59.912z M103.541,60.601c0.166,0.195,0.371,0.322,0.615,0.381L103.541,60.601z    M103.614,53.086c0.068,0.02,0.122,0.068,0.161,0.146L103.614,53.086z M104.083,50.068v0.146l0.161-0.073L104.083,50.068z    M104.463,48.823l-0.146,0.234l0.146,0.073l0.322-0.146L104.463,48.823z M104.932,61.157l-0.234,0.22l0.308,0.396l0.161-0.469   L104.932,61.157z M104.932,48.823c-0.02-0.059-0.068-0.112-0.146-0.161C104.805,48.711,104.854,48.765,104.932,48.823z    M105.24,49.526v0.146l0.161-0.073L105.24,49.526z M106.485,49.292l-0.234,0.381C106.387,49.585,106.465,49.458,106.485,49.292z    M106.25,60.762c0.049,0.078,0.127,0.127,0.234,0.146L106.25,60.762z M106.25,61.377c0.02,0.215,0.098,0.396,0.234,0.542   C106.485,61.714,106.407,61.533,106.25,61.377z M106.558,60.835h0.161v-0.146h-0.073L106.558,60.835z M106.646,49.131v0.161   l0.146-0.088L106.646,49.131z M106.792,48.984v0.146l0.161-0.073L106.792,48.984z M107.1,60.601l-0.308,0.161l0.161,0.073   l0.308-0.073C107.251,60.713,107.198,60.659,107.1,60.601z M107.188,49.6c0.01,0.068,0.059,0.117,0.146,0.146   C107.325,49.697,107.276,49.648,107.188,49.6z M108.111,49.673l0.073-0.073l-0.234-0.073   C107.989,49.575,108.042,49.624,108.111,49.673z M109.195,48.193c-0.215,0.215-0.42,0.479-0.615,0.791l-0.396,0.381   c0.01,0.059,0.063,0.112,0.161,0.161l0.85-0.864l0.308-0.381L109.195,48.193z M109.502,48.823l-0.22,0.308   C109.4,49.053,109.473,48.95,109.502,48.823z M109.664,59.136c-0.137,0.254-0.239,0.537-0.308,0.85   C109.502,59.731,109.605,59.448,109.664,59.136z M109.898,53.628l-0.322,0.542l-0.146,0.542c0.195-0.117,0.376-0.273,0.542-0.469   l0.073-0.469C110.035,53.726,109.986,53.677,109.898,53.628z M109.898,56.265l-0.322,0.615l-0.146,0.542l0.234-0.146l0.308-0.469   l0.073-0.469L109.898,56.265z M109.825,46.655l-0.249,0.542l0.249,0.088l0.146-0.176L109.825,46.655z M109.737,55.488l-0.161,0.308   l0.322-0.146C109.878,55.581,109.825,55.527,109.737,55.488z M109.825,57.744c-0.117,0.273-0.2,0.581-0.249,0.923l0.469-0.776   L109.825,57.744z M110.206,42.539c-0.166,0.195-0.322,0.43-0.469,0.703l0.308,0.073C110.152,43.071,110.206,42.813,110.206,42.539z    M109.737,43.315v0.161l0.161-0.073L109.737,43.315z M109.737,49.746v0.161l0.161-0.073L109.737,49.746z M109.971,55.4   c-0.01-0.059-0.059-0.107-0.146-0.146C109.844,55.303,109.893,55.352,109.971,55.4z M110.513,44.092   c-0.156,0.244-0.288,0.503-0.396,0.776c-0.137,0.215-0.21,0.449-0.22,0.703l0.469-0.703l0.381-0.381   C110.708,44.341,110.63,44.209,110.513,44.092z M110.118,46.025l-0.146,0.322l0.308-0.234L110.118,46.025z M110.044,53.628v-0.146   h-0.073L110.044,53.628z M110.367,47.432c-0.117,0.088-0.225,0.22-0.322,0.396C110.181,47.729,110.289,47.598,110.367,47.432z    M110.279,59.824l-0.161,0.322l0.322-0.161C110.42,59.917,110.367,59.863,110.279,59.824z M110.44,43.315l-0.234,0.396   C110.313,43.604,110.391,43.472,110.44,43.315z M110.367,45.952c-0.02-0.059-0.073-0.107-0.161-0.146   C110.235,45.854,110.289,45.903,110.367,45.952z M110.206,61.523c0.01,0.117,0.063,0.2,0.161,0.249L110.206,61.523z    M110.279,41.704c0.01,0.059,0.063,0.107,0.161,0.146C110.42,41.782,110.367,41.733,110.279,41.704z M110.279,47.285h0.161   l-0.073-0.176L110.279,47.285z M110.66,47.974l-0.381,0.469C110.455,48.325,110.582,48.169,110.66,47.974z M110.367,44.487h0.146   l-0.073,0.146L110.367,44.487z M110.367,60.762v0.146C110.416,60.859,110.416,60.811,110.367,60.762z M110.66,44.941   c-0.02,0.166-0.093,0.322-0.22,0.469c0.02,0.215,0.093,0.42,0.22,0.615l0.161-0.996L110.66,44.941z M110.586,46.816l-0.146,0.293   l0.308-0.146C110.738,46.895,110.684,46.846,110.586,46.816z M110.982,54.492l-0.469,0.835l-0.073,0.63l0.308-0.308   c0.039-0.244,0.117-0.508,0.234-0.791l-0.161,0.322c0.186-0.098,0.342-0.229,0.469-0.396   C111.211,54.668,111.109,54.57,110.982,54.492z M110.586,57.817l-0.146,1.011l0.073-0.234l0.234-0.308l0.073-0.396L110.586,57.817z    M110.513,59.824v-0.146h-0.073L110.513,59.824z M110.44,60.601v0.161l0.146-0.073L110.44,60.601z M110.748,40.532l-0.234,0.308   C110.65,40.762,110.728,40.659,110.748,40.532z M110.513,41.528l0.234-0.073l-0.161-0.073L110.513,41.528z M110.821,48.662   l-0.308,0.396l0.308,0.234v-0.161h-0.073l0.308-0.146C111.026,48.848,110.948,48.74,110.821,48.662z M110.66,53.95l-0.146,0.454   l0.308-0.308C110.811,54.028,110.757,53.979,110.66,53.95z M110.66,60.293l-0.146,0.234l0.234,0.161   c0.107-0.049,0.186-0.127,0.234-0.234C110.904,60.366,110.796,60.313,110.66,60.293z M110.66,60.981l-0.146,0.249   C110.611,61.182,110.66,61.099,110.66,60.981z M111.055,51.929l-0.146,0.762c-0.127,0.049-0.234,0.132-0.322,0.249   c0.039,0.098,0.117,0.171,0.234,0.22c0.029-0.088,0.083-0.161,0.161-0.22l0.22-0.791L111.055,51.929z M110.66,41.997   c0.02,0.068,0.073,0.122,0.161,0.161C110.801,42.109,110.748,42.056,110.66,41.997z M110.66,51.299v0.161l0.161-0.073   L110.66,51.299z M110.66,57.656c0.02,0.068,0.073,0.122,0.161,0.161C110.811,57.749,110.757,57.695,110.66,57.656z M110.821,50.215   l-0.073,0.234l0.234-0.161L110.821,50.215z M110.909,46.187c0.01,0.059,0.059,0.112,0.146,0.161   C111.045,46.279,110.997,46.226,110.909,46.187z M111.128,42.231l-0.146,0.396C111.08,42.52,111.128,42.388,111.128,42.231z    M110.982,47.358v0.22h0.073l0.073-0.22H110.982z M111.055,44.399c0.039,0.098,0.117,0.151,0.234,0.161L111.055,44.399z    M111.128,48.12l-0.073,0.542l0.234-0.146L111.128,48.12z M111.128,49.6v-0.146h-0.073L111.128,49.6z M111.202,50.537l-0.146,0.542   l0.322-0.322L111.202,50.537z M111.202,59.517l-0.146,0.308l0.322-0.073C111.358,59.653,111.299,59.575,111.202,59.517z    M111.128,41.528h0.161l-0.088-0.146L111.128,41.528z M111.377,44.326c-0.127,0.273-0.21,0.562-0.249,0.864   C111.265,44.927,111.348,44.639,111.377,44.326z M111.202,51.929v-0.161h-0.073L111.202,51.929z M111.524,61.069l-0.396,0.776   l0.615-0.469L111.524,61.069z M111.524,43.784c-0.127,0.156-0.234,0.337-0.322,0.542C111.348,44.18,111.456,43.999,111.524,43.784z    M111.29,54.023l-0.088,0.22h0.176v-0.22H111.29z M111.29,54.565v-0.161h-0.088L111.29,54.565z M111.377,43.477v-0.161h-0.088   L111.377,43.477z M111.524,42.627c-0.078,0.166-0.127,0.371-0.146,0.615l0.366-0.542L111.524,42.627z M111.67,44.795   c-0.146,0.283-0.244,0.596-0.293,0.938C111.543,45.439,111.641,45.127,111.67,44.795z M111.451,46.421   c0.01,0.088,0.059,0.166,0.146,0.234L111.451,46.421z M111.597,55.034l-0.146,0.454l0.22-0.088l0.073-0.293L111.597,55.034z    M111.524,46.187c0.02,0.059,0.068,0.112,0.146,0.161C111.661,46.279,111.612,46.226,111.524,46.187z M111.597,47.578v-0.146   h-0.073L111.597,47.578z M111.67,53.701l-0.073,0.615l0.146-0.454v-0.161H111.67z M111.744,41.455l-0.073,0.249l0.161-0.088v-0.161   H111.744z M111.67,46.025c0.02,0.068,0.073,0.122,0.161,0.161C111.822,46.128,111.768,46.074,111.67,46.025z M111.832,41.997   c-0.059,0.186-0.088,0.396-0.088,0.63l0.322-0.396C112.017,42.144,111.939,42.065,111.832,41.997z M112.066,49.292l-0.322,0.454   C111.919,49.629,112.027,49.478,112.066,49.292z M112.066,40.84l-0.146,0.234h0.22L112.066,40.84z M112.066,41.777l-0.146,0.22   h0.22v-0.22H112.066z M111.993,48.516l-0.073,0.22l0.146-0.073L111.993,48.516z M111.993,48.193c0,0.127,0.049,0.234,0.146,0.322   L111.993,48.193z M112.066,50.215v0.161l0.146-0.088L112.066,50.215z M112.286,51.768l-0.073,0.703l-0.146,0.073l0.073,0.308   c0.117-0.186,0.225-0.42,0.322-0.703C112.461,52.021,112.403,51.895,112.286,51.768z M112.212,52.852l-0.146,0.542   c0.02,0.059,0.068,0.112,0.146,0.161l0.073-0.542v-0.161H112.212z M112.212,55.796l0.073,0.234l0.088-0.234H112.212z    M112.461,51.46l-0.176,0.234h0.249V51.46H112.461z"
   id="path15342"
   fill="#2B3990" />
	<path
   style="fill:#2b3990"
   d="m 118.028,48.794 c 2.32698,1.81112 0.74123,6.130611 0.88869,8.933068 -0.52033,3.242466 5.62619,3.327093 6.00831,-0.07107 1.02224,-0.981002 -3.49712,4.407455 -0.835,-0.074 -1.29432,-0.843781 -0.28565,-2.524317 1.129,-5.288 0.92218,-2.783006 -2.767,5.464587 -1.62002,0.65909 -1.91548,-2.73092 2.34343,-5.981618 2.86602,-2.47809 -0.39119,5.446046 0.82822,11.220185 -1.43432,16.340436 -1.95558,2.568066 -8.14987,4.07244 -8.68868,-0.328436 2.42618,-2.826849 6.06059,1.365495 7.85866,-3.150205 0.29812,-0.787667 -1.72837,1.78214 -1.03169,-0.44412 -3.57944,1.391334 -8.81704,-1.371214 -7.01797,-5.455675 -0.13406,-1.715502 -0.12534,-4.281318 0.0754,-6.563503 -0.5783,-1.626987 0.29672,-1.993521 1.80164,-2.079497 z m -1.831,6.768 c -0.1925,0.335529 0.43044,-0.0127 0,0 z m 0.571,2.944 c -0.85246,1.506505 0.44318,0.834804 0,0 z m -0.205,1.802 c 0.1989,-0.220665 -0.32183,-0.182678 0,0 z m 0,-0.279 c 0.33161,0.364943 0.002,-0.480888 0,0 z m 0.146,-3.076 c -0.19603,0.318696 0.40437,0.02508 0,0 z m 0,2.798 0.132,0.205 -0.132,-0.205 z m 0.762,6.064 -0.63,0.762 0.63,-0.762 z m -0.556,-7.529 0.205,0.22 -0.205,-0.22 z m 0.205,-0.073 c -0.1925,0.335529 0.43044,-0.0127 0,0 z m 0.263,8.276 c -0.92148,0.957787 0.67718,0.544358 0,0 z m 0.088,-6.181 c -0.43913,0.405949 0.4757,0.204073 0,0 z m 0,-7.456 0.132,0.19 -0.132,-0.19 z m 0.059,-0.147 0.22,0.146 -0.22,-0.146 z m 0.22,12.759 -0.22,0.352 0.22,-0.352 z m -0.22,0.893 0.146,0.132 -0.146,-0.132 z m 1.333,-15.615 c -1.7415,2.07022 -0.89054,2.654478 0,0 z m -1.113,0.41 -0.146,-0.132 0.146,0.132 z m -0.147,3.853 c -0.17694,0.303099 0.42988,-0.0059 0,0 z m 0.073,-4.058 c 0.29705,0.175904 0.003,-0.393687 0,0 z m 0,15.279 0.132,0.132 -0.132,-0.132 z m 0.074,-12.203 0.132,0.146 -0.132,-0.146 z m 0.278,-3.691 c -1.04489,1.106311 0.82083,-0.01762 0,0 z m -0.22,5.098 0.146,0.205 -0.146,-0.205 z m 0.366,10.503 -0.366,0.293 0.366,-0.293 z m -0.146,1.259 -0.22,0.366 0.22,-0.366 z m -0.147,-13.3 c -0.17348,0.315158 0.42149,-0.03516 0,0 z m 0.762,0.629 c -1.01995,0.626398 -0.93331,1.832383 0,0 z m -0.615,1.744 -0.146,0.264 0.146,-0.264 z m 0,-3.282 c -0.38353,0.369758 0.2858,0.157602 0,0 z m 0.205,5.23 c -0.004,0.0057 -0.73762,1.127652 0,0 z m -0.205,-4.468 c -0.1925,0.335529 0.43044,-0.0127 0,0 z m 0.146,-0.981 c -0.1947,0.317245 0.40364,0.02362 0,0 z m 0.059,0.981 c 0.17943,-0.195483 -0.27674,-0.167282 0,0 z m 0.278,5.581 -0.337,0.557 0.337,-0.557 z m 0.132,0.557 c -1.33589,0.598751 0.15501,0.534135 0,0 z m -0.264,-10.049 c -0.66165,0.519891 0.52664,0.18625 0,0 z m 0,15.894 c -0.60124,0.4634 0.6447,0.0887 0,0 z m 0,-12.964 c 0.18017,-0.203726 -0.30553,-0.162844 0,0 z m 0,4.819 c 0.1989,-0.220665 -0.32183,-0.182678 0,0 z m 0.059,0.63 c 0.17943,-0.195483 -0.27674,-0.167282 0,0 z m 0.425,2.168 -0.425,0.688 0.425,-0.688 z m -0.279,-10.547 c 0.18017,-0.203726 -0.30553,-0.162844 0,0 z m 0,7.339 c 0.0107,0.411706 0.17029,-0.08004 0,0 z m 0.279,-2.036 -0.22,0.366 0.22,-0.366 z m 0,11.22 -0.22,0.352 0.22,-0.352 z m 0.205,-0.205 c -0.41252,0.447516 0.4493,0.02761 0,0 z m 0.073,-5.288 c -0.19063,0.330364 0.39389,-0.0036 0,0 z m 0.132,-0.132 c -0.17201,0.309638 0.38498,-0.02551 0,0 z m 0.352,5.494 -0.264,0.352 0.264,-0.352 z m 0.205,-5.435 -0.264,0.571 0.264,-0.571 z m 0,0.703 c 0.31725,0.1947 0.0236,-0.403638 0,0 z m 0.366,-0.337 0.146,0.132 -0.146,-0.132 z m 0.263,-0.146 -0.117,0.205 0.117,-0.205 z m 0.074,-0.762 c 0.34898,0.188017 -0.0427,-0.421839 0,0 z m 0.146,1.113 0.132,0.132 -0.132,-0.132 z m 0,4.512 0.132,0.205 -0.132,-0.205 z m 0.762,0.205 c -1.03365,1.18339 -1.03345,3.084104 0,0 z m -0.483,-5.01 c -0.68122,0.561634 0.56924,0.174603 0,0 z m -0.147,6.065 0.205,0.205 -0.205,-0.205 z m 0.63,-6.475 -0.205,0.41 0.205,-0.41 z m 0.073,6.402 c -0.7586,0.625488 0.5061,0.738017 0,0 z m 0.425,0.131 0.205,0.22 -0.205,-0.22 z m 0.117,-0.966 c 0.19703,-0.205495 -0.26516,-0.190238 0,0 z m 0.088,0 c -0.49083,0.890553 0.6918,0.254534 0,0 z m 0,-0.293 c -0.1947,0.317245 0.40364,0.02362 0,0 z m 2.783,-2.842 c -3.57818,3.049281 -1.18846,2.351462 0,0 z m -0.337,1.948 c -3.18903,2.418502 -0.62678,1.457246 0,0 z m -1.054,-4.658 c -0.50407,0.629193 0.72322,-0.09184 0,0 z m 0.073,4.878 c -0.79707,0.885081 0.73699,0.08582 0,0 z m 0.205,-4.878 -0.146,-0.132 0.146,0.132 z m 0.073,-9.36 c 0.18017,-0.203726 -0.30553,-0.162844 0,0 z m -0.073,5.654 c -0.0607,0.622367 0.37045,-0.196004 0,0 z m 0,4.189 0.205,0.146 -0.205,-0.146 z m 0.073,-0.761 c -0.002,0.571972 0.22755,-0.0988 0,0 z m 0.484,4.511 -0.483,0.645 0.483,-0.645 z M 123.96,50.332 c 0.30874,0.10474 0.0536,-0.372375 0,0 z m 0.206,5.728 c -0.71069,0.681752 0.56419,0.146862 0,0 z m 0.058,3.486 -0.205,0.337 0.205,-0.337 z m 1.333,-4.893 c -2.76318,4.033031 -0.70391,2.618718 0,0 z m -1.245,0.132 c -0.79125,0.944246 0.64791,0.387202 0,0 z m 0.967,4.395 c -1.84793,1.481355 -0.81948,2.243701 0,0 z m -1.055,-8.438 0.146,0.146 -0.146,-0.146 z m 0.088,0.41 c 0.18075,-0.213288 -0.33773,-0.157279 0,0 z m 0.205,4.146 c -0.89925,0.879498 0.84084,0.406158 0,0 z m -0.146,-4.702 0.146,0.146 -0.146,-0.146 z m 0,3.984 0.146,0.146 -0.146,-0.146 z m 0.146,4.468 c -0.5805,0.509587 0.64633,0.426404 0,0 z m 0.132,-8.994 -0.205,0.425 0.205,-0.425 z m -0.059,4.175 c -0.71119,0.696784 0.52635,0.181292 0,0 z m 0.205,10.034 -0.278,0.352 0.278,-0.352 z m 0.894,-11.001 c -1.52299,1.998694 -1.01754,3.248596 0,0 z m -1.04,-1.949 c 0.34171,0.193851 -0.0224,-0.46943 0,0 z m 0.366,7.046 c -1.13704,0.858847 0.46041,0.641866 0,0 z m -0.293,4.043 0.146,0.146 -0.146,-0.146 z m 0.205,-11.806 c -0.68055,0.772776 0.55079,0.0664 0,0 z m -0.058,0.556 c 0.18017,-0.203726 -0.30553,-0.162844 0,0 z m 0.263,1.963 c -1.18909,2.680907 0.49197,0.05991 0,0 z m 0,8.863 c -0.91847,0.218606 0.52357,1.016063 0,0 z m -0.205,-1.597 0.205,0.146 -0.205,-0.146 z m 0.425,-10.752 c -0.13949,0.351841 -0.75917,1.914826 0,0 z m 0,8.32 c -0.90929,0.534713 0.62862,0.64759 0,0 z m -0.278,1.231 c 0.3442,0.18571 -0.0323,-0.385189 0,0 z m 0.278,-6.475 c -0.66685,0.667419 0.51835,0.171865 0,0 z m -0.073,6.226 0.146,0.249 -0.146,-0.249 z m 0.146,-0.161 c 0.001,0.450212 0.18067,-0.07989 0,0 z m 0.132,-0.821 c 0.21891,-0.239012 -0.33963,-0.203733 0,0 z m 0,2.505 c 0.1989,-0.220665 -0.32183,-0.182678 0,0 z m 0.073,-5.933 0.205,0.205 -0.205,-0.205 z m 0,1.744 c 0.0727,0.635102 0.43162,-0.279992 0,0 z m 0.059,-0.293 0.146,0.22 -0.146,-0.22 z m 0.425,-6.475 c -0.31805,1.002275 0.37616,0.170338 0,0 z"
   id="path15344"
   inkscape:connector-curvature="0" />
	<path
   style="fill:#2b3990"
   d="m 184.955,39.891 c 3.59438,-0.170976 7.89434,1.026612 8.75296,5.162426 2.1464,4.07927 1.16398,8.562239 -0.0951,12.664855 -0.89483,4.108293 -5.17184,4.496039 -8.53888,5.211719 -3.303,-0.375303 -6.33178,-1.609436 -7.44708,-4.998762 -2.95496,-4.442832 -1.74575,-10.42646 0.14349,-15.047166 1.51086,-2.61718 4.73233,-2.12228 7.18459,-2.993072 z m -7.243,13.429 0.188,0.211 -0.188,-0.211 z m 1.922,-2.039 c -4.59413,1.562459 2.01203,0.114365 0,0 z m 0.516,0.867 c -3.81565,0.983579 -1.92757,2.101117 0,0 z m 0,0.868 c -4.81651,2.288749 -0.12716,1.237349 0,0 z m -1.359,-2.157 c -2.63837,1.055782 2.31233,-0.283725 0,0 z m -0.329,-2.976 c -0.16457,1.215898 3.61005,-0.0034 0,0 z m 1.172,2.25 -1.289,0.328 1.289,-0.328 z m -0.539,4.359 c -3.37079,1.673145 1.88449,0.139677 0,0 z m -0.422,1.196 c -1.05537,0.923907 1.35359,0.05396 0,0 z m 0.422,0.843 -0.305,0.328 0.305,-0.328 z m 0.727,0.422 c -2.32484,1.026047 1.60882,0.57416 0,0 z m -0.61,-9.914 0.328,0.211 -0.328,-0.211 z m 0.329,8.32 c -0.95309,0.694125 0.7264,0.0853 0,0 z m -0.118,1.805 0.211,0.234 -0.211,-0.234 z m 0.657,-11.062 c -1.9408,0.645502 1.30024,0.673087 0,0 z m -0.352,8.179 c -0.85021,0.703827 0.82853,0.06674 0,0 z m 0.094,2.157 c 0.31742,-0.340781 -0.46959,-0.299463 0,0 z m 1.219,0.82 c -2.37592,1.652963 0.85828,1.057071 0,0 z m -0.961,-7.125 c -0.25382,0.410347 0.57052,0.03271 0,0 z m 5.859,-6.399 c -3.20904,1.047632 -4.33689,-0.09658 -5.22391,3.0745 -0.51072,2.502227 0.65117,3.483017 0.0929,6.7235 0.47292,2.666601 2.51834,4.59898 5.28275,4.765591 3.2127,0.827003 2.63604,-3.96273 4.30425,-4.977591 -2.91808,-1.481369 2.35895,-5.74214 -1.29609,-4.60718 1.46568,-1.018697 -1.4273,-3.988479 -2.73691,-4.53482 l -0.34675,-0.363969 -0.0763,-0.08003 0,0 z m -5.25,12.797 -0.305,0.633 0.305,-0.633 z m 1.195,1.594 c -2.43589,0.777558 -1.07859,2.134659 0,0 z m -0.961,-12.984 c -0.24092,0.452666 0.5413,-0.06241 0,0 z m 1.5,13.218 c -1.68814,1.197388 -0.90656,1.999021 0,0 z m -0.422,-1.406 c -0.27855,0.465726 0.5698,0.01863 0,0 z m 0.727,1.078 c -0.65566,0.740115 0.71288,1.66e-4 0,0 z m -0.117,1.383 c -0.27728,0.5043 0.6752,-0.05728 0,0 z m 2.25,-0.633 c -1.19467,1.836023 0.49229,1.173042 0,0 z m 0.633,0.938 0.328,0.211 -0.328,-0.211 z m 0.211,-0.539 c -0.77978,1.099232 1.03791,0.124236 0,0 z m 1.078,0.14 c -0.0108,0.01308 -0.86389,1.048251 0,0 z m 0,-0.234 c 0.25715,-0.29836 -0.46291,-0.227225 0,0 z m 2.461,-15.258 c -2.25154,1.723855 0.76327,1.092424 0.20388,0.14873 L 189.244,43.828 z m -0.235,1.594 c 0.71818,0.907933 0.22048,0.278734 0,0 z m 2.461,1.617 c -2.87369,0.911441 -3.09546,2.649609 0,0 z m -2.461,10.781 0.234,0.211 -0.234,-0.211 z m 0.117,-3.211 0.234,0.211 -0.234,-0.211 z m 1.383,-10.242 c -2.43891,1.634405 1.36144,0.808913 0,0 z m -0.539,2.672 c 1.03663,-0.0067 -0.59692,-0.512837 0,0 z m 0.328,-1.289 c -1.33189,1.863968 1.99381,-0.145887 0,0 z m 0.094,9.188 c 1.01104,0.18072 0.0351,-0.562732 0,0 z m 0.774,-7.055 c -0.1214,0.07388 -1.31593,0.800789 0,0 z m 0.421,2.883 c -3.11817,0.333036 2.81057,0.820503 0,0 z m -0.961,2.976 c 0.21675,1.250287 2.32271,0.336094 0,0 z m 0.188,-0.961 c 0.1214,0.07388 1.31593,0.800789 0,0 z m 0.117,-7.125 0.234,0.305 -0.234,-0.305 z m 0,6.164 c 1.91296,1.592019 1.67717,-0.0219 0,0 z m 0.656,-2.648 -0.422,0.328 0.422,-0.328 z m -0.117,8.648 c 0.28802,-0.325844 -0.48904,-0.260196 0,0 z m 0,-4.898 0.328,0.539 -0.328,-0.539 z m 0,5.719 c 0.4568,0.182199 0.12217,-0.539625 0,0 z m 0.211,-10.43 c -0.28126,0.474545 0.62951,0.0049 0,0 z m 0,9.187 0.352,0.422 -0.352,-0.422 z m 0.352,0.094 c 0.31989,-0.368405 -0.56623,-0.284546 0,0 z m 0.187,-8.203 c -0.55673,0.687484 0.72511,0.09495 0,0 z m 0.094,6.914 0.328,0.328 -0.328,-0.328 z m 0,0.516 c -0.16364,0.582896 0.4648,-0.02275 0,0 z m 0.328,0.679 c 0.31742,-0.340781 -0.46959,-0.299463 0,0 z m 0.211,-2.367 0.328,0.211 -0.328,-0.211 z m 0.328,-0.633 c -0.094,1.171409 0.99667,-0.376153 0,0 z"
   id="path15346"
   inkscape:connector-curvature="0" />
	<path
   style="fill:#2b3990"
   d="m 199.673,30.445 c 4.3791,-1.062076 2.04553,2.585096 3.08674,4.51388 -2.34461,5.824686 5.76278,0.345562 7.00689,4.49787 0.33171,3.83266 -4.39826,2.319038 -7.35063,2.28525 -1.11756,2.63012 1.0438,3.919931 -1.688,7.29 0.045,0.410179 2.97158,-0.752698 -0.539,2.602 5.0914,-4.330713 -1.90449,6.260237 1.04586,2.212137 2.50586,-0.510017 -3.63697,3.788146 0.92214,1.818863 -1.33568,2.646504 1.83512,7.554103 -3.515,6.867 -3.56273,0.321781 -1.07054,-5.098657 -1.66089,-7.494292 0.93873,-2.470475 0.10401,-5.200406 -0.0673,-7.913554 0.62372,-2.288186 0.45809,-4.556695 0.29915,-7.187154 -0.30132,-2.877216 -0.87328,-7.284811 1.42586,-9.005784 0.34471,-0.162072 0.68943,-0.324144 1.03414,-0.486216 z m -1.429,6.493 0.258,0.398 -0.258,-0.398 z m 0.398,21.304 c 0.52611,-0.228037 -0.93254,-0.446468 0,0 z m 0,-17.531 c -0.34338,0.58211 0.76836,0.0018 0,0 z m 0,17.016 0.375,0.258 -0.375,-0.258 z m 0.117,-15.071 c -0.34338,0.58211 0.76836,0.0018 0,0 z m 0.141,-2.203 0.258,0.258 -0.258,-0.258 z m 0.516,16.899 c -1.21313,0.006 0.15837,0.848832 0,0 z m -0.399,-21.704 0.258,0.258 -0.258,-0.258 z m 0.399,14.415 c -1.72484,1.720901 1.27501,0.07343 0,0 z m -0.399,5.718 c 0.58226,0.225667 0.12646,-0.728359 0,0 z m 0.258,-15.726 c -0.74841,0.889208 0.92143,0.01345 0,0 z m 0.656,11.578 -0.773,1.172 0.773,-1.172 z m -0.117,4.664 -0.656,1.055 0.656,-1.055 z m -0.539,-24.164 c 0.81098,0.810978 0.25035,0.250355 0,0 z m 0.398,0.14 c 0.94127,-0.170574 -0.99384,-0.495755 0,0 z m -0.257,16.102 c -0.34338,0.58211 0.76836,0.0018 0,0 z m 0.257,-8.695 0.258,0.258 -0.258,-0.258 z m 0.258,9.726 c -1.04167,1.008922 1.32358,0.701758 0,0 z m 0,-17.929 c -0.66277,0.843466 0.90865,0.227165 0,0 z m 0.258,1.054 c -0.12027,0.203021 -0.87973,1.484979 0,0 z m -0.117,13.758 c -1.31696,1.696374 0.89306,0.253937 0,0 z m 1.172,5.602 c -2.58103,2.117735 -0.33655,1.776104 0,0 z m -0.516,-13.266 -0.539,1.055 0.539,-1.055 z m -0.539,4.945 c 0.58211,0.343382 0.002,-0.768358 0,0 z m 0.141,4.289 c 0.35208,-0.397159 -0.59364,-0.318862 0,0 z m 1.031,-16.242 c -1.48556,-0.288279 1.26969,3.43006 0,0 z m -0.774,18.961 c -0.17085,0.656007 0.53613,-0.03499 0,0 z m 0.258,-3.633 c 0.58211,0.343382 0.002,-0.768358 0,0 z m 0.141,-4.406 0.258,0.258 -0.258,-0.258 z m 0.117,-4.172 c -0.34338,0.58211 0.76836,0.0018 0,0 z m 0.258,5.203 c -1.41804,1.845124 1.26411,-0.172025 0,0 z m 0.14,-10.125 -0.258,0.375 0.258,-0.375 z M 201.619,42 c -0.095,0.136469 -0.90505,1.300865 0,0 z m -0.258,-3.891 c -0.34338,0.58211 0.76836,0.0018 0,0 z m 0,8.321 c 0.58211,0.343382 0.002,-0.768358 0,0 z m 0.258,-8.578 c -0.34338,0.58211 0.76836,0.0018 0,0 z m 0.257,5.718 c 0.60509,-0.251957 -0.94271,-0.43687 0,0 z m 0.282,-5.062 c -1.11276,0.808365 0.88671,0.0643 0,0 z m 1.804,0.633 c -0.36735,0.637677 0.76811,-0.01048 0,0 z m 0.516,-0.516 c -1.14105,1.128801 0.86872,0.07559 0,0 z m 0,22.219 0.258,0.398 -0.258,-0.398 z m 0.258,-22.477 c -0.34519,0.591919 0.82788,-0.01232 0,0 z m 0.281,-0.258 c -0.34338,0.58211 0.76836,0.0018 0,0 z m 1.547,0.914 c 0.58211,0.343382 0.002,-0.768358 0,0 z m 0.258,-0.515 0.258,0.258 -0.258,-0.258 z m 0.398,-0.258 c 0.0408,0.736005 0.31573,-0.159088 0,0 z"
   id="path15348"
   inkscape:connector-curvature="0" />
	<path
   style="fill:#2b3990"
   d="m 222.173,38.531 c 2.4495,3.829487 1.56562,-0.443251 4.29,0.586 1.15196,1.478343 1.76826,1.276522 2.694,1.617 1.24887,0.212377 1.52308,1.976982 1.266,2.578 2.63543,-1.007929 3.13445,6.414932 1.171,6.961 -0.18661,1.146874 -2.38108,0.223914 -2.671,1.265 0.008,-3.785839 -2.03402,0.950197 -2.789,-1.384 -1.2131,2.472186 -6.44285,0.257204 -7.43,2.555 -0.20727,2.13491 0.66833,3.646202 3.235,5.203 1.69804,2.040461 2.51735,-1.539072 3.023,0.116 0.82627,-1.181118 2.91973,-0.682342 3.611,-0.913 1.96605,-2.332018 4.17087,4.451054 1.151,3.937 -2.77186,0.819838 -5.55621,2.326235 -8.32926,1.424368 -0.0842,-0.587658 -3.73375,-2.195507 -4.49924,-3.311052 -2.26104,-1.288877 -2.21379,-5.121528 -2.70115,-7.188013 -0.63536,-3.320144 -0.97316,-7.559423 1.43606,-10.318491 3.82297,-2.54255 5.13015,-1.796799 6.30859,-2.213812 l -0.234,-0.797 0.468,-0.117 0,0 z m -8.132,9.867 c 0.53689,0.194799 0.1059,-0.65854 0,0 z m 0.234,0.352 -0.234,-0.234 0.234,0.234 z m -0.234,5.227 0.352,0.352 -0.352,-0.352 z m 0.351,-7.547 c 0.31879,-0.353668 -0.51581,-0.292786 0,0 z m 0.094,-1.407 c -0.56257,0.742338 0.77162,0.195742 0,0 z m 0,-0.562 c 0.53777,0.308523 -0.0204,-0.689877 0,0 z m 0.117,0.117 c -0.69027,0.497965 0.69027,0.497965 0,0 z m 0.117,-0.586 0.234,0.234 -0.234,-0.234 z m 0.117,-0.679 c -0.002,1.605179 0.81721,-0.461252 0,0 z m 0.235,-0.375 0.234,0.375 -0.234,-0.375 z m 0.726,4.992 c -0.6162,1.622801 0.61853,3.60214 0,0 z m 0.328,-1.617 c -0.84986,0.279482 0.26437,1.178958 0,0 z m 0.235,3.843 c -0.30852,0.537765 0.68988,-0.02036 0,0 z m 0.117,0.68 c 0.28802,-0.325844 -0.48904,-0.260196 0,0 z m 0,0.586 c 0.31879,-0.353668 -0.51581,-0.292786 0,0 z m 0.117,7.57 c -0.30852,0.537765 0.68988,-0.02036 0,0 z m 0.235,0.446 c 0.53777,-0.308523 -0.0204,0.689877 0,0 z m 2.086,-19.407 c -2.59171,1.013748 -1.84705,2.539564 0,0 z m -1.735,11.977 c 0.31879,-0.353668 -0.51581,-0.292786 0,0 z m 0,0.117 c -0.46774,1.377607 0.3861,1.393683 0,0 z m 0.445,2.555 c -1.61705,2.11735 1.16838,2.890173 0,0 z m -0.117,-8.367 -0.328,0.586 0.328,-0.586 z m -0.211,3.023 c -0.41806,1.07366 0.60327,1.749996 0,0 z m 0,-6.023 0.211,0.234 -0.211,-0.234 z m 0,1.382 0.211,0.234 -0.211,-0.234 z m 0,3.703 c -0.0586,0.964913 0.35334,-0.126619 0,0 z m 0,0.469 c -0.0586,0.964913 0.35334,-0.126619 0,0 z m 0,1.852 c 0.43009,0.527605 0.23064,-0.784323 0,0 z m 0.328,3.492 c -0.018,0.977235 0.38084,-0.158156 0,0 z m 0.352,-10.102 c -0.98126,0.749523 0.84308,0.08125 0,0 z m 0.117,1.032 c -0.0982,0.16349 -0.84046,1.399176 0,0 z m 0,1.406 c -0.82799,1.080973 0.96555,0.960547 0,0 z m 0.469,10.922 c -1.0406,0.998533 0.87617,0.01465 0,0 z m 4.195,-13.828 c -3.17443,-0.423192 -5.58623,4.176548 -1.523,3.609 2.14613,-0.591225 0.63303,5.265535 1.6258,0.551784 0.27048,-2.150589 3.23234,1.02423 4.52873,-0.501256 2.46251,-3.199612 -3.03457,-3.186844 -4.63153,-3.659528 z m -3.14,6.515 c 0.31879,-0.353668 -0.51581,-0.292786 0,0 z m 0,-1.054 0.234,0.352 -0.234,-0.352 z m 0.117,8.132 c -0.62987,0.719084 0.80361,0.239385 0,0 z m 0.117,-8.601 c -0.69027,0.497965 0.69027,0.497965 0,0 z m 0,-8.602 c -0.0326,1.036795 0.39664,-0.157985 0,0 z m 0,0.492 c -0.24546,0.997145 0.87446,0.642802 0,0 z m 0,18.704 c 0.53777,0.308523 -0.0204,-0.689877 0,0 z m 0.117,-11.297 0.234,0.352 -0.234,-0.352 z m 0.117,10.359 0.234,0.234 -0.234,-0.234 z m 0.118,0.703 c 0.31879,-0.353668 -0.51581,-0.292786 0,0 z m 0.117,-9.07 c -0.50891,1.165089 0.70383,0.327748 0,0 l 0,0 z m 0.445,-1.172 c -1.11847,1.800657 0.88461,1.337321 0,0 z m -0.117,-7.781 c -0.62987,0.719084 0.80361,0.239385 0,0 z m 0,18.258 0.23397,0.444939 3e-5,6.1e-5 -0.234,-0.445 z m 0,0.445 c -0.1859,1.119997 0.60511,0.208655 0,0 z m 0.117,-0.68 0.234,0.234 -0.234,-0.234 z m 0.234,-10.242 c 0.31879,-0.353668 -0.51581,-0.292786 0,0 z m 0,9.07 c -0.54897,0.853363 0.85476,-0.06633 0,0 z m 0,0.469 c -0.77754,1.045418 0.77857,0.08984 0,0 z m 0.235,-10.242 c 0.28802,-0.325844 -0.48904,-0.260196 0,0 z m 0.234,1.641 c -0.018,0.977235 0.38084,-0.158156 0,0 z m 0.235,9.304 c -0.74951,1.051382 0.78698,0.251132 0,0 z m 0,0.914 c 0.31879,-0.353668 -0.51581,-0.292786 0,0 z m 0,-1.383 0.234,0.234 -0.234,-0.234 z m 0.234,-18 0.352,0.211 -0.352,-0.211 z m 0.117,-1.757 c -0.018,0.977235 0.38084,-0.158156 0,0 z m 0.117,1.148 c -0.74931,0.666834 1.10267,1.239692 0,0 z m 0,1.992 c 0.31879,-0.353668 -0.51581,-0.292786 0,0 z m 0,8.485 0.234,0.328 -0.234,-0.328 z m 0.118,0.679 c 0.31879,-0.353668 -0.51581,-0.292786 0,0 z m 0.351,9.305 c -0.018,0.977235 0.38084,-0.158156 0,0 z m 0.352,-18.703 c 0.53689,0.194799 0.1059,-0.65854 0,0 z m 0.445,6.726 c -0.68264,1.567905 0.82521,0.966485 0,0 z m -0.211,1.172 0.211,0.234 -0.211,-0.234 z m 0,0.352 c -0.13641,0.982257 0.56158,-0.281878 0,0 z m 0.211,9.516 c 0.28802,-0.325844 -0.48904,-0.260196 0,0 z m 0.234,-20.555 c 1.44098,0.435835 -0.95791,0.624375 0,0 z m 0.235,2.32 -0.352,0.352 0.352,-0.352 z m 0,18.703 0.352,0.352 -0.352,-0.352 z m 0.117,-0.914 c 0.0894,1.077812 0.7541,-0.476693 0,0 z m 0,0.563 0.234,0.234 -0.234,-0.234 z m 0,0.82 c -0.30852,0.537765 0.68988,-0.02036 0,0 z m 0.117,-1.852 0.234,0.352 -0.234,-0.352 z m 0.703,-18.843 c -0.80224,0.448935 0.74985,1.136771 0,0 z m -0.234,0.961 c 0.53689,0.194799 0.1059,-0.65854 0,0 z m 0.117,-1.524 0.352,0.445 -0.352,-0.445 z m 0.352,19.758 c 0.31879,-0.353668 -0.51581,-0.292786 0,0 z m -0.118,0.117 c -0.018,0.977235 0.38084,-0.158156 0,0 z m 0.235,-11.39 c -0.6075,0.676268 0.77939,0.223778 0,0 z m -0.117,0.445 c -0.018,0.977235 0.38084,-0.158156 0,0 z m 0,0.469 c -0.018,0.977235 0.38084,-0.158156 0,0 z m 0.82,-0.352 c 0.31879,-0.353668 -0.51581,-0.292786 0,0 z m 0.328,1.172 0.234,0.234 -0.234,-0.234 z m 0.117,9.187 c 0.31879,-0.353668 -0.51581,-0.292786 0,0 z m 0.586,-18 c -0.53905,1.075114 0.87793,0.331786 0,0 z m -0.117,17.18 c -0.20445,2.296975 0.80631,0.01954 0,0 z m 0.234,1.172 c -0.0969,0.99593 0.59341,-0.314135 0,0 z m 0,0.469 0.234,0.211 -0.234,-0.211 z m 1.172,-12.797 c -0.0969,0.99593 0.59341,-0.314135 0,0 z m 0.117,11.601 0.234,0.375 -0.234,-0.375 z m 0.469,-16.71 c -0.11999,0.2318 -0.81868,1.581533 0,0 z m 0.352,0 c 0.44266,-0.236319 -0.83521,-0.384314 0,0 z m 0.093,16.71 c -0.0326,1.036795 0.39664,-0.157985 0,0 z m 0.586,-0.914 c -0.018,0.977235 0.38084,-0.158156 0,0 z m 0.797,-8.953 c 0.31742,-0.340781 -0.46959,-0.299463 0,0 z m -0.093,0.117 c -0.0586,0.964913 0.35334,-0.126619 0,0 z m 0,0.469 c -0.0586,0.964913 0.35334,-0.126619 0,0 z m 0.093,0.821 c 0.31742,-0.340781 -0.46959,-0.299463 0,0 z m -0.093,0.117 c -0.30962,0.863255 0.53291,-0.0089 0,0 z m 0.328,-6.164 0.492,0.469 -0.492,-0.469 z m 0.375,0.82 c -0.49585,1.31603 0.92924,0.341082 0,0 z m 0.117,1.852 c -0.018,0.977235 0.38084,-0.158156 0,0 z m 0,0.585 c -0.0576,1.090082 0.42354,0.441628 0,0 z m 0.469,3.024 c 0.31879,-0.353668 -0.51581,-0.292786 0,0 z m 0.117,-2.906 c 0.31879,-0.353668 -0.51581,-0.292786 0,0 z"
   id="path15350"
   inkscape:connector-curvature="0" />
	<path
   style="fill:#2b3990"
   d="m 245.306,39.68 c 1.23312,1.426291 3.31784,0.738814 4.125,1.758 1.50363,4.489116 -3.42556,2.587418 -6.329,2.719 -1.09337,-1.36773 -2.9605,0.615992 -2.6,2.391 1.19028,2.175852 0.50665,1.796901 4.008,2.531 1.36658,0.630991 3.03536,0.884599 4.055,1.078 1.30072,2.705372 0.7836,2.235802 1.876,4.054 -0.0719,1.847047 -1.64477,1.556547 0.634,1.173 -0.96447,1.44423 -1.47913,4.861198 -4.4589,5.43482 -2.54006,3.256184 -6.40752,1.686991 -9.3231,-0.09182 -2.42555,-0.916763 -0.095,-6.201856 2.766,-3.798 3.90408,-0.970672 -0.0582,4.649115 3.492,0.657 -0.0773,0.790895 2.01596,-1.31794 1.616,0.54 1.28273,-1.011624 2.16497,-5.166279 -0.34878,-5.150238 -3.75147,-0.562546 -8.79271,-2.272223 -8.39322,-6.965762 -0.89321,-2.494981 2.82479,-6.445031 4.33692,-5.70255 1.53378,-0.85875 2.88093,0.974599 4.10583,-0.220988 l 0.36858,-0.341846 0.0697,-0.06462 0,0 z m -8.531,4.898 -0.211,-0.188 0.211,0.188 z m 0.211,-0.867 c -0.0739,0.121403 -0.80079,1.31593 0,0 z m 0.68,-0.961 -0.445,0.867 0.445,-0.867 z m 0.093,3.258 c -0.30852,0.537765 0.68988,-0.02036 0,0 z m 0.235,-3.82 0.188,0.234 -0.188,-0.234 z m 0,3.632 c -0.24092,0.452666 0.5413,-0.06241 0,0 z m 0.422,13.524 c 0.31879,-0.353668 -0.51581,-0.292786 0,0 z m 0.117,-17.461 c 0.31879,-0.353668 -0.51581,-0.292786 0,0 z m 0.187,17.109 c 0.2868,-0.312303 -0.44174,-0.267488 0,0 z m 0.563,-10.359 c 0.48451,0.282937 -0.009,-0.688965 0,0 z m 0.328,-3.938 c -0.68749,0.524532 0.87453,0.440597 0,0 z m 0,4.828 c 0.48451,0.282937 -0.009,-0.688965 0,0 z m 0.211,-1.335 c 0.31742,-0.340781 -0.46959,-0.299463 0,0 z m 0.117,8.976 c -0.97971,0.831524 0.80728,0.214556 0,0 z m 0.117,-12.914 c -1.03058,0.941276 0.77544,0.125309 0,0 z m -0.234,5.039 c 0.83906,0.110472 -0.0834,-0.525961 0,0 z m 0.328,-2.203 c -0.75196,1.073643 0.64626,0.394134 0,0 z m 0.117,1.992 c 0.31879,-0.353668 -0.51581,-0.292786 0,0 z m 0.234,-6.773 c -0.69279,0.64171 0.66651,0.08488 0,0 z m 0,9.281 0.188,0.211 -0.188,-0.211 z m 0.094,6.211 c -0.6041,0.723645 0.70283,0.03104 0,0 z m 0.539,-16.149 c -0.13008,0.157552 -1.05659,1.279782 0,0 z m -0.445,4.032 0.234,0.211 -0.234,-0.211 z m 0.234,3.07 c -0.81475,1.091844 0.99097,0.130538 0,0 z m 0.118,9.609 0.188,0.211 -0.188,-0.211 z m 0.093,-9.726 0.328,0.211 -0.328,-0.211 z m 0.094,10.805 c -0.74986,1.142793 0.99592,0.0943 0,0 z m 0.328,-1.758 c -0.63257,0.789675 0.76745,0.0083 0,0 z m 0.141,-8.157 c -0.70558,0.68766 0.78867,-0.0028 0,0 z m 0,-8.648 c 0.55145,0.29755 -0.0512,-0.615906 0,0 z m 0,2.508 0.234,0.328 -0.234,-0.328 z m 0.234,-3.586 0.188,0.211 -0.188,-0.211 z m 0.188,9.492 c 0.28802,-0.325844 -0.48904,-0.260196 0,0 z m 0.234,-9.492 0.211,0.211 -0.211,-0.211 z m 0.961,10.242 c -1.01181,0.874501 0.88255,0.230139 0,0 z m -0.094,9.727 c 0.0678,0.999117 0.71125,-0.443902 0,0 z m 0.539,-10.243 c -0.97808,0.885377 0.89228,0.390039 0,0 z m 0.446,9.047 -0.445,0.984 0.445,-0.984 z m -0.211,-9.281 c 0.0827,0.998241 0.65916,-0.416383 0,0 z m 0.515,9.07 0.234,0.211 -0.234,-0.211 z m 0.117,-0.445 0,0.211 0,-0.211 z m 0.446,-17.25 c -1.62418,2.25843 1.33264,-0.42832 0,0 z M 245.634,60 245.4,59.766 245.634,60 z m 0,-1.781 c -0.7106,0.761084 0.60082,0.0938 0,0 z m 0,-17.039 0.188,0.258 -0.188,-0.258 z m 0.188,9.539 c -0.90248,0.961175 0.80632,-0.0055 0,0 z m 0,8.508 c -0.95457,0.723366 0.95844,0.414751 0,0 z m 0.234,-10.149 0.305,0.305 -0.305,-0.305 z m 0,1.406 c -0.29755,0.551451 0.61591,-0.05122 0,0 z m 0,8.743 c 0.78253,0.12504 -0.11008,-0.58656 0,0 z m 0.305,-8.743 -0.188,-0.234 0.188,0.234 z m 0.773,-9.726 c 0.52929,0.305433 -0.005,-0.629838 0,0 z m 0.446,14.625 c -0.99517,0.905222 0.81115,0.250039 0,0 z m 0.211,-4.805 c -0.0363,0.04932 -0.83832,1.13735 0,0 z m -0.211,8.32 c 0.0692,0.617354 0.28273,-0.159707 0,0 z m 0.211,-1.101 c -0.5886,0.585166 0.53307,0.260341 0,0 z m 1.406,-3.938 c -1.07432,0.858283 -2.07999,3.131015 0,0 z m -1.196,2.625 c 0.49984,0.308551 0.0515,-0.586237 0,0 z m 0.563,-0.632 c -0.0363,0.04932 -0.83832,1.13735 0,0 z m -0.328,1.5 c -0.30543,0.529294 0.62984,-0.0054 0,0 z m 0.094,-5.227 0.234,0.234 -0.234,-0.234 z m 0.351,4.805 c -0.99539,0.924295 0.70304,0.07288 0,0 z m 0.422,-14.321 c -0.73168,0.364655 -0.14208,1.286172 0,0 z m -0.094,12.774 -0.234,0.469 0.234,-0.469 z m -0.14,1.336 c -0.2703,0.524975 0.66286,-0.107311 0,0 z m 0.468,-0.235 c 0.62216,0.03954 -0.10084,-0.44046 0,0 z"
   id="path15352"
   inkscape:connector-curvature="0" />
</g>
<path
   clip-rule="evenodd"
   d="M163.785,69  c-2.559,2.397-5.022,2.828-8.199,0.975c-0.9-2.873-0.959-15.525-13.64-30.109c-0.934-1.074,3.187-4.57,8.126-7.521  c0,0,4.351,0.146,10.098,20.219c2.083-7.525,25.061-41.271,40.099-49.678c0,0,1.88-0.348,0,2.26  C200.268,5.145,170.953,38.292,163.785,69z"
   id="path15354"
   stroke="#00A651"
   fill-rule="evenodd"
   fill="#00A14B" />
</svg>