<?xml version="1.0" encoding="utf-8"?>
<!-- Generator: Adobe Illustrator 14.0.0, SVG Export Plug-In . SVG Version: 6.00 Build 43363)  -->
<!DOCTYPE svg PUBLIC "-//W3C//DTD SVG 1.1//EN" "http://www.w3.org/Graphics/SVG/1.1/DTD/svg11.dtd">
<svg version="1.1" id="Layer_1" xmlns="http://www.w3.org/2000/svg" xmlns:xlink="http://www.w3.org/1999/xlink" x="0px" y="0px"
	 width="375.255px" height="44.299px" viewBox="111.011 150.667 375.255 44.299"
	 enable-background="new 111.011 150.667 375.255 44.299" xml:space="preserve">
<g>
	<path fill="#ED1C24" d="M301.463,153.695c3.019,0,6.039,0,9.056,0c1.563,0.062,3.291,0.169,4.739,0.173
		c3.136,0.004,6.396,0.239,9.269,0.432c1.51,0.103,2.641,0.656,3.512,1.429c0.861,0.765,1.592,1.748,1.902,3.03
		c0.332,1.354,0.383,2.84,0.551,4.456c0.627,6.118,0.457,13.036-0.465,18.608c-0.441,2.665-2.303,4.486-4.994,4.933
		c-1.451,0.243-3.025,0.212-4.57,0.304c-4.701,0.282-9.592,0.302-14.344,0.302c-3.355,0-6.527,0.057-9.604-0.086
		c-3.15-0.147-6.15-0.137-9.096-0.477c-2.707-0.311-4.643-2.201-5.121-4.76c-1.014-5.428-1.107-12.719-0.551-18.781
		c0.143-1.544,0.295-3.119,0.592-4.415c0.57-2.489,2.633-4.312,5.289-4.588c1.387-0.144,2.955-0.158,4.611-0.217
		C295.25,153.934,298.476,153.785,301.463,153.695z M285.809,159.234c0,0.98,0,1.961,0,2.943c1.059,0.099,2.299,0.013,3.428,0.042
		c0.027,6.274-0.057,12.664,0.043,18.869c0.961,0.071,2.211,0.071,3.174,0c0.125-6.189-0.045-12.681,0.084-18.869
		c1.129-0.029,2.367,0.057,3.428-0.042c-0.029-1.011,0.055-2.136-0.045-3.075c-3.342,0-6.684,0-10.025,0
		C285.84,159.123,285.807,159.16,285.809,159.234z M307.217,159.234c0,7.285,0,14.568,0,21.854c0.863,0.071,2.019,0.071,2.88,0
		c0.096-0.406,0.018-0.995,0.041-1.473c0.87,0.842,1.659,1.801,3.133,1.731c2.84-0.134,2.457-3.814,2.457-7.183
		c0-2.435,0.102-4.737-0.045-6.492c-0.158-1.908-0.97-3.363-2.875-3.16c-1.259,0.137-1.937,1.042-2.67,1.644
		c0-2.335,0-4.673,0-7.009c-0.873-0.101-1.933-0.016-2.875-0.044C307.215,159.111,307.217,159.173,307.217,159.234z
		 M326.047,166.591c-0.7-1.313-2.098-2.267-4.188-2.078c-1.523,0.139-2.683,1.01-3.256,2.078c-0.828,1.535-0.64,3.976-0.64,6.318
		c0,1.192-0.065,2.419,0,3.506c0.177,2.635,1.338,4.547,3.601,4.889c0.758,0.113,1.383,0.107,2.115-0.085
		c2.159-0.576,3.272-2.604,3.002-5.758c-0.902-0.099-1.984-0.013-2.959-0.042c0.157,1.767-0.201,3.833-1.945,3.116
		c-1.334-0.544-0.797-3.266-0.846-5.063c1.903-0.029,3.918,0.057,5.75-0.044C326.61,170.843,326.953,168.29,326.047,166.591z
		 M296.344,164.815c0,2.125,0,4.569,0,7.099c0,2.473-0.125,4.917,0.045,7.053c0.063,0.815,0.324,1.644,0.758,1.989
		c1.174,0.939,2.909,0.025,3.643-0.604c0.387-0.333,0.697-0.719,1.014-0.907c0,0.546,0,1.095,0,1.644
		c0.863,0.071,2.016,0.074,2.879,0c0.068-5.352,0.068-11.007,0-16.361c-0.863-0.071-2.016-0.07-2.879,0c0,4.171,0,8.34,0,12.508
		c-0.4,0.436-1.049,1.678-2.072,1.385c-0.696-0.201-0.467-2.074-0.467-3.116c0-3.628,0-7.491,0-10.777
		c-0.861-0.095-1.902-0.015-2.835-0.04C296.371,164.698,296.381,164.782,296.344,164.815z"/>
	<path d="M247.854,159.103c1.1,0,2.199,0,3.301,0c0.775,2.8,1.529,5.621,2.244,8.483c0.344-0.646,0.406-1.411,0.592-2.12
		c0.539-2.066,1.113-4.261,1.648-6.363c1.086,0,2.172,0,3.26,0c-1.051,3.741-2.26,7.611-3.385,11.425
		c-0.162,0.55-0.4,1.145-0.467,1.646c-0.188,1.425,0,3.007,0,4.499c0,1.49,0.035,2.973-0.043,4.459c-1.057,0-2.115,0-3.172,0
		c-0.27-3.007,0.209-6.067-0.041-8.958c-0.1-1.115-0.527-2.317-0.846-3.418c-0.938-3.213-2.145-6.434-3.135-9.521
		C247.809,159.173,247.805,159.111,247.854,159.103z"/>
	<path d="M262.623,164.558c1.889-0.218,3.51,0.597,4.273,2.077c0.736,1.437,0.631,4.082,0.631,6.316c0,2.31,0.139,4.801-0.631,6.278
		c-0.5,0.952-1.396,1.704-2.414,1.99c-0.895,0.25-2.307,0.186-3.213-0.263c-0.762-0.371-1.479-1.138-1.818-1.901
		c-0.58-1.282-0.553-3.516-0.553-5.583c0-2.698-0.186-5.05,0.508-6.621C259.92,165.686,261.102,164.731,262.623,164.558z
		 M261.859,169.446c0,1.39,0,3.744,0,5.107c0,1.654-0.236,3.879,1.145,4.067c2.154,0.297,1.564-3.66,1.564-5.712
		c0-2.149,0.57-6.021-1.564-5.67C262.076,167.392,261.859,168.277,261.859,169.446z"/>
	<path d="M269.984,164.688c0.916,0,1.832,0,2.752,0c0.076,3.496,0.039,7.125,0.039,10.861c0,0.9-0.203,2.89,0.51,3.072
		c0.777,0.201,1.908-0.905,2.029-1.428c0.098-0.419,0-1.082,0-1.602c0-3.5-0.033-7.498,0.043-10.903
		c0.947,0.025,2.002-0.058,2.877,0.04c0,5.454,0,10.907,0,16.361c-0.875,0.071-2.043,0.074-2.92,0c0-0.549,0-1.098,0-1.644
		c-0.404,0.255-0.766,0.784-1.27,1.167c-0.982,0.751-3.17,1.194-3.848-0.259c-0.188-0.394-0.264-0.955-0.297-1.428
		c-0.156-2.106,0-4.592,0-7.055c0-2.479,0-4.957,0-7.053C269.898,164.742,269.93,164.703,269.984,164.688z"/>
	<path fill="#ED1C24" d="M311.914,178.621c-0.899,0.071-1.394-0.278-1.776-0.737c0-2.307,0-4.946,0-7.443
		c0-0.779-0.168-1.85,0-2.465c0.153-0.546,1.348-1.021,1.991-0.649c1.084,0.624,0.679,3.603,0.679,5.583
		c0,1.478,0.106,3.004,0,4.154C312.735,177.793,312.429,178.415,311.914,178.621z"/>
	<path fill="#ED1C24" d="M323.765,171.005c-0.959,0-1.918,0-2.875,0c0.047-1.073-0.144-2.446,0.293-3.203
		c0.282-0.492,1.03-0.825,1.733-0.52C323.946,167.733,323.742,169.443,323.765,171.005z"/>
</g>
<g>
	<path fill="#00A651" d="M131.258,177.967c-1.107,0-2.031-0.154-2.77-0.463c-0.303-0.137-0.555-0.171-0.756-0.103
		c-0.101,0.035-0.235,0.309-0.402,0.824c-0.84,3.296-2.149,6.319-3.929,9.066c-2.284,3.502-4.651,5.254-7.102,5.254
		c-1.881,0-3.291-0.79-4.23-2.369c-0.705-1.271-1.058-2.937-1.058-4.997c0-4.224,1.359-9.582,4.079-16.072
		c2.519-5.94,5.876-10.593,10.073-13.959c3.76-3.091,7.454-4.584,11.08-4.481c2.988,0.069,5.238,1.133,6.749,3.194
		c1.241,1.683,1.863,3.933,1.863,6.748c0,3.09-0.823,6.25-2.468,9.478c-1.78,3.502-3.912,5.787-6.396,6.851
		C134.447,177.624,132.87,177.967,131.258,177.967z M138.637,162.411c0.05-0.583,0.075-1.167,0.075-1.751
		c0-3.88-1.242-5.854-3.727-5.924c-3.09-0.034-6.581,2.507-10.477,7.624c-3.223,4.293-5.406,8.345-6.547,12.157
		c-1.545,5.254-2.316,8.671-2.316,10.251c0,1.408,0.436,2.112,1.309,2.112c1.646,0,3.476-3.657,5.49-10.972
		c0.537-2.094,1.091-5.597,1.662-10.508c0.066-0.584,0.344-1.03,0.831-1.339c0.486-0.309,0.965-0.618,1.436-0.927
		c0.637-0.515,1.241-0.773,1.813-0.773c0.638,0,0.99,0.396,1.058,1.185c0.067,0.927,0.059,2.155-0.024,3.683
		c-0.085,1.528-0.261,3.374-0.529,5.537c-0.101,0.688,0.083,1.065,0.554,1.133c2.283,0.172,4.314-0.893,6.095-3.193
		c1.544-1.889,2.551-4.07,3.021-6.542C138.493,163.579,138.586,162.995,138.637,162.411z"/>
	<path fill="#00A651" d="M168.628,182.706c-1.41,1.442-3.056,2.318-4.936,2.627c-0.438,0.068-0.865,0.129-1.284,0.18
		c-0.421,0.052-0.865,0.077-1.335,0.077c-2.216,0-3.845-0.36-4.886-1.082c-0.672-0.48-1.007-1.253-1.007-2.318
		c0-0.549,0.101-1.339,0.302-2.37c0.033-0.137,0.051-0.274,0.051-0.412c0-0.103-0.034-0.12-0.101-0.051
		c-0.034,0.034-0.085,0.086-0.151,0.154c-0.067,0.069-0.135,0.172-0.201,0.309c-2.619,3.847-5.272,5.769-7.958,5.769
		c-0.672,0-1.327-0.103-1.964-0.309c-1.511-0.549-2.267-1.751-2.267-3.606c0-0.171,0.009-0.369,0.025-0.592
		c0.017-0.223,0.042-0.472,0.075-0.747c0.135-1.614,1.578-6.679,4.331-15.196c0.235-0.755,0.772-1.133,1.612-1.133
		c0.57,0,1.225,0.121,1.964,0.361c1.343,0.412,2.015,0.961,2.015,1.648c0,0.206-0.084,0.515-0.252,0.927
		c-0.201,0.481-0.479,1.185-0.831,2.112c-0.352,0.927-0.798,2.112-1.334,3.554c-1.277,3.366-1.982,5.443-2.116,6.233
		c-0.067,0.412-0.125,0.765-0.176,1.056c-0.051,0.292-0.075,0.524-0.075,0.695c0,0.756,0.453,1.133,1.359,1.133
		c0.504,0,1.209-0.463,2.115-1.391c1.074-1.099,2.45-3.571,4.13-7.417c0.638-1.476,1.158-2.756,1.562-3.838
		c0.402-1.082,0.722-2,0.957-2.756c0.369-1.339,1.41-1.922,3.122-1.751c1.578,0.172,2.367,0.566,2.367,1.185
		c0,0.344-0.118,0.739-0.353,1.185c-0.235,0.447-0.89,2.336-1.964,5.667c-1.142,3.434-1.797,5.529-1.964,6.284
		c-0.303,1.512-0.252,2.473,0.15,2.885c0.638,0.653,1.796,0.979,3.476,0.979c0.638,0,1.46-0.309,2.468-0.927
		c0.57-0.343,1.091-0.712,1.562-1.107c0.47-0.394,0.872-0.832,1.208-1.313c0.168-0.206,0.303-0.154,0.403,0.155
		c0.234,0.584,0.318,1.254,0.252,2.009C168.913,182.157,168.796,182.535,168.628,182.706z"/>
	<path fill="#00A651" d="M180.412,182.551c-2.049,2.027-4.299,3.039-6.749,3.039c-0.604,0-1.176-0.051-1.712-0.154
		c-2.619-0.446-3.929-2.352-3.929-5.718c0-2.335,1.091-7.211,3.273-14.629c1.645-5.357,2.972-8.963,3.979-10.817
		c1.343-2.473,2.904-3.571,4.685-3.297c1.342,0.206,2.015,1.151,2.015,2.833c0,0.927-0.169,1.906-0.504,2.936
		c-0.672,2.164-1.847,4.378-3.525,6.645c-0.403,0.584-0.891,1.512-1.461,2.782c-0.168,0.447-0.411,1.177-0.73,2.189
		c-0.319,1.014-0.697,2.344-1.133,3.992c-0.975,3.675-1.478,6.199-1.511,7.572c-0.034,1.374,0.536,2.061,1.712,2.061
		c0.537,0,0.99-0.171,1.36-0.515c2.752-2.267,4.297-5.306,4.633-9.118c0.033-0.206-0.15-0.42-0.554-0.644
		c-0.402-0.223-0.806-0.438-1.209-0.644c-0.839-0.549-1.259-1.373-1.259-2.473c0-0.893,0.294-1.7,0.882-2.421
		c0.587-0.721,1.301-1.082,2.14-1.082c0.537,0,1.058,0.154,1.562,0.463c1.813,1.03,2.72,2.782,2.72,5.254
		c0,1.786-0.471,3.95-1.41,6.491C182.98,179.29,181.889,181.041,180.412,182.551z"/>
	<path fill="#00A651" d="M201.665,182.706c-1.41,1.442-3.056,2.318-4.936,2.627c-1.075,0.206-2.082,0.309-3.021,0.309
		c-1.511,0-2.771-0.241-3.777-0.721c-1.344-0.755-2.015-2.042-2.015-3.863c0-0.24,0.009-0.515,0.025-0.824s0.042-0.669,0.075-1.082
		c0.27-2.747,1.175-6.903,2.72-12.466c1.242-4.464,2.4-8.087,3.475-10.869c1.142-3.091,2.753-4.55,4.836-4.379
		c0.705,0.069,1.284,0.404,1.737,1.005c0.453,0.601,0.68,1.365,0.68,2.292c0,0.584-0.101,1.203-0.302,1.854
		c-0.705,2.129-1.864,4.293-3.476,6.49c-0.201,0.275-0.554,0.997-1.058,2.164c-1.881,5.769-3.19,10.354-3.929,13.753
		c-0.235,0.962-0.353,1.631-0.353,2.009c0,0.447,0.117,0.791,0.353,1.03c0.47,0.481,1.612,0.721,3.425,0.721
		c0.638,0,1.461-0.309,2.468-0.927c0.571-0.343,1.091-0.712,1.562-1.107c0.47-0.394,0.873-0.832,1.209-1.313
		c0.168-0.206,0.302-0.154,0.402,0.155c0.235,0.584,0.319,1.254,0.252,2.009C201.95,182.157,201.833,182.535,201.665,182.706z"/>
	<path fill="#00A651" d="M215.414,182.706c-1.41,1.442-3.056,2.318-4.936,2.627c-0.403,0.068-0.814,0.12-1.234,0.154
		c-0.42,0.034-0.864,0.052-1.334,0.052c-2.149,0-3.644-0.292-4.482-0.875c-0.504-0.378-0.907-0.729-1.209-1.056
		c-0.302-0.326-0.546-0.67-0.73-1.03c-0.184-0.36-0.302-0.764-0.353-1.21c-0.05-0.446-0.075-0.979-0.075-1.597
		c0.033-0.378,0.193-1.159,0.479-2.344c0.284-1.185,0.713-2.756,1.284-4.713c0.335-1.099,0.662-2.197,0.982-3.297
		c0.318-1.099,0.646-2.197,0.981-3.297c0.202-0.858,0.587-1.373,1.158-1.545c1.276-0.377,2.469-0.412,3.576-0.103
		c0.303,0.069,0.546,0.292,0.73,0.669c0.185,0.378,0.243,0.772,0.176,1.185c-0.638,1.924-1.293,3.933-1.964,6.027
		c-0.672,2.095-1.394,4.293-2.166,6.594c-0.269,0.927-0.402,1.58-0.402,1.957c0,0.447,0.117,0.773,0.353,0.979
		c0.671,0.584,1.88,0.875,3.626,0.875c0.638,0,1.461-0.309,2.468-0.927c0.57-0.343,1.091-0.712,1.562-1.107
		c0.47-0.394,0.873-0.832,1.209-1.313c0.167-0.206,0.302-0.154,0.402,0.155c0.234,0.584,0.319,1.254,0.252,2.009
		C215.699,182.157,215.582,182.535,215.414,182.706z M211.083,157.517c-0.403,0-0.756-0.068-1.058-0.206
		c-1.075-0.48-1.611-1.253-1.611-2.318c0-0.721,0.234-1.528,0.705-2.421c0.436-0.927,1.325-1.391,2.669-1.391
		c0.335,0,0.654,0.051,0.957,0.154c1.074,0.481,1.611,1.306,1.611,2.473c0,0.653-0.135,1.219-0.402,1.7
		C213.147,156.847,212.191,157.517,211.083,157.517z"/>
	<path fill="#00A651" d="M232.94,182.706c-1.41,1.442-3.056,2.318-4.936,2.627c-0.403,0.068-0.831,0.12-1.284,0.154
		c-0.453,0.034-0.932,0.052-1.436,0.052c-2.854,0-5.306-0.549-7.354-1.648c-2.586-1.511-3.878-3.76-3.878-6.748
		c0-0.583,0.051-1.167,0.151-1.751c0.571-3.606,2.031-6.404,4.382-8.396c2.081-1.717,4.213-2.524,6.396-2.421
		c3.256,0.172,4.952,1.219,5.087,3.142c0.134,1.511-0.32,2.542-1.36,3.09c-0.27,0.172-0.571,0.206-0.906,0.103
		c-0.303,0-0.496-0.103-0.579-0.309c-0.085-0.206-0.16-0.438-0.227-0.696c-0.068-0.257-0.177-0.506-0.328-0.747
		c-0.15-0.24-0.445-0.395-0.881-0.464c-1.041-0.137-2.099,0.155-3.173,0.876c-1.479,1.099-2.418,2.884-2.82,5.357
		c-0.135,0.688-0.202,1.374-0.202,2.061c0,1.614,0.587,2.971,1.763,4.069c1.31,1.271,3.324,1.821,6.044,1.648
		c0.705-0.068,1.527-0.377,2.468-0.927c0.57-0.343,1.091-0.704,1.562-1.082c0.47-0.377,0.873-0.806,1.209-1.288
		c0.167-0.206,0.302-0.154,0.402,0.155c0.234,0.584,0.319,1.254,0.252,2.009C233.226,182.157,233.108,182.535,232.94,182.706z"/>
</g>
<g>
	<path fill="#00A651" d="M370.007,177.967c-1.107,0-2.031-0.154-2.77-0.463c-0.303-0.137-0.555-0.171-0.756-0.103
		c-0.102,0.035-0.235,0.309-0.402,0.824c-0.84,3.296-2.148,6.319-3.93,9.066c-2.283,3.502-4.65,5.254-7.102,5.254
		c-1.881,0-3.291-0.79-4.23-2.369c-0.705-1.271-1.058-2.937-1.058-4.997c0-4.224,1.359-9.582,4.079-16.072
		c2.52-5.94,5.876-10.593,10.073-13.959c3.76-3.091,7.454-4.584,11.08-4.481c2.987,0.069,5.237,1.133,6.749,3.194
		c1.24,1.683,1.863,3.933,1.863,6.748c0,3.09-0.824,6.25-2.469,9.478c-1.779,3.502-3.912,5.787-6.396,6.851
		C373.196,177.624,371.619,177.967,370.007,177.967z M377.386,162.411c0.051-0.583,0.075-1.167,0.075-1.751
		c0-3.88-1.241-5.854-3.728-5.924c-3.09-0.034-6.58,2.507-10.477,7.624c-3.223,4.293-5.406,8.345-6.547,12.157
		c-1.545,5.254-2.316,8.671-2.316,10.251c0,1.408,0.437,2.112,1.31,2.112c1.646,0,3.476-3.657,5.489-10.972
		c0.537-2.094,1.092-5.597,1.662-10.508c0.066-0.584,0.344-1.03,0.832-1.339c0.485-0.309,0.965-0.618,1.436-0.927
		c0.637-0.515,1.24-0.773,1.813-0.773c0.639,0,0.99,0.396,1.059,1.185c0.066,0.927,0.059,2.155-0.023,3.683
		c-0.086,1.528-0.262,3.374-0.529,5.537c-0.102,0.688,0.082,1.065,0.554,1.133c2.282,0.172,4.313-0.893,6.095-3.193
		c1.544-1.889,2.551-4.07,3.021-6.542C377.242,163.579,377.335,162.995,377.386,162.411z"/>
	<path fill="#00A651" d="M395.642,182.706c-1.41,1.442-3.056,2.318-4.936,2.627c-1.075,0.206-2.082,0.309-3.021,0.309
		c-1.511,0-2.771-0.241-3.776-0.721c-1.345-0.755-2.015-2.042-2.015-3.863c0-0.24,0.008-0.515,0.024-0.824s0.042-0.669,0.075-1.082
		c0.27-2.747,1.175-6.903,2.72-12.466c1.242-4.464,2.399-8.087,3.476-10.869c1.142-3.091,2.752-4.55,4.836-4.379
		c0.705,0.069,1.283,0.404,1.736,1.005s0.68,1.365,0.68,2.292c0,0.584-0.101,1.203-0.301,1.854c-0.705,2.129-1.865,4.293-3.477,6.49
		c-0.201,0.275-0.555,0.997-1.059,2.164c-1.881,5.769-3.189,10.354-3.929,13.753c-0.235,0.962-0.353,1.631-0.353,2.009
		c0,0.447,0.117,0.791,0.353,1.03c0.47,0.481,1.612,0.721,3.425,0.721c0.639,0,1.461-0.309,2.469-0.927
		c0.57-0.343,1.091-0.712,1.562-1.107c0.47-0.394,0.873-0.832,1.209-1.313c0.168-0.206,0.302-0.154,0.402,0.155
		c0.235,0.584,0.319,1.254,0.252,2.009C395.927,182.157,395.81,182.535,395.642,182.706z"/>
	<path fill="#00A651" d="M421.176,182.706c-1.409,1.442-3.056,2.318-4.937,2.627c-0.401,0.068-0.822,0.12-1.258,0.154
		c-0.438,0.034-0.892,0.052-1.36,0.052c-2.351,0-3.953-0.317-4.81-0.953c-0.856-0.635-1.285-1.468-1.285-2.498
		c0-0.48,0.135-1.236,0.404-2.267c0.031-0.137,0.031-0.24,0-0.309c-0.068-0.034-0.16,0-0.277,0.103
		c-0.118,0.103-0.211,0.224-0.277,0.361c-0.503,1.03-1.41,2.146-2.721,3.348c-1.881,1.717-3.676,2.575-5.389,2.575
		c-1.646,0-2.92-0.566-3.828-1.7c-0.938-1.064-1.41-2.455-1.41-4.172c0-2.232,0.674-4.653,2.016-7.263
		c1.344-2.644,3.225-4.653,5.643-6.027c1.813-1.03,3.643-1.562,5.488-1.597c1.377-0.034,2.637,0.258,3.777,0.875
		c0.537,0.309,0.906,0.275,1.107-0.103c0.234-0.377,0.437-0.652,0.604-0.824c0.269-0.275,0.537-0.464,0.808-0.567
		c0.334-0.103,0.973-0.051,1.912,0.155c0.94,0.172,1.528,0.36,1.764,0.566c0.336,0.378,0.386,0.894,0.15,1.545
		c-0.471,1.03-1.41,3.16-2.82,6.387c-0.537,1.271-0.981,2.396-1.334,3.374c-0.354,0.979-0.646,1.829-0.881,2.55
		c-0.236,0.721-0.354,1.322-0.354,1.803c0,0.447,0.117,0.791,0.354,1.03c0.535,0.55,1.661,0.824,3.373,0.824
		c0.639,0,1.461-0.309,2.469-0.927c0.57-0.343,1.09-0.712,1.562-1.107c0.47-0.394,0.873-0.832,1.209-1.313
		c0.168-0.206,0.302-0.154,0.401,0.155c0.236,0.584,0.32,1.254,0.252,2.009C421.461,182.157,421.345,182.535,421.176,182.706z
		 M410.298,169.88c0-0.583-0.572-0.893-1.713-0.927c-1.007-0.068-2.232,0.36-3.677,1.288c-1.378,0.927-2.485,2.043-3.324,3.348
		c-1.511,2.439-2.267,4.5-2.267,6.182c0,1.614,0.604,2.421,1.813,2.421c0.638,0,1.394-0.446,2.267-1.339
		c0.168-0.171,0.429-0.472,0.781-0.901c0.352-0.429,0.813-0.987,1.385-1.674c1.545-1.923,3.104-4.618,4.685-8.087
		C410.28,170.12,410.298,170.017,410.298,169.88z"/>
	<path fill="#00A651" d="M445.603,182.706c-1.41,1.442-3.055,2.318-4.936,2.627c-0.705,0.171-1.764,0.274-3.174,0.309
		c-0.939,0.068-1.561,0.206-1.863,0.412c-0.234,0.206-0.672,0.669-1.311,1.391c-0.066,0.103-0.637,1.253-1.711,3.451
		c-1.041,2.061-1.932,3.417-2.67,4.07c-1.377,1.202-2.535,1.803-3.475,1.803c-1.445,0-2.166-0.688-2.166-2.061
		c0-0.721,0.252-1.597,0.756-2.627c0.469-0.927,1.273-1.94,2.416-3.039c0.975-0.894,1.746-1.512,2.316-1.854
		c0.135-0.069,0.27-0.275,0.402-0.618c0.738-2.094,1.545-4.309,2.418-6.645c0.168-0.274,0.117-0.412-0.15-0.412
		c-0.168,0-0.318,0.121-0.453,0.361c-0.604,1.03-1.596,2.146-2.973,3.348c-1.881,1.58-3.592,2.283-5.137,2.112
		c-0.336,0-0.688-0.103-1.057-0.309c-0.371-0.206-0.715-0.463-1.033-0.772c-0.32-0.309-0.597-0.67-0.832-1.082
		c-0.234-0.412-0.385-0.841-0.453-1.288c-0.033-0.24-0.058-0.498-0.074-0.773c-0.018-0.274-0.025-0.549-0.025-0.824
		c0-2.473,0.621-5.546,1.863-9.221c0.471-1.408,0.932-2.618,1.385-3.631s0.863-1.846,1.234-2.499
		c0.303-0.515,0.789-0.824,1.461-0.927c0.166-0.034,0.326-0.06,0.479-0.077c0.15-0.017,0.293-0.026,0.428-0.026
		c0.771,0,1.545,0.292,2.316,0.876c0.438,0.343,0.471,0.807,0.102,1.391c-0.303,0.481-1.107,2.438-2.418,5.872
		c-1.377,3.675-2.082,5.804-2.115,6.388c-0.066,1.408,0.234,2.232,0.906,2.472c0.873,0.275,1.779,0.052,2.721-0.669
		c1.143-0.893,2.635-3.228,4.482-7.005c0.57-1.305,1.141-2.618,1.713-3.941c0.57-1.321,1.158-2.669,1.762-4.043
		c0.135-0.309,0.486-0.566,1.059-0.772c0.168-0.068,0.555-0.068,1.158,0c0.57,0.035,1.008,0.121,1.311,0.257
		c0.57,0.275,0.855,0.688,0.855,1.236c0,0.241-1.797,5.718-5.391,16.432c-0.033,0.241-0.084,0.412-0.15,0.515
		c0,0.069,0.033,0.138,0.102,0.206c0.033,0,0.135-0.017,0.303-0.052c0.168-0.034,0.705-0.103,1.611-0.206
		c0.135-0.034,0.402-0.051,0.807-0.051c0.436,0,0.988-0.017,1.662-0.052c0.805-0.068,1.762-0.463,2.869-1.185
		c0.975-0.687,1.764-1.408,2.367-2.164c0.168-0.206,0.303-0.154,0.402,0.155c0.234,0.584,0.318,1.254,0.252,2.009
		C445.888,182.157,445.771,182.535,445.603,182.706z"/>
	<path fill="#00A651" d="M465.042,182.706c-1.41,1.442-3.057,2.335-4.936,2.678c-1.479,0.309-3.141,0.464-4.986,0.464
		c-3.861,0-6.582-0.652-8.158-1.958c-1.814-1.545-2.721-3.674-2.721-6.387c0-2.37,0.672-4.911,2.016-7.624
		c0.973-1.958,2.332-3.417,4.08-4.378c1.441-0.824,2.938-1.236,4.48-1.236c0.873,0,1.563,0.121,2.064,0.36
		c1.947,0.859,2.922,2.524,2.922,4.997c0,0.55-0.051,1.133-0.15,1.751c-0.27,1.648-1.479,3.657-3.627,6.027
		c-0.672,0.756-1.334,1.434-1.99,2.035c-0.652,0.601-1.301,1.142-1.938,1.623c-0.168,0.172-0.252,0.275-0.252,0.309
		c0,0.138,0.201,0.309,0.604,0.515c1.479,0.859,3.813,1.133,7,0.824c2.082-0.206,3.846-1.305,5.289-3.297
		c0.168-0.206,0.303-0.154,0.402,0.155c0.234,0.584,0.318,1.254,0.252,2.009C465.327,182.157,465.21,182.535,465.042,182.706z
		 M452.931,169.236c-0.824,0.636-1.471,1.468-1.939,2.498c-1.076,2.301-1.611,4.224-1.611,5.77c0,1.099,0.336,1.408,1.008,0.927
		c2.248-1.442,3.961-3.194,5.137-5.254c0.738-1.27,1.107-2.318,1.107-3.142c0-1.167-0.486-1.751-1.459-1.751
		C454.497,168.283,453.753,168.601,452.931,169.236z"/>
	<path fill="#00A651" d="M485.894,182.706c-1.479,1.511-3.123,2.387-4.938,2.627c-3.055,0.515-5.313,0.429-6.773-0.257
		c-1.459-0.687-2.189-1.717-2.189-3.091c0-0.343,0.051-0.755,0.15-1.236c0.168-0.79,0.377-1.614,0.629-2.473
		c0.252-0.858,0.564-1.785,0.932-2.781c0.537-1.545,0.939-2.541,1.209-2.988c0.234-0.412,0.234-0.876,0-1.391
		c-0.234-0.48-0.904-1.03-2.014-1.648c-0.27-0.171-0.488-0.017-0.654,0.463c-0.84,2.13-1.479,3.734-1.914,4.816
		c-0.438,1.082-0.672,1.657-0.705,1.726c-1.41,2.851-3.174,5.169-5.287,6.954c-1.311,1.03-2.703,1.666-4.182,1.906
		c-0.201,0.068-0.354-0.034-0.453-0.309c-0.234-0.515-0.354-1.082-0.354-1.7c0-0.309,0.068-0.48,0.201-0.515
		c1.209-0.274,2.184-0.687,2.922-1.236c0.537-0.412,1.293-1.185,2.266-2.318c0.672-0.858,1.512-2.335,2.52-4.43
		c1.107-2.3,1.965-4.567,2.568-6.799c0.033-0.137,0.059-0.232,0.076-0.283c0.016-0.052,0.023-0.094,0.023-0.129
		c-0.033-0.206-0.15-0.515-0.354-0.927c-0.201-0.412-0.301-0.841-0.301-1.288c0-0.137,0.008-0.292,0.025-0.464
		c0.016-0.171,0.041-0.343,0.074-0.515c0.369-1.958,1.326-2.918,2.871-2.885c1.311,0.035,2.031,0.876,2.164,2.524
		c0.033,0.309-0.049,0.755-0.252,1.339c-0.066,0.206-0.066,0.36,0,0.463c0.068,0.103,0.219,0.215,0.455,0.335
		c0.234,0.121,0.553,0.275,0.957,0.463c0.402,0.189,0.906,0.456,1.51,0.798c1.209,0.688,2.016,1.203,2.418,1.545
		c0.672,0.584,0.939,1.322,0.807,2.215c-0.102,0.55-0.689,2.164-1.764,4.842c-0.537,1.306-0.947,2.361-1.232,3.168
		c-0.287,0.807-0.463,1.365-0.529,1.674c-0.201,0.997,0.186,1.597,1.158,1.803c0.402,0.103,1.209,0.121,2.418,0.051
		c0.637-0.034,1.461-0.343,2.467-0.927c1.209-0.687,2.133-1.494,2.771-2.421c0.168-0.206,0.303-0.154,0.402,0.155
		c0.234,0.584,0.318,1.254,0.252,2.009C486.179,182.157,486.062,182.535,485.894,182.706z"/>
</g>
</svg>
