<?xml version="1.0" encoding="utf-8"?>
<!-- Generator: Adobe Illustrator 14.0.0, SVG Export Plug-In . SVG Version: 6.00 Build 43363)  -->
<!DOCTYPE svg PUBLIC "-//W3C//DTD SVG 1.1//EN" "http://www.w3.org/Graphics/SVG/1.1/DTD/svg11.dtd">
<svg version="1.1" id="Layer_1" xmlns="http://www.w3.org/2000/svg" xmlns:xlink="http://www.w3.org/1999/xlink" x="0px" y="0px"
	 width="337.431px" height="44.299px" viewBox="18.784 0 337.431 44.299" enable-background="new 18.784 0 337.431 44.299"
	 xml:space="preserve">
<g>
	<g>
		<path fill="#ED1C24" d="M190.136,4.378c2.679,0,5.36,0,8.038,0c1.388,0.055,2.921,0.151,4.206,0.154
			c2.784,0.004,5.678,0.211,8.228,0.383c1.342,0.092,2.345,0.583,3.118,1.269c0.764,0.679,1.413,1.552,1.688,2.689
			c0.295,1.203,0.341,2.521,0.49,3.956c0.557,5.431,0.406,11.571-0.414,16.517c-0.391,2.365-2.044,3.982-4.432,4.379
			c-1.288,0.216-2.686,0.188-4.058,0.27c-4.173,0.25-8.513,0.27-12.731,0.27c-2.979,0-5.794,0.05-8.526-0.077
			c-2.795-0.131-5.458-0.121-8.074-0.424c-2.403-0.276-4.122-1.953-4.546-4.226c-0.899-4.818-0.983-11.29-0.489-16.67
			c0.126-1.37,0.262-2.768,0.525-3.918c0.506-2.209,2.337-3.828,4.695-4.073c1.231-0.128,2.623-0.141,4.093-0.192
			C184.62,4.591,187.484,4.459,190.136,4.378z M176.24,9.295c0,0.87,0,1.74,0,2.613c0.941,0.088,2.041,0.012,3.043,0.037
			c0.024,5.569-0.051,11.241,0.038,16.749c0.854,0.063,1.963,0.063,2.818,0c0.111-5.493-0.04-11.255,0.075-16.749
			c1.002-0.025,2.1,0.051,3.042-0.037c-0.026-0.897,0.049-1.896-0.04-2.729c-2.966,0-5.933,0-8.899,0
			C176.267,9.197,176.238,9.23,176.24,9.295z M195.243,9.295c0,6.466,0,12.931,0,19.398c0.767,0.063,1.792,0.063,2.556,0
			c0.086-0.36,0.017-0.884,0.037-1.307c0.772,0.747,1.473,1.599,2.78,1.536c2.521-0.119,2.181-3.386,2.181-6.376
			c0-2.161,0.091-4.205-0.04-5.762c-0.14-1.693-0.86-2.985-2.551-2.805c-1.117,0.122-1.719,0.925-2.37,1.46c0-2.074,0-4.149,0-6.222
			c-0.775-0.089-1.715-0.014-2.552-0.038C195.241,9.186,195.243,9.241,195.243,9.295z M211.957,15.825
			c-0.622-1.165-1.861-2.011-3.718-1.844c-1.352,0.123-2.381,0.896-2.89,1.844c-0.735,1.363-0.568,3.53-0.568,5.609
			c0,1.058-0.058,2.146,0,3.112c0.157,2.338,1.188,4.036,3.196,4.339c0.672,0.102,1.228,0.096,1.877-0.075
			c1.917-0.511,2.906-2.311,2.665-5.111c-0.801-0.087-1.762-0.011-2.626-0.037c0.14,1.568-0.179,3.402-1.728,2.767
			c-1.184-0.483-0.707-2.9-0.75-4.495c1.689-0.026,3.478,0.05,5.104-0.039C212.457,19.6,212.762,17.334,211.957,15.825z
			 M185.591,14.25c0,1.886,0,4.055,0,6.301c0,2.195-0.111,4.364,0.04,6.26c0.056,0.724,0.288,1.459,0.672,1.766
			c1.042,0.834,2.583,0.022,3.235-0.535c0.344-0.297,0.618-0.639,0.9-0.807c0,0.485,0,0.973,0,1.46c0.766,0.063,1.789,0.066,2.555,0
			c0.062-4.75,0.062-9.77,0-14.523c-0.766-0.062-1.789-0.062-2.555,0c0,3.703,0,7.403,0,11.102c-0.355,0.389-0.932,1.49-1.84,1.23
			c-0.618-0.179-0.414-1.841-0.414-2.767c0-3.219,0-6.648,0-9.566c-0.765-0.083-1.689-0.013-2.518-0.035
			C185.615,14.146,185.624,14.22,185.591,14.25z"/>
		<path d="M142.549,9.179c0.977,0,1.952,0,2.93,0c0.688,2.486,1.357,4.99,1.992,7.53c0.306-0.573,0.36-1.252,0.526-1.881
			c0.478-1.834,0.987-3.782,1.463-5.648c0.963,0,1.927,0,2.894,0c-0.933,3.321-2.006,6.756-3.004,10.142
			c-0.144,0.488-0.356,1.016-0.415,1.46c-0.167,1.265,0,2.668,0,3.993c0,1.322,0.031,2.639-0.038,3.958c-0.939,0-1.877,0-2.815,0
			c-0.241-2.669,0.185-5.385-0.037-7.951c-0.089-0.989-0.468-2.057-0.751-3.034c-0.832-2.853-1.903-5.712-2.782-8.451
			C142.509,9.241,142.506,9.186,142.549,9.179z"/>
		<path d="M155.659,14.021c1.676-0.193,3.115,0.53,3.792,1.843c0.654,1.275,0.56,3.624,0.56,5.607c0,2.049,0.124,4.261-0.56,5.573
			c-0.444,0.844-1.238,1.511-2.143,1.766c-0.794,0.222-2.048,0.165-2.852-0.233c-0.676-0.329-1.313-1.011-1.613-1.687
			c-0.515-1.139-0.491-3.122-0.491-4.957c0-2.394-0.165-4.482,0.451-5.877C153.26,15.023,154.308,14.175,155.659,14.021z
			 M154.98,18.36c0,1.234,0,3.323,0,4.533c0,1.469-0.209,3.444,1.017,3.61c1.912,0.264,1.388-3.249,1.388-5.07
			c0-1.908,0.506-5.344-1.388-5.034C155.174,16.537,154.98,17.322,154.98,18.36z"/>
		<path d="M162.193,14.137c0.813,0,1.626,0,2.443,0c0.067,3.104,0.034,6.325,0.034,9.64c0,0.799-0.18,2.565,0.454,2.728
			c0.689,0.179,1.693-0.804,1.8-1.269c0.088-0.371,0-0.961,0-1.421c0-3.106-0.028-6.656,0.038-9.678
			c0.841,0.022,1.777-0.052,2.554,0.035c0,4.842,0,9.682,0,14.523c-0.776,0.063-1.813,0.066-2.592,0c0-0.487,0-0.975,0-1.46
			c-0.358,0.228-0.68,0.697-1.127,1.037c-0.872,0.666-2.813,1.059-3.416-0.23c-0.167-0.35-0.234-0.848-0.264-1.268
			c-0.138-1.869,0-4.076,0-6.262c0-2.2,0-4.4,0-6.26C162.116,14.185,162.145,14.15,162.193,14.137z"/>
		<path fill="#ED1C24" d="M199.412,26.504c-0.798,0.063-1.237-0.247-1.576-0.655c0-2.046,0-4.389,0-6.606
			c0-0.691-0.149-1.642,0-2.188c0.136-0.484,1.196-0.906,1.768-0.576c0.962,0.554,0.603,3.198,0.603,4.956
			c0,1.311,0.094,2.667,0,3.686C200.142,25.769,199.869,26.32,199.412,26.504z"/>
		<path fill="#ED1C24" d="M209.932,19.744c-0.851,0-1.702,0-2.552,0c0.041-0.952-0.128-2.171,0.26-2.843
			c0.25-0.437,0.915-0.731,1.538-0.461C210.092,16.839,209.911,18.357,209.932,19.744z"/>
	</g>
	<g>
		<path fill="#00A651" d="M39.053,25.924c-0.983,0-1.803-0.137-2.459-0.412c-0.269-0.121-0.492-0.151-0.671-0.091
			c-0.089,0.031-0.208,0.274-0.356,0.731c-0.746,2.926-1.908,5.609-3.488,8.047c-2.026,3.108-4.128,4.664-6.304,4.664
			c-1.669,0-2.921-0.701-3.755-2.103c-0.626-1.128-0.939-2.607-0.939-4.436c0-3.75,1.207-8.506,3.621-14.267
			c2.236-5.272,5.216-9.402,8.941-12.391c3.338-2.743,6.617-4.069,9.835-3.977c2.652,0.061,4.649,1.005,5.991,2.834
			c1.101,1.495,1.653,3.492,1.653,5.99c0,2.744-0.73,5.548-2.191,8.414c-1.58,3.108-3.472,5.136-5.677,6.081
			C41.884,25.619,40.484,25.924,39.053,25.924z M45.603,12.115c0.044-0.517,0.067-1.036,0.067-1.554
			c0-3.443-1.103-5.197-3.309-5.259c-2.743-0.03-5.842,2.226-9.3,6.768c-2.86,3.811-4.799,7.408-5.811,10.79
			c-1.372,4.663-2.056,7.698-2.056,9.1c0,1.25,0.388,1.874,1.162,1.874c1.461,0,3.085-3.245,4.873-9.738
			c0.477-1.859,0.969-4.967,1.476-9.328c0.059-0.519,0.306-0.914,0.738-1.188c0.432-0.274,0.856-0.549,1.275-0.823
			c0.565-0.457,1.101-0.687,1.609-0.687c0.567,0,0.879,0.352,0.94,1.052c0.059,0.823,0.052,1.913-0.022,3.27
			c-0.075,1.356-0.231,2.994-0.47,4.916c-0.089,0.609,0.074,0.944,0.492,1.005c2.026,0.153,3.829-0.793,5.41-2.835
			c1.37-1.676,2.264-3.613,2.681-5.807C45.475,13.152,45.558,12.634,45.603,12.115z"/>
		<path fill="#00A651" d="M72.224,30.13c-1.251,1.279-2.713,2.058-4.381,2.331c-0.389,0.062-0.768,0.114-1.139,0.16
			c-0.375,0.046-0.768,0.068-1.186,0.068c-1.967,0-3.413-0.32-4.337-0.961c-0.596-0.425-0.894-1.111-0.894-2.057
			c0-0.487,0.089-1.189,0.268-2.104c0.029-0.122,0.046-0.243,0.046-0.365c0-0.091-0.031-0.106-0.09-0.046
			c-0.03,0.031-0.076,0.076-0.134,0.138c-0.059,0.061-0.12,0.151-0.178,0.273c-2.325,3.415-4.68,5.121-7.064,5.121
			c-0.597,0-1.178-0.092-1.744-0.273c-1.342-0.487-2.012-1.556-2.012-3.202c0-0.151,0.008-0.326,0.022-0.525
			c0.015-0.197,0.038-0.418,0.066-0.662c0.121-1.433,1.401-5.928,3.845-13.488c0.209-0.671,0.686-1.006,1.431-1.006
			c0.506,0,1.088,0.107,1.743,0.321c1.192,0.365,1.789,0.853,1.789,1.462c0,0.184-0.075,0.458-0.224,0.824
			c-0.179,0.427-0.426,1.051-0.737,1.874c-0.313,0.824-0.709,1.875-1.184,3.156c-1.134,2.987-1.76,4.831-1.878,5.531
			c-0.06,0.366-0.111,0.68-0.157,0.938s-0.066,0.465-0.066,0.617c0,0.671,0.402,1.006,1.205,1.006c0.449,0,1.074-0.411,1.878-1.235
			c0.954-0.976,2.175-3.171,3.666-6.583c0.567-1.311,1.028-2.446,1.387-3.407c0.356-0.96,0.641-1.775,0.85-2.446
			c0.328-1.19,1.251-1.707,2.771-1.556c1.4,0.154,2.101,0.503,2.101,1.053c0,0.305-0.105,0.656-0.314,1.052
			c-0.208,0.397-0.79,2.073-1.743,5.03c-1.014,3.047-1.595,4.907-1.743,5.579c-0.27,1.341-0.224,2.194,0.132,2.56
			c0.567,0.58,1.595,0.869,3.086,0.869c0.566,0,1.296-0.273,2.19-0.822c0.506-0.305,0.968-0.632,1.386-0.982
			c0.417-0.351,0.774-0.738,1.072-1.166c0.15-0.183,0.27-0.137,0.358,0.138c0.208,0.519,0.283,1.113,0.224,1.783
			C72.478,29.643,72.374,29.979,72.224,30.13z"/>
		<path fill="#00A651" d="M82.685,29.992c-1.819,1.799-3.816,2.697-5.991,2.697c-0.537,0-1.045-0.045-1.52-0.136
			c-2.325-0.396-3.488-2.088-3.488-5.076c0-2.073,0.968-6.401,2.906-12.985c1.459-4.755,2.638-7.956,3.531-9.601
			c1.193-2.195,2.578-3.17,4.159-2.927c1.191,0.183,1.789,1.021,1.789,2.515c0,0.823-0.15,1.691-0.448,2.606
			c-0.596,1.921-1.639,3.886-3.129,5.899c-0.357,0.519-0.79,1.342-1.296,2.469c-0.149,0.397-0.364,1.046-0.648,1.943
			c-0.283,0.9-0.619,2.081-1.005,3.544c-0.866,3.26-1.313,5.501-1.342,6.72c-0.029,1.22,0.476,1.83,1.52,1.83
			c0.477,0,0.878-0.152,1.207-0.458c2.443-2.012,3.814-4.709,4.112-8.092c0.03-0.184-0.133-0.373-0.492-0.572
			c-0.357-0.198-0.715-0.389-1.073-0.572c-0.745-0.487-1.117-1.219-1.117-2.195c0-0.792,0.261-1.508,0.782-2.149
			c0.521-0.64,1.155-0.96,1.899-0.96c0.477,0,0.94,0.137,1.387,0.411c1.609,0.915,2.415,2.47,2.415,4.665
			c0,1.584-0.418,3.504-1.251,5.76C84.964,27.098,83.995,28.651,82.685,29.992z"/>
		<path fill="#00A651" d="M101.55,30.13c-1.251,1.279-2.713,2.058-4.381,2.331c-0.955,0.184-1.848,0.274-2.682,0.274
			c-1.342,0-2.46-0.213-3.353-0.64c-1.192-0.67-1.788-1.813-1.788-3.43c0-0.213,0.008-0.456,0.022-0.731
			c0.015-0.273,0.037-0.593,0.067-0.96c0.24-2.438,1.042-6.126,2.414-11.064c1.103-3.963,2.131-7.179,3.085-9.647
			c1.013-2.745,2.444-4.04,4.292-3.887c0.626,0.06,1.14,0.357,1.542,0.891c0.401,0.534,0.603,1.212,0.603,2.035
			c0,0.519-0.09,1.068-0.268,1.645c-0.625,1.89-1.655,3.811-3.085,5.761c-0.179,0.244-0.492,0.885-0.939,1.921
			c-1.669,5.121-2.832,9.19-3.487,12.208c-0.209,0.854-0.314,1.447-0.314,1.783c0,0.396,0.104,0.702,0.314,0.914
			c0.417,0.428,1.43,0.64,3.04,0.64c0.566,0,1.297-0.273,2.191-0.822c0.507-0.306,0.968-0.632,1.386-0.983
			c0.418-0.35,0.775-0.738,1.073-1.165c0.149-0.183,0.269-0.137,0.357,0.137c0.209,0.52,0.283,1.113,0.224,1.784
			C101.803,29.643,101.699,29.979,101.55,30.13z"/>
		<path fill="#00A651" d="M113.754,30.13c-1.252,1.279-2.713,2.058-4.382,2.331c-0.357,0.062-0.722,0.107-1.095,0.138
			c-0.373,0.029-0.767,0.046-1.184,0.046c-1.908,0-3.235-0.26-3.979-0.776c-0.447-0.336-0.806-0.647-1.073-0.938
			s-0.484-0.595-0.648-0.914c-0.163-0.32-0.268-0.679-0.313-1.074c-0.044-0.396-0.067-0.869-0.067-1.419
			c0.03-0.334,0.172-1.027,0.426-2.08c0.252-1.052,0.633-2.446,1.14-4.182c0.297-0.976,0.586-1.951,0.871-2.927
			c0.283-0.976,0.574-1.95,0.871-2.926c0.179-0.761,0.521-1.219,1.027-1.371c1.133-0.334,2.192-0.366,3.174-0.092
			c0.27,0.061,0.484,0.26,0.648,0.594c0.164,0.335,0.216,0.685,0.156,1.051c-0.566,1.708-1.147,3.491-1.743,5.35
			c-0.597,1.86-1.238,3.81-1.923,5.853c-0.239,0.822-0.357,1.402-0.357,1.736c0,0.397,0.104,0.687,0.313,0.869
			c0.596,0.519,1.668,0.777,3.218,0.777c0.566,0,1.297-0.273,2.191-0.822c0.506-0.306,0.968-0.632,1.386-0.983
			c0.417-0.35,0.775-0.738,1.073-1.165c0.148-0.183,0.269-0.137,0.357,0.137c0.208,0.519,0.283,1.113,0.223,1.784
			C114.008,29.643,113.903,29.979,113.754,30.13z M109.909,7.771c-0.358,0-0.67-0.06-0.939-0.182
			c-0.953-0.426-1.43-1.113-1.43-2.058c0-0.64,0.208-1.357,0.626-2.149c0.387-0.822,1.175-1.235,2.369-1.235
			c0.297,0,0.58,0.045,0.85,0.137c0.953,0.427,1.43,1.16,1.43,2.195c0,0.58-0.12,1.082-0.356,1.509
			C111.741,7.176,110.892,7.771,109.909,7.771z"/>
		<path fill="#00A651" d="M129.31,30.13c-1.251,1.279-2.712,2.058-4.381,2.331c-0.358,0.062-0.738,0.107-1.14,0.138
			c-0.402,0.029-0.827,0.046-1.274,0.046c-2.534,0-4.71-0.487-6.528-1.462c-2.295-1.343-3.442-3.339-3.442-5.991
			c0-0.518,0.045-1.035,0.134-1.555c0.506-3.2,1.802-5.684,3.89-7.452c1.847-1.525,3.74-2.24,5.677-2.148
			c2.89,0.152,4.396,1.082,4.516,2.789c0.119,1.341-0.284,2.256-1.207,2.744c-0.24,0.152-0.507,0.182-0.804,0.091
			c-0.269,0-0.44-0.091-0.514-0.275c-0.075-0.182-0.142-0.388-0.201-0.617c-0.061-0.229-0.158-0.449-0.292-0.663
			c-0.133-0.213-0.395-0.351-0.782-0.412c-0.924-0.122-1.864,0.137-2.817,0.777c-1.312,0.976-2.146,2.56-2.502,4.755
			c-0.119,0.611-0.179,1.219-0.179,1.829c0,1.434,0.521,2.638,1.564,3.612c1.163,1.128,2.951,1.616,5.365,1.463
			c0.626-0.06,1.356-0.335,2.192-0.823c0.505-0.305,0.968-0.624,1.386-0.96c0.417-0.335,0.775-0.716,1.073-1.144
			c0.148-0.183,0.268-0.137,0.357,0.138c0.208,0.52,0.283,1.113,0.224,1.782C129.564,29.643,129.459,29.979,129.31,30.13z"/>
	</g>
	<g>
		<path fill="#00A651" d="M250.979,25.924c-0.983,0-1.803-0.137-2.459-0.412c-0.27-0.121-0.493-0.151-0.672-0.091
			c-0.09,0.031-0.207,0.274-0.356,0.731c-0.746,2.926-1.906,5.609-3.488,8.047c-2.026,3.108-4.127,4.664-6.304,4.664
			c-1.669,0-2.922-0.701-3.755-2.103c-0.626-1.128-0.939-2.607-0.939-4.436c0-3.75,1.206-8.506,3.621-14.267
			c2.236-5.272,5.216-9.402,8.941-12.391c3.337-2.743,6.616-4.069,9.834-3.977c2.652,0.061,4.649,1.005,5.991,2.834
			c1.101,1.495,1.653,3.492,1.653,5.99c0,2.744-0.731,5.548-2.19,8.414c-1.58,3.108-3.473,5.136-5.679,6.081
			C253.809,25.619,252.41,25.924,250.979,25.924z M257.529,12.115c0.045-0.517,0.067-1.036,0.067-1.554
			c0-3.443-1.103-5.197-3.311-5.259c-2.742-0.03-5.841,2.226-9.299,6.768c-2.861,3.811-4.8,7.408-5.813,10.79
			c-1.371,4.663-2.056,7.698-2.056,9.1c0,1.25,0.389,1.874,1.164,1.874c1.46,0,3.085-3.245,4.871-9.738
			c0.477-1.859,0.97-4.967,1.476-9.328c0.059-0.519,0.306-0.914,0.738-1.188c0.431-0.274,0.856-0.549,1.275-0.823
			c0.565-0.457,1.1-0.687,1.608-0.687c0.568,0,0.879,0.352,0.94,1.052c0.059,0.823,0.052,1.913-0.021,3.27
			c-0.076,1.356-0.232,2.994-0.47,4.916c-0.09,0.609,0.072,0.944,0.492,1.005c2.025,0.153,3.828-0.793,5.41-2.835
			c1.37-1.676,2.264-3.613,2.681-5.807C257.401,13.152,257.484,12.634,257.529,12.115z"/>
		<path fill="#00A651" d="M273.733,30.13c-1.251,1.279-2.712,2.058-4.38,2.331c-0.955,0.184-1.849,0.274-2.683,0.274
			c-1.341,0-2.46-0.213-3.352-0.64c-1.194-0.67-1.789-1.813-1.789-3.43c0-0.213,0.008-0.456,0.021-0.731
			c0.014-0.273,0.038-0.593,0.066-0.96c0.24-2.438,1.044-6.126,2.415-11.064c1.103-3.963,2.128-7.179,3.085-9.647
			c1.015-2.745,2.442-4.04,4.293-3.887c0.626,0.06,1.139,0.357,1.541,0.891s0.604,1.212,0.604,2.035
			c0,0.519-0.089,1.068-0.268,1.645c-0.626,1.89-1.655,3.811-3.086,5.761c-0.179,0.244-0.493,0.885-0.94,1.921
			c-1.67,5.121-2.83,9.19-3.487,12.208c-0.209,0.854-0.313,1.447-0.313,1.783c0,0.396,0.104,0.702,0.313,0.914
			c0.417,0.428,1.432,0.64,3.04,0.64c0.567,0,1.297-0.273,2.191-0.822c0.507-0.306,0.969-0.632,1.388-0.983
			c0.417-0.35,0.773-0.738,1.073-1.165c0.148-0.183,0.267-0.137,0.356,0.137c0.208,0.52,0.283,1.113,0.224,1.784
			C273.987,29.643,273.882,29.979,273.733,30.13z"/>
		<path fill="#00A651" d="M296.399,30.13c-1.251,1.279-2.713,2.058-4.383,2.331c-0.355,0.062-0.729,0.107-1.117,0.138
			c-0.388,0.029-0.791,0.046-1.206,0.046c-2.087,0-3.51-0.281-4.271-0.846c-0.76-0.563-1.14-1.304-1.14-2.218
			c0-0.426,0.119-1.097,0.358-2.012c0.027-0.122,0.027-0.214,0-0.273c-0.061-0.032-0.143,0-0.246,0.091
			c-0.104,0.091-0.188,0.198-0.245,0.319c-0.447,0.915-1.253,1.905-2.417,2.972c-1.669,1.524-3.263,2.287-4.783,2.287
			c-1.46,0-2.592-0.504-3.397-1.51c-0.832-0.945-1.251-2.18-1.251-3.704c0-1.98,0.599-4.13,1.789-6.445
			c1.193-2.348,2.862-4.132,5.009-5.351c1.609-0.915,3.233-1.387,4.871-1.418c1.223-0.029,2.342,0.229,3.354,0.776
			c0.476,0.275,0.804,0.245,0.981-0.091c0.208-0.334,0.39-0.579,0.537-0.732c0.238-0.244,0.477-0.412,0.718-0.503
			c0.296-0.091,0.863-0.045,1.696,0.138c0.834,0.154,1.356,0.32,1.565,0.503c0.299,0.335,0.343,0.793,0.134,1.372
			c-0.418,0.914-1.251,2.804-2.504,5.668c-0.476,1.127-0.869,2.126-1.184,2.996c-0.313,0.867-0.572,1.623-0.782,2.264
			c-0.209,0.64-0.314,1.173-0.314,1.601c0,0.396,0.104,0.701,0.314,0.913c0.476,0.488,1.475,0.731,2.994,0.731
			c0.567,0,1.297-0.273,2.191-0.822c0.507-0.305,0.968-0.632,1.388-0.982c0.417-0.35,0.774-0.738,1.073-1.166
			c0.148-0.183,0.268-0.137,0.354,0.138c0.21,0.52,0.285,1.113,0.224,1.782C296.652,29.643,296.549,29.979,296.399,30.13z
			 M286.743,18.745c0-0.517-0.509-0.792-1.521-0.823c-0.895-0.061-1.982,0.32-3.265,1.144c-1.224,0.823-2.206,1.813-2.951,2.971
			c-1.341,2.166-2.012,3.995-2.012,5.487c0,1.434,0.536,2.15,1.609,2.15c0.566,0,1.237-0.396,2.012-1.189
			c0.149-0.151,0.381-0.419,0.693-0.799c0.313-0.382,0.722-0.877,1.229-1.486c1.371-1.707,2.756-4.099,4.159-7.179
			C286.727,18.958,286.743,18.867,286.743,18.745z"/>
		<path fill="#00A651" d="M318.08,30.13c-1.251,1.279-2.711,2.058-4.381,2.331c-0.625,0.152-1.565,0.244-2.818,0.274
			c-0.832,0.062-1.385,0.184-1.653,0.365c-0.207,0.184-0.597,0.596-1.164,1.235c-0.057,0.092-0.564,1.112-1.519,3.063
			c-0.923,1.829-1.714,3.033-2.37,3.612c-1.221,1.067-2.25,1.601-3.083,1.601c-1.283,0-1.923-0.61-1.923-1.829
			c0-0.64,0.224-1.418,0.67-2.331c0.417-0.824,1.13-1.723,2.146-2.698c0.865-0.795,1.55-1.342,2.056-1.646
			c0.119-0.062,0.239-0.244,0.356-0.55c0.655-1.858,1.372-3.824,2.146-5.897c0.15-0.243,0.105-0.365-0.132-0.365
			c-0.15,0-0.282,0.107-0.402,0.319c-0.537,0.914-1.417,1.906-2.64,2.972c-1.67,1.403-3.188,2.027-4.56,1.875
			c-0.298,0-0.61-0.091-0.938-0.274c-0.329-0.182-0.636-0.411-0.917-0.685c-0.285-0.274-0.53-0.595-0.739-0.96
			c-0.208-0.366-0.341-0.747-0.401-1.145c-0.03-0.212-0.052-0.441-0.066-0.686c-0.016-0.243-0.021-0.486-0.021-0.731
			c0-2.194,0.551-4.923,1.652-8.184c0.419-1.25,0.828-2.324,1.229-3.223c0.402-0.9,0.767-1.64,1.097-2.219
			c0.268-0.457,0.699-0.731,1.297-0.822c0.146-0.031,0.289-0.053,0.425-0.069c0.133-0.015,0.26-0.022,0.38-0.022
			c0.684,0,1.371,0.259,2.056,0.777c0.389,0.304,0.418,0.716,0.09,1.234c-0.268,0.427-0.982,2.165-2.146,5.212
			c-1.222,3.263-1.849,5.152-1.877,5.671c-0.059,1.249,0.208,1.98,0.804,2.192c0.775,0.245,1.58,0.047,2.415-0.593
			c1.015-0.793,2.34-2.865,3.979-6.218c0.506-1.158,1.014-2.323,1.521-3.498c0.507-1.173,1.028-2.369,1.563-3.588
			c0.121-0.275,0.432-0.502,0.941-0.687c0.148-0.059,0.492-0.059,1.026,0c0.507,0.032,0.896,0.108,1.164,0.229
			c0.507,0.243,0.759,0.61,0.759,1.096c0,0.214-1.595,5.076-4.784,14.586c-0.03,0.214-0.075,0.366-0.134,0.457
			c0,0.062,0.029,0.122,0.091,0.183c0.029,0,0.12-0.016,0.269-0.046c0.149-0.03,0.626-0.092,1.431-0.183
			c0.119-0.03,0.357-0.045,0.716-0.045c0.388,0,0.877-0.017,1.476-0.047c0.714-0.062,1.563-0.411,2.546-1.052
			c0.865-0.609,1.566-1.25,2.103-1.921c0.148-0.183,0.268-0.137,0.356,0.138c0.207,0.519,0.281,1.113,0.224,1.783
			C318.334,29.643,318.23,29.979,318.08,30.13z"/>
		<path fill="#00A651" d="M335.336,30.13c-1.252,1.279-2.714,2.072-4.382,2.377c-1.313,0.273-2.788,0.412-4.427,0.412
			c-3.426,0-5.842-0.579-7.24-1.738c-1.61-1.371-2.415-3.262-2.415-5.67c0-2.103,0.596-4.359,1.789-6.766
			c0.863-1.738,2.07-3.033,3.621-3.887c1.279-0.731,2.608-1.097,3.978-1.097c0.774,0,1.388,0.107,1.832,0.32
			c1.728,0.762,2.594,2.241,2.594,4.436c0,0.488-0.046,1.006-0.134,1.554c-0.239,1.462-1.313,3.246-3.219,5.349
			c-0.598,0.673-1.185,1.274-1.767,1.807c-0.579,0.534-1.155,1.015-1.721,1.44c-0.149,0.152-0.224,0.244-0.224,0.275
			c0,0.122,0.18,0.273,0.536,0.457c1.313,0.763,3.385,1.005,6.214,0.731c1.848-0.184,3.414-1.158,4.694-2.927
			c0.149-0.183,0.27-0.137,0.357,0.137c0.207,0.52,0.281,1.113,0.224,1.784C335.588,29.643,335.485,29.979,335.336,30.13z
			 M324.586,18.173c-0.732,0.565-1.307,1.304-1.723,2.217c-0.955,2.043-1.429,3.75-1.429,5.122c0,0.976,0.298,1.25,0.895,0.823
			c1.996-1.279,3.516-2.834,4.56-4.664c0.655-1.126,0.983-2.058,0.983-2.789c0-1.036-0.432-1.554-1.295-1.554
			C325.975,17.328,325.316,17.609,324.586,18.173z"/>
		<path fill="#00A651" d="M353.845,30.13c-1.313,1.341-2.771,2.118-4.384,2.331c-2.711,0.458-4.716,0.382-6.012-0.227
			c-1.295-0.61-1.943-1.525-1.943-2.744c0-0.306,0.046-0.672,0.134-1.098c0.149-0.701,0.335-1.434,0.559-2.194
			c0.223-0.762,0.5-1.585,0.826-2.47c0.478-1.371,0.835-2.254,1.073-2.652c0.208-0.366,0.208-0.777,0-1.234
			c-0.207-0.427-0.801-0.915-1.787-1.464c-0.239-0.151-0.434-0.014-0.581,0.412c-0.745,1.891-1.313,3.314-1.699,4.275
			c-0.388,0.96-0.596,1.47-0.624,1.532c-1.253,2.53-2.818,4.587-4.693,6.172c-1.164,0.915-2.4,1.479-3.713,1.691
			c-0.178,0.062-0.313-0.029-0.402-0.273c-0.207-0.458-0.314-0.961-0.314-1.51c0-0.274,0.062-0.426,0.18-0.456
			c1.073-0.243,1.938-0.61,2.594-1.098c0.476-0.365,1.147-1.053,2.011-2.058c0.597-0.762,1.343-2.072,2.237-3.932
			c0.981-2.042,1.744-4.054,2.278-6.035c0.03-0.122,0.053-0.207,0.068-0.251c0.015-0.047,0.021-0.083,0.021-0.114
			c-0.029-0.183-0.133-0.458-0.315-0.824c-0.178-0.366-0.266-0.745-0.266-1.142c0-0.122,0.006-0.26,0.021-0.413
			c0.015-0.151,0.036-0.305,0.065-0.457c0.327-1.738,1.177-2.591,2.549-2.561c1.164,0.03,1.803,0.777,1.921,2.241
			c0.029,0.273-0.044,0.668-0.224,1.187c-0.059,0.184-0.059,0.32,0,0.411c0.061,0.092,0.194,0.192,0.403,0.299
			c0.208,0.107,0.491,0.245,0.85,0.411c0.357,0.168,0.805,0.405,1.341,0.708c1.073,0.611,1.789,1.068,2.146,1.372
			c0.596,0.518,0.833,1.174,0.716,1.966c-0.091,0.488-0.611,1.92-1.565,4.299c-0.478,1.158-0.841,2.095-1.094,2.812
			c-0.254,0.716-0.41,1.212-0.47,1.486c-0.179,0.884,0.166,1.416,1.028,1.6c0.356,0.092,1.073,0.107,2.146,0.045
			c0.565-0.029,1.297-0.305,2.189-0.822c1.073-0.609,1.894-1.326,2.46-2.149c0.148-0.183,0.269-0.137,0.355,0.137
			c0.209,0.52,0.283,1.113,0.224,1.784C354.099,29.643,353.994,29.979,353.845,30.13z"/>
	</g>
</g>
</svg>
