<?xml version="1.0" encoding="utf-8"?>
<!-- Generator: Adobe Illustrator 14.0.0, SVG Export Plug-In . SVG Version: 6.00 Build 43363)  -->
<!DOCTYPE svg PUBLIC "-//W3C//DTD SVG 1.1//EN" "http://www.w3.org/Graphics/SVG/1.1/DTD/svg11.dtd">
<svg version="1.1" id="Layer_1" xmlns="http://www.w3.org/2000/svg" xmlns:xlink="http://www.w3.org/1999/xlink" x="0px" y="0px"
	 width="114.141px" height="117.66px" viewBox="0 0 114.141 117.66" enable-background="new 0 0 114.141 117.66"
	 xml:space="preserve">
<g>
	<g>
		<path fill="#00A651" d="M23.525,23.385c-0.903,0-1.658-0.125-2.26-0.379c-0.246-0.113-0.452-0.141-0.616-0.084
			c-0.082,0.027-0.192,0.251-0.33,0.671c-0.685,2.689-1.754,5.157-3.205,7.399c-1.864,2.857-3.795,4.286-5.795,4.286
			c-1.534,0-2.686-0.642-3.452-1.931c-0.576-1.039-0.863-2.396-0.863-4.077c0-3.448,1.109-7.82,3.329-13.115
			c2.054-4.847,4.794-8.642,8.219-11.39c3.069-2.522,6.083-3.742,9.042-3.658c2.438,0.057,4.274,0.924,5.506,2.605
			c1.014,1.374,1.521,3.209,1.521,5.508c0,2.521-0.672,5.1-2.014,7.734c-1.451,2.857-3.191,4.721-5.219,5.59
			C26.127,23.105,24.84,23.385,23.525,23.385z M29.546,10.692c0.04-0.477,0.061-0.955,0.061-1.429c0-3.166-1.014-4.778-3.04-4.833
			c-2.521-0.029-5.371,2.045-8.549,6.221c-2.629,3.503-4.411,6.808-5.343,9.918c-1.26,4.289-1.89,7.077-1.89,8.363
			c0,1.151,0.355,1.725,1.068,1.725c1.342,0,2.836-2.985,4.479-8.952c0.438-1.708,0.89-4.569,1.357-8.575
			c0.055-0.477,0.281-0.841,0.679-1.092c0.396-0.251,0.787-0.507,1.17-0.757c0.521-0.421,1.014-0.631,1.48-0.631
			c0.52,0,0.808,0.324,0.862,0.968c0.056,0.755,0.048,1.757-0.021,3.004c-0.068,1.247-0.212,2.752-0.431,4.519
			c-0.082,0.56,0.069,0.869,0.452,0.924c1.863,0.141,3.521-0.73,4.973-2.607c1.26-1.54,2.082-3.318,2.466-5.336
			C29.429,11.643,29.504,11.168,29.546,10.692z"/>
		<path fill="#00A651" d="M54.017,27.25c-1.149,1.178-2.493,1.893-4.027,2.145c-0.356,0.055-0.706,0.104-1.048,0.146
			c-0.341,0.042-0.705,0.063-1.087,0.063c-1.81,0-3.138-0.293-3.986-0.882c-0.549-0.391-0.822-1.023-0.822-1.891
			c0-0.448,0.08-1.094,0.246-1.935c0.026-0.111,0.04-0.223,0.04-0.335c0-0.084-0.026-0.099-0.082-0.042
			c-0.026,0.029-0.068,0.07-0.122,0.126c-0.055,0.055-0.109,0.139-0.164,0.251c-2.136,3.137-4.301,4.708-6.492,4.708
			c-0.548,0-1.082-0.084-1.602-0.251c-1.234-0.448-1.85-1.43-1.85-2.945c0-0.139,0.006-0.299,0.02-0.484
			c0.014-0.181,0.034-0.383,0.062-0.61c0.11-1.315,1.288-5.449,3.535-12.4c0.191-0.615,0.631-0.922,1.315-0.922
			c0.466,0,1,0.099,1.604,0.293c1.095,0.337,1.644,0.786,1.644,1.346c0,0.168-0.069,0.419-0.205,0.757
			c-0.164,0.391-0.39,0.964-0.677,1.723c-0.288,0.757-0.652,1.723-1.09,2.899c-1.041,2.749-1.616,4.445-1.725,5.087
			c-0.056,0.337-0.103,0.625-0.145,0.864c-0.04,0.236-0.061,0.427-0.061,0.566c0,0.618,0.37,0.924,1.109,0.924
			c0.412,0,0.987-0.379,1.727-1.136c0.876-0.896,2-2.913,3.37-6.05c0.519-1.205,0.945-2.25,1.274-3.131
			c0.331-0.884,0.59-1.633,0.782-2.251c0.301-1.094,1.149-1.566,2.546-1.429c1.286,0.143,1.931,0.463,1.931,0.968
			c0,0.28-0.097,0.602-0.288,0.966c-0.192,0.366-0.726,1.906-1.604,4.622c-0.932,2.804-1.466,4.514-1.602,5.129
			c-0.248,1.235-0.206,2.019,0.122,2.354c0.52,0.532,1.465,0.798,2.836,0.798c0.52,0,1.191-0.251,2.013-0.756
			c0.467-0.28,0.888-0.582,1.274-0.903c0.384-0.322,0.712-0.681,0.986-1.073c0.138-0.167,0.248-0.126,0.33,0.126
			c0.189,0.478,0.26,1.023,0.206,1.639C54.251,26.805,54.155,27.112,54.017,27.25z"/>
		<path fill="#00A651" d="M63.634,27.125c-1.672,1.654-3.507,2.481-5.509,2.481c-0.491,0-0.958-0.042-1.397-0.126
			c-2.136-0.364-3.205-1.919-3.205-4.666c0-1.906,0.89-5.886,2.671-11.939c1.342-4.37,2.425-7.311,3.247-8.826
			c1.096-2.015,2.369-2.912,3.822-2.689c1.096,0.168,1.644,0.94,1.644,2.312c0,0.757-0.137,1.555-0.409,2.396
			c-0.549,1.765-1.508,3.573-2.878,5.422c-0.328,0.477-0.727,1.235-1.191,2.27c-0.138,0.364-0.336,0.96-0.597,1.786
			c-0.26,0.827-0.568,1.912-0.924,3.257c-0.795,3-1.205,5.06-1.234,6.179c-0.025,1.121,0.439,1.683,1.399,1.683
			c0.437,0,0.807-0.141,1.109-0.421c2.247-1.849,3.509-4.331,3.781-7.441c0.028-0.168-0.123-0.341-0.451-0.524
			c-0.329-0.183-0.658-0.356-0.987-0.526c-0.685-0.448-1.027-1.119-1.027-2.017c0-0.728,0.24-1.385,0.719-1.975
			c0.479-0.589,1.062-0.884,1.746-0.884c0.438,0,0.862,0.128,1.274,0.381c1.48,0.838,2.22,2.27,2.22,4.287
			c0,1.458-0.385,3.223-1.15,5.296C65.728,24.464,64.838,25.894,63.634,27.125z"/>
		<path fill="#00A651" d="M80.974,27.25c-1.149,1.178-2.493,1.893-4.027,2.145c-0.875,0.167-1.698,0.251-2.464,0.251
			c-1.233,0-2.261-0.196-3.082-0.589c-1.097-0.616-1.646-1.668-1.646-3.15c0-0.196,0.006-0.421,0.021-0.673
			c0.015-0.251,0.035-0.547,0.061-0.882c0.221-2.242,0.958-5.632,2.219-10.172c1.013-3.64,1.959-6.6,2.836-8.868
			c0.932-2.521,2.246-3.713,3.945-3.572c0.576,0.057,1.049,0.33,1.418,0.82c0.37,0.492,0.555,1.115,0.555,1.872
			c0,0.475-0.082,0.981-0.248,1.513c-0.574,1.738-1.521,3.503-2.834,5.294c-0.166,0.225-0.453,0.814-0.863,1.767
			c-1.534,4.706-2.604,8.447-3.206,11.222c-0.191,0.785-0.287,1.33-0.287,1.639c0,0.366,0.096,0.646,0.287,0.84
			c0.384,0.393,1.315,0.589,2.795,0.589c0.518,0,1.192-0.251,2.013-0.757c0.467-0.28,0.888-0.581,1.272-0.903
			c0.386-0.322,0.711-0.678,0.989-1.073c0.137-0.168,0.246-0.126,0.328,0.125c0.19,0.479,0.261,1.023,0.206,1.639
			C81.21,26.805,81.112,27.112,80.974,27.25z"/>
		<path fill="#00A651" d="M92.195,27.25c-1.15,1.178-2.494,1.893-4.026,2.145c-0.328,0.055-0.666,0.097-1.007,0.125
			c-0.343,0.029-0.705,0.042-1.088,0.042c-1.755,0-2.974-0.238-3.659-0.714c-0.41-0.305-0.739-0.593-0.986-0.862
			c-0.245-0.263-0.445-0.545-0.596-0.84c-0.149-0.293-0.246-0.624-0.287-0.987c-0.041-0.364-0.063-0.797-0.063-1.302
			c0.029-0.307,0.158-0.945,0.391-1.914c0.233-0.966,0.582-2.247,1.049-3.844c0.272-0.898,0.54-1.793,0.801-2.691
			c0.261-0.896,0.527-1.793,0.802-2.689c0.164-0.702,0.477-1.119,0.945-1.262c1.039-0.305,2.013-0.335,2.918-0.084
			c0.246,0.059,0.442,0.238,0.593,0.549c0.148,0.307,0.199,0.629,0.144,0.964c-0.521,1.57-1.057,3.209-1.604,4.919
			c-0.549,1.709-1.138,3.503-1.767,5.382c-0.222,0.755-0.33,1.287-0.33,1.597c0,0.364,0.096,0.629,0.288,0.798
			c0.548,0.475,1.533,0.713,2.957,0.713c0.521,0,1.194-0.251,2.014-0.755c0.466-0.28,0.889-0.583,1.274-0.905
			c0.386-0.322,0.712-0.678,0.988-1.073c0.137-0.168,0.246-0.126,0.327,0.125c0.191,0.479,0.262,1.023,0.206,1.639
			C92.428,26.805,92.331,27.112,92.195,27.25z M88.658,6.699c-0.328,0-0.615-0.057-0.863-0.17c-0.877-0.391-1.315-1.023-1.315-1.891
			c0-0.591,0.192-1.247,0.576-1.977c0.356-0.754,1.082-1.134,2.179-1.134c0.272,0,0.533,0.042,0.781,0.127
			c0.875,0.391,1.314,1.065,1.314,2.017c0,0.532-0.11,0.997-0.329,1.386C90.345,6.152,89.564,6.699,88.658,6.699z"/>
		<path fill="#00A651" d="M106.496,27.25c-1.151,1.178-2.493,1.893-4.027,2.145c-0.33,0.055-0.677,0.097-1.046,0.125
			c-0.37,0.029-0.761,0.042-1.173,0.042c-2.329,0-4.33-0.448-6-1.344c-2.109-1.235-3.163-3.07-3.163-5.508
			c0-0.475,0.041-0.953,0.123-1.43c0.466-2.941,1.656-5.224,3.575-6.85c1.699-1.402,3.438-2.06,5.219-1.976
			c2.659,0.143,4.043,0.997,4.151,2.563c0.108,1.235-0.261,2.074-1.109,2.521c-0.22,0.143-0.467,0.167-0.74,0.084
			c-0.247,0-0.405-0.084-0.472-0.252c-0.067-0.167-0.132-0.356-0.184-0.568c-0.057-0.209-0.143-0.412-0.267-0.61
			c-0.121-0.196-0.361-0.322-0.718-0.377c-0.851-0.112-1.714,0.126-2.59,0.713c-1.205,0.896-1.972,2.354-2.301,4.37
			c-0.108,0.563-0.164,1.121-0.164,1.681c0,1.319,0.479,2.424,1.439,3.322c1.068,1.037,2.712,1.483,4.932,1.344
			c0.576-0.055,1.246-0.307,2.013-0.757c0.467-0.278,0.891-0.574,1.275-0.88c0.385-0.309,0.711-0.658,0.987-1.05
			c0.137-0.168,0.246-0.126,0.33,0.126c0.189,0.476,0.259,1.023,0.205,1.639C106.729,26.805,106.631,27.112,106.496,27.25z"/>
	</g>
	<g>
		<path fill="#ED1C24" d="M68.409,40.314c2.462,0,4.928,0,7.388,0c1.279,0.053,2.688,0.141,3.871,0.143
			c2.556,0.004,5.217,0.196,7.559,0.351c1.235,0.084,2.158,0.538,2.867,1.167c0.703,0.623,1.298,1.426,1.552,2.472
			c0.271,1.105,0.312,2.317,0.45,3.636c0.51,4.992,0.374,10.637-0.38,15.185c-0.36,2.175-1.882,3.659-4.075,4.025
			c-1.184,0.198-2.47,0.174-3.729,0.248c-3.835,0.23-7.826,0.245-11.704,0.245c-2.737,0-5.325,0.048-7.836-0.07
			c-2.57-0.12-5.021-0.108-7.421-0.385c-2.207-0.257-3.787-1.797-4.178-3.884c-0.827-4.43-0.903-10.38-0.449-15.326
			c0.115-1.262,0.239-2.544,0.483-3.6c0.467-2.032,2.148-3.521,4.314-3.743c1.132-0.118,2.412-0.132,3.762-0.179
			C63.339,40.508,65.97,40.386,68.409,40.314z M55.636,44.835c0,0.8,0,1.601,0,2.401c0.863,0.082,1.876,0.011,2.796,0.034
			c0.021,5.122-0.047,10.334,0.033,15.398c0.785,0.06,1.806,0.06,2.589,0c0.103-5.05-0.036-10.347,0.068-15.398
			c0.922-0.023,1.933,0.048,2.797-0.034c-0.023-0.825,0.047-1.742-0.035-2.508c-2.728,0-5.454,0-8.18,0
			C55.662,44.743,55.634,44.774,55.636,44.835z M73.104,44.835c0,5.944,0,11.887,0,17.832c0.707,0.062,1.646,0.062,2.346,0
			c0.08-0.331,0.018-0.812,0.034-1.198c0.712,0.684,1.356,1.469,2.556,1.41c2.318-0.106,2.006-3.11,2.006-5.861
			c0-1.988,0.081-3.865-0.035-5.298c-0.131-1.557-0.793-2.745-2.347-2.579c-1.026,0.113-1.579,0.852-2.176,1.342
			c0-1.904,0-3.812,0-5.718c-0.713-0.082-1.576-0.015-2.347-0.036C73.103,44.734,73.103,44.783,73.104,44.835z M88.47,50.836
			c-0.572-1.071-1.714-1.849-3.421-1.696c-1.241,0.115-2.187,0.826-2.657,1.696c-0.673,1.252-0.521,3.244-0.521,5.156
			c0,0.974-0.055,1.971,0,2.861c0.144,2.149,1.091,3.711,2.938,3.989c0.619,0.093,1.128,0.09,1.729-0.068
			c1.763-0.47,2.67-2.126,2.451-4.698c-0.738-0.08-1.622-0.01-2.417-0.034c0.132,1.444-0.165,3.127-1.589,2.542
			c-1.085-0.444-0.648-2.664-0.689-4.13c1.556-0.021,3.195,0.045,4.695-0.036C88.929,54.307,89.209,52.224,88.47,50.836z
			 M64.229,49.388c0,1.734,0,3.728,0,5.792c0,2.019-0.101,4.012,0.037,5.754c0.053,0.667,0.265,1.342,0.621,1.624
			c0.955,0.767,2.372,0.021,2.971-0.493c0.314-0.271,0.57-0.588,0.829-0.74c0,0.446,0,0.895,0,1.342
			c0.704,0.058,1.644,0.062,2.348,0c0.057-4.368,0.057-8.982,0-13.351c-0.706-0.061-1.646-0.059-2.348,0c0,3.4,0,6.806,0,10.206
			c-0.325,0.353-0.855,1.366-1.692,1.128c-0.567-0.163-0.381-1.69-0.381-2.54c0-2.96,0-6.112,0-8.794
			c-0.704-0.078-1.552-0.016-2.313-0.033C64.255,49.293,64.263,49.361,64.229,49.388z"/>
		<path d="M24.665,44.728c0.898,0,1.795,0,2.693,0c0.633,2.283,1.248,4.586,1.831,6.92c0.281-0.526,0.331-1.151,0.481-1.729
			c0.442-1.687,0.909-3.477,1.347-5.192c0.885,0,1.771,0,2.66,0c-0.857,3.052-1.844,6.209-2.76,9.322
			c-0.134,0.448-0.328,0.934-0.382,1.342c-0.154,1.163,0,2.455,0,3.671c0,1.216,0.027,2.426-0.037,3.64c-0.861,0-1.726,0-2.587,0
			c-0.22-2.454,0.169-4.951-0.035-7.309c-0.082-0.911-0.429-1.891-0.69-2.788c-0.766-2.623-1.75-5.251-2.557-7.769
			C24.627,44.783,24.625,44.734,24.665,44.728z"/>
		<path d="M36.715,49.179c1.543-0.177,2.866,0.486,3.488,1.694c0.602,1.172,0.516,3.33,0.516,5.153c0,1.885,0.113,3.917-0.516,5.124
			c-0.407,0.775-1.139,1.39-1.97,1.624c-0.73,0.203-1.881,0.148-2.622-0.218c-0.622-0.303-1.206-0.926-1.484-1.552
			c-0.473-1.046-0.45-2.866-0.45-4.555c0-2.201-0.152-4.121,0.414-5.403C34.511,50.099,35.476,49.319,36.715,49.179z M36.093,53.167
			c0,1.134,0,3.055,0,4.168c0,1.349-0.192,3.166,0.934,3.318c1.758,0.24,1.277-2.988,1.277-4.66c0-1.753,0.465-4.914-1.277-4.627
			C36.27,51.49,36.093,52.213,36.093,53.167z"/>
		<path d="M42.722,49.285c0.749,0,1.496,0,2.247,0c0.061,2.852,0.032,5.813,0.032,8.863c0,0.733-0.167,2.357,0.416,2.506
			c0.633,0.164,1.557-0.739,1.654-1.164c0.082-0.343,0-0.883,0-1.308c0-2.857-0.025-6.12,0.036-8.897
			c0.772,0.019,1.634-0.047,2.348,0.033c0,4.45,0,8.9,0,13.351c-0.714,0.062-1.667,0.063-2.382,0c0-0.447,0-0.896,0-1.342
			c-0.33,0.208-0.625,0.639-1.037,0.955c-0.801,0.612-2.586,0.97-3.14-0.215c-0.152-0.32-0.214-0.78-0.241-1.163
			c-0.127-1.721,0-3.749,0-5.756c0-2.024,0-4.044,0-5.756C42.653,49.329,42.678,49.297,42.722,49.285z"/>
		<path fill="#ED1C24" d="M76.937,60.654c-0.735,0.058-1.134-0.227-1.448-0.602c0-1.884,0-4.037,0-6.075
			c0-0.635-0.139-1.509,0-2.011c0.124-0.446,1.1-0.834,1.624-0.53c0.884,0.507,0.552,2.939,0.552,4.555c0,1.203,0.089,2.451,0,3.389
			C77.605,59.977,77.354,60.485,76.937,60.654z"/>
		<path fill="#ED1C24" d="M86.605,54.439c-0.781,0-1.564,0-2.346,0c0.04-0.875-0.114-1.996,0.241-2.615
			c0.229-0.4,0.839-0.671,1.413-0.423C86.754,51.769,86.587,53.164,86.605,54.439z"/>
	</g>
	<g>
		<path fill="#00A651" d="M17.899,101.214c-0.903,0-1.658-0.128-2.26-0.379c-0.246-0.111-0.452-0.144-0.616-0.084
			c-0.082,0.024-0.192,0.251-0.328,0.671c-0.686,2.69-1.753,5.157-3.206,7.398c-1.864,2.857-3.795,4.288-5.795,4.288
			c-1.535,0-2.686-0.646-3.453-1.935c-0.575-1.036-0.862-2.396-0.862-4.076c0-3.446,1.109-7.818,3.329-13.115
			c2.055-4.847,4.793-8.64,8.219-11.39c3.068-2.521,6.083-3.741,9.041-3.657c2.439,0.061,4.275,0.926,5.506,2.607
			c1.014,1.372,1.521,3.207,1.521,5.508c0,2.521-0.671,5.101-2.013,7.734c-1.453,2.858-3.192,4.723-5.219,5.59
			C20.501,100.934,19.214,101.214,17.899,101.214z M23.92,88.521c0.042-0.477,0.062-0.955,0.062-1.43
			c0-3.168-1.014-4.778-3.041-4.833c-2.521-0.029-5.37,2.045-8.548,6.219c-2.63,3.503-4.413,6.81-5.343,9.92
			c-1.262,4.287-1.891,7.077-1.891,8.365c0,1.147,0.354,1.724,1.068,1.724c1.342,0,2.836-2.985,4.48-8.954
			c0.438-1.708,0.889-4.567,1.355-8.573c0.056-0.477,0.282-0.841,0.679-1.094c0.397-0.252,0.787-0.504,1.171-0.757
			c0.521-0.419,1.013-0.629,1.48-0.629c0.521,0,0.808,0.322,0.863,0.966c0.054,0.757,0.047,1.76-0.02,3.006
			c-0.069,1.247-0.213,2.752-0.433,4.52c-0.082,0.56,0.068,0.869,0.453,0.922c1.863,0.144,3.519-0.726,4.973-2.605
			c1.26-1.54,2.082-3.32,2.466-5.338C23.804,89.474,23.88,88.998,23.92,88.521z"/>
		<path fill="#00A651" d="M38.817,105.082c-1.149,1.176-2.493,1.891-4.027,2.143c-0.876,0.167-1.698,0.253-2.465,0.253
			c-1.232,0-2.26-0.196-3.082-0.589c-1.097-0.619-1.644-1.668-1.644-3.152c0-0.196,0.007-0.421,0.021-0.673
			c0.014-0.252,0.035-0.547,0.061-0.883c0.219-2.241,0.959-5.632,2.219-10.172c1.013-3.642,1.959-6.598,2.836-8.868
			c0.931-2.521,2.247-3.713,3.945-3.571c0.575,0.055,1.048,0.329,1.418,0.819s0.555,1.113,0.555,1.87
			c0,0.477-0.082,0.981-0.246,1.513c-0.575,1.738-1.521,3.503-2.836,5.297c-0.164,0.225-0.452,0.812-0.863,1.767
			c-1.534,4.708-2.602,8.449-3.206,11.225c-0.191,0.783-0.286,1.33-0.286,1.639c0,0.364,0.095,0.645,0.286,0.841
			c0.384,0.389,1.316,0.589,2.796,0.589c0.52,0,1.192-0.254,2.014-0.757c0.466-0.28,0.89-0.581,1.274-0.905
			c0.383-0.32,0.712-0.677,0.985-1.071c0.137-0.168,0.248-0.126,0.33,0.126c0.191,0.477,0.26,1.023,0.206,1.639
			C39.049,104.633,38.954,104.94,38.817,105.082z"/>
		<path fill="#00A651" d="M59.652,105.082c-1.151,1.176-2.493,1.891-4.028,2.143c-0.328,0.057-0.67,0.099-1.027,0.125
			c-0.356,0.029-0.727,0.042-1.111,0.042c-1.917,0-3.226-0.257-3.923-0.777c-0.699-0.517-1.048-1.201-1.048-2.037
			c0-0.393,0.109-1.009,0.331-1.851c0.025-0.111,0.025-0.196,0-0.252c-0.057-0.028-0.132,0-0.227,0.084
			c-0.097,0.084-0.172,0.183-0.226,0.293c-0.411,0.841-1.15,1.752-2.219,2.733c-1.533,1.403-2.998,2.101-4.396,2.101
			c-1.343,0-2.384-0.461-3.124-1.386c-0.767-0.869-1.151-2.003-1.151-3.406c0-1.819,0.549-3.796,1.645-5.925
			c1.096-2.158,2.63-3.797,4.603-4.918c1.481-0.84,2.973-1.274,4.479-1.304c1.124-0.026,2.151,0.212,3.083,0.715
			c0.438,0.252,0.74,0.226,0.904-0.084c0.19-0.307,0.355-0.531,0.494-0.673c0.219-0.223,0.437-0.379,0.658-0.463
			c0.272-0.084,0.793-0.042,1.562,0.126c0.767,0.143,1.245,0.295,1.438,0.463c0.273,0.309,0.315,0.73,0.123,1.262
			c-0.385,0.841-1.15,2.579-2.3,5.213c-0.438,1.037-0.801,1.954-1.089,2.752c-0.287,0.799-0.528,1.492-0.717,2.082
			c-0.193,0.589-0.29,1.076-0.29,1.471c0,0.364,0.097,0.645,0.29,0.841c0.437,0.448,1.355,0.671,2.752,0.671
			c0.521,0,1.193-0.252,2.013-0.753c0.465-0.28,0.89-0.585,1.275-0.907s0.711-0.677,0.987-1.071c0.137-0.17,0.245-0.128,0.327,0.126
			c0.191,0.477,0.262,1.023,0.206,1.639C59.885,104.633,59.789,104.94,59.652,105.082z M50.775,94.614
			c0-0.477-0.468-0.728-1.398-0.756c-0.822-0.056-1.824,0.295-3,1.052c-1.124,0.757-2.028,1.668-2.712,2.731
			c-1.233,1.989-1.849,3.672-1.849,5.043c0,1.32,0.492,1.977,1.479,1.977c0.519,0,1.137-0.364,1.851-1.093
			c0.135-0.141,0.348-0.385,0.635-0.735c0.288-0.351,0.667-0.807,1.129-1.366c1.26-1.567,2.535-3.767,3.821-6.599
			C50.763,94.81,50.775,94.726,50.775,94.614z"/>
		<path fill="#00A651" d="M79.584,105.082c-1.151,1.176-2.495,1.891-4.027,2.143c-0.576,0.141-1.438,0.223-2.588,0.253
			c-0.769,0.056-1.276,0.168-1.522,0.336c-0.191,0.169-0.55,0.547-1.068,1.134c-0.057,0.086-0.521,1.023-1.398,2.818
			c-0.85,1.682-1.576,2.787-2.178,3.318c-1.121,0.981-2.068,1.472-2.836,1.472c-1.179,0-1.768-0.561-1.768-1.681
			c0-0.589,0.206-1.304,0.617-2.145c0.386-0.755,1.039-1.584,1.973-2.479c0.794-0.729,1.424-1.233,1.891-1.514
			c0.109-0.055,0.22-0.223,0.329-0.503c0.604-1.71,1.26-3.519,1.972-5.426c0.139-0.224,0.098-0.336-0.122-0.336
			c-0.138,0-0.262,0.098-0.369,0.294c-0.494,0.84-1.302,1.751-2.425,2.734c-1.534,1.287-2.934,1.86-4.193,1.724
			c-0.272,0-0.561-0.084-0.861-0.252c-0.302-0.168-0.583-0.381-0.842-0.631c-0.262-0.254-0.488-0.547-0.678-0.883
			c-0.189-0.337-0.313-0.686-0.37-1.05c-0.025-0.196-0.049-0.406-0.062-0.631c-0.015-0.223-0.021-0.448-0.021-0.671
			c0-2.019,0.508-4.526,1.522-7.524c0.383-1.149,0.758-2.137,1.128-2.964s0.707-1.506,1.007-2.037
			c0.247-0.422,0.644-0.673,1.191-0.757c0.139-0.029,0.268-0.05,0.391-0.062c0.123-0.013,0.237-0.021,0.348-0.021
			c0.631,0,1.261,0.238,1.893,0.713c0.355,0.28,0.384,0.661,0.081,1.134c-0.246,0.393-0.906,1.99-1.972,4.792
			c-1.122,2.998-1.697,4.737-1.727,5.214c-0.055,1.149,0.19,1.818,0.739,2.015c0.711,0.226,1.453,0.042,2.219-0.547
			c0.933-0.728,2.15-2.632,3.657-5.716c0.468-1.063,0.933-2.135,1.399-3.215c0.467-1.079,0.947-2.179,1.439-3.3
			c0.108-0.251,0.396-0.463,0.863-0.631c0.136-0.057,0.451-0.057,0.945,0c0.465,0.027,0.821,0.102,1.068,0.212
			c0.466,0.223,0.698,0.559,0.698,1.006c0,0.196-1.466,4.666-4.397,13.408c-0.026,0.196-0.068,0.338-0.123,0.422
			c0,0.059,0.028,0.112,0.082,0.169c0.027,0,0.11-0.015,0.247-0.042c0.136-0.026,0.576-0.085,1.315-0.169
			c0.108-0.025,0.327-0.042,0.658-0.042c0.355,0,0.808-0.016,1.356-0.042c0.659-0.058,1.438-0.38,2.343-0.967
			c0.794-0.559,1.438-1.149,1.932-1.767c0.138-0.168,0.248-0.126,0.33,0.126c0.189,0.477,0.26,1.023,0.204,1.641
			C79.815,104.633,79.718,104.94,79.584,105.082z"/>
		<path fill="#00A651" d="M95.447,105.082c-1.152,1.176-2.495,1.906-4.027,2.185c-1.206,0.253-2.562,0.379-4.069,0.379
			c-3.151,0-5.369-0.532-6.657-1.598c-1.48-1.262-2.219-2.998-2.219-5.212c0-1.933,0.549-4.007,1.646-6.222
			c0.793-1.599,1.903-2.786,3.327-3.571c1.178-0.673,2.397-1.011,3.657-1.011c0.713,0,1.275,0.102,1.686,0.296
			c1.591,0.701,2.384,2.059,2.384,4.077c0,0.449-0.042,0.924-0.124,1.429c-0.219,1.346-1.206,2.985-2.958,4.92
			c-0.549,0.615-1.09,1.17-1.623,1.66c-0.534,0.489-1.062,0.93-1.582,1.322c-0.138,0.141-0.206,0.225-0.206,0.252
			c0,0.112,0.164,0.251,0.494,0.421c1.204,0.701,3.11,0.925,5.714,0.673c1.697-0.17,3.137-1.065,4.314-2.691
			c0.139-0.168,0.246-0.126,0.328,0.126c0.191,0.477,0.262,1.023,0.206,1.639C95.678,104.633,95.583,104.94,95.447,105.082z
			 M85.563,94.09c-0.672,0.518-1.2,1.196-1.582,2.037c-0.877,1.877-1.317,3.448-1.317,4.708c0,0.897,0.274,1.148,0.823,0.756
			c1.836-1.178,3.232-2.606,4.193-4.288c0.601-1.039,0.903-1.893,0.903-2.563c0-0.955-0.396-1.43-1.191-1.43
			C86.842,93.312,86.233,93.572,85.563,94.09z"/>
		<path fill="#00A651" d="M112.46,105.082c-1.207,1.233-2.549,1.948-4.027,2.143c-2.495,0.421-4.336,0.347-5.528-0.21
			c-1.194-0.561-1.788-1.404-1.788-2.521c0-0.28,0.041-0.616,0.123-1.009c0.14-0.646,0.307-1.32,0.513-2.018
			c0.206-0.7,0.46-1.456,0.761-2.271c0.438-1.262,0.766-2.073,0.985-2.438c0.191-0.336,0.191-0.713,0-1.134
			c-0.189-0.393-0.739-0.841-1.643-1.346c-0.222-0.142-0.398-0.014-0.536,0.379c-0.685,1.738-1.204,3.048-1.561,3.929
			c-0.358,0.882-0.55,1.353-0.576,1.408c-1.152,2.327-2.588,4.218-4.316,5.674c-1.068,0.839-2.205,1.361-3.41,1.556
			c-0.164,0.057-0.289-0.027-0.371-0.252c-0.189-0.423-0.287-0.883-0.287-1.388c0-0.255,0.056-0.393,0.165-0.423
			c0.987-0.223,1.78-0.561,2.382-1.009c0.437-0.337,1.057-0.964,1.851-1.891c0.549-0.699,1.233-1.905,2.055-3.615
			c0.903-1.875,1.603-3.726,2.095-5.548c0.027-0.11,0.048-0.188,0.063-0.23c0.013-0.042,0.02-0.077,0.02-0.105
			c-0.028-0.168-0.124-0.421-0.288-0.755c-0.165-0.337-0.247-0.686-0.247-1.05c0-0.11,0.007-0.238,0.021-0.377
			c0.014-0.144,0.034-0.28,0.062-0.424c0.301-1.597,1.082-2.378,2.342-2.354c1.069,0.026,1.658,0.715,1.769,2.059
			c0.027,0.253-0.042,0.617-0.205,1.094c-0.056,0.168-0.056,0.294,0,0.377c0.053,0.084,0.177,0.178,0.369,0.273
			c0.19,0.099,0.452,0.225,0.781,0.379c0.328,0.154,0.74,0.372,1.233,0.651c0.987,0.561,1.646,0.982,1.973,1.26
			c0.549,0.479,0.768,1.081,0.657,1.812c-0.081,0.449-0.56,1.765-1.438,3.95c-0.438,1.065-0.775,1.928-1.008,2.583
			c-0.232,0.661-0.377,1.117-0.43,1.366c-0.164,0.813,0.15,1.302,0.945,1.472c0.329,0.084,0.986,0.101,1.972,0.042
			c0.521-0.024,1.193-0.28,2.014-0.755c0.986-0.561,1.739-1.218,2.26-1.975c0.138-0.17,0.248-0.128,0.33,0.126
			c0.19,0.477,0.259,1.023,0.205,1.639C112.69,104.633,112.596,104.94,112.46,105.082z"/>
	</g>
</g>
</svg>
