<?xml version="1.0" encoding="UTF-8" standalone="no"?>
<!-- Generator: Adobe Illustrator 14.0.0, SVG Export Plug-In . SVG Version: 6.00 Build 43363)  -->

<svg
   xmlns:dc="http://purl.org/dc/elements/1.1/"
   xmlns:cc="http://creativecommons.org/ns#"
   xmlns:rdf="http://www.w3.org/1999/02/22-rdf-syntax-ns#"
   xmlns:svg="http://www.w3.org/2000/svg"
   xmlns="http://www.w3.org/2000/svg"
   xmlns:sodipodi="http://sodipodi.sourceforge.net/DTD/sodipodi-0.dtd"
   xmlns:inkscape="http://www.inkscape.org/namespaces/inkscape"
   version="1.1"
   id="Layer_1"
   x="0px"
   y="0px"
   viewBox="0 0 1280 960"
   enable-background="new 0 0 1024.15 753.006"
   xml:space="preserve"
   inkscape:version="0.48.2 r9819"
   sodipodi:docname="emailtext.svg"
   width="100%"
   height="100%"><metadata
   id="metadata3171"><rdf:RDF><cc:Work
       rdf:about=""><dc:format>image/svg+xml</dc:format><dc:type
         rdf:resource="http://purl.org/dc/dcmitype/StillImage" /><dc:title></dc:title></cc:Work></rdf:RDF></metadata><defs
   id="defs3169" /><sodipodi:namedview
   pagecolor="#ffffff"
   bordercolor="#666666"
   borderopacity="1"
   objecttolerance="10"
   gridtolerance="10"
   guidetolerance="10"
   inkscape:pageopacity="0"
   inkscape:pageshadow="2"
   inkscape:window-width="1331"
   inkscape:window-height="828"
   id="namedview3167"
   showgrid="false"
   inkscape:zoom="0.64"
   inkscape:cx="712.57194"
   inkscape:cy="326.52147"
   inkscape:window-x="67"
   inkscape:window-y="0"
   inkscape:window-maximized="0"
   inkscape:current-layer="Layer_1"
   width="1280px"
   inkscape:document-units="pt"
   showguides="true"
   inkscape:guide-bbox="true"><sodipodi:guide
     orientation="0,1"
     position="-28,30"
     id="guide3105" /><sodipodi:guide
     orientation="1,0"
     position="25,297"
     id="guide3109" /><sodipodi:guide
     orientation="1,0"
     position="1256,412"
     id="guide3111" /><sodipodi:guide
     orientation="1,0"
     position="690.625,628.125"
     id="guide3881" /><sodipodi:guide
     orientation="0,1"
     position="685.9375,481.25"
     id="guide3883" /><sodipodi:guide
     orientation="0,1"
     position="315.625,356.25"
     id="guide3885" /></sodipodi:namedview>
<text
   transform="matrix(0.99999872,0.0016,-0.0016,0.99999872,0,0)"
   font-size="40"
   id="title"
   style="font-size:54.16666794px;font-style:normal;font-variant:normal;font-weight:normal;font-stretch:normal;text-align:center;line-height:125%;writing-mode:lr-tb;text-anchor:middle;fill:#231f20;font-family:Arial Rounded MT Bold;-inkscape-font-specification:'Arial Rounded MT Bold,'"
   x="639.85822"
   y="62.500969"
   sodipodi:linespacing="125%">Como interagir com este ecrã?</text>



<text
   transform="matrix(0.99999872,0.0016,-0.0016,0.99999872,0,0)"
   font-size="60"
   id="subtitle"
   x="639.41864"
   y="233.2859"
   style="font-size:67px;font-style:normal;font-variant:normal;font-weight:normal;font-stretch:normal;text-align:center;line-height:125%;writing-mode:lr-tb;text-anchor:middle;fill:#7bc043;font-family:Arial Rounded MT Bold;-inkscape-font-specification:'Arial Rounded MT Bold,'"
   sodipodi:linespacing="125%">Envia Email para: artes@ecra.pt</text>



<path
   clip-rule="evenodd"
   d="m 615.64957,398.80635 -557.690994,0 C 39.763596,398.80635 25,409.78871 25,423.33712 l 0,349.19369 c 0,13.55195 15.127064,21.39974 32.958576,24.53312 201.234234,35.36114 385.536424,25.38456 557.689704,0 17.94348,-2.64582 32.95986,-10.98117 32.95986,-24.53312 l 0,-349.19369 c 0,-13.54959 -14.75586,-24.53077 -32.95857,-24.53077 z"
   id="path3103"
   inkscape:connector-curvature="0"
   style="fill-rule:evenodd"
   sodipodi:nodetypes="sssssssss" />
<path
   clip-rule="evenodd"
   d="m 623.961,733.47131 c 0,16.367 -16.4912,29.63296 -36.82956,29.63296 H 86.576814 c -20.335575,0 -36.828163,-13.26596 -36.828163,-29.63296 V 453.58569 c 0,-16.36557 16.492588,-29.63438 36.828163,-29.63438 H 587.13005 c 20.33836,0 36.82956,13.26881 36.82956,29.63438 v 279.88562 z"
   id="path3105"
   inkscape:connector-curvature="0"
   style="fill:#ffffff;fill-rule:evenodd" />

<path
   d="m 582.20673,647.03816 c 0,8.27336 -5.08057,14.97644 -11.35131,14.97644 H 98.98566 c -6.270743,0 -11.35132,-6.70308 -11.35132,-14.97644 V 535.01193 c 0,-8.27098 5.080577,-14.97409 11.35132,-14.97409 h 471.86976 c 6.27074,0 11.35131,6.70311 11.35131,14.97409 v 112.02623 z"
   id="path3109"
   inkscape:connector-curvature="0"
   style="fill:none;stroke:#7bc043;stroke-width:15;stroke-miterlimit:4;stroke-dasharray:none" />
<text
   transform="matrix(0.99999872,0.0016,-0.0016,0.99999872,0,0)"
   id="buttonLabel"
   x="104.72091"
   y="603.58319"
   style="font-size:54.16666794px;font-style:normal;font-variant:normal;font-weight:normal;font-stretch:normal;text-align:start;line-height:125%;writing-mode:lr-tb;text-anchor:start;font-family:Arial Rounded MT Bold;-inkscape-font-specification:'Arial Rounded MT Bold,'"
   sodipodi:linespacing="125%"
   inkscape:transform-center-y="-37.5"><tspan
     x="104.72091"
     y="603.58319"
     font-size="24.0624"
     id="tspan3113"
     style="font-size:54.16666794px;font-style:normal;font-variant:normal;font-weight:normal;font-stretch:normal;text-align:start;line-height:125%;writing-mode:lr-tb;text-anchor:start;fill:#231f20;font-family:Arial Rounded MT Bold;-inkscape-font-specification:'Arial Rounded MT Bold,'">Escreve</tspan><tspan
     x="200.28902"
     y="603.58319"
     font-size="30"
     id="tspan3115"
     style="font-size:54.16666794px;font-style:normal;font-variant:normal;font-weight:normal;font-stretch:normal;text-align:start;line-height:125%;writing-mode:lr-tb;text-anchor:start;fill:#231f20;stroke:#ffffff;stroke-width:2.00000262;font-family:Arial Rounded MT Bold;-inkscape-font-specification:'Arial Rounded MT Bold,'" /></text>










<g
   id="g3129"
   transform="matrix(0.76786999,0,0,0.63938392,262.28024,188.19009)">
	<path
   d="m 586.622,219.657 c 0.001,1.833 -0.699,3.668 -2.099,5.067 -7.965,7.965 -12.352,18.574 -12.352,29.873 -0.001,11.302 4.386,21.91 12.351,29.875 2.799,2.799 2.798,7.338 0,10.137 -2.8,2.799 -7.336,2.799 -10.137,0 -10.672,-10.671 -16.55,-24.881 -16.55,-40.012 0,-15.129 5.879,-29.338 16.551,-40.01 2.801,-2.799 7.338,-2.799 10.137,0 1.4,1.399 2.099,3.235 2.099,5.07 l 0,0 z"
   id="path3131"
   inkscape:connector-curvature="0"
   style="fill:#7bc043" />
	<path
   d="m 603.488,233.765 c 0,1.835 -0.698,3.667 -2.099,5.069 -8.691,8.691 -8.691,22.835 0,31.527 2.799,2.8 2.799,7.339 0,10.137 -2.8,2.8 -7.338,2.8 -10.137,0 -14.282,-14.281 -14.281,-37.521 0,-51.801 2.798,-2.801 7.337,-2.801 10.138,-0.001 1.4,1.4 2.098,3.235 2.098,5.069 l 0,0 z"
   id="path3133"
   inkscape:connector-curvature="0"
   style="fill:#7bc043" />
	<circle
   clip-rule="evenodd"
   cx="611.78302"
   cy="254.631"
   r="8.5959997"
   id="circle3135"
   d="m 620.37902,254.631 c 0,4.74744 -3.84856,8.596 -8.596,8.596 -4.74744,0 -8.596,-3.84856 -8.596,-8.596 0,-4.74744 3.84856,-8.596 8.596,-8.596 4.74744,0 8.596,3.84856 8.596,8.596 z"
   sodipodi:cx="611.78302"
   sodipodi:cy="254.631"
   sodipodi:rx="8.5959997"
   sodipodi:ry="8.5959997"
   style="fill:#7bc043;fill-rule:evenodd" />
</g>

























<text
   sodipodi:linespacing="125%"
   style="font-size:54.16666794px;font-style:normal;font-variant:normal;font-weight:bold;font-stretch:normal;text-align:end;line-height:125%;writing-mode:lr-tb;text-anchor:end;font-family:Arial Rounded MT Bold;-inkscape-font-specification:'Arial Rounded MT Bold, Bold'"
   y="602.8479"
   x="564.2832"
   id="buttonReference"
   transform="matrix(0.99999872,0.0016,-0.0016,0.99999872,0,0)"><tspan
     sodipodi:role="line"
     id="tspan3128"
     x="564.2832"
     y="602.8479">Escreve</tspan></text>

<path
   style="fill:#e6e6e6"
   inkscape:connector-curvature="0"
   d="M 766.80903,720.169 H 1292 V 598.836 H 931.55711 c -10.69337,0 -19.36269,-6.717 -19.36269,-15 v -24.493 c 0,-8.284 8.66932,-15 19.36269,-15 H 1292 V 526.061 H 931.55711 c -10.69337,0 -19.36269,-6.716 -19.36269,-15 v -24.493 c 0,-8.284 8.66932,-15 19.36269,-15 H 1292 V 439.197 H 726.625 V 930 c 0,1.714 0.12392,3.407 0.30722,5.091 h 20.51412 V 735.169 c 0,-8.284 8.66932,-15 19.36269,-15 z"
   id="path4399" /><path
   style="fill:#ffffff;stroke:#000000;stroke-width:1.19705904"
   inkscape:connector-curvature="0"
   d="m 870.383,486.568 v 24.493 c 0,8.284 9.62369,15 21.49426,15 H 1292 V 471.568 H 891.87726 c -11.87057,0 -21.49426,6.716 -21.49426,15 z"
   id="path4401" /><path
   style="fill:#ffffff;stroke:#000000;stroke-width:1.19705904"
   inkscape:connector-curvature="0"
   d="m 870.383,559.343 v 24.493 c 0,8.283 9.62369,15 21.49426,15 H 1292 V 544.343 H 891.87726 c -11.87057,0 -21.49426,6.716 -21.49426,15 z"
   id="path4403" /><path
   style="fill:#ffffff;stroke:#000000;stroke-width:1.14103746"
   inkscape:connector-curvature="0"
   d="M 1292,935.092 V 720.169 H 762.2845 c -10.78549,0 -19.5295,6.716 -19.5295,15 v 199.923"
   id="path4405" /><line
   style="fill:#ffffff;stroke:#000000"
   x1="742.75494"
   y1="935.09198"
   x2="1164.613"
   y2="935.09198"
   id="line4407" /><path
   style="fill:#b3b3b3"
   inkscape:connector-curvature="0"
   d="m 818.76687,357.483 c -50.8774,0 -92.14187,30.861 -92.14187,68.941 v 12.773 H 1292 V 357.483 H 818.76687 z"
   id="path4409" /><circle
   d="m 488.379,569.77502 c 0,6.49156 -5.26245,11.754 -11.754,11.754 -6.49155,0 -11.754,-5.26244 -11.754,-11.754 0,-6.49155 5.26245,-11.754 11.754,-11.754 6.49155,0 11.754,5.26245 11.754,11.754 z"
   style="fill:#ffffff;fill-rule:evenodd"
   sodipodi:ry="11.754"
   sodipodi:rx="11.754"
   sodipodi:cy="569.77502"
   sodipodi:cx="476.625"
   clip-rule="evenodd"
   cx="476.625"
   cy="569.77502"
   r="11.754"
   id="circle4419"
   transform="translate(630.505,248.21)" /><text
   id="text4439"
   x="885.50787"
   y="710.35059"><tspan
     style="font-size:30px;font-family:Arial-BoldMT"
     x="885.50787"
     y="710.35059"
     font-size="30"
     id="tspan4441">B</tspan><tspan
     style="font-size:30px;letter-spacing:26;font-family:Arial-BoldMT"
     x="907.17291"
     y="710.35059"
     font-size="30"
     letter-spacing="26"
     id="tspan4443"> </tspan><tspan
     style="font-size:30px;font-family:TimesNewRomanPS-BoldItalicMT"
     x="942.49188"
     y="710.35059"
     font-size="30"
     id="tspan4445">I</tspan><tspan
     style="font-size:30px;letter-spacing:37;font-family:TimesNewRomanPS-BoldItalicMT"
     x="954.16693"
     y="710.35059"
     font-size="30"
     letter-spacing="37"
     id="tspan4447"> </tspan><tspan
     style="font-size:30px;font-family:TimesNewRomanPS-BoldMT"
     x="999.47687"
     y="710.35059"
     font-size="30"
     id="tspan4449">U</tspan></text>
<line
   style="fill:none;stroke:#ffffff;stroke-width:4.54461575"
   clip-rule="evenodd"
   x1="726.62494"
   y1="439.198"
   x2="1292"
   y2="439.198"
   id="line4451" /><path
   style="fill:#7bc043;fill-rule:evenodd;stroke:#ffffff;stroke-width:2"
   inkscape:connector-curvature="0"
   clip-rule="evenodd"
   d="m 1014.68,411.568 c 0,8.284 -6.716,15 -15,15 H 820.063 c -8.284,0 -15,-6.716 -15,-15 v -29.084 c 0,-8.284 6.716,-15 15,-15 H 999.68 c 8.284,0 15,6.716 15,15 v 29.084 z"
   id="path4453" /><text
   style="font-size:40px;fill:#ffffff;font-family:Arial Rounded MT Bold;-inkscape-font-specification:'Arial Rounded MT Bold,';font-weight:normal;font-style:normal;font-stretch:normal;font-variant:normal;text-anchor:start;text-align:start;writing-mode:lr;line-height:125%"
   font-size="42"
   id="text4455"
   x="858.52936"
   y="412.6832"
   sodipodi:linespacing="125%">Send</text>
<text
   style="font-size:30px;font-family:Arial-BoldMT"
   font-size="30"
   id="text4457"
   x="816.68573"
   y="526.0611">To:</text>
<text
   style="font-size:30px;font-family:Arial-BoldMT"
   font-size="30"
   id="text4459"
   x="742.75494"
   y="598.83698">Subject:</text>
<text
   style="font-size:40px;font-family:Arial Rounded MT Bold;-inkscape-font-specification:'Arial Rounded MT Bold, Bold';font-weight:bold;font-style:normal;font-stretch:normal;font-variant:normal;text-anchor:start;text-align:start;writing-mode:lr;line-height:125%"
   font-size="40"
   id="subject"
   x="885.50787"
   y="589.69147"
   sodipodi:linespacing="125%">ex3mensagem</text>
<text
   style="font-size:40px;font-family:Arial Rounded MT Bold;-inkscape-font-specification:'Arial Rounded MT Bold,';font-weight:normal;font-style:normal;font-stretch:normal;font-variant:normal;text-anchor:start;text-align:start;writing-mode:lr;line-height:125%"
   font-size="40"
   id="emailAddress"
   x="885.50787"
   y="516.91608"
   sodipodi:linespacing="125%">artes@ecra.pt</text>
<line
   style="fill:none;stroke:#000000;stroke-width:2"
   clip-rule="evenodd"
   x1="1000.366"
   y1="714.16998"
   x2="1022.466"
   y2="714.16998"
   id="line4465" /><line
   style="fill:none;stroke:#000000;stroke-width:2"
   clip-rule="evenodd"
   x1="754.47198"
   y1="714.16998"
   x2="845.13702"
   y2="714.16998"
   id="line4467" /><text
   style="font-size:21px;font-family:ArialMT"
   font-size="21"
   id="text4469"
   x="894.09283"
   y="633.40436">Attach a file</text>
<text
   style="font-size:21px;font-family:ArialMT"
   font-size="21"
   id="text4471"
   x="754.47174"
   y="710.45709">Plain Text</text>
<path
   style="fill:none;stroke:#000000;stroke-width:2;stroke-linecap:round"
   inkscape:connector-curvature="0"
   clip-rule="evenodd"
   d="m 882.307,631.656 10.934,-11.577 c 0,0 1.918,-2.74 0,-4.041 l -4.385,-3.426 c 0,0 -1.576,-1.302 -3.356,0.822 l -12.604,12.536 c 0,0 -2.398,1.645 -1.233,2.945 l 3.494,3.289 c 0,0 1.37,1.506 2.74,0 l 10.138,-10.824 c 0,0 1.233,-1.302 -0.068,-2.055 l -1.232,-0.959 c 0,0 -1.097,-1.028 -2.124,0.205 l -6.137,6.265"
   id="path4473" /><path
   style="fill:#f2f2f2;stroke:#ffffff;stroke-width:2.82604718"
   inkscape:connector-curvature="0"
   d="m 1066.7455,367.483 c -16.5401,0 -29.9495,6.716 -29.9495,15 v 29.084 c 0,8.284 13.4094,15 29.9495,15 H 1292 v -59.084 h -225.2545 z"
   id="path4475" /><line
   style="fill:#ffffff;stroke:#b3b3b3;stroke-width:1.158023"
   x1="754.47198"
   y1="732.25897"
   x2="1292"
   y2="925.078"
   id="line4477" /><line
   style="fill:#ffffff;stroke:#b3b3b3;stroke-width:1.158023"
   x1="754.47198"
   y1="924.04102"
   x2="1292"
   y2="731.22198"
   id="line4479" /></svg>