<?xml version="1.0" encoding="UTF-8" standalone="no"?>
<!-- Generator: Adobe Illustrator 14.0.0, SVG Export Plug-In . SVG Version: 6.00 Build 43363)  -->

<svg
   xmlns:dc="http://purl.org/dc/elements/1.1/"
   xmlns:cc="http://creativecommons.org/ns#"
   xmlns:rdf="http://www.w3.org/1999/02/22-rdf-syntax-ns#"
   xmlns:svg="http://www.w3.org/2000/svg"
   xmlns="http://www.w3.org/2000/svg"
   xmlns:sodipodi="http://sodipodi.sourceforge.net/DTD/sodipodi-0.dtd"
   xmlns:inkscape="http://www.inkscape.org/namespaces/inkscape"
   version="1.1"
   id="Layer_1"
   x="0px"
   y="0px"
   viewBox="0 0 1280 960"
   enable-background="new 0 0 1024.15 753.006"
   xml:space="preserve"
   inkscape:version="0.48.2 r9819"
   sodipodi:docname="smsbutton.svg"
   width="100%"
   height="100%"><metadata
   id="metadata3171"><rdf:RDF><cc:Work
       rdf:about=""><dc:format>image/svg+xml</dc:format><dc:type
         rdf:resource="http://purl.org/dc/dcmitype/StillImage" /><dc:title></dc:title></cc:Work></rdf:RDF></metadata><defs
   id="defs3169" /><sodipodi:namedview
   pagecolor="#ffffff"
   bordercolor="#666666"
   borderopacity="1"
   objecttolerance="10"
   gridtolerance="10"
   guidetolerance="10"
   inkscape:pageopacity="0"
   inkscape:pageshadow="2"
   inkscape:window-width="1331"
   inkscape:window-height="828"
   id="namedview3167"
   showgrid="false"
   inkscape:zoom="6.6014193"
   inkscape:cx="614.07703"
   inkscape:cy="322.89617"
   inkscape:window-x="184"
   inkscape:window-y="0"
   inkscape:window-maximized="0"
   inkscape:current-layer="Layer_1"
   width="1280px"
   inkscape:document-units="pt"
   showguides="true"
   inkscape:guide-bbox="true"><sodipodi:guide
     orientation="0,1"
     position="-28,30"
     id="guide3105" /><sodipodi:guide
     orientation="1,0"
     position="25,297"
     id="guide3109" /><sodipodi:guide
     orientation="1,0"
     position="1256,412"
     id="guide3111" /><sodipodi:guide
     orientation="1,0"
     position="796.875,878.125"
     id="guide3881" /><sodipodi:guide
     orientation="0,1"
     position="685.9375,481.25"
     id="guide3883" /><sodipodi:guide
     orientation="0,1"
     position="315.625,356.25"
     id="guide3885" /></sodipodi:namedview>
<text
   transform="matrix(0.99999872,0.0016,-0.0016,0.99999872,0,0)"
   font-size="40"
   id="title"
   style="font-size:54.16666794px;font-style:normal;font-variant:normal;font-weight:normal;font-stretch:normal;text-align:center;line-height:125%;writing-mode:lr-tb;text-anchor:middle;fill:#231f20;font-family:Arial Rounded MT Bold;-inkscape-font-specification:'Arial Rounded MT Bold,'"
   x="639.85822"
   y="62.500969"
   sodipodi:linespacing="125%">Como interagir com este ecrã?</text>




<text
   transform="matrix(0.99999872,0.0016,-0.0016,0.99999872,0,0)"
   font-size="60"
   id="subtitle"
   x="639.41864"
   y="233.2859"
   style="font-size:67px;font-style:normal;font-variant:normal;font-weight:normal;font-stretch:normal;text-align:center;line-height:125%;writing-mode:lr-tb;text-anchor:middle;fill:#7bc043;font-family:Arial Rounded MT Bold;-inkscape-font-specification:'Arial Rounded MT Bold,'"
   sodipodi:linespacing="125%">Envia SMS para: 963 293 869</text>




<path
   clip-rule="evenodd"
   d="m 615.64957,398.80635 -557.690994,0 C 39.763596,398.80635 25,409.78871 25,423.33712 l 0,349.19369 c 0,13.55195 15.127064,21.39974 32.958576,24.53312 201.234234,35.36114 385.536424,25.38456 557.689704,0 17.94348,-2.64582 32.95986,-10.98117 32.95986,-24.53312 l 0,-349.19369 c 0,-13.54959 -14.75586,-24.53077 -32.95857,-24.53077 z"
   id="path3103"
   inkscape:connector-curvature="0"
   style="fill-rule:evenodd"
   sodipodi:nodetypes="sssssssss" />
<path
   clip-rule="evenodd"
   d="m 623.961,733.47131 c 0,16.367 -16.4912,29.63296 -36.82956,29.63296 H 86.576814 c -20.335575,0 -36.828163,-13.26596 -36.828163,-29.63296 V 453.58569 c 0,-16.36557 16.492588,-29.63438 36.828163,-29.63438 H 587.13005 c 20.33836,0 36.82956,13.26881 36.82956,29.63438 v 279.88562 z"
   id="path3105"
   inkscape:connector-curvature="0"
   style="fill:#ffffff;fill-rule:evenodd" />


<path
   style="fill:#7bc043;fill-rule:evenodd"
   inkscape:connector-curvature="0"
   clip-rule="evenodd"
   d="m 579.57363,565.2118 c 0,-25.10084 -22.97133,-45.45531 -51.31438,-45.45531 H 142.08704 c -28.34082,0 -51.31438,20.35246 -51.31438,45.45531 v 40.54258 H 579.5713 V 565.2118 z"
   id="path3257" /><path
   style="fill:#459647"
   inkscape:connector-curvature="0"
   d="m 142.08704,649.2013 h 386.17221 c 28.34082,0 51.31438,-20.34846 51.31438,-45.4513 H 90.774891 c 0,25.10084 22.971329,45.4513 51.312149,45.4513 z"
   id="path3259" /><line
   style="fill:#7bc043;fill-rule:evenodd"
   clip-rule="evenodd"
   x1="90.774872"
   y1="605.75439"
   x2="579.57355"
   y2="605.75439"
   id="line3269" /><path
   style="fill:none;stroke:#000000;stroke-width:2.12964392"
   inkscape:connector-curvature="0"
   d="m 142.08927,661.22557 c -30.36368,0 -57.7097,-18.33205 -64.76492,-43.44692 l -0.067,0 -0.05671,-12.02628 0,-40.54258 c 0,-31.69524 29.110088,-57.48158 64.890768,-57.48158 l 386.1723,0 c 35.78068,0 64.89077,25.78634 64.89077,57.48158 l 0,52.56886 0.0279,0 c -7.05522,25.11287 -34.55272,43.44692 -64.9164,43.44692 l -386.17677,0 z"
   id="path3271"
   sodipodi:nodetypes="ccccssssccscc" /><text
   transform="matrix(0.99999872,0.0016,-0.0016,0.99999872,0,0)"
   id="buttonLabel"
   x="104.72091"
   y="603.58319"
   style="font-size:54.16666794000000351px;font-style:normal;font-variant:normal;font-weight:normal;font-stretch:normal;text-align:start;line-height:125%;writing-mode:lr-tb;text-anchor:start;font-family:Arial Rounded MT Bold;-inkscape-font-specification:'Arial Rounded MT Bold,';fill:#ffffff"
   sodipodi:linespacing="125%"
   inkscape:transform-center-y="-37.5"><tspan
     x="104.72091"
     y="603.58319"
     font-size="24.0624"
     id="tspan3113"
     style="font-size:54.16666794000000351px;font-style:normal;font-variant:normal;font-weight:normal;font-stretch:normal;text-align:start;line-height:125%;writing-mode:lr-tb;text-anchor:start;fill:#ffffff;font-family:Arial Rounded MT Bold;-inkscape-font-specification:'Arial Rounded MT Bold,'">Escreve</tspan><tspan
     x="200.28902"
     y="603.58319"
     font-size="30"
     id="tspan3115"
     style="font-size:54.16666794000000351px;font-style:normal;font-variant:normal;font-weight:normal;font-stretch:normal;text-align:start;line-height:125%;writing-mode:lr-tb;text-anchor:start;fill:#ffffff;stroke:#ffffff;stroke-width:2.00000262000000006;font-family:Arial Rounded MT Bold;-inkscape-font-specification:'Arial Rounded MT Bold,'" /></text>






<path
   clip-rule="evenodd"
   d="m 1177.9304,322.16418 c 43.1181,0 78.0696,29.19555 78.0696,65.21985 V 863.78016 C 1256,899.80329 1221.0472,929 1177.9304,929 H 834.81624 c -43.11257,0 -78.06537,-29.19671 -78.06537,-65.21984 v -476.3973 c 0,-36.02313 34.9528,-65.21985 78.06537,-65.21985 h 343.11406 z"
   id="path3119"
   inkscape:connector-curvature="0"
   style="fill-rule:evenodd" />
<path
   clip-rule="evenodd"
   d="m 1160.1763,352.5941 c 38.6499,0 69.985,23.85475 69.985,53.29073 v 389.2497 c 0,29.43473 -31.3351,53.28948 -69.985,53.28948 H 852.57465 c -38.64348,0 -69.98513,-23.85475 -69.98513,-53.28948 V 405.88358 c 0,-29.43473 31.34164,-53.29073 69.98513,-53.29073 h 307.60165 z"
   id="path3121"
   inkscape:connector-curvature="0"
   style="fill:#ffffff;fill-rule:evenodd" />
<path
   clip-rule="evenodd"
   d="m 1088.0049,885.04324 c 0,9.843 -6.051,17.826 -13.517,17.826 H 938.26291 c -7.465,0 -13.51701,-7.983 -13.51701,-17.826 l 0,0 c 0,-9.844 6.05201,-17.826 13.51701,-17.826 h 136.22599 c 7.465,0 13.516,7.982 13.516,17.826 l 0,0 z"
   id="path3123"
   inkscape:connector-curvature="0"
   style="fill:#ffffff;fill-rule:evenodd" />
<path
   clip-rule="evenodd"
   d="m 1035.527,429.86401 c 0,2.811 -2.28,5.091 -5.092,5.091 H 907.66201 c -2.815,0 -5.096,-2.28 -5.096,-5.091 l 0,0 c 0,-2.815 2.28,-5.096 5.096,-5.096 H 1030.435 c 2.812,0 5.092,2.281 5.092,5.096 l 0,0 z"
   id="path3125"
   inkscape:connector-curvature="0"
   style="fill:#ffffff;fill-rule:evenodd" />
<line
   clip-rule="evenodd"
   x1="785.65796"
   y1="498.24182"
   x2="1228.6853"
   y2="498.24182"
   id="line3127"
   style="fill:none;stroke:#b3b3b3;stroke-width:2.94695376999999992" />
<g
   id="g3129"
   transform="matrix(0.76786999,0,0,0.63938392,297.17106,158.96682)">
	<path
   d="m 586.622,219.657 c 0.001,1.833 -0.699,3.668 -2.099,5.067 -7.965,7.965 -12.352,18.574 -12.352,29.873 -0.001,11.302 4.386,21.91 12.351,29.875 2.799,2.799 2.798,7.338 0,10.137 -2.8,2.799 -7.336,2.799 -10.137,0 -10.672,-10.671 -16.55,-24.881 -16.55,-40.012 0,-15.129 5.879,-29.338 16.551,-40.01 2.801,-2.799 7.338,-2.799 10.137,0 1.4,1.399 2.099,3.235 2.099,5.07 l 0,0 z"
   id="path3131"
   inkscape:connector-curvature="0"
   style="fill:#7bc043" />
	<path
   d="m 603.488,233.765 c 0,1.835 -0.698,3.667 -2.099,5.069 -8.691,8.691 -8.691,22.835 0,31.527 2.799,2.8 2.799,7.339 0,10.137 -2.8,2.8 -7.338,2.8 -10.137,0 -14.282,-14.281 -14.281,-37.521 0,-51.801 2.798,-2.801 7.337,-2.801 10.138,-0.001 1.4,1.4 2.098,3.235 2.098,5.069 l 0,0 z"
   id="path3133"
   inkscape:connector-curvature="0"
   style="fill:#7bc043" />
	<circle
   clip-rule="evenodd"
   cx="611.78302"
   cy="254.631"
   r="8.5959997"
   id="circle3135"
   d="m 620.37902,254.631 c 0,4.74744 -3.84856,8.596 -8.596,8.596 -4.74744,0 -8.596,-3.84856 -8.596,-8.596 0,-4.74744 3.84856,-8.596 8.596,-8.596 4.74744,0 8.596,3.84856 8.596,8.596 z"
   sodipodi:cx="611.78302"
   sodipodi:cy="254.631"
   sodipodi:rx="8.5959997"
   sodipodi:ry="8.5959997"
   style="fill:#7bc043;fill-rule:evenodd" />
</g>
<text
   id="text3137"
   x="796.875"
   y="536.51282"
   style="font-size:40px;font-style:normal;font-variant:normal;font-weight:normal;font-stretch:normal;text-align:start;line-height:125%;writing-mode:lr-tb;text-anchor:start;fill:#808080;font-family:Arial Rounded MT Bold;-inkscape-font-specification:'Arial Rounded MT Bold,'"
   sodipodi:linespacing="125%"><tspan
     x="796.875"
     y="536.51282"
     font-size="24"
     id="tspan3139"
     style="font-size:40px;font-style:normal;font-variant:normal;font-weight:normal;font-stretch:normal;text-align:start;line-height:125%;writing-mode:lr-tb;text-anchor:start;fill:#808080;font-family:Arial Rounded MT Bold;-inkscape-font-specification:'Arial Rounded MT Bold,'">message: </tspan><tspan
     x="796.875"
     y="566.68384"
     font-size="30"
     id="tspan3141"
     style="font-size:40px;font-style:normal;font-variant:normal;font-weight:normal;font-stretch:normal;text-align:start;line-height:125%;writing-mode:lr-tb;text-anchor:start;fill:#808080;font-family:Arial Rounded MT Bold;-inkscape-font-specification:'Arial Rounded MT Bold,'" /></text>




<text
   id="text3147"
   x="796.875"
   y="478.75"
   style="font-size:40px;font-style:normal;font-variant:normal;font-weight:normal;font-stretch:normal;text-align:start;line-height:125%;writing-mode:lr-tb;text-anchor:start;fill:#808080;fill-opacity:1;font-family:Arial Rounded MT Bold;-inkscape-font-specification:'Arial Rounded MT Bold,'"
   sodipodi:linespacing="125%"><tspan
     x="796.875"
     y="478.75"
     font-size="24"
     id="tspan3149"
     style="font-size:40px;font-style:normal;font-variant:normal;font-weight:normal;font-stretch:normal;text-align:start;line-height:125%;writing-mode:lr-tb;text-anchor:start;fill:#808080;fill-opacity:1;font-family:Arial Rounded MT Bold;-inkscape-font-specification:'Arial Rounded MT Bold,'">to: </tspan><tspan
     x="827.52002"
     y="478.75"
     font-size="30"
     id="tspan3151"
     style="font-size:40px;font-style:normal;font-variant:normal;font-weight:normal;font-stretch:normal;text-align:start;line-height:125%;writing-mode:lr-tb;text-anchor:start;fill:#808080;fill-opacity:1;font-family:Arial Rounded MT Bold;-inkscape-font-specification:'Arial Rounded MT Bold,'" /></text>




<path
   d="m 1010.4721,848.42401 h 149.1745 c 37.956,0 68.7281,-19.024 68.7281,-42.498 v -14.004 h -217.9026 v 56.502 z"
   id="path3153"
   inkscape:connector-curvature="0"
   style="fill:#e6e6e6" />
<path
   d="m 850.95115,847.59558 h 149.76925 v -56.502 H 783.63127 v 14.004 c 0,23.473 30.14806,42.498 67.31988,42.498 z"
   id="path3155"
   inkscape:connector-curvature="0"
   style="fill:#7bc043" />

<text
   font-size="30"
   id="text3159"
   x="840.93439"
   y="835.11774"
   style="font-size:40px;font-style:normal;font-variant:normal;font-weight:normal;font-stretch:normal;text-align:start;line-height:125%;writing-mode:lr-tb;text-anchor:start;fill:#ffffff;font-family:Arial Rounded MT Bold;-inkscape-font-specification:'Arial Rounded MT Bold,'"
   sodipodi:linespacing="125%">Send</text>




<text
   font-size="30"
   id="text3161"
   x="1045.2267"
   y="834.36536"
   style="font-size:40px;font-style:normal;font-variant:normal;font-weight:normal;font-stretch:normal;text-align:start;line-height:125%;writing-mode:lr-tb;text-anchor:start;fill:#ffffff;font-family:Arial Rounded MT Bold;-inkscape-font-specification:'Arial Rounded MT Bold,'"
   sodipodi:linespacing="125%">Cancel</text>




<path
   d="M 1161.1007,351.42227 H 851.65021 c -38.87575,0 -70.40577,27.39453 -70.40577,61.1985 v 8.2267 h 450.26206 v -8.2267 c 0,-33.80397 -31.5235,-61.1985 -70.4058,-61.1985 z"
   id="path3163"
   inkscape:connector-curvature="0"
   style="fill:#7bc043" />
<text
   font-size="26"
   id="text3165"
   x="871.84424"
   y="397.65793"
   style="font-size:40px;font-style:normal;font-variant:normal;font-weight:normal;font-stretch:normal;text-align:start;line-height:125%;writing-mode:lr-tb;text-anchor:start;fill:#ffffff;font-family:Arial Rounded MT Bold;-inkscape-font-specification:'Arial Rounded MT Bold,'"
   sodipodi:linespacing="125%">New Message</text>




<text
   id="smsText1"
   x="796.875"
   y="619.76282"
   style="font-size:54.16666794px;font-style:normal;font-variant:normal;font-weight:bold;font-stretch:normal;text-align:start;line-height:125%;writing-mode:lr-tb;text-anchor:start;font-family:Arial Rounded MT Bold;-inkscape-font-specification:'Arial Rounded MT Bold, Bold'"
   sodipodi:linespacing="125%">artes.e3x </text>






<text
   id="phoneNumber"
   x="871.74609"
   y="478.75"
   style="font-size:40px;font-style:normal;font-variant:normal;font-weight:normal;font-stretch:normal;text-align:start;line-height:125%;writing-mode:lr-tb;text-anchor:start;font-family:Arial Rounded MT Bold;-inkscape-font-specification:'Arial Rounded MT Bold,'"
   sodipodi:linespacing="125%">963293869</text>



<text
   sodipodi:linespacing="125%"
   style="font-size:54.16666794000000351px;font-style:normal;font-variant:normal;font-weight:bold;font-stretch:normal;text-align:end;line-height:125%;writing-mode:lr-tb;text-anchor:end;font-family:Arial Rounded MT Bold;-inkscape-font-specification:'Arial Rounded MT Bold, Bold';fill:#ffffff"
   y="602.8479"
   x="564.2832"
   id="buttonReference"
   transform="matrix(0.99999872,0.0016,-0.0016,0.99999872,0,0)"><tspan
     sodipodi:role="line"
     id="tspan3128"
     x="564.2832"
     y="602.8479">Escreve</tspan></text>


<g
   id="g3261"
   transform="translate(1435.9755,-5.67298)">
	<text
   transform="matrix(1,0.0052,-0.0052,1,163.0596,408.4463)"
   id="text3263"><tspan
     style="font-size:33.04430008px;fill:#ffffff;font-family:ArialRoundedMTBold"
     x="0"
     y="0"
     font-size="33.0443"
     id="tspan3265">Click Me </tspan><tspan
     style="font-size:28.63839912px;fill:#ffffff;font-family:ArialRoundedMTBold"
     x="144.633"
     y="0"
     font-size="28.6384"
     id="tspan3267">(e3x)</tspan></text>

</g></svg>